<svg width="2862" height="2417" viewBox="0 0 2862 2417" fill="none" xmlns="http://www.w3.org/2000/svg">
<g opacity="0.2">
<path d="M1454.96 2416.19C2204.46 2416.19 2812.05 2372.64 2812.05 2318.93C2812.05 2265.21 2204.46 2221.67 1454.96 2221.67C705.462 2221.67 97.874 2265.21 97.874 2318.93C97.874 2372.64 705.462 2416.19 1454.96 2416.19Z" fill="#000072"/>
</g>
<path d="M14.9991 1272.26C18.2361 1277.34 23.4141 1281.26 29.9051 1282.68C69.5481 1291.34 134.453 1319.91 126.963 1413.81C123.964 1451.34 110.477 1503.94 94.479 1564.31C53.2491 1719.76 -4.89891 1926.95 55.1731 2062.81C138.617 2251.47 535.455 2417.9 855.368 2205.48L878.705 2044.09L887.194 1985.48C887.194 1985.48 859.34 2012.93 821.964 2021.37C817.385 2022.45 812.659 2023.19 807.836 2023.57C787.518 2025.2 765.281 2020.25 743.63 2002.41C701.563 1967.69 753.911 1795.22 790.227 1613.76C813.264 1498.56 829.884 1379.74 811.681 1290.26C764.842 1059.89 503.75 945.98 291.083 1002.73C127.348 1046.4 43.4801 1186.54 13.5751 1248.68C9.72706 1256.62 10.6771 1265.52 14.9991 1272.26Z" fill="white"/>
<path d="M14.9987 1272.26C15.7877 1273.48 16.6687 1274.66 17.6687 1275.7C18.2057 1276.25 18.7427 1276.8 19.3297 1277.31C21.0507 1278.85 23.0417 1280.14 25.2277 1281.12C26.6987 1281.78 28.2797 1282.33 29.9047 1282.68C69.5477 1291.34 134.453 1319.91 126.963 1413.81C123.964 1451.34 110.477 1503.94 94.4787 1564.31C129.136 1530.8 156.731 1499.42 172.486 1480.64C178.346 1473.69 189.608 1476.41 191.569 1485.27C197.48 1511.71 206.552 1546.48 211.983 1566.95C214.096 1574.88 223.928 1577.78 229.983 1572.18C247.515 1555.9 266.615 1535.91 280.941 1520.39C282.926 1518.2 284.894 1516.09 286.711 1514.08C293.047 1507.15 304.523 1510.92 305.644 1520.25C309.387 1551.2 315.722 1580.99 320.151 1599.81C322.207 1608.43 333.076 1611.16 338.982 1604.61C364.188 1576.51 394.935 1542.35 414.098 1521.02C420.638 1513.74 432.66 1518.02 433.176 1527.74C435.444 1571.04 442.739 1632.81 447.267 1668.49C448.548 1678.51 461.518 1681.59 467.192 1673.26C489.592 1640.3 512.241 1605.95 526.244 1584.54C531.379 1576.7 543.259 1578.55 545.938 1587.52C554.028 1614.77 566.864 1640.97 574.898 1656.12C578.509 1662.93 587.777 1663.97 592.822 1658.2C610.191 1638.36 627.317 1613.08 638.925 1594.77C644.239 1586.49 656.883 1588.86 658.895 1598.5C666.506 1634.84 676.905 1670.54 683.033 1690.58C685.416 1698.27 694.967 1700.85 700.895 1695.44L790.229 1613.76C813.266 1498.56 829.886 1379.74 811.683 1290.26C764.844 1059.88 503.752 945.979 291.085 1002.73C127.35 1046.4 43.4817 1186.54 13.5767 1248.68C9.72669 1256.62 10.6767 1265.52 14.9987 1272.26Z" fill="#FF7043"/>
<g opacity="0.15">
<path d="M55.1729 2062.81C138.617 2251.47 535.455 2417.9 855.368 2205.48L878.705 2044.09C855.444 2034.09 834.55 2026.07 821.965 2021.37C814.087 2018.49 809.428 2016.85 809.428 2016.85C809.428 2016.85 808.96 2019.28 807.838 2023.57C797.685 2062.42 732.617 2254.96 451.107 2213.51C138.404 2167.49 181.992 1809.4 271.859 1550.25C275.389 1540.11 278.408 1530.13 280.94 1520.4C266.614 1535.91 247.515 1555.9 229.982 1572.18C223.927 1577.78 214.095 1574.88 211.982 1566.95C206.551 1546.48 197.479 1511.71 191.568 1485.27C189.607 1476.41 178.345 1473.69 172.485 1480.64C156.73 1499.42 129.135 1530.81 94.4779 1564.31C53.2489 1719.76 -4.89908 1926.95 55.1729 2062.81Z" fill="#000072"/>
</g>
<path d="M14.999 1272.26C15.788 1273.48 16.669 1274.66 17.669 1275.7C18.206 1276.25 18.743 1276.8 19.33 1277.31C21.051 1278.85 23.042 1280.14 25.228 1281.12C26.699 1281.78 28.238 1282.32 29.905 1282.68C69.548 1291.34 134.453 1319.91 126.963 1413.81C123.964 1451.34 110.477 1503.94 94.479 1564.31C129.136 1530.8 156.731 1499.42 172.486 1480.64C178.346 1473.69 189.608 1476.41 191.569 1485.27C197.48 1511.71 206.552 1546.48 211.983 1566.95C214.096 1574.88 223.928 1577.78 229.983 1572.18C247.515 1555.9 266.615 1535.91 280.941 1520.39C336.201 1308.12 166.698 1188.29 14.999 1272.26Z" fill="#FA531E"/>
<g opacity="0.6">
<path d="M781.814 1653.65C804.851 1538.45 821.471 1419.63 803.268 1330.15C756.429 1099.78 495.337 985.871 282.67 1042.62C133.092 1082.51 50.1964 1202.88 14.1754 1270.78C10.6064 1264.25 9.9984 1256.06 13.5764 1248.68C43.4814 1186.54 127.349 1046.4 291.084 1002.73C503.751 945.979 764.844 1059.88 811.682 1290.26C829.884 1379.74 813.265 1498.56 790.228 1613.76C786.507 1632.35 782.616 1650.83 778.677 1669.1C779.733 1663.96 780.782 1658.81 781.814 1653.65Z" fill="white"/>
</g>
<g opacity="0.6">
<path d="M113.72 1488.62C107.783 1521.31 97.5872 1560.72 86.0652 1604.2C73.6592 1650.98 59.7372 1702.45 47.9492 1755.23C61.0552 1688.64 78.9623 1622.81 94.4783 1564.31C101.637 1537.3 108.282 1511.86 113.72 1488.62Z" fill="white"/>
</g>
<path d="M528.446 2315.74C457.11 2315.74 395.995 2303.57 352.574 2291.34C210.372 2251.26 89.6692 2163.4 45.0672 2067.51C-15.8308 1936.56 36.5391 1739.38 78.6191 1580.95C96.6001 1513.24 112.13 1454.77 115.838 1412.81C122.991 1331.82 71.7581 1303.26 27.5181 1293.56C17.0371 1291.27 8.31912 1284.39 3.59712 1274.69C-1.17088 1264.9 -1.19988 1253.66 3.51612 1243.86C32.7421 1183.16 118.985 1037.09 288.225 991.942C407.959 960.004 543.013 980.333 649.492 1046.33C740.971 1103.02 802.446 1188.86 822.593 1288.03C847.549 1410.86 809.514 1582.21 775.957 1733.4C750.022 1850.25 723.203 1971.07 750.742 1993.79C811.094 2043.59 876.604 1980.27 879.363 1977.55C882.776 1974.19 887.952 1973.39 892.227 1975.54C896.502 1977.7 898.919 1982.35 898.233 1987.09L866.414 2207.1C865.96 2210.24 864.187 2213.04 861.543 2214.79C744.298 2292.64 626.691 2315.74 528.446 2315.74ZM403.424 999.393C366.361 999.393 329.466 1004.03 293.978 1013.5C133.675 1056.26 51.5051 1195.61 23.6192 1253.54C21.8782 1257.15 21.8901 1261.3 23.6531 1264.92C25.3691 1268.45 28.5212 1270.94 32.2962 1271.77C67.2202 1279.43 147.433 1308.69 138.06 1414.77C134.183 1458.65 118.426 1517.98 100.179 1586.67C59.0241 1741.63 7.80615 1934.48 65.2962 2058.1C107.274 2148.35 222.413 2231.48 358.626 2269.86C457.459 2297.72 651.468 2325.25 845.052 2198.94L872.137 2011.67C837.823 2034.06 784.368 2050.45 736.548 2011C698.462 1979.58 721.831 1874.29 754.177 1728.56C785.617 1586.92 824.743 1410.65 800.732 1292.47C781.821 1199.39 723.937 1118.71 637.741 1065.29C567.968 1022.05 485.311 999.393 403.424 999.393Z" fill="#000072"/>
<path d="M1884.03 1752.71C1879.61 1758.38 1875.05 1763.92 1870.36 1769.29C1759.01 1898.24 1588.54 1951.55 1588.54 1951.55C1588.54 1951.55 1565.66 1834.12 1556.5 1730.37C1554.17 1704.09 1552.7 1678.71 1552.74 1656.32C1552.83 1545.46 1561.28 1402.07 1625.67 1463.51C1690.06 1524.95 1718.52 1594.84 1718.52 1594.84C1772.77 1550.2 1813.7 1552.52 1813.7 1552.52L1815.04 1556.36L1869.42 1711.15L1884.03 1752.71Z" fill="white"/>
<g opacity="0.15">
<path d="M1870.36 1769.29C1759.01 1898.24 1588.54 1951.55 1588.54 1951.55C1588.54 1951.55 1565.66 1834.12 1556.5 1730.37C1608.87 1682.11 1656.05 1640.64 1656.05 1640.64C1656.05 1640.64 1606.86 1764.28 1656.05 1768.12C1694.57 1771.16 1721.38 1718.75 1731.26 1695.78C1737.65 1732.15 1760.26 1763.34 1799.09 1773.04C1810.75 1775.99 1823.13 1779.03 1835.77 1782.11C1854.72 1777.82 1867.86 1767.86 1867.86 1767.86C1868.71 1768.35 1869.56 1768.84 1870.36 1769.29Z" fill="#000072"/>
</g>
<path d="M1723.45 1601.8L1676 1627.59C1673.73 1628.9 1671.4 1625.58 1673.4 1623.9L1713.61 1587.85C1723.38 1579.8 1734.32 1595.27 1723.45 1601.8Z" fill="#000072"/>
<path d="M1588.53 1960.07C1587 1960.07 1585.49 1959.66 1584.16 1958.87C1582.07 1957.62 1580.62 1955.55 1580.15 1953.17C1579.79 1951.32 1544.06 1766.74 1544.19 1656.31C1544.35 1521.04 1557.59 1455.08 1587.15 1442.45C1600.36 1436.8 1615.3 1441.82 1631.57 1457.35C1682.66 1506.1 1711.33 1559.39 1721.82 1581.36C1773.67 1542.21 1812.49 1543.92 1814.19 1544C1818.9 1544.26 1822.5 1548.29 1822.23 1553C1821.97 1557.69 1817.9 1561.24 1813.27 1561.04C1812.56 1561.03 1774.25 1560.02 1723.96 1601.41C1721.86 1603.14 1719.07 1603.76 1716.45 1603.1C1713.82 1602.43 1711.66 1600.56 1710.63 1598.05C1710.35 1597.36 1682 1529.06 1619.79 1469.7C1612.31 1462.56 1601.74 1454.77 1593.86 1458.15C1579.08 1464.46 1561.43 1503.97 1561.26 1656.33C1561.15 1750.74 1587.8 1900.99 1595.09 1940.26C1633.4 1926.54 1783.68 1866.98 1877.31 1747.45C1880.22 1743.74 1885.59 1743.09 1889.3 1746C1893.01 1748.9 1893.66 1754.27 1890.75 1757.98C1779.95 1899.42 1598.73 1957.29 1591.08 1959.68C1590.24 1959.94 1589.38 1960.07 1588.53 1960.07Z" fill="#000072"/>
<path d="M2017.06 1710.48C2012.41 1741.4 1991.59 1765.4 1950.75 1767.86C1950.75 1767.86 1923.89 1799.31 1870.36 1769.29C1869.56 1768.84 1868.71 1768.35 1867.86 1767.86C1867.86 1767.86 1854.72 1777.82 1835.77 1782.11C1823.13 1779.03 1810.75 1775.99 1799.09 1773.04C1760.26 1763.34 1737.65 1732.15 1731.26 1695.78C1725.9 1665.53 1731.79 1631.66 1748.91 1603.64C1765.89 1575.8 1791.76 1562.53 1815.04 1556.36C1833.9 1551.4 1851.1 1551.09 1860.44 1551.4C1861.51 1551.45 1862.41 1551.49 1863.25 1551.58C1866.2 1551.72 1867.86 1551.9 1867.86 1551.9C1891.76 1553.95 1915.27 1559.63 1938.15 1571.24C1993.29 1599.08 2024.21 1662.98 2017.06 1710.48Z" fill="#FF7043"/>
<path d="M1972.95 1684.03C1972.95 1684.03 1970.81 1727.42 1931.93 1733.81C1893.06 1740.15 1892.75 1683.13 1892.75 1683.13C1892.75 1683.13 1888.14 1698.42 1869.42 1711.15C1857.27 1719.42 1839.17 1726.61 1812.54 1727.86C1744.75 1731.04 1735.41 1685.23 1735.41 1685.23C1735.41 1685.23 1733.98 1689.35 1731.26 1695.78C1737.65 1732.15 1760.26 1763.34 1799.09 1773.04C1810.75 1775.99 1823.13 1779.03 1835.77 1782.11C1854.72 1777.82 1867.86 1767.86 1867.86 1767.86C1868.71 1768.35 1869.55 1768.84 1870.36 1769.29C1923.89 1799.31 1950.75 1767.86 1950.75 1767.86C1991.59 1765.4 2012.41 1741.4 2017.06 1710.48C1975.32 1742.34 1972.95 1684.03 1972.95 1684.03Z" fill="#FA531E"/>
<path d="M1760.97 1766.14C1756.6 1759.88 1752.87 1753.52 1749.37 1746.79C1745.97 1740.11 1742.47 1733.39 1741.12 1725.68C1741.07 1725.38 1741.26 1725.1 1741.56 1725.05C1747.85 1729.46 1752.62 1735.37 1758.09 1740.26C1758.11 1740.28 1773.83 1754.91 1773.85 1754.93C1782.65 1763.81 1768.57 1776.09 1760.97 1766.14Z" fill="#000072"/>
<path d="M1863.76 1760.36C1879.96 1746.43 1884.12 1720.09 1889.42 1699.74C1889.5 1699.34 1890.13 1699.32 1890.21 1699.74C1892.99 1712.26 1893.79 1725.09 1891.78 1737.9C1889.63 1751.68 1884.37 1767.14 1871.96 1775.33C1862.04 1780.55 1854.01 1765.93 1863.76 1760.36Z" fill="#000072"/>
<path d="M1946.9 1760.36C1963.1 1746.43 1967.27 1720.09 1972.57 1699.74C1972.64 1699.34 1973.27 1699.32 1973.35 1699.74C1976.14 1712.26 1976.94 1725.09 1974.93 1737.9C1972.78 1751.68 1967.52 1767.14 1955.1 1775.33C1945.18 1780.55 1937.15 1765.93 1946.9 1760.36Z" fill="#000072"/>
<path d="M1818.82 1792.43C1800.82 1792.43 1780.47 1786.23 1761.28 1766.48C1757.99 1763.1 1758.07 1757.69 1761.45 1754.41C1764.83 1751.12 1770.23 1751.2 1773.52 1754.58C1814.54 1796.79 1860.75 1762.53 1862.7 1761.05C1865.46 1758.96 1869.2 1758.74 1872.18 1760.49C1920.63 1788.96 1944.01 1762.57 1944.25 1762.3C1945.75 1760.54 1947.91 1759.47 1950.22 1759.33C1990.53 1756.88 2003.84 1732.91 2007.91 1713.23C2016.69 1670.74 1989.22 1606.6 1934.33 1578.84C1887.05 1554.93 1836 1557.58 1787.88 1564.01C1783.2 1564.61 1778.92 1561.35 1778.29 1556.68C1777.67 1552.01 1780.95 1547.71 1785.62 1547.09C1836.47 1540.29 1890.6 1537.59 1942.04 1563.61C2005.91 1595.92 2034.64 1668.22 2024.62 1716.69C2017.48 1751.24 1992 1772.76 1954.5 1776.12C1945.82 1783.98 1916.78 1804.12 1868.18 1777.83C1859.73 1782.94 1841.07 1792.43 1818.82 1792.43Z" fill="#000072"/>
<path d="M1857.18 2233.51C1809.01 2308.09 1748.15 2317.21 1656.14 2318.28C1645.6 2318.46 1634.65 2318.46 1623.25 2318.46H1259.92C1244.73 2318.46 1235.84 2318.46 1235.84 2318.46C1235.84 2318.46 1174.17 2320.6 1097.23 2308.67C1087.08 2307.11 1076.67 2305.28 1066.08 2303.22C1039.63 2297.95 1012.15 2290.98 985.382 2281.59C979.528 2279.58 973.764 2277.44 968 2275.16C968 2275.16 967.911 2275.11 967.776 2275.07H967.731C967.642 2275.03 967.552 2274.98 967.463 2274.94C925.638 2258.49 886.45 2235.79 856.377 2204.6C840.38 2187.98 827.466 2167.38 817.367 2143.65C804.855 2114.25 796.633 2080.07 792.254 2042.85C788.903 2014.02 787.785 1983.33 788.769 1951.6C788.769 1951.55 788.769 1951.55 788.769 1951.55C793.908 1780.81 858.432 1579.42 945.299 1468.96C1085.92 1290 1167.25 1217.66 1167.25 1217.66L1561.27 1402.07C1561.27 1402.07 1651.67 1446.04 1631.79 1844.31C1631.79 1844.31 1751.59 1851.95 1786.71 2006.38C1787.11 2007.95 1787.42 2009.55 1787.78 2011.16C1787.78 2011.16 1843.32 1947.35 1902.89 1980.47C1911.56 1985.29 1918.03 1991.82 1922.64 1999.72C1952.85 2051.29 1903.69 2161.39 1857.18 2233.51Z" fill="white"/>
<path d="M969.429 2120.51C1007.28 2090.61 1009.11 2043.74 984.711 2026.53C960.313 2009.38 882.562 2024.75 883.5 2132.12C883.589 2142.67 884.483 2152.55 886.047 2161.75C899.095 2240.4 958.972 2270.96 967.06 2274.76C925.369 2258.36 886.36 2235.7 856.376 2204.6C840.379 2187.98 827.465 2167.38 817.366 2143.65C816.83 2130.29 816.919 2116.17 818.036 2101.74C818.036 2101.69 818.036 2101.69 818.036 2101.69C820.359 2070.24 827.42 2037.26 842.791 2007.59C890.156 1916.25 1017.1 1885.42 1058.8 1984.98C1099.51 2082.12 972.825 2119.52 969.429 2120.51Z" fill="#FF7043"/>
<path d="M1066.08 2303.22C1039.63 2297.95 1012.15 2290.98 985.382 2281.59C977.83 2241.74 989.627 2211.35 1006.07 2189.41C1028.95 2158.89 1060.85 2144.73 1062.37 2144.06C1054.29 2158.04 1048.7 2171.4 1045.08 2184C1027.48 2244.33 1054.2 2287.72 1066.08 2303.22Z" fill="#FF7043"/>
<path d="M1410.06 2094.32C1409.62 2100.76 1408.72 2107.19 1407.38 2113.58C1407.34 2113.63 1407.34 2113.67 1407.34 2113.71C1394.65 2175.51 1343.39 2235.61 1287.05 2296.03C1278.69 2304.96 1269.53 2312.38 1259.92 2318.46C1244.73 2318.46 1235.84 2318.46 1235.84 2318.46C1235.84 2318.46 1174.17 2320.6 1097.23 2308.67C1102.14 2297.77 1117.25 2286.47 1131.99 2275.16C1140.39 2268.77 1144.86 2259.21 1148.03 2248.31V2248.26C1151.61 2236.06 1153.57 2222.21 1157.64 2209.3C1157.68 2209.25 1157.68 2209.16 1157.73 2209.12C1160.14 2201.34 1163.36 2193.92 1168.14 2187.4C1168.72 2186.6 1169.3 2185.79 1169.93 2184.94C1189.5 2158.04 1213.63 2121.04 1242.9 2079.89C1273.01 2037.48 1294.86 2026.54 1294.86 2026.54C1386.34 1965.09 1414.89 2025.64 1410.06 2094.32Z" fill="#FF7043"/>
<path d="M1931.94 2039.9C1931.94 2059.82 1927.2 2082.7 1919.51 2106.43C1918.31 2110.09 1917.06 2113.8 1915.72 2117.51C1914.73 2120.24 1913.7 2122.96 1912.68 2125.73C1910.44 2131.54 1908.07 2137.35 1905.57 2143.16C1902.85 2149.55 1899.94 2155.99 1896.9 2162.33C1891.9 2172.88 1886.54 2183.33 1881 2193.43C1878.81 2197.5 1876.57 2201.47 1874.29 2205.41C1873.18 2207.37 1872.01 2209.29 1870.9 2211.26C1868.62 2215.1 1866.34 2218.9 1864.06 2222.61C1861.74 2226.32 1859.46 2229.98 1857.18 2233.51C1809.01 2308.09 1748.15 2317.21 1656.14 2318.28C1655.65 2310.15 1657.44 2299.56 1659.81 2285.93C1667 2244.33 1692.34 2211.8 1695.02 2187.4C1696.27 2176.32 1702.08 2160.81 1708.02 2147.23C1715.21 2130.83 1722.63 2117.2 1722.63 2117.2C1740.1 2070.59 1767.67 2030.65 1786.71 2006.38C1787.11 2007.95 1787.43 2009.55 1787.78 2011.16C1787.78 2011.16 1843.33 1947.35 1902.89 1980.47C1911.56 1985.29 1918.04 1991.82 1922.6 1999.72H1922.64C1922.73 1999.86 1922.77 1999.95 1922.82 2000.08C1923.35 2000.93 1923.85 2001.82 1924.29 2002.76C1926.12 2006.34 1927.6 2010.18 1928.72 2014.29C1929.07 2015.54 1929.43 2016.84 1929.7 2018.18C1930.1 2019.88 1930.41 2021.57 1930.68 2023.32C1930.95 2024.75 1931.13 2026.22 1931.26 2027.7C1931.35 2028.28 1931.4 2028.9 1931.44 2029.48C1931.62 2031.05 1931.71 2032.7 1931.8 2034.35C1931.89 2036.19 1931.94 2038.02 1931.94 2039.9Z" fill="#FF7043"/>
<g opacity="0.15">
<path d="M1713.16 2133.15C1711.28 2137.84 1709.54 2142.58 1708.02 2147.23C1702.08 2160.81 1696.27 2176.32 1695.02 2187.4C1692.34 2211.8 1667 2244.33 1659.81 2285.93C1657.44 2299.56 1655.65 2310.15 1656.14 2318.28C1645.6 2318.46 1634.65 2318.46 1623.25 2318.46H1259.92C1269.53 2312.38 1278.69 2304.96 1287.05 2296.03C1343.4 2235.61 1394.65 2175.51 1407.34 2113.71C1406.31 2138.47 1413.77 2178.33 1472.13 2180.7C1557.08 2184.09 1600.47 2081.23 1600.47 2081.23C1600.47 2081.23 1574.55 2196.11 1631.79 2202.19C1658.55 2205 1688.67 2170.6 1713.16 2133.15Z" fill="#000072"/>
</g>
<g opacity="0.15">
<path d="M985.382 2281.59C979.528 2279.58 973.764 2277.44 968 2275.16C968 2275.16 967.911 2275.11 967.776 2275.07H967.731C967.642 2275.02 967.552 2274.98 967.463 2274.94C967.329 2274.89 967.195 2274.85 967.061 2274.76C958.973 2270.96 899.096 2240.39 886.048 2161.75C899.766 2169.03 915.272 2175.42 932.877 2180.7C957.856 2188.16 982.387 2190.66 1006.07 2189.41C989.627 2211.35 977.83 2241.74 985.382 2281.59Z" fill="#000072"/>
</g>
<path d="M818.038 2101.74C816.921 2116.17 816.831 2130.29 817.368 2143.65C804.856 2114.25 796.634 2080.07 792.255 2042.84C797.036 2062.01 805.035 2082.35 818.038 2101.69C818.038 2101.69 818.038 2101.69 818.038 2101.74Z" fill="#EDDAE7"/>
<path d="M967.061 2274.76C925.37 2258.36 886.361 2235.7 856.377 2204.6C840.38 2187.98 827.466 2167.38 817.367 2143.65C816.831 2130.29 816.92 2116.17 818.037 2101.74C833.096 2124.08 854.857 2145.17 886.047 2161.75C899.096 2240.4 958.973 2270.96 967.061 2274.76Z" fill="#FA531E"/>
<g opacity="0.15">
<path d="M1269.08 2028.63L1253.89 2064.7C1253.89 2064.7 1201.03 2129.22 1169.93 2184.94C1169.3 2185.79 1168.72 2186.59 1168.14 2187.4C1163.36 2193.92 1160.14 2201.34 1157.73 2209.12C1157.69 2209.16 1157.69 2209.25 1157.64 2209.3C1150.81 2224.71 1146.92 2238.34 1148.04 2248.26V2248.3C1144.86 2259.21 1140.39 2268.77 1131.99 2275.16C1117.25 2286.46 1102.14 2297.77 1097.23 2308.67C1087.09 2307.11 1076.67 2305.28 1066.08 2303.22C1054.2 2287.72 1027.48 2244.33 1045.08 2184C1173.5 2155.36 1269.08 2028.63 1269.08 2028.63Z" fill="#000072"/>
</g>
<path d="M1066.08 2303.22C1039.63 2297.95 1012.15 2290.98 985.382 2281.59C977.83 2241.74 989.627 2211.35 1006.07 2189.41C1019.34 2188.74 1032.39 2186.86 1045.08 2184C1027.48 2244.33 1054.2 2287.72 1066.08 2303.22Z" fill="#FA531E"/>
<path d="M1169.93 2184.94C1165.28 2193.3 1161.13 2201.43 1157.73 2209.12C1160.14 2201.34 1163.36 2193.92 1168.14 2187.4C1168.72 2186.59 1169.3 2185.79 1169.93 2184.94Z" fill="#EDDAE7"/>
<path d="M1410.06 2094.32C1410.06 2094.32 1407.83 2102.36 1407.38 2113.58C1407.34 2113.63 1407.34 2113.67 1407.34 2113.71C1394.65 2175.51 1343.39 2235.61 1287.05 2296.03C1278.69 2304.96 1269.53 2312.38 1259.92 2318.46C1244.73 2318.46 1235.84 2318.46 1235.84 2318.46C1235.84 2318.46 1174.17 2320.6 1097.23 2308.67C1102.14 2297.77 1117.25 2286.47 1131.99 2275.16C1140.39 2268.77 1144.86 2259.21 1148.03 2248.31C1153.44 2296.03 1246.7 2097.5 1317.52 2061.88C1388.35 2026.27 1410.06 2027.43 1410.06 2094.32Z" fill="#FA531E"/>
<path d="M1931.94 2039.9C1931.94 2059.82 1927.2 2082.7 1919.51 2106.43C1918.31 2110.09 1917.06 2113.8 1915.72 2117.51C1914.73 2120.24 1913.7 2122.96 1912.68 2125.73C1910.44 2131.5 1908.07 2137.35 1905.57 2143.16C1902.8 2149.55 1899.9 2155.99 1896.9 2162.33C1891.85 2172.88 1886.49 2183.33 1881 2193.43C1878.76 2197.45 1876.53 2201.47 1874.29 2205.41C1873.18 2207.37 1872.01 2209.29 1870.9 2211.26C1868.62 2215.1 1866.34 2218.9 1864.06 2222.61C1861.74 2226.32 1859.46 2229.98 1857.18 2233.51C1809.01 2308.09 1748.15 2317.21 1656.14 2318.28C1655.65 2310.15 1657.44 2299.56 1659.81 2285.93C1667 2244.33 1692.34 2211.8 1695.02 2187.4C1696.27 2176.32 1702.08 2160.81 1708.02 2147.23C1700.25 2171.09 1697.74 2193.43 1707.71 2206.97C1737.51 2247.5 1763.97 1960.94 1922.6 1999.72H1922.64C1922.73 1999.86 1922.77 1999.95 1922.82 2000.08C1923.35 2000.93 1923.85 2001.82 1924.29 2002.76C1926.12 2006.34 1927.6 2010.18 1928.72 2014.29C1929.07 2015.54 1929.43 2016.84 1929.7 2018.18C1930.1 2019.88 1930.41 2021.57 1930.68 2023.32C1930.95 2024.75 1931.13 2026.22 1931.26 2027.7C1931.35 2028.28 1931.4 2028.9 1931.44 2029.48C1931.62 2031.05 1931.71 2032.7 1931.8 2034.35C1931.89 2036.19 1931.94 2038.02 1931.94 2039.9Z" fill="#FA531E"/>
<path d="M1330.96 2197.71C1349.5 2165.6 1351.36 2131.96 1335.12 2122.58C1318.88 2113.2 1290.68 2131.63 1272.14 2163.75C1253.6 2195.86 1251.73 2229.5 1267.97 2238.88C1284.22 2248.26 1312.42 2229.82 1330.96 2197.71Z" fill="#EDDAE7"/>
<path d="M1323.85 2096.63C1315.39 2111.28 1302.53 2119.69 1295.12 2115.41C1287.71 2111.13 1288.56 2095.79 1297.02 2081.14C1305.48 2066.49 1318.34 2058.08 1325.75 2062.36C1333.16 2066.64 1332.31 2081.98 1323.85 2096.63Z" fill="#EDDAE7"/>
<path d="M1372.32 2096.68C1380.77 2082.03 1381.62 2066.68 1374.21 2062.4C1366.81 2058.13 1353.94 2066.53 1345.48 2081.18C1337.02 2095.83 1336.17 2111.18 1343.58 2115.46C1350.99 2119.73 1363.86 2111.33 1372.32 2096.68Z" fill="#EDDAE7"/>
<path d="M1381.57 2148.27C1373.98 2161.41 1362.44 2168.96 1355.8 2165.12C1349.15 2161.28 1349.91 2147.52 1357.5 2134.37C1365.09 2121.23 1376.63 2113.69 1383.27 2117.53C1389.92 2121.36 1389.16 2135.13 1381.57 2148.27Z" fill="#EDDAE7"/>
<path d="M1851.01 2176.05C1866.59 2142.39 1865.83 2108.91 1849.31 2101.27C1832.8 2093.62 1806.78 2114.71 1791.2 2148.36C1775.62 2182.01 1776.38 2215.49 1792.9 2223.14C1809.41 2230.79 1835.43 2209.7 1851.01 2176.05Z" fill="#EDDAE7"/>
<path d="M1836.29 2076.77C1843.4 2061.41 1843.05 2046.14 1835.52 2042.65C1827.98 2039.16 1816.12 2048.78 1809.01 2064.13C1801.9 2079.49 1802.25 2094.76 1809.78 2098.25C1817.32 2101.74 1829.19 2092.12 1836.29 2076.77Z" fill="#EDDAE7"/>
<path d="M1883.51 2071.88C1890.61 2056.53 1890.27 2041.26 1882.73 2037.77C1875.2 2034.28 1863.33 2043.9 1856.22 2059.25C1849.11 2074.61 1849.46 2089.88 1857 2093.37C1864.53 2096.85 1876.4 2087.24 1883.51 2071.88Z" fill="#EDDAE7"/>
<path d="M1896.38 2122.06C1902.76 2108.29 1902.45 2094.59 1895.69 2091.46C1888.93 2088.33 1878.28 2096.96 1871.91 2110.73C1865.53 2124.5 1865.84 2138.2 1872.6 2141.33C1879.36 2144.46 1890.01 2135.83 1896.38 2122.06Z" fill="#EDDAE7"/>
<path d="M1237.54 2308.77C1276.04 2304.73 1316.72 2255.73 1339.77 2225.41C1361.58 2196.06 1382.68 2164.77 1394.72 2130.17C1404.17 2101.84 1410.12 2070.14 1398.75 2042.29C1374.13 1989.46 1307.95 2026.26 1275.09 2052.1C1269.01 2057.1 1259.23 2052.33 1259.25 2044.58C1259 2034.58 1257.59 2023.65 1255.9 2013.24C1244.02 1939.23 1200.74 1874.32 1124.21 1857.61C1063.15 1844.6 994.839 1849.56 942.4 1886.07C925.288 1898.1 909.519 1913.15 897.874 1930.9C897.188 1932.25 895.423 1932.73 894.163 1931.89C893.124 1931.21 892.744 1929.9 893.192 1928.79C913.183 1880.99 960.79 1848.9 1010.33 1837.9L1027.1 1834.48C1033.44 1833.59 1046.49 1832.56 1052.55 1831.88C1057.65 1831.98 1072.66 1831.62 1078.03 1831.69C1089.32 1832.33 1100.51 1833.35 1111.78 1834.5C1219.57 1847.32 1277.48 1941.99 1278.91 2044.39L1263.07 2036.54C1289.84 2016.37 1321.22 1996.88 1356.46 1995.82C1398.81 1994.46 1423.41 2029.89 1424.45 2069.38C1426.2 2127.11 1397.54 2178.6 1365.27 2223.97C1338.69 2260.92 1283.92 2330.3 1234.13 2328.14C1221.38 2325.55 1224.8 2306.8 1237.54 2308.77Z" fill="#000072"/>
<path d="M1276.87 2050.31C1264.69 2064.57 1247.4 2086.18 1235.43 2101.07C1221.78 2118.21 1208.25 2135.47 1194.82 2152.82C1193.89 2154.02 1192.16 2154.24 1190.96 2153.31C1189.84 2152.45 1189.58 2150.88 1190.3 2149.7C1201.8 2130.99 1213.42 2112.34 1225.19 2093.78C1235.77 2077.29 1250.32 2054.34 1261.28 2038.33C1269.34 2027.25 1285.51 2039.6 1276.87 2050.31Z" fill="#000072"/>
<path d="M1586.29 2130.4C1575.27 2210.81 1520.16 2328.69 1425.72 2328.11C1413.74 2327.73 1412.84 2310.2 1424.67 2308.58C1432.16 2307.78 1440.35 2307.2 1447.66 2305.13C1449.72 2304.84 1452.75 2303.75 1454.71 2302.94C1525.09 2275.79 1553.79 2192.75 1586.29 2130.4Z" fill="#000072"/>
<path d="M1641.6 1844.77C1636.02 1884.86 1628.4 1924.48 1619.58 1963.9C1621.34 1933.81 1622.29 1903.77 1622.32 1873.67C1622.32 1863.68 1622.25 1853.58 1621.95 1843.75C1622.04 1829.7 1642.95 1830.74 1641.6 1844.77Z" fill="#000072"/>
<path d="M1793.51 2019.19C1756.92 2056.88 1736.51 2107.37 1708.82 2151.74C1708.15 2152.91 1706.16 2152.14 1706.56 2150.79C1709.98 2137.54 1714.15 2124.53 1719.03 2111.8C1729.13 2086.28 1740.51 2061.34 1754.83 2037.75C1762.56 2025.4 1770.67 2012.68 1782.08 2003.18C1792.72 1995.86 1803.91 2011.49 1793.51 2019.19Z" fill="#000072"/>
<path d="M1221.61 2328.48C1164.63 2328.48 954.582 2320.77 849.289 2211.4C786.13 2145.8 763.847 2014.17 788.159 1850.28C810.412 1700.24 867.656 1551.8 937.553 1462.87C1077.12 1285.29 1159.9 1211.04 1160.72 1210.31C1163.66 1207.7 1167.87 1207.08 1171.42 1208.75L1565.46 1393.16C1565.51 1393.18 1565.55 1393.2 1565.6 1393.23C1569.5 1395.12 1660.21 1443.92 1642.02 1835.9C1671.43 1841.57 1760.07 1868.71 1793.3 1992.01C1819.08 1969.88 1863.73 1947.46 1907.67 1971.86C1923.57 1980.69 1934.06 1994.85 1938.83 2013.94C1953.64 2073.11 1908.54 2172.07 1865.43 2238.84C1807.67 2328.28 1730.31 2328.28 1623.25 2328.28H1235.83C1234.55 2328.33 1229.57 2328.48 1221.61 2328.48ZM1169.07 1229.36C1149.82 1247.47 1072.59 1322.88 953.014 1475.02C885.106 1561.42 829.391 1706.31 807.611 1853.16C784.2 2010.98 804.554 2136.58 863.453 2197.76C977.34 2316.05 1232.95 2308.7 1235.49 2308.62L1623.25 2308.62C1737.4 2308.62 1799.27 2305.04 1848.91 2228.17C1893.13 2159.69 1932.18 2068.37 1919.75 2018.71C1916.3 2004.92 1909.23 1995.22 1898.12 1989.05C1846.34 1960.29 1797.27 2015.3 1795.2 2017.65C1792.75 2020.45 1788.92 2021.61 1785.32 2020.69C1781.72 2019.75 1778.95 2016.87 1778.18 2013.22C1746.47 1863.84 1635.81 1854.43 1631.12 1854.1C1625.78 1853.73 1621.69 1849.15 1621.95 1843.8C1640.73 1467.66 1559.93 1412.76 1556.83 1410.84L1169.07 1229.36Z" fill="#000072"/>
<path d="M1650.73 1512.3C1714.9 1610.83 1668.83 1717.45 1668.83 1717.45C1659.81 1693.05 1646.4 1684.03 1646.4 1684.03C1576.65 1884.04 1418.46 1929.84 1418.46 1929.84C1153.31 1846.72 1158.22 1623.48 1158.22 1623.48C1135.61 1641.58 1112.11 1673.62 1112.11 1673.62C1081.41 1526.74 1143.74 1480.4 1143.74 1480.4C1104.6 1490.05 1088.33 1510.52 1088.33 1510.52C1110.63 1427.36 1176.18 1399.07 1176.18 1399.07C1121.31 1399.66 1097.67 1411.09 1097.67 1411.09C1099.01 1409.08 1100.4 1407.16 1101.78 1405.24C1184.76 1290 1302.24 1316.23 1302.24 1316.23C1664.99 1326.15 1695.02 1459.89 1695.02 1459.89C1662.49 1450.86 1646.4 1456.76 1646.4 1456.76C1691.31 1488.35 1692.33 1522.27 1692.33 1522.27C1660.7 1506.9 1650.73 1512.3 1650.73 1512.3Z" fill="white"/>
<g opacity="0.15">
<path d="M1646.4 1684.03C1576.65 1884.04 1418.46 1929.84 1418.46 1929.84C1153.31 1846.72 1158.22 1623.48 1158.22 1623.48C1135.61 1641.58 1112.11 1673.62 1112.11 1673.62C1081.41 1526.74 1143.74 1480.4 1143.74 1480.4C1104.6 1490.05 1088.33 1510.52 1088.33 1510.52C1110.63 1427.36 1176.18 1399.07 1176.18 1399.07C1121.31 1399.66 1097.67 1411.09 1097.67 1411.09C1099.01 1409.08 1100.4 1407.16 1101.78 1405.24C1120.33 1393.44 1165.68 1370.7 1235.84 1374.05C1235.84 1374.05 1195.98 1425.57 1176.18 1453.59C1176.18 1453.59 1191.47 1448.14 1235.84 1443.62C1235.84 1443.62 1191.96 1493.63 1169.08 1585.23C1169.08 1585.23 1194.95 1567.4 1230.83 1551C1230.83 1551 1218.99 1738.68 1423.56 1876.75C1423.56 1876.75 1541.7 1864.78 1646.4 1684.03Z" fill="#000072"/>
</g>
<path d="M1472.11 1402.07C1498.89 1423.42 1515.62 1455.15 1531.1 1485.13C1534.55 1492.23 1541.3 1506.95 1544.54 1514.21L1528.48 1507.02L1485.32 1487.7L1493.88 1478.23C1511.66 1513.72 1513.91 1554.21 1513.05 1593.17C1506.09 1587.91 1475.72 1565.02 1468.15 1559.3C1468.04 1559.28 1478.77 1552.96 1478.75 1552.94C1480.29 1578.54 1481.19 1604.03 1477.18 1629.41C1476.88 1631.5 1473.51 1631.19 1473.69 1629C1474.48 1598.52 1468.12 1567.62 1462.03 1537.89C1462.05 1537.91 1476.1 1548.51 1476.12 1548.52L1510.53 1574.48L1499.76 1579.68C1500.03 1547.78 1496.39 1513.75 1482.29 1484.96L1473.03 1467.51C1484.64 1472.71 1521.63 1489.27 1533.83 1494.73C1533.83 1494.72 1524.9 1503.36 1524.91 1503.29C1522.68 1496.5 1517.88 1482.89 1515.3 1476.22C1504.41 1449.84 1492.7 1422.43 1472.11 1402.07Z" fill="#000072"/>
<path d="M1418.45 1939.68C1417.45 1939.68 1416.46 1939.53 1415.5 1939.23C1275.18 1895.23 1210.01 1811.91 1180.04 1749.75C1159.15 1706.41 1152.01 1667.59 1149.6 1644.71C1133.69 1660.91 1120.23 1679.2 1120.06 1679.43C1117.76 1682.57 1113.85 1684.06 1110.05 1683.23C1106.25 1682.41 1103.3 1679.43 1102.5 1675.64C1083.73 1585.9 1098.71 1531.87 1114.58 1502.33C1101.87 1509.64 1096.07 1516.57 1095.98 1516.68C1093.05 1520.27 1087.99 1521.35 1083.86 1519.23C1079.74 1517.12 1077.63 1512.44 1078.83 1507.97C1091.73 1459.85 1118.21 1429.2 1139.71 1411.24C1113.92 1414.48 1102.06 1419.9 1101.9 1419.98C1097.89 1421.86 1093.08 1420.84 1090.21 1417.47C1087.34 1414.09 1087.05 1409.23 1089.54 1405.57C1171.26 1285.66 1290.75 1304.08 1303.32 1306.4C1668.73 1316.62 1703.33 1451.99 1704.63 1457.75C1705.39 1461.12 1704.32 1464.65 1701.81 1467.03C1699.31 1469.41 1695.73 1470.3 1692.4 1469.38C1684.52 1467.19 1677.72 1465.95 1672.02 1465.31C1700.92 1493.97 1702.11 1520.63 1702.15 1521.96C1702.26 1525.4 1700.56 1528.65 1697.67 1530.52C1694.78 1532.39 1691.12 1532.61 1688.03 1531.11C1679.99 1527.2 1673.64 1524.81 1668.72 1523.37C1720.52 1620.01 1679.72 1717.06 1677.85 1721.37C1676.26 1725.06 1672.55 1727.42 1668.57 1727.3C1664.55 1727.19 1661 1724.65 1659.61 1720.88C1656.67 1712.96 1653.24 1706.9 1650.12 1702.43C1577.18 1892.16 1427.67 1937.41 1421.18 1939.29C1420.29 1939.55 1419.37 1939.68 1418.45 1939.68ZM1158.22 1613.65C1159.7 1613.65 1161.19 1613.98 1162.57 1614.67C1166 1616.36 1168.13 1619.88 1168.05 1623.7C1168.04 1624.23 1167.35 1678.64 1198.17 1742.07C1239.02 1826.13 1313.1 1885.82 1418.4 1919.52C1439.19 1912.32 1574.93 1859.16 1637.11 1680.79C1638.11 1677.91 1640.4 1675.66 1643.29 1674.7C1646.18 1673.74 1649.37 1674.18 1651.89 1675.88C1652.96 1676.6 1659.57 1681.31 1666.78 1691.88C1675.95 1656.8 1686.21 1584.78 1642.51 1517.69C1641.02 1515.39 1640.55 1512.58 1641.22 1509.92C1641.89 1507.26 1643.64 1505 1646.04 1503.69C1649.4 1501.86 1658.3 1499.19 1677.33 1505.44C1672.11 1494.45 1661.66 1479.52 1640.73 1464.78C1637.74 1462.67 1636.16 1459.08 1636.65 1455.45C1637.13 1451.82 1639.59 1448.76 1643.02 1447.5C1644.55 1446.95 1656 1443.17 1677.49 1446.17C1655.18 1411.88 1574.55 1333.51 1301.98 1326.04C1301.35 1326.02 1300.73 1325.95 1300.12 1325.81C1295.76 1324.87 1199.53 1305.08 1123.2 1393.88C1136.21 1391.49 1153.69 1389.47 1176.1 1389.22C1180.65 1389.33 1184.85 1392.43 1185.83 1397.01C1186.8 1401.59 1184.41 1406.22 1180.1 1408.08C1179.6 1408.3 1134.67 1428.57 1108.83 1483.04C1117.49 1478.48 1128.28 1474.08 1141.41 1470.84C1145.96 1469.72 1150.66 1471.97 1152.65 1476.2C1154.65 1480.44 1153.38 1485.49 1149.63 1488.28C1149.15 1488.65 1098.71 1529.16 1117.87 1650.53C1127 1639.65 1139.57 1625.82 1152.08 1615.81C1153.85 1614.38 1156.03 1613.65 1158.22 1613.65Z" fill="#000072"/>
<path d="M1475.12 1844.31C1475.12 1844.31 1443.22 1881.67 1379.63 1844.31C1379.63 1844.31 1364.49 1855.8 1342.68 1860.71C1320.38 1865.72 1291.11 1863.88 1263.9 1835.87C1263.9 1835.87 1157.73 1901.42 1023.81 1866.47C1019.65 1865.4 1015.45 1864.2 1011.21 1862.9C980.869 1853.65 951.199 1840.07 924.165 1822.68H924.12C868.309 1786.76 823.624 1734.61 806.823 1670.04C799.137 1640.28 797.305 1607.93 803.069 1573.34C805.705 1557.48 809.906 1541.17 815.893 1524.46C818.082 1518.25 820.54 1511.99 823.221 1505.69C824.07 1503.68 824.919 1501.71 825.857 1499.75C826.125 1499.17 826.304 1498.76 826.393 1498.54C826.437 1498.45 826.437 1498.41 826.437 1498.41C905.529 1322.89 1093.16 1247.82 1093.16 1247.82L1176.18 1299.6C1053.21 1330.88 1020.86 1505.69 1020.86 1505.69C1020.86 1505.69 1013.62 1616.55 1126.9 1617.76C1208.22 1618.65 1290.8 1590.86 1369.71 1594.88C1370.2 1594.88 1370.65 1594.93 1371.1 1594.93C1372.3 1594.97 1373.38 1595.02 1374.36 1595.1C1377.76 1595.28 1379.63 1595.51 1379.63 1595.51C1407.2 1597.83 1434.28 1604.4 1460.65 1617.76C1507.79 1641.62 1539.6 1688.36 1549.43 1733.22C1561.54 1788.14 1540.81 1840.33 1475.12 1844.31Z" fill="white"/>
<path d="M1552.72 1761.03C1552.81 1770.51 1551.76 1779.63 1549.48 1788.14C1549.03 1790.02 1548.5 1791.81 1547.87 1793.59C1547.33 1795.29 1546.71 1796.99 1545.99 1798.64C1545.23 1800.48 1544.43 1802.31 1543.49 1804.05C1542.64 1805.88 1541.66 1807.63 1540.59 1809.32C1538.67 1812.41 1536.52 1815.4 1534.15 1818.17C1533.35 1819.11 1532.54 1820 1531.69 1820.85C1529.19 1823.53 1526.42 1825.99 1523.38 1828.23C1521.37 1829.74 1519.27 1831.17 1517.04 1832.47C1515.92 1833.14 1514.76 1833.77 1513.6 1834.39C1511.27 1835.6 1508.82 1836.76 1506.27 1837.74C1497.29 1841.32 1486.92 1843.6 1475.12 1844.31C1475.12 1844.31 1443.22 1881.67 1379.63 1844.31C1379.63 1844.31 1364.48 1855.8 1342.68 1860.71C1328.11 1857.18 1313.86 1853.65 1300.41 1850.3C1249.29 1837.56 1222.57 1792.39 1220.24 1742.97C1218.81 1713.21 1226.28 1681.84 1242.58 1655.12C1277.97 1597.03 1347.01 1594.08 1371.1 1594.93C1372.3 1594.97 1373.38 1595.02 1374.36 1595.11C1377.76 1595.28 1379.63 1595.51 1379.63 1595.51C1407.2 1597.83 1434.28 1604.4 1460.65 1617.76C1507.79 1641.62 1539.6 1688.36 1549.43 1733.23C1550.01 1735.68 1550.51 1738.14 1550.86 1740.55C1551.53 1744.22 1551.98 1747.88 1552.25 1751.46C1552.53 1754.68 1552.69 1757.87 1552.72 1761.03Z" fill="#FF7043"/>
<path d="M1549.48 1788.14C1549.03 1790.02 1548.5 1791.81 1547.87 1793.59C1547.29 1795.34 1546.66 1796.99 1545.99 1798.64C1545.23 1800.48 1544.43 1802.31 1543.49 1804.05C1542.6 1805.84 1541.61 1807.63 1540.59 1809.32C1538.67 1812.41 1536.52 1815.4 1534.15 1818.17C1533.35 1819.11 1532.54 1820 1531.69 1820.85C1529.19 1823.53 1526.42 1825.99 1523.38 1828.23C1521.37 1829.74 1519.27 1831.17 1517.04 1832.47C1515.92 1833.14 1514.76 1833.77 1513.6 1834.39C1511.27 1835.6 1508.82 1836.76 1506.27 1837.74C1497.29 1841.32 1486.92 1843.6 1475.12 1844.31C1475.12 1844.31 1443.22 1881.67 1379.63 1844.31C1379.63 1844.31 1364.48 1855.8 1342.68 1860.71C1328.11 1857.18 1313.86 1853.65 1300.41 1850.3C1249.29 1837.56 1222.57 1792.39 1220.24 1742.97C1220.24 1742.97 1279.27 1826.44 1340.18 1815.62C1394.02 1806.11 1403.27 1763.3 1404.7 1753.51C1403.99 1763.52 1403.23 1807.09 1447.42 1805.08C1497.33 1802.75 1500.73 1747.88 1500.73 1747.88C1500.73 1747.88 1529.5 1799.49 1545.1 1742.97C1546.17 1739.12 1547.65 1735.91 1549.43 1733.23C1549.97 1735.68 1550.46 1738.1 1550.86 1740.55C1551.45 1744.22 1551.94 1747.84 1552.25 1751.46C1553.37 1764.33 1552.52 1776.79 1549.48 1788.14Z" fill="#FA531E"/>
<path d="M1256.49 1842.33C1251.45 1835.11 1247.16 1827.79 1243.13 1820.03C1239.21 1812.34 1235.17 1804.59 1233.62 1795.71C1233.56 1795.37 1233.79 1795.04 1234.13 1794.98C1241.38 1800.06 1246.88 1806.87 1253.17 1812.5L1271.3 1829.39C1281.49 1839.6 1265.27 1853.81 1256.49 1842.33Z" fill="#6B1A4E"/>
<path d="M1374.92 1835.67C1393.87 1819.09 1398.19 1789.84 1404.49 1765.82C1404.54 1765.57 1404.79 1765.41 1405.04 1765.47C1406.54 1768.73 1406.54 1772.95 1407.38 1776.59C1410.11 1799.09 1408.14 1823.48 1394.81 1842.84C1391.68 1846.89 1389.08 1850.06 1384.37 1852.92C1372.84 1858.85 1363.7 1842.2 1374.92 1835.67Z" fill="#000072"/>
<path d="M1470.71 1835.67C1489.66 1819.09 1493.98 1789.84 1500.28 1765.82C1500.34 1765.57 1500.58 1765.41 1500.83 1765.47C1502.34 1768.73 1502.33 1772.95 1503.18 1776.59C1505.9 1799.09 1503.93 1823.48 1490.61 1842.84C1487.48 1846.89 1484.87 1850.06 1480.16 1852.92C1468.64 1858.85 1459.49 1842.2 1470.71 1835.67Z" fill="#000072"/>
<path d="M1061.08 1802.04C1054.06 1824.65 1042.53 1847.53 1023.81 1866.47C1019.65 1865.4 1015.45 1864.2 1011.21 1862.9C980.868 1853.65 951.198 1840.07 924.164 1822.68C946.014 1818.26 973.764 1809.86 999.591 1793.64C1029.35 1775.05 1056.61 1746.18 1069.66 1701.5C1069.66 1701.5 1076.9 1751.05 1061.08 1802.04Z" fill="#FF7043"/>
<path d="M974.702 1617.49C974.702 1617.49 916.299 1670.22 845.206 1673.44C832.694 1674.02 819.825 1673.08 806.822 1670.04C799.136 1640.28 797.304 1607.93 803.068 1573.34C809.637 1579.24 817.01 1585.27 825.187 1590.99C861.516 1616.64 912.993 1636.97 974.702 1617.49Z" fill="#FF7043"/>
<g opacity="0.15">
<path d="M999.59 1793.64C973.762 1809.86 946.013 1818.26 924.163 1822.68H924.118C868.307 1786.76 823.622 1734.61 806.821 1670.04C819.824 1673.08 832.693 1674.02 845.205 1673.44C866.52 1725 907.182 1772.41 983.057 1790.06C988.688 1791.36 994.228 1792.57 999.59 1793.64Z" fill="#000072"/>
</g>
<g opacity="0.15">
<path d="M825.187 1590.99C817.01 1585.27 809.637 1579.24 803.068 1573.34C805.704 1557.48 809.905 1541.17 815.892 1524.46C820.941 1511.72 824.561 1502.97 825.857 1499.75C826.125 1499.17 826.304 1498.77 826.393 1498.54C825.991 1501.22 819.914 1541.13 825.187 1590.99Z" fill="#000072"/>
</g>
<path d="M845.206 1673.44C832.694 1674.02 819.825 1673.08 806.822 1670.04C799.136 1640.28 797.304 1607.93 803.068 1573.34C809.637 1579.24 817.01 1585.27 825.187 1590.99C827.958 1617.05 833.812 1645.82 845.206 1673.44Z" fill="#FA531E"/>
<g opacity="0.15">
<path d="M1342.68 1860.71C1320.38 1865.72 1291.11 1863.88 1263.9 1835.87C1263.9 1835.87 1157.73 1901.42 1023.81 1866.47C1042.53 1847.53 1054.06 1824.65 1061.08 1802.04C1191.02 1810.22 1220.24 1742.97 1220.24 1742.97C1222.57 1792.39 1249.29 1837.56 1300.41 1850.3C1313.86 1853.65 1328.11 1857.18 1342.68 1860.71Z" fill="#000072"/>
</g>
<path d="M1061.08 1802.04C1054.06 1824.65 1042.53 1847.53 1023.81 1866.47C1019.65 1865.4 1015.45 1864.2 1011.21 1862.9C980.868 1853.65 951.198 1840.07 924.164 1822.68C946.014 1818.26 973.764 1809.86 999.591 1793.64C1022.25 1798.24 1042.67 1800.92 1061.08 1802.04Z" fill="#FA531E"/>
<path d="M1020.85 1505.69C1029.31 1556.25 1051.22 1602.13 1106.81 1608.84C1192.17 1615.99 1272.73 1583.99 1360.52 1584.97C1433.43 1585.54 1504.84 1615.88 1540.83 1682.45C1567.5 1728.71 1576.99 1800.42 1529.1 1836.46C1513.65 1848.08 1494.45 1852.85 1475.72 1854.11L1482.6 1850.68C1463.33 1871.06 1432.01 1874.64 1406.3 1866.66C1395.94 1863.9 1384.05 1858.01 1374.66 1852.77L1385.59 1852.12C1344.74 1881.14 1291.98 1879.98 1256.85 1842.71L1269.06 1844.22C1258.15 1850.6 1247.66 1855.35 1236.65 1860.03C1181.83 1882.47 1121.49 1891.16 1062.61 1883.89C891.635 1860.73 744.297 1712.45 802.73 1533.04C839.172 1419.94 927.008 1331.26 1026.86 1271.08C1046.98 1258.99 1067.37 1248.16 1089.5 1238.7C1094.49 1236.57 1100.26 1238.88 1102.4 1243.88C1104.62 1249.03 1102.03 1254.98 1096.8 1256.96C1014.96 1293.44 939.793 1349.96 884.571 1420.78C831.233 1490.56 792.906 1581.5 816.928 1669.45C840.502 1756.57 917.321 1819.65 1000.13 1848.87C1084.07 1878.81 1180.83 1870.44 1258.73 1827.49C1268.5 1822 1274.71 1833.97 1281.78 1838.46C1289.32 1844.13 1297.65 1848.31 1306.66 1850.87C1325 1855.46 1344.67 1852.01 1361.6 1843.53C1369.58 1840.72 1375.99 1831.28 1384.53 1835.77C1392.52 1840.2 1402.91 1845.43 1411.76 1847.77C1430.92 1853.83 1454.19 1851.75 1468.74 1836.98C1470.45 1835.52 1472.47 1834.7 1474.55 1834.48C1482.33 1833.67 1490.13 1832.7 1497.27 1830.19C1511.52 1825.79 1523.93 1816.92 1531.62 1804.21C1559.07 1755.66 1530.22 1690.33 1493.78 1654.11C1458.77 1619.02 1408.99 1605.56 1360.14 1604.12C1293.54 1602.72 1226.62 1620.74 1157.31 1624.55C1122.05 1626.76 1083.62 1625.64 1054.6 1602.32C1025.84 1579.97 1012.85 1540.51 1020.85 1505.69Z" fill="#000072"/>
<path d="M1381.31 342.2C1381.44 342.314 1381.53 342.457 1381.66 342.609C1381.66 342.609 1547.72 339.072 1737.16 429.849C1775.82 448.372 1815.41 470.813 1854.8 498.023C1854.8 498.023 1859.44 390.482 1686.18 266.953C1569.35 183.628 1494.7 83.8825 1458.47 27.7575C1452.17 17.9815 1442.54 12.1655 1432.29 10.3675C1426.03 9.31046 1419.56 9.77946 1413.45 11.7165C1406.37 13.9815 1399.79 18.3145 1394.68 24.7505C1344.77 87.5485 1274.83 213.826 1381.31 342.2Z" fill="white"/>
<g opacity="0.15">
<path d="M1381.31 342.2C1381.44 342.314 1381.53 342.457 1381.66 342.609C1381.66 342.609 1547.72 339.072 1737.16 429.849C1772.58 429.304 1794.49 428.47 1794.49 428.47C1794.49 428.47 1758.7 338.872 1563.77 283.16C1368.89 227.457 1360.93 69.2944 1432.25 10.3965C1432.25 10.3965 1432.26 10.3585 1432.29 10.3675C1426.03 9.31046 1419.56 9.77946 1413.45 11.7165C1406.37 13.9815 1399.79 18.3145 1394.68 24.7505C1344.77 87.5485 1274.83 213.826 1381.31 342.2Z" fill="#000072"/>
</g>
<path d="M1381.31 342.211C1448.08 328.82 1509.49 311.916 1509.49 311.916C1286.04 209.917 1413.44 11.7266 1413.44 11.7266C1406.36 13.9916 1399.79 18.3246 1394.68 24.7606C1344.76 87.5576 1274.82 213.837 1381.31 342.211Z" fill="#FF7043"/>
<path d="M1404.91 336.19C1436.4 329.896 1466.75 322.796 1489.99 317.063C1491.6 316.61 1493.2 316.232 1494.75 315.846C1504.1 313.411 1509.49 311.906 1509.49 311.906C1350.93 239.515 1369.04 118.729 1392.9 54.6533C1350.12 123.178 1315.94 228.945 1404.91 336.19Z" fill="#FA531E"/>
<path d="M1421.37 16.8168C1383.46 77.6698 1367.28 161.729 1408.02 225.218C1431.82 263.644 1469.96 290.519 1510.33 310.129C1512.47 311.052 1511.14 314.784 1508.69 313.706C1452.71 289.889 1398.36 248.582 1379.28 188.357C1359.88 127.556 1374.95 61.2328 1405.53 6.63481C1412.28 -4.29219 1428.55 6.00476 1421.37 16.8168Z" fill="#000072"/>
<path d="M1854.79 507.872C1852.83 507.872 1850.88 507.286 1849.2 506.131C1622.3 349.412 1384.24 352.354 1381.84 352.44C1378.92 352.511 1375.99 351.2 1374.08 348.9C1262.97 215.44 1334.46 84.6926 1386.97 18.6336C1396.98 6.04057 1411.88 -0.724392 1427.96 0.0616078C1443.93 0.847608 1458.06 9.00159 1466.73 22.4346C1500.66 74.9886 1575.02 175.597 1691.88 258.939C1867.46 384.142 1864.81 493.854 1864.62 498.463C1864.46 502.04 1862.38 505.25 1859.17 506.844C1857.79 507.533 1856.29 507.872 1854.79 507.872ZM1386.3 332.787C1420.92 333.204 1633.75 341.525 1842.34 477.831C1834.51 442.148 1803.45 362.653 1680.47 274.95C1560.93 189.708 1484.9 86.8346 1450.21 33.0986C1445.02 25.0566 1436.56 20.1736 1426.99 19.7026C1417.4 19.2236 1408.38 23.2986 1402.36 30.8696C1354.04 91.6636 1288.26 211.234 1386.3 332.787Z" fill="#000072"/>
<path d="M801.178 939.018L765.055 943.781C765.055 943.781 949.277 1313.11 1431.04 1392.16C1511.18 1405.33 1582.78 1407.02 1646.39 1400.73C1952.12 1370.82 2073.8 1158.3 2073.8 1158.3L2045.21 1144.71L2075.3 1105.7L2034.05 1096.87L2059.18 1055.81C2023.43 1059.04 2003.87 1049.92 2003.87 1049.92C2004.12 1040.59 2004.27 1031.39 2004.38 1022.25C2008.6 545.684 1797.05 306.995 1398.92 304.488C1180.65 303.154 1043.55 443.605 962.451 577.606C962.451 577.606 962.451 577.606 962.41 577.635C956.52 587.363 950.959 597.075 945.633 606.684C932.445 630.492 921.056 653.745 911.289 675.577C902.148 695.89 894.452 714.969 888.036 732.099C869.41 781.787 861.475 815.16 861.475 815.16L857.523 816.03C857.189 816.08 856.924 816.143 856.625 816.2L855.31 816.478C854.594 816.643 854.218 816.723 854.218 816.723L788.812 830.842C794.834 849.518 812.317 875.145 812.317 875.145L761.589 881.461C779.41 905.551 801.178 939.018 801.178 939.018Z" fill="white"/>
<path d="M801.178 939.018L765.055 943.781C765.055 943.781 949.277 1313.11 1431.04 1392.16C1511.18 1405.33 1582.78 1407.02 1646.39 1400.73C1952.13 1370.82 2073.8 1158.3 2073.8 1158.3L2045.21 1144.71L2075.3 1105.7L2034.05 1096.87L2059.18 1055.81C2023.43 1059.04 2003.88 1049.92 2003.88 1049.92C2004.12 1040.59 2004.27 1031.39 2004.38 1022.25C1755.69 977.436 1190.25 946.577 1076.67 879.815C1006.38 838.495 951.528 822.519 913.899 816.993C883.832 812.528 864.766 814.753 857.522 816.028C857.223 816.085 856.965 816.112 856.7 816.175L854.216 816.721L788.81 830.84C794.832 849.516 812.315 875.143 812.315 875.143L761.587 881.459C779.41 905.551 801.178 939.018 801.178 939.018Z" fill="#D3D3E5"/>
<g opacity="0.15">
<path d="M857.521 816.027C864.765 814.752 883.831 812.528 913.898 816.993C916.374 804.826 919.548 793.647 923.158 783.704C979.194 629.564 1064.17 561.146 1064.17 561.146L962.45 577.604C962.45 577.604 962.45 577.605 962.409 577.634C956.519 587.362 950.958 597.073 945.632 606.682C932.444 630.49 921.055 653.743 911.288 675.575C902.147 695.888 894.451 714.968 888.035 732.098C869.409 781.786 861.474 815.158 861.474 815.158L857.521 816.027Z" fill="#000072"/>
</g>
<g opacity="0.15">
<path d="M801.178 939.018L765.055 943.781C765.055 943.781 949.277 1313.11 1431.04 1392.16C1511.18 1405.33 1582.78 1407.02 1646.39 1400.73C965.628 1341.51 879.196 984.179 913.898 816.992C883.831 812.527 864.765 814.752 857.521 816.027L856.699 816.174L854.215 816.72L788.809 830.839C794.831 849.515 812.314 875.142 812.314 875.142L761.586 881.458C779.41 905.551 801.178 939.018 801.178 939.018Z" fill="#000072"/>
</g>
<path d="M1572.5 1413.95C1528.24 1413.95 1480.61 1410.26 1429.45 1401.86C1178.09 1360.61 1008.54 1239.63 910.571 1145.4C804.292 1043.19 758.166 952.002 756.255 948.171C754.837 945.327 754.881 941.972 756.372 939.165C757.864 936.36 760.62 934.448 763.772 934.033L784.304 931.333C776.362 919.438 764.248 901.606 753.669 887.332C751.589 884.524 751.154 880.823 752.529 877.608C753.906 874.395 756.882 872.154 760.349 871.722L795.701 867.303C790.042 857.825 783.011 844.901 779.446 833.863C778.592 831.219 778.894 828.336 780.283 825.928C781.67 823.521 784.014 821.814 786.728 821.228L853.469 806.841C860.691 779.663 893.681 665.745 965.869 553.528C1074.85 384.119 1223.47 294.661 1395.83 294.661C1396.88 294.661 1397.93 294.663 1398.99 294.671C1588.34 295.87 1736.56 350.401 1839.54 456.749C1960.9 582.076 2019.53 779.281 2013.86 1042.96C2021.58 1045.09 2036.75 1047.96 2058.31 1046.04C2062 1045.71 2065.58 1047.49 2067.54 1050.65C2069.5 1053.8 2069.51 1057.8 2067.57 1060.96L2049.69 1090.16L2077.35 1096.06C2080.65 1096.77 2083.36 1099.12 2084.53 1102.3C2085.69 1105.47 2085.15 1109.01 2083.08 1111.69L2060.43 1141.05L2078.02 1149.43C2080.49 1150.6 2082.36 1152.75 2083.18 1155.37C2084 1157.98 2083.69 1160.81 2082.33 1163.19C2080.47 1166.44 2035.59 1243.55 1932.29 1312.06C1857.24 1361.84 1738.88 1413.95 1572.5 1413.95ZM780.59 951.659C796.85 979.94 843.031 1053.31 924.806 1131.81C1020.7 1223.87 1186.64 1342.08 1432.63 1382.46C1669.23 1421.29 1828.56 1357.01 1920.56 1296.24C2000.18 1243.65 2044.6 1184.52 2059.51 1162.39L2040.97 1153.56C2038.29 1152.29 2036.33 1149.86 2035.63 1146.97C2034.94 1144.08 2035.6 1141.03 2037.41 1138.68L2057.97 1112.04L2031.99 1106.49C2028.87 1105.83 2026.27 1103.69 2025.01 1100.76C2023.75 1097.82 2023.99 1094.46 2025.66 1091.74L2041.23 1066.31C2015.06 1065.82 2000.45 1059.19 1999.71 1058.85C1996.16 1057.2 1993.92 1053.59 1994.03 1049.68C2000.79 787.848 1944.06 592.961 1825.41 470.427C1726.24 368.017 1582.73 315.5 1398.86 314.333C1230.01 313.249 1090 397.165 982.699 563.71C902.081 688.842 871.351 816.161 871.049 817.433C870.177 821.122 867.26 823.983 863.554 824.782L802.245 838C809.315 853.234 820.277 869.401 820.414 869.602C822.34 872.432 822.658 876.062 821.247 879.185C819.836 882.305 816.906 884.468 813.508 884.893L779.255 889.175C794.414 910.618 809.243 933.396 809.421 933.675C811.262 936.505 811.523 940.081 810.11 943.148C808.696 946.217 805.808 948.343 802.461 948.783L780.59 951.659Z" fill="#000072"/>
<path d="M652.222 298.237C655.646 321.32 661.372 342.784 669.021 362.696C715.47 483.358 833.628 546.799 945.469 562.746C964.537 565.422 983.448 566.762 1001.76 566.741C1001.8 566.75 1001.84 566.76 1001.84 566.76C1024.32 566.754 1045.92 564.747 1065.93 560.808C1065.93 560.808 1079.83 539.929 1098.64 515.4C1119.07 488.719 1145.28 457.669 1165.63 444.458C1204.65 419.119 1368.97 368.407 1368.97 368.407C1368.97 368.407 1335.22 312.57 1169.48 253.681C1025.85 202.676 891.67 113.369 801.728 26.3411C781.221 6.50014 750.004 5.12317 728.126 21.0772C724.1 23.9332 720.449 27.4081 717.19 31.4251C715.214 33.8541 713.257 36.3702 711.272 38.9992C674.078 88.1612 633.68 172.991 652.222 298.237Z" fill="white"/>
<g opacity="0.15">
<path d="M652.222 298.237C655.646 321.32 661.372 342.784 669.021 362.696C715.47 483.358 833.628 546.799 945.469 562.746C973.807 564.79 994.674 566.249 1001.76 566.741C1001.8 566.75 1001.84 566.76 1001.84 566.76C1003.56 566.859 1004.43 566.914 1004.43 566.914C1004.43 566.914 1097.1 576.675 1175.18 505.793C1175.18 505.793 1148.21 518.387 1098.64 515.401C1046.9 512.326 970.527 492.324 874.481 423.478C686.358 288.588 705.449 72.9691 727.624 22.2921C727.804 21.8911 727.984 21.4901 728.126 21.0791C724.1 23.9351 720.449 27.4101 717.19 31.4271C715.214 33.8561 713.257 36.3722 711.272 39.0012C674.078 88.1612 633.68 172.991 652.222 298.237Z" fill="#000072"/>
</g>
<path d="M652.219 298.246C655.642 321.329 661.369 342.793 669.018 362.705C733.13 529.202 933.678 586.747 1065.93 560.817C622.993 492.044 711.27 39.0083 711.27 39.0083C674.075 88.1703 633.677 173 652.219 298.246Z" fill="#FF7043"/>
<path d="M680.292 294.14C683.715 317.223 689.442 338.687 697.091 358.599C756.758 513.549 934.527 574.106 1065.51 560.868C1065.64 560.858 1065.8 560.857 1065.93 560.809C716.671 506.583 697.714 213.449 705.321 91.8945C682.608 141.305 667.573 208.205 680.292 294.14Z" fill="#FA531E"/>
<path d="M732.966 30.5361C703.236 66.5711 713.567 130.675 717.068 174.947C722.171 227.569 731.713 279.783 751.032 328.779C788.05 429.077 873.334 505.645 974.556 539.051C923.517 523.734 874.286 499.588 833.346 464.22C749.162 393.658 711.286 283.203 698.662 177.098C692.64 126.253 681.288 61.7761 716.655 18.8851C718.471 17.0911 719.9 15.6031 722.252 14.0471C733.216 7.22413 743.688 23.2761 732.966 30.5361Z" fill="#000072"/>
<path d="M1368 369.015C1351.46 351.033 1330.15 337.797 1309.26 325.358C1273.88 304.678 1236.55 287.567 1198.14 272.949C1135.79 251.293 1072.61 226.229 1014.67 193.588C937.973 151.105 865.521 99.8133 801.578 39.6383L796.992 35.3333L794.73 33.2273C779.137 18.1103 753.212 15.5833 735.33 28.0503C723.674 36.1053 714.713 51.0793 706.462 63.1433C697.796 76.6463 690.205 90.8363 683.725 105.528C657.806 164.877 652.55 231.509 661.769 295.275C681.688 448.753 820.709 543.754 967.509 557.897C999.911 561.679 1032.56 561.919 1065.69 559.619C1067.06 559.396 1067.51 561.664 1066.16 561.989C1001.27 581.819 930.736 573.128 867.139 552.286C770.044 521.287 683.652 447.553 653.649 348.067C629.522 266.709 632.051 176.104 665.682 97.6703C676.053 74.2033 689.031 51.8423 704.677 31.4883C709.832 24.4933 716.666 16.6603 724.384 11.7083C749.777 -5.8997 786.285 -2.39172 808.279 19.0763C809.559 20.3033 813.673 24.1073 815.038 25.4233C877.644 84.6723 948.787 134.773 1023.85 177.029C1052.47 193.205 1081.88 207.986 1111.95 221.243C1172.23 247.961 1237.33 267.118 1294.44 301.701C1322.7 319.451 1352.04 338.896 1369.93 367.851C1370.23 368.393 1370.03 369.075 1369.49 369.376C1368.95 369.666 1368.34 369.483 1368 369.015Z" fill="#000072"/>
<path d="M1750.88 480.831L1787.44 521.806L1976.84 734.017C1976.84 734.017 2038.9 426.587 1953.9 320.484C1943.7 307.737 1927.78 301.898 1912.63 304.025C1912.5 304.024 1912.31 304.038 1912.01 304.08C1912.01 304.08 1912.01 304.08 1911.97 304.071C1904.73 305.201 1897.67 308.2 1891.55 313.133C1886.14 317.51 1880.46 323.118 1874.83 330.358C1848.5 364.011 1750.88 480.831 1750.88 480.831Z" fill="white"/>
<path d="M1953.23 707.531C1953.23 707.531 1981.04 547.422 1968.06 465.571C1955.07 383.719 1932.34 392.861 1908.71 425.543C1885.09 458.225 1818.6 556.71 1818.6 556.71L1953.23 707.531Z" fill="#FF7043"/>
<g opacity="0.15">
<path d="M1750.88 480.831L1787.44 521.806C1800.44 511.643 1812.39 496.522 1820.35 476.407C1845.96 411.467 1911.78 305.682 1912.79 304.028C1912.68 304 1912.43 304.02 1912.01 304.079C1912.01 304.079 1912.01 304.079 1911.97 304.07C1904.73 305.2 1897.67 308.199 1891.55 313.132C1886.14 317.509 1880.46 323.117 1874.83 330.357C1848.5 364.011 1750.88 480.831 1750.88 480.831Z" fill="#000072"/>
</g>
<path d="M1976.86 743.836C1974.1 743.836 1971.41 742.669 1969.52 740.55L1743.55 487.396C1740.3 483.756 1740.21 478.287 1743.34 474.544C1744.32 473.377 1841.17 357.435 1867.09 324.29C1872.76 317.039 1878.91 310.709 1885.37 305.479C1896.39 296.558 1910.32 292.51 1924.55 294.034C1939.2 295.616 1952.36 302.83 1961.58 314.351C2048.44 422.779 1989.07 723.211 1986.5 735.948C1985.76 739.598 1983.02 742.518 1979.43 743.492C1978.58 743.724 1977.71 743.836 1976.86 743.836ZM1763.87 480.633L1970.77 712.418C1982.48 643.551 2015.25 412.801 1946.24 326.647C1940.3 319.24 1931.85 314.603 1922.44 313.588C1913.45 312.614 1904.66 315.165 1897.75 320.766C1892.44 325.06 1887.34 330.324 1882.58 336.406C1860.06 365.196 1784.81 455.531 1763.87 480.633Z" fill="#000072"/>
<path d="M945.316 920.64C948.062 990.505 986.794 1260.6 1412.82 1386.94C1563.78 1431.7 1682.44 1428.38 1773.82 1403.59C1861.51 1379.8 1924.06 1336.24 1965.89 1296.41C1991.49 1272.09 2009.34 1249.15 2020.47 1232.9C2029.44 1219.84 2035.79 1205.28 2039.13 1190.06C2042.47 1175.05 2042.85 1159.38 2039.87 1144.03C2038.38 1136.28 2035.98 1128.28 2032.41 1120.23C2032.41 1120.23 2045.82 1101.34 2055.28 1076.09C2059.35 1065.18 2054.38 1052.97 2043.7 1048.32C2036.6 1045.23 2028.2 1041.17 2020.3 1036.43C2020.3 1036.43 2083.81 955.962 2018.54 892.882C2018.54 892.882 2034.05 648.104 1854.81 498.027C1657.88 333.136 1418.1 401.866 1418.1 401.866C1418.1 401.866 1350.87 215.967 1293.44 205.089C1290.27 204.47 1286.85 204.719 1283.11 205.743C1219.38 222.883 1079.38 469.373 1057.19 722.51C1057.19 722.51 984.355 798.775 1022.97 874.647C1022.97 874.647 997.444 886.988 960.291 899.176C951.084 902.173 944.912 910.94 945.316 920.64Z" fill="white"/>
<path d="M1778.53 510.37C1778.53 510.37 1811.57 553.227 1804.05 624.003C1796.54 694.779 1727.25 730.802 1644.05 666.264C1570.38 609.117 1612.54 479.28 1612.54 479.28C1612.54 479.28 1556.35 489.036 1543.76 596.534C1531.91 697.807 1622.99 778.558 1730.44 781.55C1815.22 783.911 1925.05 638.853 1778.53 510.37Z" fill="#FF7043"/>
<path d="M1379.64 1039.6C1379.64 1039.6 1260.38 1048.15 1185.8 915.336C1185.8 915.336 1131.18 930.82 1138.37 997.695C1145.06 1059.95 1260.49 1124.11 1379.64 1039.6Z" fill="#FF7043"/>
<path d="M1403.36 1063.02C1403.36 1063.02 1349.98 1127.31 1232.17 1114.65C1232.17 1114.65 1228.96 1171.17 1299.08 1183.58C1380.58 1198.02 1403.36 1063.02 1403.36 1063.02Z" fill="#FF7043"/>
<path d="M1948.93 1077.35C1948.93 1077.35 1987.53 1066.57 2008.62 1038.18C2008.62 1038.18 2032.98 1070.02 1999.44 1106.18L1948.93 1077.35Z" fill="#FF7043"/>
<path d="M1623.55 857.766C1623.55 857.766 1616.13 801.317 1562.66 767.927C1509.2 734.537 1452.71 666.811 1503.75 522.914C1503.75 522.914 1421.95 522.409 1408.39 623.933C1394.83 725.457 1530.88 791.072 1561.6 809.994C1599.29 833.215 1623.55 857.766 1623.55 857.766Z" fill="#FF7043"/>
<path d="M1821.1 873.971C1821.1 873.971 1821.56 838.857 1861.5 779.884C1892.42 734.228 1906.17 651.62 1882.55 619.582C1882.55 619.582 1949.2 623.551 1946.13 695.796C1943.07 768.042 1869.68 803.201 1821.1 873.971Z" fill="#FF7043"/>
<path d="M1638.28 798.039C1638.28 798.039 1709.36 824.302 1708.23 873.181C1707.11 922.06 1654.85 910.268 1653.34 880.948C1651.83 851.629 1659.61 833.34 1638.28 798.039Z" fill="#FF7043"/>
<path d="M1820.09 832.126C1820.09 832.126 1768.07 835.996 1757.43 879.517C1746.79 923.038 1783.28 926.839 1791.08 901.328C1798.87 875.817 1798.1 857.527 1820.09 832.126Z" fill="#FF7043"/>
<path d="M1427.52 399.095C1430.07 410.731 1431.05 423.02 1429.26 434.964C1429.09 435.867 1428.23 436.464 1427.33 436.299C1418.47 427.916 1413.03 415.781 1408.64 404.589C1404.75 391.677 1423.87 386.097 1427.52 399.095Z" fill="#000072"/>
<path d="M1358.3 432.01C1348.17 407.124 1310.82 317.91 1278.96 274.693C1276.4 271.213 1271.23 271.142 1268.53 274.518C1247.73 300.505 1171.38 403.367 1140.56 548.553C1139.28 554.611 1146.29 558.987 1151.15 555.148C1182.95 530.022 1264.36 470.316 1354.2 440.744C1357.85 439.542 1359.75 435.572 1358.3 432.01Z" fill="#FF7043"/>
<path d="M945.301 920.637C948.047 990.502 986.779 1260.6 1412.81 1386.94C1563.77 1431.69 1682.43 1428.38 1773.81 1403.59C1035.83 1410.95 985 928.358 985 928.358L1059.29 894.89C1067.25 891.305 1070.3 881.789 1066.28 874.043C1029.7 803.616 1086.12 736.406 1086.12 736.406C1117.43 387.733 1283.1 205.74 1283.1 205.74C1219.37 222.88 1079.36 469.37 1057.18 722.507C1057.18 722.507 984.339 798.772 1022.95 874.644C1022.95 874.644 997.428 886.985 960.275 899.173C951.069 902.17 944.897 910.937 945.301 920.637Z" fill="#EDDAE7"/>
<g opacity="0.15">
<path d="M1614.12 1214.5C1615.82 1216.95 1671.94 1295.92 1777.25 1320.3C1884.21 1345.02 1951.8 1283.01 1951.8 1283.01C1951.8 1283.01 1956.49 1290.44 1965.87 1296.4C1991.47 1272.09 2009.32 1249.15 2020.46 1232.9C2029.43 1219.84 2035.77 1205.28 2039.12 1190.06C2039.12 1190.06 2019.49 1238.29 2004.41 1226.35C1989.32 1214.44 2000.79 1174.66 2000.79 1174.66L1886.99 1146.6C1886.99 1146.6 1927.55 1193.71 1891.45 1246.01C1855.29 1298.35 1700.21 1277.37 1614.12 1214.5Z" fill="#000072"/>
</g>
<path d="M1244.6 896.256C1254.54 876.765 1271.04 860.128 1293.9 846.654C1332.18 824.773 1378.96 817.82 1429.17 826.547C1454.62 830.969 1480.69 839.533 1504.58 851.315C1504.71 851.377 1504.84 851.44 1504.96 851.506C1534.69 866.866 1560.13 888.122 1578.53 912.976C1578.62 913.1 1578.71 913.225 1578.8 913.35C1604.9 950.158 1615.84 991.9 1609.6 1029.21L1609.64 1029.2C1609.64 1029.2 1609.13 1032.62 1607.82 1038C1607.79 1038.12 1607.77 1038.25 1607.74 1038.37C1607.72 1038.45 1607.69 1038.53 1607.66 1038.61C1605.23 1048.4 1600.18 1064.25 1590.71 1078.41C1587.07 1083.85 1578.9 1083.44 1575.59 1077.79L1555.73 1043.78C1547.34 1030.5 1539.82 1020.52 1531.34 1011.47C1511.63 989.767 1487.35 973.379 1454.94 959.919C1432.26 951.436 1402.48 941.083 1372.57 935.885C1345.78 931.23 1321.82 931.14 1299.7 935.646C1291.46 937.324 1283.51 940.114 1275.92 943.73C1269.71 946.684 1261.73 950.903 1253.12 956.506C1248.23 959.683 1241.66 957.42 1239.77 951.91C1235.58 939.71 1231.87 918.469 1244.6 896.256Z" fill="#FF7043"/>
<path d="M1585.49 1033.04C1594.74 995.935 1581.9 957.263 1560.14 926.584C1542.98 903.402 1519.99 885.016 1494.46 871.831C1437.59 843.782 1363.56 833.191 1305.25 866.515C1288.63 876.314 1273.68 889.423 1264.85 906.905C1261.65 912.581 1267.05 919.861 1273.36 918.517C1276.29 918.07 1279.02 917.367 1282.01 916.419C1342.92 899.109 1405.24 916.877 1463.34 938.63C1495.56 951.971 1524.36 969.751 1548.28 996.085C1559.05 1007.57 1567.94 1020.09 1576.39 1033.66C1578.12 1037.71 1584.43 1037.45 1585.49 1033.04Z" fill="#000072"/>
<path d="M1837.63 1053.14C1846.26 1054.64 1854.91 1052.5 1861.87 1050.78C1863.59 1050.36 1865.21 1049.93 1866.59 1049.7C1867 1049.63 1867.41 1049.55 1867.82 1049.46C1874.79 1047.9 1878.87 1043.68 1880.61 1041.87C1880.76 1041.73 1880.98 1041.49 1881.13 1041.34C1904.35 1017.11 1924.83 1003.72 1945.59 999.194C1946.12 999.077 1946.66 998.941 1947.18 998.785C1951.25 997.586 1955.23 997.5 1959.4 998.076C1997.38 1003.31 2003.66 1020.72 2016.26 1032.03L2023.92 1031.3C2027.17 1034.2 2007.46 1028.91 2011.72 1029.65C2018.49 1030.83 2025.41 1028.98 2030.7 1024.59C2035.82 1020.35 2038.87 1014.18 2039.14 1007.57C2040.41 979.783 2029.92 953.252 2009.6 932.855C1996.16 919.697 1979.11 911.103 1960.07 907.795C1923.76 901.486 1880.93 914.458 1850.94 940.84C1833.48 955.95 1820.37 974.141 1812.1 994.792C1812.01 995.021 1811.51 996.386 1811.51 996.386C1810.61 998.84 1809.6 1001.61 1808.64 1004.83C1802.52 1024.13 1812.88 1044.85 1831.91 1051.57C1833.73 1052.27 1835.65 1052.79 1837.63 1053.14Z" fill="#FF7043"/>
<path d="M2016.28 1006.62C2017.28 985.148 2009.01 964.677 1993.39 949C1958.82 915.166 1899.42 928.657 1866.04 958.017C1851.65 970.477 1840.37 985.751 1833.34 1003.3C1832.37 1005.97 1831.38 1008.6 1830.49 1011.6C1827.96 1019.3 1832.16 1027.59 1839.86 1030.11C1845.06 1032.36 1856.12 1028.25 1862.82 1027.13C1863.18 1027.05 1864.01 1026.11 1864.61 1025.51C1885.67 1003.53 1910.66 983.391 1940.71 976.841C1969.68 968.307 1994.14 987.919 2015.36 1006.96C2015.65 1007.29 2016.27 1007.07 2016.28 1006.62Z" fill="#000072"/>
<path d="M1837.94 948.214C1837.94 948.214 1843.61 1011.95 1893.19 1040.91C1942.76 1069.88 1911.21 1086.31 1862.21 1071.01C1813.21 1055.71 1793.57 1040.3 1796.46 1017.32C1799.35 994.338 1837.94 948.214 1837.94 948.214Z" fill="white"/>
<path d="M1979.54 1201.6C1999.18 1197.66 2039.35 1184.75 2059.56 1143.61C2063.35 1135.89 2060.86 1126.56 2053.71 1121.78C2044.11 1115.36 2026.29 1106.95 1993.73 1099.78C1952.23 1090.63 1913.2 1095.74 1891.56 1100.24C1878.62 1102.93 1870.97 1115.61 1874.63 1128.3C1880.12 1147.38 1899.27 1174.98 1958.85 1199.56C1965.39 1202.26 1972.61 1203 1979.54 1201.6Z" fill="#000072"/>
<path d="M1986 1155.65C1984.23 1228.7 1941.24 1297.26 1865.27 1308.27C1803.26 1316.93 1740.65 1298.53 1684.56 1273.18C1659.98 1261.69 1634.79 1247.42 1612.53 1231.9C1594.44 1219.21 1576.94 1205.64 1561.29 1190.06C1599.37 1212.11 1637.64 1232.58 1677.05 1250.12C1743.96 1279.96 1852.94 1312.8 1915.86 1262.57C1947.55 1237.25 1963.33 1194.76 1966.36 1154.95C1967.31 1142.37 1985.9 1142.93 1986 1155.65Z" fill="#000072"/>
<path d="M1986.95 1274.42C1983.54 1274.42 1980.21 1273.67 1977.06 1272.17C1947.11 1257.96 1961.44 1201.31 1964.62 1190.1C1966.1 1184.88 1971.53 1181.84 1976.76 1183.32C1981.98 1184.8 1985.02 1190.23 1983.54 1195.46C1977.49 1216.91 1974.8 1249.33 1985.49 1254.41C1986.25 1254.76 1987.2 1255 1989.05 1254.3C2000.68 1249.9 2016.97 1222.04 2024.82 1203.66C2026.96 1198.67 2032.72 1196.34 2037.73 1198.48C2042.72 1200.61 2045.04 1206.38 2042.91 1211.38C2039.21 1220.05 2019.57 1263.76 1996.02 1272.69C1992.99 1273.84 1989.94 1274.42 1986.95 1274.42Z" fill="#000072"/>
<path d="M1701.41 1266.39C1701.41 1266.39 1635.69 1227.24 1602.29 1198.8C1568.88 1170.36 1547.75 1158.59 1545.13 1184.71C1542.52 1210.83 1641.56 1252.18 1701.41 1266.39Z" fill="#000072"/>
<path d="M2036.8 1134.37C1984.05 1113.48 1935.71 1084.28 1889.37 1051.99C1833.9 1017.07 1816.66 953.875 1843.33 894.778C1850.4 880.271 1858.55 864.584 1872.55 855.796C1850.15 889.729 1841.55 948.625 1858.5 985.997C1867.38 1006.08 1883.82 1021.64 1902.26 1033.38C1921.19 1046.21 1942.27 1060.06 1961.7 1071.86C1988.57 1088.26 2016.28 1104.13 2044.04 1117.78C2054.13 1122.85 2047.53 1138.33 2036.8 1134.37Z" fill="#000072"/>
<path d="M1946.93 1121.76C1945.97 1127.98 1961.97 1135.61 1982.66 1138.81C2003.36 1142 2020.92 1139.55 2021.87 1133.33C2022.83 1127.11 2006.83 1119.48 1986.14 1116.29C1965.44 1113.09 1947.89 1115.54 1946.93 1121.76Z" fill="white"/>
<path d="M1633.3 1431.55C1563.68 1431.55 1489.12 1419.83 1410.01 1396.37C1226.4 1341.92 1092.56 1255.06 1012.22 1138.18C946.927 1043.2 936.798 954.659 935.474 921.002C934.922 907.008 943.86 894.181 957.205 889.811C980.679 882.123 999.559 874.308 1009.93 869.76C981.365 799.164 1035.23 732.436 1047.69 718.332C1068.77 488.012 1185.81 262.778 1257.67 208.354C1271.73 197.707 1284.4 193.354 1295.28 195.419C1351.13 206 1409.23 350.397 1424.25 390.209C1470.05 379.843 1683.88 342.121 1861.1 490.502C2028.55 630.695 2029.43 854.369 2028.51 888.959C2081.25 943.551 2049.36 1008.98 2034.42 1033.04C2038.53 1035.16 2042.94 1037.26 2047.62 1039.31C2062.99 1046.02 2070.38 1063.68 2064.46 1079.52C2057.37 1098.52 2048.2 1113.96 2043.48 1121.31C2046.09 1128.01 2048.11 1135.01 2049.49 1142.16C2055.82 1174.8 2048.19 1209.9 2028.57 1238.46C2003.4 1275.11 1946.28 1343.27 1846.6 1388.04C1782.04 1417.04 1710.73 1431.55 1633.3 1431.55ZM1289.84 214.584C1286.3 214.584 1279.88 216.205 1269.55 224.032C1201.81 275.326 1086.48 500.643 1066.99 723.363C1066.79 725.589 1065.85 727.684 1064.3 729.301C1063.63 730.006 996.761 801.52 1031.73 870.185C1032.92 872.539 1033.12 875.278 1032.28 877.783C1031.44 880.288 1029.62 882.348 1027.24 883.498C1026.18 884.013 1000.69 896.264 963.326 908.501C958.289 910.151 954.918 914.973 955.123 920.232C956.38 952.18 966.039 1036.29 1028.43 1127.04C1106.15 1240.11 1236.41 1324.38 1415.6 1377.52C1578.06 1425.69 1720.35 1423.19 1838.54 1370.1C1933.85 1327.29 1988.36 1262.27 2012.36 1227.33C2029.02 1203.08 2035.52 1173.41 2030.19 1145.91C2028.73 1138.38 2026.44 1131.08 2023.4 1124.22C2021.99 1121.05 2022.36 1117.37 2024.37 1114.54C2024.49 1114.36 2037.2 1096.29 2046.04 1072.64C2048.3 1066.58 2045.54 1059.85 2039.75 1057.33C2030.63 1053.34 2022.38 1049.14 2015.21 1044.84C2012.79 1043.38 2011.11 1040.96 2010.6 1038.18C2010.1 1035.4 2010.81 1032.54 2012.56 1030.32C2015.06 1027.13 2069.62 955.905 2011.69 899.951C2009.62 897.949 2008.53 895.136 2008.71 892.263C2008.86 889.861 2021.66 650.581 1848.48 505.581C1658.02 346.116 1423.13 410.63 1420.78 411.296C1415.81 412.712 1410.59 410.046 1408.83 405.187C1383.56 335.353 1329.4 221.898 1291.62 214.74C1291.13 214.647 1290.54 214.584 1289.84 214.584Z" fill="#000072"/>
<path d="M2849.93 1756.46L2602.02 2275.07H1888.41L2144.99 1737.96C2153.84 1719.46 2172.78 1707.98 2193.25 1708.65L2237.08 1710.12C2237.71 1710.12 2238.34 1710.17 2239.01 1710.17L2833.85 1729.92C2847.21 1730.37 2855.74 1744.4 2849.93 1756.46Z" fill="#D2CEE0"/>
<g opacity="0.15">
<path d="M2092.67 2029.26C2092.67 2029.26 2168.64 2157.19 2362.44 2157.19C2556.23 2157.19 2666.1 2081.22 2666.1 2081.22L2563.65 2281.59H1966.76L2092.67 2029.26Z" fill="#000072"/>
</g>
<path d="M2237.09 1710.12C2217.29 1710.12 2199.28 1720.04 2190.75 1737.96L1934.17 2275.07H1888.41L2144.99 1737.96C2153.84 1719.46 2172.79 1707.98 2193.25 1708.65L2237.09 1710.12Z" fill="#ABA7BC"/>
<path d="M1934.14 2284.91C1932.72 2284.91 1931.28 2284.6 1929.91 2283.94C1925.01 2281.6 1922.94 2275.73 1925.28 2270.83L2181.86 1733.73C2192.1 1712.3 2214.06 1699.48 2239.31 1700.34C2244.74 1700.52 2248.99 1705.07 2248.81 1710.49C2248.64 1715.92 2244.21 1720.22 2238.66 1719.99C2221.44 1719.43 2206.42 1727.93 2199.6 1742.21L1943.02 2279.31C1941.34 2282.84 1937.81 2284.91 1934.14 2284.91Z" fill="#000072"/>
<path d="M2487.22 2022.04C2477.45 2067.83 2435.11 2105.77 2392.88 2105.77C2350.64 2105.77 2326.01 2067.83 2337.61 2022.04C2348.94 1977.35 2390.69 1941.9 2431.11 1941.9C2471.54 1941.9 2496.75 1977.35 2487.22 2022.04Z" fill="white"/>
<g opacity="0.7">
<path d="M2232.76 1733.79L2812.05 1753.62C2812.05 1753.62 2709.93 1774.85 2532.8 1767.85C2355.66 1760.85 2232.76 1733.79 2232.76 1733.79Z" fill="white"/>
</g>
<path d="M2602.02 2284.9H1888.43C1885.06 2284.9 1881.92 2283.17 1880.12 2280.32C1878.32 2277.46 1878.11 2273.88 1879.56 2270.83L2136.14 1733.73C2146.66 1711.72 2169.2 1697.94 2193.6 1698.82L2834.16 1720.1C2843.77 1720.42 2852.48 1725.51 2857.48 1733.73C2862.47 1741.95 2862.97 1752.03 2858.82 1760.7L2610.89 2279.31C2609.26 2282.73 2605.81 2284.9 2602.02 2284.9ZM1904.03 2265.24H2595.82L2841.08 1752.22C2842.37 1749.52 2842.22 1746.5 2840.67 1743.94C2839.11 1741.37 2836.5 1739.85 2833.5 1739.75L2192.94 1718.47C2176.45 1717.93 2161.04 1727.24 2153.88 1742.2L1904.03 2265.24Z" fill="#000072"/>
<path d="M2630.71 2296.7C2630.71 2302.69 2628.3 2308.05 2624.37 2311.98C2620.48 2315.87 2615.03 2318.28 2609.09 2318.28H1525.04C1513.11 2318.28 1503.45 2308.63 1503.45 2296.7C1503.45 2290.71 1505.87 2285.35 1509.76 2281.42C1513.69 2277.48 1519.09 2275.07 1525.04 2275.07H2609.08C2621.02 2275.07 2630.71 2284.77 2630.71 2296.7Z" fill="#D2CEE0"/>
<path d="M1951.02 2296.7C1951.02 2308.63 1940.56 2318.28 1927.69 2318.28H1525.04C1513.11 2318.28 1503.45 2308.63 1503.45 2296.7C1503.45 2290.71 1505.87 2285.35 1509.76 2281.42C1513.69 2277.48 1519.09 2275.07 1525.04 2275.07H1927.69C1934.12 2275.07 1939.93 2277.48 1944.18 2281.42C1948.42 2285.35 1951.02 2290.71 1951.02 2296.7Z" fill="#B2AEC4"/>
<path d="M1927.68 2325.08C1923.92 2325.08 1920.88 2322.04 1920.88 2318.28C1920.88 2314.52 1923.92 2311.48 1927.68 2311.48C1936.79 2311.48 1944.2 2304.84 1944.2 2296.68C1944.2 2288.51 1936.79 2281.87 1927.68 2281.87C1923.92 2281.87 1920.88 2278.83 1920.88 2275.07C1920.88 2271.31 1923.92 2268.27 1927.68 2268.27C1944.29 2268.27 1957.8 2281.01 1957.8 2296.68C1957.8 2312.34 1944.29 2325.08 1927.68 2325.08Z" fill="#000072"/>
<path d="M2609.1 2326.3H1525.05C1508.71 2326.3 1495.42 2313.01 1495.42 2296.68C1495.42 2280.34 1508.71 2267.05 1525.05 2267.05H2609.1C2625.43 2267.05 2638.72 2280.34 2638.72 2296.68C2638.72 2313.01 2625.43 2326.3 2609.1 2326.3ZM1525.05 2283.09C1517.56 2283.09 1511.47 2289.19 1511.47 2296.68C1511.47 2304.16 1517.56 2310.26 1525.05 2310.26H2609.1C2616.58 2310.26 2622.68 2304.16 2622.68 2296.68C2622.68 2289.19 2616.58 2283.09 2609.1 2283.09H1525.05Z" fill="#000072"/>
<path d="M2227.64 789.391C2213.19 765.749 2206.07 737.368 2209.11 707.677C2216.51 635.611 2280.93 583.189 2353 590.588C2425.06 597.987 2477.49 662.406 2470.09 734.472C2462.69 806.538 2398.27 858.96 2326.2 851.561C2306.16 849.503 2287.64 843.022 2271.5 833.203L2210.8 846.817L2227.64 789.391Z" fill="white"/>
<g opacity="0.5">
<path d="M2350.42 615.684C2283.1 608.772 2222.47 654.068 2208.74 718.807C2208.73 714.183 2208.93 709.517 2209.41 704.813C2216.81 632.747 2281.23 580.325 2353.29 587.724C2425.36 595.123 2477.78 659.543 2470.38 731.609C2469.9 736.333 2469.15 740.966 2468.19 745.51C2467.94 679.305 2417.76 622.598 2350.42 615.684Z" fill="white"/>
</g>
<path d="M2339.87 863.133C2334.97 863.133 2330.04 862.881 2325.09 862.374C2305.38 860.35 2286.77 854.427 2269.7 844.75L2213.18 857.426C2209.42 858.256 2205.5 857.06 2202.87 854.252C2200.23 851.442 2199.28 847.453 2200.37 843.759L2215.89 790.846C2201.34 765.148 2195.27 736.117 2198.3 706.566C2206.3 628.651 2276.21 571.766 2354.11 579.776C2391.85 583.651 2425.83 601.99 2449.77 631.419C2473.72 660.848 2484.78 697.84 2480.9 735.584C2477.03 773.326 2458.69 807.3 2429.26 831.248C2403.68 852.059 2372.4 863.133 2339.87 863.133ZM2271.5 822.335C2273.48 822.335 2275.43 822.875 2277.15 823.917C2292.48 833.241 2309.36 838.905 2327.32 840.748C2359.27 844.024 2390.61 834.667 2415.54 814.386C2440.46 794.103 2455.99 765.328 2459.28 733.363C2462.56 701.398 2453.19 670.067 2432.91 645.143C2412.63 620.219 2383.85 604.684 2351.89 601.403C2285.92 594.631 2226.7 642.799 2219.93 708.788C2217.22 735.189 2223.09 761.102 2236.92 783.722C2238.52 786.339 2238.94 789.508 2238.07 792.45L2226.42 832.174L2269.12 822.596C2269.91 822.421 2270.71 822.335 2271.5 822.335Z" fill="#000072"/>
<g opacity="0.15">
<path d="M2226.9 788.132C2262.83 818.522 2312.33 831.83 2361.48 819.596C2415.99 806.029 2456.16 764.52 2470.6 714.142C2470.95 720.822 2470.79 727.612 2470.09 734.473C2462.69 806.539 2398.27 858.961 2326.2 851.562C2306.16 849.504 2287.64 843.023 2271.5 833.204L2210.8 846.818L2227.64 789.391C2227.39 788.977 2227.15 788.549 2226.9 788.132Z" fill="#000072"/>
</g>
<path d="M2297.66 684.241C2309.01 672.889 2327.42 674.923 2338.77 686.275L2340.53 688.042L2342.3 686.275C2353.65 674.923 2372.06 672.889 2383.41 684.241C2394.76 695.593 2394.76 713.998 2383.41 725.35L2381.64 727.117L2345.95 762.807C2342.96 765.8 2338.11 765.8 2335.12 762.807L2299.43 727.117L2297.66 725.35C2286.31 713.998 2286.31 695.593 2297.66 684.241Z" fill="#FF0068"/>
</svg>
