<svg width="2762" height="3044" viewBox="0 0 2762 3044" fill="none" xmlns="http://www.w3.org/2000/svg">
<g opacity="0.15">
<path d="M2761.74 2199.81C2757.03 2425.76 2673.76 2564.77 2474.48 2679.74C2397.69 2724.06 2312.9 2758.72 2222.54 2782.91C2154.56 2801.04 2100.38 2815.95 2061.48 2827.09C2028.02 2836.7 1943.32 2872.79 1953.46 2923.44C1956.41 2938.11 1962.32 2949.96 1971.03 2958.67C1979.31 2966.91 1982.5 2978.67 1979.6 2990C1976.6 3001.57 1967.94 3010.47 1956.41 3013.71C1911.09 3026.56 1836.44 3043.17 1753.94 3043.17C1646.4 3043.17 1525.47 3014.99 1438.35 2913.49C1357.89 2819.71 1321.43 2702.4 1335.71 2583.05C1342.9 2522.73 1365.32 2445.13 1422.97 2363.34L1166.18 2316.02C1130.62 2320.83 1071.44 2326.92 1000.41 2326.92C975.418 2326.92 948.948 2326.16 921.527 2324.3C874.348 2321.16 835.643 2309.45 808.079 2290.79C781.704 2310.4 746.618 2319.78 671.589 2319.78C657.212 2319.78 641.406 2319.45 623.839 2318.78C546.429 2315.78 493.68 2294.69 467.021 2256.23C446.978 2227.18 443.408 2188.72 457.071 2147.82C480.827 2076.6 593.704 2058.08 616.365 2055.04C655.07 2014.95 701.487 1968.3 738.62 1931.26C738.477 1930.92 738.334 1930.59 738.192 1930.26H2674.71C2722.51 1995.86 2764.12 2086.08 2761.74 2199.81Z" fill="#000072"/>
</g>
<path d="M1065.42 1988.73C1065.42 1988.73 959.237 2083.81 889.439 2150.93C865.991 2173.49 846.657 2192.87 836.842 2204.47C797.729 2250.62 778.693 2271.64 624.273 2265.64C469.853 2259.64 442.786 2180.43 466.879 2108.25C468.416 2103.59 470.448 2099.12 472.877 2094.96C472.877 2094.91 472.877 2094.91 472.877 2094.91C498.506 2049.75 568.256 2031.41 602.164 2025.01C602.263 2024.96 602.312 2024.96 602.362 2024.96H602.412C613.913 2022.78 621.25 2021.99 621.25 2021.99C621.597 2021.64 621.894 2021.29 622.242 2020.95C657.141 1984.76 698.287 1943.27 733.385 1908.22C777.951 1863.7 812.751 1829.5 812.751 1829.5L1065.42 1988.73Z" fill="white"/>
<path d="M889.439 2150.93C865.991 2173.49 846.657 2192.87 836.842 2204.47C797.729 2250.62 778.693 2271.64 624.273 2265.64C469.853 2259.64 442.786 2180.43 466.879 2108.25C467.375 2106.71 467.92 2105.22 468.565 2103.79C469.011 2102.65 469.507 2101.5 470.052 2100.36C470.895 2098.53 471.837 2096.7 472.878 2094.96C498.458 2049.75 568.257 2031.41 602.165 2025.01C602.215 2025.01 602.215 2025.01 602.215 2025.01C602.215 2025.01 602.264 2025.01 602.364 2024.96H602.414C603.703 2024.47 610.94 2021.94 622.243 2020.95C644.154 2019.02 681.235 2022.78 719.505 2058.08C719.505 2058.08 782.314 2051.93 827.326 2069.53C839.819 2074.34 850.972 2081.03 859.003 2090.2C874.22 2107.5 883.837 2129.96 889.439 2150.93Z" fill="#FF7043"/>
<g opacity="0.15">
<path d="M1065.42 1988.73C1065.42 1988.73 959.237 2083.81 889.439 2150.93C883.837 2129.96 874.22 2107.5 859.001 2090.2C850.97 2081.03 839.816 2074.34 827.324 2069.53C820.483 2011.58 791.731 1946.04 733.383 1908.22C777.949 1863.7 812.749 1829.5 812.749 1829.5L1065.42 1988.73Z" fill="#000072"/>
</g>
<path d="M889.439 2150.93C865.991 2173.49 846.657 2192.87 836.842 2204.47C797.729 2250.62 778.693 2271.64 624.273 2265.64C469.853 2259.64 442.786 2180.43 466.879 2108.25C467.375 2106.71 467.92 2105.22 468.565 2103.79C469.011 2102.65 469.507 2101.5 470.052 2100.36C470.895 2098.53 471.837 2096.7 472.878 2094.96C468.317 2126.59 471.688 2180.38 541.735 2196.93C642.963 2220.88 742.357 2207.54 795.351 2183.3C821.03 2171.55 833.82 2123.91 827.326 2069.53C839.819 2074.34 850.972 2081.03 859.003 2090.2C874.22 2107.5 883.837 2129.96 889.439 2150.93Z" fill="#FA531E"/>
<path d="M527.504 2152.83C521.024 2170.7 515.818 2188.63 517.957 2207.24C519.201 2217.76 523.644 2226.99 528.573 2236.43C533.934 2247.69 518.189 2256.93 510.962 2246.87C488.254 2218.23 497.508 2172.44 527.504 2152.83Z" fill="#000072"/>
<path d="M626.259 2167.94C619.779 2185.8 614.575 2203.73 616.712 2222.34C617.956 2232.86 622.399 2242.09 627.328 2251.53C632.689 2262.79 616.944 2272.03 609.717 2261.97C587.009 2233.33 596.263 2187.54 626.259 2167.94Z" fill="#000072"/>
<g opacity="0.6">
<path d="M463.508 2143.59C463.508 2143.59 476.542 2053.23 657.511 2038.81C657.511 2038.81 630.551 2017.71 558.058 2036.34C485.566 2054.97 463.508 2130.95 463.508 2143.59Z" fill="white"/>
</g>
<path d="M671.583 2276.96C657.206 2276.96 641.383 2276.61 623.854 2275.93C546.42 2272.91 493.659 2251.86 467.035 2213.37C446.972 2184.36 443.431 2145.86 457.064 2104.96C480.807 2033.74 593.697 2015.23 616.358 2012.21C694.617 1931.11 804.405 1823.23 805.518 1822.14C808.931 1818.79 814.202 1818.24 818.24 1820.77L1070.9 1980.01C1073.63 1981.74 1075.4 1984.65 1075.67 1987.87C1075.95 1991.09 1074.69 1994.26 1072.28 1996.42C1070.39 1998.11 882.869 2166.09 844.671 2211.14C806.685 2255.94 783.846 2276.95 671.583 2276.96ZM814.154 1842.57C790.116 1866.26 696.637 1958.6 628.673 2029.15C626.996 2030.89 624.757 2031.98 622.355 2032.25C621.117 2032.38 498.307 2046.45 476.63 2111.48C468.471 2135.95 463.127 2171.46 483.996 2201.64C506.411 2234.04 555.051 2252.61 624.655 2255.32C775.217 2261.17 792.038 2241.32 828.94 2197.8C863.254 2157.33 1008.09 2026.39 1048.35 1990.18L814.154 1842.57Z" fill="#000072"/>
<path d="M1149.3 2128.67C1107.21 2116.77 1069.88 2103.09 1036.72 2088.37C817.012 1990.56 781.667 1845.26 781.667 1845.26C768.282 1881.35 766.944 1920.12 766.944 1920.12C665.121 1754.79 775.917 1594.72 778.296 1591.3L710.133 1622.33C712.959 1614.4 716.032 1606.82 719.304 1599.58C766.696 1494.34 854.044 1461.42 854.044 1461.42C813.444 1462.41 793.714 1432.17 793.714 1432.17C831.042 1424.34 866.487 1405.9 894.149 1387.9C894.149 1387.9 894.199 1387.85 894.347 1387.8C928.007 1365.89 950.117 1344.87 950.117 1344.87C950.117 1344.87 992.7 1334.02 1057.79 1321.08C1172.5 1298.18 1356.96 1268.88 1500.82 1281.32C1607.5 1290.49 1691.88 1322.67 1708.88 1397.42C1761.82 1630.22 1149.3 2128.67 1149.3 2128.67Z" fill="white"/>
<g opacity="0.15">
<path d="M1500.82 1281.32C1493.64 1303.68 1487.09 1331.69 1484.81 1366.88C1475.39 1513.47 1442.03 1621.34 1407.53 1737.69C1373.02 1854.04 1368.27 1854.24 1340.8 1915.95C1324.59 1952.44 1177.95 2031.31 1036.72 2088.37C817.014 1990.56 781.669 1845.26 781.669 1845.26C768.284 1881.35 766.946 1920.12 766.946 1920.12C665.123 1754.79 775.919 1594.72 778.298 1591.3L710.135 1622.33C712.961 1614.4 716.034 1606.82 719.306 1599.58C797.731 1536.82 869.215 1541.13 869.215 1541.13C784.346 1597.3 766.301 1794.45 766.301 1794.45C774.976 1760.39 809.727 1738.33 809.727 1738.33C831.143 1906.73 1028.99 1997.65 1028.99 1997.65L1208.1 1679.49L1342.98 1356.67C1069.49 1404.81 894.15 1387.9 894.15 1387.9C894.15 1387.9 894.2 1387.85 894.348 1387.8C898.611 1386.02 967.815 1356.52 1057.79 1321.08C1172.5 1298.17 1356.96 1268.88 1500.82 1281.32Z" fill="#000072"/>
</g>
<path d="M1117.2 1377.71C1085.77 1398.46 1050.73 1414.87 1013.65 1423.04L1020.27 1406.1C1032.88 1419.81 1049.7 1431.72 1067.36 1438.15C1077.17 1443.18 1095.63 1439.47 1094.08 1454.66C1093.44 1458.47 1090.78 1461.45 1087.39 1462.69C1075.01 1467.26 1061.99 1474.21 1050.59 1481.44C1015.05 1503.85 986.107 1536.28 968.138 1574.24L955.871 1559.99C962.096 1558.28 967.501 1557.26 973.325 1556.32C990.568 1553.61 1008.01 1553.1 1025.43 1554.95C1031.19 1555.36 1035.52 1560.51 1034.8 1566.26C1033.97 1572.28 1028.53 1574.54 1025.02 1579.36C1020.54 1584.42 1016.55 1589.97 1012.75 1595.61C987.077 1633.87 982.222 1683.37 996.223 1726.95C970.764 1671.95 978.34 1605.18 1016.97 1557.95L1023.16 1575.45C1002.94 1573.33 981.338 1574.67 961.714 1579.77C953.409 1582.75 945.285 1573.19 949.447 1565.52C975.734 1510.01 1023.42 1465.28 1080.84 1443.13L1082.78 1463.13C1052.15 1458.69 1025.25 1441.89 1004.43 1419.33C1000.72 1415.2 1001.06 1408.83 1005.19 1405.12C1006.92 1403.56 1009.06 1402.71 1011.22 1402.56C1020.03 1402.21 1028.99 1401.63 1037.91 1400.25C1065.13 1396.23 1091.69 1388.55 1117.2 1377.71Z" fill="#000072"/>
<path d="M1149.29 2138.98C1148.35 2138.98 1147.4 2138.85 1146.48 2138.59C896.708 2067.82 810.251 1937.34 782.985 1878.11C778.019 1901.28 777.277 1920.22 777.267 1920.49C777.106 1925.03 773.988 1928.93 769.596 1930.09C765.199 1931.27 760.565 1929.4 758.182 1925.53C678.663 1796.45 725.269 1669.24 753.355 1613.99L714.424 1631.73C710.654 1633.44 706.218 1632.75 703.169 1629.94C700.117 1627.14 699.041 1622.78 700.437 1618.88C731.27 1532.68 787.827 1487.08 822.019 1466.29C797.837 1456.95 785.745 1438.87 785.063 1437.83C783.2 1434.98 782.866 1431.39 784.169 1428.24C785.473 1425.09 788.246 1422.79 791.579 1422.1C870.532 1405.54 942.282 1338.09 943 1337.41C944.277 1336.2 945.844 1335.33 947.551 1334.89C968.999 1329.41 1474.97 1202.05 1656.89 1313.23C1690.36 1333.69 1711.24 1361.25 1718.95 1395.15C1772.69 1631.43 1181.01 2116.14 1155.79 2136.66C1153.94 2138.18 1151.63 2138.98 1149.29 2138.98ZM781.662 1834.95C781.862 1834.95 782.065 1834.95 782.265 1834.97C786.791 1835.23 790.615 1838.42 791.686 1842.82C792.143 1844.66 841.122 2028.7 1146.92 2117.26C1200.41 2072.99 1747.53 1613.77 1698.84 1399.72C1692.32 1371.06 1675.08 1348.52 1646.13 1330.83C1477.9 1228 994.571 1344.49 955.177 1354.25C943.358 1365.06 883.91 1417.12 813.336 1437.86C821.813 1444.53 835.228 1451.59 853.768 1451.13C858.748 1451.01 863.18 1454.52 864.144 1459.46C865.106 1464.4 862.364 1469.31 857.66 1471.08C856.788 1471.41 774.664 1503.71 729.467 1602.21L774.047 1581.89C778.283 1579.96 783.285 1581.11 786.256 1584.69C789.23 1588.27 789.43 1593.41 786.752 1597.21C785.714 1598.69 690.17 1737.49 760.377 1886.39C762.64 1873.05 766.251 1857.2 771.996 1841.68C773.503 1837.62 777.372 1834.95 781.662 1834.95Z" fill="#000072"/>
<path d="M1200.26 2257.41C1200.26 2257.41 1077.32 2281.6 922.206 2271.19C778.841 2261.58 738.786 2173.09 798.918 2101.8C803.776 2095.95 809.378 2090.25 815.624 2084.7C898.312 2011.38 1142.06 2047.92 1142.06 2047.92L1175.57 2168.53L1200.26 2257.41Z" fill="#FF7043"/>
<path d="M1200.26 2257.41C1200.26 2257.41 1077.32 2281.6 922.206 2271.19C778.841 2261.58 738.786 2173.09 798.918 2101.8C795.993 2127.93 799.463 2184.04 879.573 2196.93C943.076 2207.15 1076.38 2188.26 1175.57 2168.53L1200.26 2257.41Z" fill="#FA531E"/>
<g opacity="0.6">
<path d="M809.787 2122.9C814.645 2117.05 820.247 2111.35 826.493 2105.8C902.057 2038.8 1112.09 2063.53 1147.72 2068.29L1142.06 2047.92C1142.06 2047.92 898.313 2011.38 815.625 2084.7C809.379 2090.25 803.777 2095.95 798.919 2101.8C767.656 2138.86 763.543 2180.55 786.88 2213.41C777.231 2184.83 784.904 2152.4 809.787 2122.9Z" fill="white"/>
</g>
<path d="M853.59 2154.7C843.571 2170.93 841.595 2190.87 844.083 2209.04C846.391 2221.9 853.729 2233.96 862.114 2244.14C865.137 2247.75 868.52 2251.48 871.518 2254.33C875.615 2258.28 875.736 2264.8 871.788 2268.9C868.028 2272.8 861.903 2273.07 857.792 2269.68C848.692 2262.02 842.207 2253.74 836.414 2243.67C821.956 2219.38 823.392 2186.4 840.36 2164.05C843.745 2159.75 847.766 2155.89 852.781 2153.57C853.132 2153.41 853.549 2153.56 853.71 2153.92C853.84 2154.2 853.764 2154.48 853.59 2154.7Z" fill="#000072"/>
<path d="M957.726 2159.54C947.706 2175.77 945.731 2195.71 948.218 2213.88C950.527 2226.74 957.864 2238.8 966.249 2248.99C969.272 2252.59 972.656 2256.32 975.653 2259.17C979.751 2263.12 979.872 2269.64 975.924 2273.74C972.164 2277.64 966.039 2277.91 961.927 2274.52C952.827 2266.86 946.342 2258.58 940.549 2248.51C926.091 2224.22 927.527 2191.24 944.495 2168.89C947.88 2164.59 951.902 2160.73 956.916 2158.42C957.268 2158.25 957.684 2158.41 957.846 2158.76C957.975 2159.04 957.899 2159.32 957.726 2159.54Z" fill="#000072"/>
<path d="M1000.42 2284.07C975.407 2284.07 948.937 2283.31 921.523 2281.47C839.565 2275.98 782.978 2244.79 766.274 2195.91C752.941 2156.89 768.832 2112.44 808.784 2077.01C894.106 2001.32 1133.44 2036.19 1143.58 2037.72C1147.61 2038.32 1150.9 2041.24 1151.99 2045.16L1210.21 2254.68C1210.98 2257.44 1210.56 2260.4 1209.05 2262.85C1207.54 2265.3 1205.09 2267 1202.27 2267.55C1201.24 2267.75 1116.55 2284.07 1000.42 2284.07ZM1009.44 2049.15C940.109 2049.15 861.452 2057.86 822.468 2092.44C788.447 2122.61 775.078 2157.89 785.791 2189.24C799.47 2229.27 850.728 2256.06 922.905 2260.9C1048.51 2269.33 1153.93 2254.67 1187.29 2249.23L1133.94 2057.22C1116.38 2054.95 1066.01 2049.15 1009.44 2049.15Z" fill="#000072"/>
<path d="M1966.07 2279.72L1917.29 2370.39L1902.27 2398.35L1099.58 2250.42L1088.13 2225.93L1149.3 2128.67L1966.07 2279.72Z" fill="#FF788F"/>
<path d="M1966.07 2279.72L1917.29 2370.39L1088.13 2225.93L1149.3 2128.67L1966.07 2279.72Z" fill="#EF5282"/>
<path d="M1902.24 2408.67C1901.62 2408.67 1901 2408.61 1900.37 2408.5L1097.7 2260.57C1094.43 2259.97 1091.64 2257.81 1090.23 2254.79L1078.79 2230.27C1077.3 2227.1 1077.54 2223.39 1079.4 2220.43L1140.56 2123.17C1142.81 2119.6 1147.02 2117.78 1151.16 2118.52L1967.95 2269.58C1971.19 2270.18 1973.95 2272.29 1975.37 2275.27C1976.8 2278.23 1976.72 2281.71 1975.15 2284.61L1911.32 2403.25C1909.5 2406.63 1905.99 2408.67 1902.24 2408.67ZM1106.67 2241.25L1896.72 2386.86L1950.29 2287.29L1154.29 2140.07L1099.85 2226.65L1106.67 2241.25Z" fill="#000072"/>
<path d="M1913.94 2346.56L1147.95 2210.21C1147.95 2210.21 1118.54 2130 1059.72 2071.18L1758.87 2178.24C1758.87 2178.24 1899.23 2202.19 1913.94 2346.56Z" fill="white"/>
<g opacity="0.15">
<path d="M1099.81 2119.88L1522.25 2191.16L1465.11 2273.78L1587.92 2167L1079.4 2092.85L1099.81 2119.88Z" fill="#000072"/>
</g>
<path d="M1896.56 2346.56C1785.61 2299.77 1798.97 2191.16 1798.97 2191.16C1798.97 2191.16 1896.72 2245.47 1899.23 2290.42C1901.75 2335.36 1896.56 2346.56 1896.56 2346.56Z" fill="#6B1A4E"/>
<path d="M1896.55 2356.88C1895.22 2356.88 1893.86 2356.62 1892.55 2356.07C1775.77 2306.81 1788.59 2191.06 1788.73 2189.9C1789.43 2184.25 1794.6 2180.23 1800.23 2180.92C1805.88 2181.62 1809.89 2186.76 1809.2 2192.41C1808.7 2196.72 1798.51 2294.02 1900.57 2337.06C1905.81 2339.27 1908.27 2345.32 1906.06 2350.57C1904.4 2354.51 1900.58 2356.88 1896.55 2356.88Z" fill="#6B1A4E"/>
<path d="M1913.94 2356.88C1913.34 2356.88 1912.73 2356.82 1912.13 2356.72L1146.14 2220.36C1142.53 2219.72 1139.54 2217.2 1138.27 2213.76C1137.98 2212.98 1108.87 2134.91 1052.43 2078.47C1049.28 2075.32 1048.51 2070.5 1050.52 2066.52C1052.54 2062.54 1056.91 2060.29 1061.28 2060.99L1760.43 2168.05C1762.08 2168.33 1908.87 2195.09 1924.2 2345.52C1924.52 2348.74 1923.32 2351.92 1920.95 2354.12C1919.03 2355.9 1916.52 2356.88 1913.94 2356.88ZM1155.46 2201.07L1901.84 2333.94C1881.23 2211.38 1762.35 2189.31 1757.12 2188.41L1086.97 2085.78C1126.04 2132.63 1148.64 2184.18 1155.46 2201.07Z" fill="#000072"/>
<path d="M2508.1 1241.17L2157.87 1944.51L1960.91 2339.95L1944.35 2373.22C1936.57 2388.88 1920.51 2398.94 1903.01 2398.4C1902.76 2398.4 1902.51 2398.35 1902.27 2398.35C1902.27 2398.35 1903.85 2392.5 1904.75 2382.53C1907.92 2347.14 1902.27 2259.89 1784.93 2198.87L1541.03 2159.46L990.867 2070.52L1576.42 1016.55L2385.85 1047.18C2385.85 1047.18 2491.1 1067.76 2514 1202.2C2516.28 1215.44 2514.1 1229.12 2508.1 1241.17Z" fill="#FF788F"/>
<path d="M1986.78 2265.67C1927.45 2114.64 1841.92 2111.2 1838.31 2111.13L1838.48 2081.39C1842.88 2081.39 1947.16 2083.48 2014.47 2254.79L1986.78 2265.67Z" fill="#FFE33B"/>
<path d="M2450.11 1333.41C2409.1 1198.88 2325.07 1180.24 2321.52 1179.51L2327.19 1150.31C2331.45 1151.13 2432 1172.01 2478.56 1324.74L2450.11 1333.41Z" fill="#FFE33B"/>
<path d="M1784.93 2209.16C1783.32 2209.16 1781.69 2208.78 1780.17 2207.98C1775.12 2205.35 1773.16 2199.12 1775.79 2194.07L2376.69 1042.42C2379.32 1037.37 2385.55 1035.41 2390.6 1038.05C2395.65 1040.68 2397.61 1046.91 2394.97 1051.96L1794.08 2203.61C1792.24 2207.14 1788.65 2209.16 1784.93 2209.16Z" fill="#000072"/>
<path d="M2261.52 1179.55L2207.64 1280.97L1921.55 1819.29L1752.9 2136.7L1152.28 2042.42C1159.81 2009.5 1155.89 1986.3 1148.41 1970.29C1137.01 1945.85 1117.23 1938.16 1117.23 1938.16L1212.8 1766.69V1766.64L1465.53 1313.3L1599.52 1072.87L2004.34 1090.96L2183.99 1098.99C2200 1169.19 2261.52 1179.55 2261.52 1179.55Z" fill="#EF5282"/>
<path d="M2207.64 1280.97L1956.2 1754.08C1901.27 1765.14 1787.8 1851.91 1723.8 1892.06C1613.5 1961.21 1540.28 2005.33 1356.81 1956.21C1221.58 1919.97 1167.49 1951.35 1148.41 1970.29C1137.01 1945.85 1117.23 1938.16 1117.23 1938.16L1212.8 1766.69V1766.64C1312.2 1693.87 1393.4 1700.51 1502.21 1721.63C1636.55 1747.65 1676.66 1675.48 1768.91 1581.24C1861.12 1487 1961.41 1466.97 2047.61 1378.73C2104.23 1320.78 2169.46 1293.12 2207.64 1280.97Z" fill="#D32D64"/>
<path d="M2004.34 1090.96C1956.7 1105.04 1894.73 1126.75 1853.09 1154.12C1776.9 1204.28 1728.81 1212.26 1626.54 1224.31C1572.56 1230.66 1511.33 1273.88 1465.53 1313.29L1599.52 1072.87L2004.34 1090.96Z" fill="#D32D64"/>
<path d="M1752.88 2147C1752.35 2147 1751.82 2146.96 1751.28 2146.87L1150.7 2052.62C1147.87 2052.18 1145.36 2050.59 1143.76 2048.22C1142.15 2045.85 1141.61 2042.93 1142.25 2040.14C1159.11 1966.46 1113.93 1947.96 1113.47 1947.78C1110.69 1946.7 1108.51 1944.47 1107.5 1941.67C1106.49 1938.86 1106.75 1935.75 1108.2 1933.15L1590.51 1067.82C1592.41 1064.41 1596.04 1062.45 1599.98 1062.54L2184.43 1088.69C2189.06 1088.9 2192.99 1092.17 2194.02 1096.69C2208.26 1158.95 2261.02 1168.98 2263.26 1169.37C2266.51 1169.95 2269.31 1172.04 2270.75 1175.01C2272.2 1177.98 2272.16 1181.46 2270.61 1184.37L1761.98 2141.53C1760.18 2144.93 1756.65 2147 1752.88 2147ZM1164.5 2033.91L1747.22 2125.36L2246.42 1185.95C2226.59 1178.79 2190.32 1159.16 2175.89 1108.95L1605.42 1083.43L1131.11 1934.4C1146.91 1945.46 1174.53 1973.92 1164.5 2033.91Z" fill="#FFE33B"/>
<g opacity="0.15">
<path d="M2214.73 2071.17C2211.21 2122.67 2193.41 2161.84 1960.91 2339.95C1943.41 2353.34 1924.77 2367.52 1904.75 2382.54C1907.92 2347.14 1902.27 2259.89 1784.93 2198.87L1541.03 2159.46C1641.22 2082.97 1770.85 2023.08 1873.02 1990.96C2021.94 1944.16 2157.87 1944.51 2157.87 1944.51C2157.87 1944.51 2218.74 2012.37 2214.73 2071.17Z" fill="#000072"/>
</g>
<path d="M1904.33 2408.72C1903.79 2408.72 1903.24 2408.71 1902.7 2408.7L1901.85 2408.66C1898.71 2408.55 1895.79 2407 1893.93 2404.47C1892.07 2401.93 1891.46 2398.68 1892.29 2395.65C1893.51 2391.05 1920.72 2281.94 1781.64 2208.76L989.229 2080.7C985.911 2080.16 983.064 2078.04 981.597 2075.02C980.13 2071.99 980.227 2068.44 981.861 2065.5L1567.41 1011.53C1569.29 1008.13 1572.94 1006.05 1576.81 1006.23L2386.22 1036.89C2386.75 1036.91 2387.28 1036.96 2387.81 1037.07C2388.93 1037.29 2500.36 1060.63 2524.17 1200.45C2526.75 1215.64 2524.32 1231.74 2517.33 1245.78L1953.58 2377.83C1944.17 2396.74 1924.96 2408.72 1904.33 2408.72ZM1007.03 2062.68L1786.58 2188.66C1787.67 2188.84 1788.72 2189.19 1789.7 2189.69C1914.6 2254.65 1918.24 2350.3 1914.55 2386.49C1923.26 2383.67 1930.8 2377.31 1935.12 2368.64L2498.87 1236.59C2503.93 1226.43 2505.7 1214.82 2503.84 1203.91C2483.23 1082.88 2394.25 1059.64 2384.55 1057.46L1582.36 1027.08L1007.03 2062.68Z" fill="#000072"/>
<path d="M1602.01 1915.97C1529.36 1915.97 1470.83 1886.31 1428.08 1864.66C1413.77 1857.41 1401.4 1851.15 1392.13 1847.99C1388.19 1846.66 1384.66 1845.98 1381.6 1845.98C1362 1845.98 1360.68 1882.93 1360.68 1883.3L1360.19 1906.83L1339.15 1896.33C1316.96 1885.22 1299.47 1860.46 1294.59 1833.24C1290.82 1812.26 1292.67 1780.46 1322.89 1748.11C1348.49 1720.71 1389.64 1706.81 1445.2 1706.81C1482.1 1706.81 1526.42 1712.82 1580.71 1725.17C1598.95 1729.32 1613.99 1732.72 1627.55 1735.45L1629.78 1735.9L1629.86 1735.95C1655.08 1741.1 1671.67 1743.4 1683.44 1743.4C1695.81 1743.4 1698.35 1740.79 1698.45 1740.68C1698.76 1740.35 1699.15 1738.76 1698.92 1735.9C1698.71 1733.29 1697.98 1732.05 1697.29 1731.17L1696.78 1730.48C1696.68 1730.37 1696.46 1730.17 1696.25 1729.96C1693.66 1727.51 1688.85 1725.11 1681.52 1722.62C1675.4 1720.51 1668.21 1718.54 1659.88 1716.25C1641.59 1711.22 1618.83 1704.96 1593.46 1693.42C1582.79 1688.54 1572.44 1683.09 1562.66 1677.21C1538.51 1662.67 1523.26 1642.77 1517.33 1618.06C1507.04 1575.22 1528.81 1531.67 1535.74 1519.31C1543.08 1421.83 1612.87 1410.45 1665.03 1410.45C1675.04 1410.45 1684.8 1410.86 1694.74 1411.31C1697.65 1411.45 1700.42 1411.51 1703.06 1411.51C1721.94 1411.51 1732.75 1408.33 1738.76 1405.3C1719.62 1383.33 1684.79 1331.78 1711.83 1270.46C1742.36 1201.36 1828.91 1189.97 1832.58 1189.52L1847.3 1187.71L1849.15 1202.43C1849.17 1202.55 1850.74 1214.94 1853.64 1227.25C1856.41 1238.99 1858.73 1243.81 1859.73 1245.48C1862.44 1247.55 1871.5 1251.06 1878.18 1253.65C1900.54 1262.3 1931.17 1274.16 1940.67 1300.88C1952.52 1334.37 1931.41 1372.28 1923.77 1384.38C1919.86 1443.56 1964.91 1497.56 1965.37 1498.11L1981.33 1516.97L1957.2 1522.24C1938.63 1526.31 1921.22 1528.37 1905.47 1528.37C1838.48 1528.37 1808.43 1491.4 1797.71 1459.23C1744.98 1511.7 1756.25 1605.94 1784.2 1661.83C1802.65 1698.72 1824.85 1753.83 1804.8 1806.27C1790.12 1844.71 1754.91 1875.19 1700.18 1896.86C1668.86 1909.25 1636.52 1915.67 1604.07 1915.96C1604.07 1915.96 1602.01 1915.97 1602.01 1915.97Z" fill="#FFE33B"/>
<path d="M1954.02 1507.72C1810.36 1539.15 1807.68 1432.17 1807.68 1432.17C1724.1 1486.65 1739.81 1606.32 1770.9 1668.49C1801.98 1730.65 1834.05 1827.86 1694.7 1883.04C1662.73 1895.68 1632.34 1900.84 1603.94 1901.08C1508.66 1901.83 1435.54 1847.05 1396.92 1833.91C1346.8 1816.86 1345.81 1883.04 1345.81 1883.04C1315.72 1867.97 1284.64 1810.86 1333.76 1758.26C1382.89 1705.67 1489.17 1719.6 1577.41 1739.67C1594.62 1743.59 1610.38 1747.16 1624.61 1750.03C1624.71 1750.08 1624.76 1750.08 1624.76 1750.08C1683.55 1762.23 1716.17 1763.72 1713.74 1734.67C1713.34 1729.56 1711.71 1725.45 1708.98 1721.98C1708.29 1720.99 1707.4 1720.04 1706.45 1719.15C1701.74 1714.69 1694.9 1711.47 1686.33 1708.54C1665.8 1701.5 1635.27 1696.1 1599.62 1679.89C1590.2 1675.58 1580.39 1670.52 1570.33 1664.47C1492.05 1617.33 1550.35 1523.78 1550.35 1523.78C1556.35 1420.82 1635.86 1423.5 1694.06 1426.18C1741.35 1428.36 1755.03 1413.29 1758.46 1407.59C1759.3 1406.25 1759.55 1405.45 1759.55 1405.45C1759.55 1405.45 1694.11 1347.5 1725.44 1276.46C1752.9 1214.3 1834.4 1204.29 1834.4 1204.29C1834.4 1204.29 1836.04 1217.37 1839.16 1230.66C1841.34 1239.88 1844.22 1249.2 1847.79 1254.4C1856.46 1267.1 1915.25 1273.79 1926.66 1305.86C1938.01 1337.94 1909.26 1379.38 1909.26 1379.38C1902.56 1446.89 1954.02 1507.72 1954.02 1507.72Z" fill="white"/>
<g opacity="0.15">
<path d="M1778.43 1262.93C1764.9 1285.98 1797.96 1335.6 1805.5 1362.67C1811.7 1384.83 1793.6 1414.33 1758.45 1407.58C1759.3 1406.24 1759.54 1405.45 1759.54 1405.45C1759.54 1405.45 1694.11 1347.5 1725.44 1276.46C1752.9 1214.3 1834.4 1204.28 1834.4 1204.28C1834.4 1204.28 1836.04 1217.37 1839.16 1230.66L1837.13 1231.85C1837.13 1231.85 1791.97 1239.88 1778.43 1262.93Z" fill="#000072"/>
</g>
<path d="M1603.94 1901.08C1508.66 1901.83 1435.54 1847.05 1396.92 1833.91C1346.8 1816.86 1345.81 1883.04 1345.81 1883.04C1315.72 1867.97 1284.64 1810.86 1333.76 1758.26C1382.89 1705.67 1489.17 1719.6 1577.41 1739.67C1594.62 1743.59 1610.38 1747.16 1624.61 1750.03C1624.71 1750.08 1624.76 1750.08 1624.76 1750.08C1624.76 1750.08 1527.79 1754.2 1523.28 1783.25C1518.77 1812.35 1619.5 1800.3 1631.05 1826.38C1642.55 1852.45 1563.68 1852.95 1550.5 1859.99C1540.63 1865.24 1556.49 1890.47 1603.94 1901.08Z" fill="#FF7043"/>
<path d="M1706.25 1629.03C1683.15 1588.08 1620.99 1614.85 1627.53 1650.94C1631.55 1673.34 1663.03 1695.16 1686.33 1708.54C1665.8 1701.5 1635.27 1696.1 1599.62 1679.89C1568.89 1634.03 1602.15 1575.83 1659.11 1578.76C1718.25 1581.73 1706.25 1629.03 1706.25 1629.03Z" fill="#FF7043"/>
<path d="M1812.66 1209.05C1812.66 1209.05 1809.16 1240.09 1840.91 1237.47L1834.69 1206.43C1834.69 1206.43 1832.36 1200.55 1812.66 1209.05Z" fill="#000072"/>
<path d="M1547.27 1517.82C1564.33 1504.58 1586.21 1499.57 1607.39 1502.29C1625.8 1503.95 1644.87 1495.23 1658.41 1483.23C1670.96 1475.83 1667.08 1503.82 1665.55 1509.78C1663.54 1517.8 1658.94 1525.43 1652.18 1530.44L1648.58 1521.52C1656.63 1520.11 1665.34 1516.43 1671.79 1511.21C1678.65 1505.89 1682.85 1498.27 1684.62 1489.88C1687.29 1482.36 1695.17 1488.71 1698.26 1492.03C1703.85 1497.68 1707.03 1505.36 1707.98 1513.14L1699.09 1510.77C1708.4 1497.44 1716.46 1481.55 1718.52 1465.4C1718.82 1462.66 1721.31 1460.69 1724.04 1461.02C1725.55 1461.2 1726.83 1462.06 1727.6 1463.24L1738.87 1480.57C1739.07 1480.71 1730.56 1480.57 1730.59 1480.62C1739.28 1468.89 1741.4 1452.64 1740.81 1438.39C1744.43 1449.58 1745.09 1462.12 1742.83 1473.84C1741.43 1478.24 1740.36 1491 1732.74 1488.14C1731.75 1487.67 1731.09 1486.87 1730.56 1485.98L1719.29 1468.64L1728.37 1466.49C1725.9 1485.13 1717.58 1501.51 1707.03 1516.7C1704.56 1520.37 1698.44 1518.66 1698.14 1514.32C1697.33 1507.02 1693.47 1499.48 1687.19 1495.8L1694.22 1492.3C1692.1 1502.6 1686.38 1512.43 1678.03 1518.91C1669.7 1525.48 1660.45 1529.45 1649.93 1531.34C1644.81 1532.27 1642.07 1525.29 1646.33 1522.43C1656.68 1514.7 1658.49 1499.9 1656.75 1487.91L1665.05 1490.57C1656.86 1497.9 1647.98 1503.19 1638.09 1507.22C1628.23 1511.08 1617.4 1513.15 1606.58 1512.18C1597.36 1511.12 1587.52 1511.18 1578.5 1513.58C1569.47 1515.9 1560.35 1520.13 1553.39 1525.61C1548.31 1529.49 1542.19 1521.95 1547.27 1517.82Z" fill="#000072"/>
<path d="M1802.72 1432.55C1803.14 1399.13 1829.79 1372.31 1860.13 1362.68C1841.36 1374.43 1823.1 1389.66 1816 1411.28C1813.73 1417.8 1812.23 1425.59 1812.63 1432.24C1812.94 1438.95 1802.84 1439.3 1802.72 1432.55Z" fill="#000072"/>
<path d="M1812.88 1342.41C1814.41 1339.18 1816.07 1336.53 1817.67 1333.96L1818.56 1332.52C1829.39 1315.05 1830.75 1300.63 1823.98 1275.36C1823.37 1273.75 1823.69 1271.42 1824.97 1269.59C1826.27 1267.74 1828.37 1266.64 1830.6 1266.64H1832.01L1833.73 1267.41C1845.5 1273.01 1853.47 1284.45 1855.42 1298.7C1857.5 1313.88 1852.15 1329.09 1841.47 1338.4C1835.86 1343.89 1828.2 1348.13 1819.58 1350.45L1807.51 1353.69L1812.88 1342.41Z" fill="#FF7043"/>
<path d="M1831.06 1272.52C1854.05 1283.48 1856.16 1317.94 1837.68 1334.05C1832.21 1339.4 1825.36 1342.93 1818.09 1344.88C1819.76 1341.37 1821.68 1338.45 1823.47 1335.55C1836.04 1315.26 1836.13 1298.41 1829.55 1273.87C1829.23 1272.99 1830.22 1272.08 1831.06 1272.52Z" fill="#000072"/>
<path d="M1602.44 1905.88C1531.44 1905.88 1472.51 1876.03 1432.58 1855.8C1417.93 1848.38 1405.27 1841.97 1395.33 1838.59C1384.02 1834.75 1374.73 1835.3 1367.73 1840.24C1351.42 1851.73 1350.76 1882.79 1350.75 1883.1C1350.73 1884.8 1349.83 1886.37 1348.37 1887.26C1346.91 1888.15 1345.1 1888.22 1343.58 1887.46C1327.62 1879.48 1309.31 1859.09 1304.35 1831.51C1300.98 1812.75 1302.72 1784.23 1330.14 1754.88C1382.99 1698.31 1497.19 1716.33 1578.5 1734.82C1638.81 1748.53 1690.89 1760.35 1704.86 1748.23C1706.88 1746.48 1709.49 1743.2 1708.81 1735.05C1707.53 1719.7 1692.92 1715.04 1662.65 1706.73C1638.06 1699.99 1604.38 1690.75 1567.77 1668.71C1545.99 1655.6 1532.27 1637.78 1526.98 1615.76C1516.81 1573.46 1540.96 1529.85 1545.45 1522.24C1552.38 1414.71 1637.71 1418.63 1694.26 1421.22C1735.38 1423.11 1749.21 1411.55 1753.3 1406.32C1740.6 1393.5 1692.45 1338.95 1720.91 1274.45C1749.15 1210.45 1830.35 1199.77 1833.79 1199.34C1836.52 1199.02 1838.98 1200.94 1839.32 1203.65C1840.58 1213.73 1845.29 1242 1851.86 1251.6C1854.18 1254.99 1864.56 1259.01 1874.59 1262.89C1896.32 1271.3 1923.36 1281.76 1931.31 1304.21C1942.45 1335.67 1918.76 1373.99 1914.07 1381.1C1908.43 1445.2 1957.33 1503.93 1957.83 1504.52C1958.95 1505.84 1959.29 1507.66 1958.73 1509.31C1958.18 1510.95 1956.8 1512.19 1955.1 1512.56C1903.22 1523.9 1863.22 1518.9 1836.21 1497.71C1812.94 1479.44 1805.82 1454.19 1803.65 1441.04C1732.98 1493.95 1743.87 1603.34 1775.33 1666.25C1792.94 1701.47 1814.2 1753.95 1795.54 1802.75C1781.88 1838.48 1748.56 1867.04 1696.53 1887.63C1663.43 1900.73 1631.89 1905.88 1602.44 1905.88ZM1381.58 1826.12C1386.83 1826.12 1392.48 1827.15 1398.53 1829.21C1409.12 1832.81 1422.07 1839.37 1437.06 1846.95C1495.63 1876.62 1584.14 1921.44 1692.88 1878.41C1742.23 1858.89 1773.65 1832.24 1786.28 1799.21C1803.54 1754.06 1783.24 1704.23 1766.47 1670.69C1732.4 1602.56 1721.82 1482.24 1804.96 1428.04C1806.46 1427.05 1808.37 1426.97 1809.96 1427.8C1811.55 1428.63 1812.57 1430.27 1812.62 1432.06C1812.63 1432.41 1813.96 1467.73 1842.43 1489.99C1865.69 1508.17 1900.25 1513.02 1945.21 1504.47C1932.1 1486.8 1898.71 1435.61 1904.32 1378.9C1904.41 1378.06 1904.71 1377.26 1905.18 1376.56C1905.45 1376.17 1932.33 1336.8 1921.96 1307.52C1915.54 1289.37 1890.85 1279.82 1871.01 1272.14C1858.01 1267.11 1847.73 1263.13 1843.67 1257.19C1836.27 1246.37 1831.84 1221.14 1830.18 1209.99C1812.65 1213.3 1752.17 1228.17 1729.98 1278.45C1700.49 1345.3 1762.2 1401.19 1762.83 1401.75C1764.29 1403.04 1764.85 1405.08 1764.27 1406.94C1763.4 1409.71 1754.07 1433.95 1693.81 1431.13C1637.78 1428.57 1561.06 1425.03 1555.28 1524.05C1555.23 1524.88 1554.97 1525.68 1554.54 1526.38C1554.26 1526.83 1526.62 1572 1536.63 1613.49C1541.29 1632.81 1553.48 1648.53 1572.88 1660.21C1608.32 1681.55 1639.9 1690.21 1665.27 1697.17C1695.17 1705.37 1716.78 1711.3 1718.69 1734.23C1719.47 1743.59 1717 1750.82 1711.37 1755.72C1694.39 1770.47 1653.38 1762.01 1576.3 1744.49C1497.38 1726.55 1386.75 1708.82 1337.39 1761.65C1312.76 1788 1311.14 1813.23 1314.11 1829.76C1317.78 1850.19 1329.63 1866.03 1341.5 1874.61C1342.94 1863.01 1347.51 1842.36 1362.01 1832.13C1367.69 1828.13 1374.24 1826.12 1381.58 1826.12Z" fill="#000072"/>
<path d="M1791.33 1296.75C1791.33 1296.75 1780.03 1319.83 1800.51 1345.39C1800.51 1345.39 1793.03 1355.03 1780.27 1348.21C1768.4 1341.87 1764.9 1313.7 1791.33 1296.75Z" fill="#FF7043"/>
<path d="M1788.57 1290.13C1788.57 1290.13 1771.46 1295.6 1764.51 1320.1C1764.51 1320.1 1752.98 1316.2 1756.15 1301.22C1759.83 1283.81 1788.57 1290.13 1788.57 1290.13Z" fill="#FF7043"/>
<path d="M1543.98 1302.1C1543.98 1302.1 1573.39 1307.11 1595.11 1287.06C1616.83 1267.01 1623.03 1242.28 1623.03 1242.28C1623.03 1242.28 1617.5 1309.12 1670.98 1316.13C1670.98 1316.13 1598.12 1323.49 1586.42 1384.31C1586.42 1384.31 1603.47 1311.12 1543.98 1302.1Z" fill="#FFE33B"/>
<path d="M1586.43 1389.27C1586.09 1389.27 1585.74 1389.24 1585.39 1389.16C1582.75 1388.6 1581.05 1386.03 1581.56 1383.38C1581.67 1382.79 1581.79 1382.21 1581.91 1381.63C1583.24 1374.54 1587.74 1344.9 1574.29 1325.11C1567.63 1315.3 1557.31 1309.22 1543.64 1307.06C1543.39 1307.02 1543.22 1307 1543.15 1306.99C1540.46 1306.53 1538.65 1304 1539.08 1301.31C1539.52 1298.62 1541.99 1296.77 1544.72 1297.2C1544.8 1297.21 1544.88 1297.22 1544.96 1297.23C1547.23 1297.55 1572.94 1300.77 1591.75 1283.42C1612.04 1264.69 1618.16 1241.3 1618.22 1241.07C1618.85 1238.57 1621.28 1236.95 1623.84 1237.4C1626.38 1237.82 1628.18 1240.12 1627.97 1242.68C1627.76 1245.22 1623.51 1304.91 1671.62 1311.22C1674.11 1311.55 1675.96 1313.69 1675.93 1316.2C1675.89 1318.72 1673.98 1320.81 1671.48 1321.07C1670.79 1321.13 1603.76 1328.65 1591.7 1383.26C1591.47 1384.48 1591.3 1385.24 1591.25 1385.44C1590.72 1387.72 1588.68 1389.27 1586.43 1389.27ZM1568.68 1305.91C1574.15 1309.49 1578.78 1314.05 1582.53 1319.58C1589.76 1330.25 1592.6 1342.92 1593.41 1354.29C1608.75 1331.46 1633.89 1320.47 1651.26 1315.35C1629.55 1304.39 1621.87 1281.39 1619.24 1264.03C1614.69 1272.28 1608.02 1281.89 1598.47 1290.7C1588.96 1299.48 1578.18 1303.84 1568.68 1305.91Z" fill="#000072"/>
<path d="M1823.37 1628.83C1823.37 1628.83 1846.37 1632.75 1863.35 1617.07C1880.34 1601.39 1885.18 1582.06 1885.18 1582.06C1885.18 1582.06 1880.86 1634.32 1922.67 1639.81C1922.67 1639.81 1865.7 1645.56 1856.56 1693.11C1856.56 1693.11 1869.88 1635.89 1823.37 1628.83Z" fill="#FFE33B"/>
<path d="M1856.56 1696.99C1856.29 1696.99 1856.02 1696.96 1855.75 1696.9C1853.68 1696.47 1852.35 1694.45 1852.75 1692.38C1852.84 1691.92 1852.93 1691.47 1853.03 1691.02C1854.07 1685.48 1857.58 1662.3 1847.08 1646.82C1841.86 1639.15 1833.8 1634.4 1823.1 1632.71C1822.91 1632.68 1822.78 1632.66 1822.72 1632.65C1820.62 1632.29 1819.21 1630.31 1819.55 1628.22C1819.88 1626.12 1821.83 1624.68 1823.95 1625C1824.02 1625.01 1824.08 1625.02 1824.14 1625.03C1825.93 1625.27 1846.02 1627.79 1860.72 1614.23C1876.59 1599.58 1881.37 1581.29 1881.42 1581.11C1881.91 1579.15 1883.83 1577.91 1885.81 1578.24C1887.8 1578.57 1889.2 1580.36 1889.04 1582.38C1888.88 1584.36 1885.56 1631.03 1923.17 1635.96C1925.12 1636.22 1926.57 1637.9 1926.54 1639.86C1926.51 1641.83 1925.02 1643.46 1923.06 1643.66C1922.53 1643.72 1870.11 1649.59 1860.68 1692.29C1860.5 1693.24 1860.37 1693.83 1860.33 1693.99C1859.91 1695.78 1858.32 1696.99 1856.56 1696.99ZM1842.69 1631.81C1846.96 1634.61 1850.58 1638.18 1853.51 1642.5C1859.16 1650.84 1861.38 1660.75 1862.02 1669.64C1874.01 1651.79 1893.67 1643.19 1907.25 1639.2C1890.28 1630.62 1884.27 1612.64 1882.21 1599.07C1878.66 1605.52 1873.44 1613.03 1865.98 1619.92C1858.54 1626.79 1850.11 1630.2 1842.69 1631.81Z" fill="#000072"/>
<path d="M1407.53 1609.78C1407.53 1609.78 1425.42 1612.83 1438.63 1600.63C1451.85 1588.43 1455.62 1573.38 1455.62 1573.38C1455.62 1573.38 1452.26 1614.05 1484.79 1618.32C1484.79 1618.32 1440.46 1622.79 1433.35 1659.79C1433.35 1659.79 1443.72 1615.27 1407.53 1609.78Z" fill="#FFE33B"/>
<path d="M1433.35 1662.81C1433.14 1662.81 1432.93 1662.79 1432.72 1662.75C1431.12 1662.4 1430.08 1660.84 1430.39 1659.23C1430.46 1658.87 1430.53 1658.52 1430.6 1658.17C1431.41 1653.85 1434.15 1635.82 1425.97 1623.78C1421.91 1617.8 1415.64 1614.11 1407.31 1612.79C1407.16 1612.77 1407.07 1612.76 1407.02 1612.75C1405.39 1612.47 1404.29 1610.93 1404.55 1609.3C1404.81 1607.67 1406.32 1606.6 1407.98 1606.79C1408.03 1606.8 1408.08 1606.81 1408.12 1606.82C1409.51 1607.01 1425.15 1608.97 1436.59 1598.41C1448.94 1587.02 1452.66 1572.78 1452.69 1572.64C1453.08 1571.12 1454.58 1570.19 1456.11 1570.41C1457.66 1570.67 1458.75 1572.06 1458.62 1573.62C1458.5 1575.17 1455.91 1611.48 1485.18 1615.33C1486.7 1615.52 1487.82 1616.83 1487.8 1618.36C1487.78 1619.89 1486.62 1621.16 1485.09 1621.31C1484.68 1621.36 1443.9 1625.93 1436.56 1659.16C1436.42 1659.9 1436.32 1660.36 1436.29 1660.48C1435.96 1661.87 1434.72 1662.81 1433.35 1662.81ZM1422.55 1612.1C1425.88 1614.27 1428.7 1617.05 1430.98 1620.41C1435.38 1626.9 1437.11 1634.61 1437.6 1641.53C1446.93 1627.64 1462.23 1620.95 1472.8 1617.84C1459.59 1611.17 1454.91 1597.18 1453.32 1586.62C1450.55 1591.63 1446.49 1597.49 1440.68 1602.84C1434.89 1608.19 1428.33 1610.84 1422.55 1612.1Z" fill="#000072"/>
<path d="M2751.45 2156.73C2746.59 2387.15 2660.19 2517.87 2469.33 2627.97C2391.2 2673.03 2307.03 2706.79 2219.88 2730.09C2168.72 2743.73 2105.76 2760.78 2058.67 2774.36C2023.87 2784.33 1931.32 2822.45 1943.36 2882.63C1947.08 2901.37 1954.86 2914.26 1963.79 2923.13C1976.03 2935.32 1970.28 2956.24 1953.62 2960.95C1843.57 2992.14 1594.76 3037.05 1446.14 2863.89C1411.39 2823.39 1384.42 2777.44 1366.83 2728.01C1304.46 2553.07 1358.94 2335 1596.55 2164.17C1699.41 2090.2 1817.54 2040.38 1941.77 2015.5C1989.81 2005.88 2049.55 1995.82 2121.13 1986.94C2126.83 1986.25 2132.38 1985.5 2137.79 1984.76L2338.36 1582.08C2338.36 1582.08 2394.52 1590.26 2455.7 1536.13C2455.7 1536.13 2478.7 1597.6 2405.68 1637.55C2409.25 1636.71 2472.16 1622.19 2519.85 1659.81C2519.85 1659.81 2476.72 1658.67 2453.67 1685.14C2453.67 1685.14 2494.76 1690.45 2526.88 1708.54L2481.72 1732.63C2481.72 1732.63 2484.65 1734.12 2489.95 1737.05C2490.3 1737.24 2490.65 1737.44 2490.99 1737.69C2538.93 1764.66 2756.81 1901.53 2751.45 2156.73Z" fill="white"/>
<path d="M2124.65 2504.98C2125.84 2505.58 2127.13 2506.07 2128.52 2506.37C2154.34 2512.17 2189.64 2520.94 2225.23 2532.54C2235.84 2536.01 2239.91 2548.85 2233.26 2557.83C2220.47 2575.08 2198.91 2602.54 2172.09 2630.45C2162.42 2640.41 2169.02 2657.12 2182.85 2658.06C2195.39 2658.85 2209.77 2659.95 2223.6 2661.28C2237.82 2662.72 2243.57 2680.42 2232.87 2689.89C2216.76 2704.07 2195.59 2723 2175.21 2742.09C2162.82 2745.41 2150.23 2748.83 2137.74 2752.25C2130.7 2754.18 2123.76 2756.07 2116.87 2758C2109.98 2759.88 2103.18 2761.77 2096.54 2763.65C2090.44 2765.34 2084.45 2767.02 2078.6 2768.66C2071.71 2770.64 2065.06 2772.53 2058.67 2774.36C2023.87 2784.32 1931.32 2822.45 1943.36 2882.63C1947.08 2901.37 1954.86 2914.25 1963.79 2923.13C1976.03 2935.32 1970.28 2956.24 1953.62 2960.95C1843.57 2992.13 1594.76 3037.05 1446.14 2863.89C1440 2856.75 1434.1 2849.41 1428.5 2841.93C1426.61 2839.45 1424.73 2836.92 1422.94 2834.39C1421.11 2831.86 1419.32 2829.33 1417.54 2826.76C1415.76 2824.23 1414.02 2821.65 1412.33 2819.02C1411 2817.04 1409.71 2815.06 1408.47 2813.03C1405.2 2807.97 1402.07 2802.81 1399.1 2797.61C1397.76 2795.33 1396.42 2793.05 1395.18 2790.72C1395.18 2790.72 1395.18 2790.67 1395.13 2790.57C1393.99 2788.64 1392.9 2786.7 1391.91 2784.72C1390.92 2782.79 1389.88 2780.9 1388.89 2778.92C1387.1 2775.5 1385.42 2772.08 1383.78 2768.61C1382.74 2766.53 1381.75 2764.39 1380.81 2762.26C1375.6 2751.06 1370.94 2739.61 1366.83 2728.01C1304.46 2553.07 1358.94 2334.99 1596.55 2164.16C1627.78 2141.71 1660.4 2121.48 1694.21 2103.49C1694.21 2103.49 1696.29 2102.35 1700.2 2100.36C1716.91 2091.99 1767.33 2069.18 1835.19 2059.91C1878.87 2053.91 1929.78 2053.57 1983.61 2066.26C1994.92 2068.89 1999.92 2082.22 1993.18 2091.69L1945.74 2158.22C1937.61 2169.67 1946.68 2185.38 1960.66 2184.04C1998.59 2180.38 2061.4 2177.8 2126.63 2189.99C2139.72 2192.47 2144.43 2208.83 2134.71 2218C2112.7 2238.67 2078.25 2271.14 2048.56 2299.3C2037.35 2309.91 2045.73 2328.7 2061.1 2327.46C2108.49 2323.79 2183.59 2323.05 2253.54 2344.02C2265.79 2347.69 2269.21 2363.5 2259.64 2371.98C2232.87 2395.62 2182.4 2437.96 2123.11 2476.73C2112.26 2483.86 2113.94 2499.58 2124.65 2504.98Z" fill="#FF7043"/>
<g opacity="0.15">
<path d="M2338.35 1582.06C2338.35 1582.06 2292.25 1709.58 2294.26 1749.68C2296.26 1789.78 2328.33 1816.85 2332.35 1874C2336.37 1931.15 2227.99 1986.25 2137.8 1984.77L2338.35 1582.06Z" fill="#000072"/>
</g>
<g opacity="0.15">
<path d="M2751.45 2156.73C2746.59 2387.15 2660.19 2517.87 2469.33 2627.97C2391.2 2673.03 2307.03 2706.79 2219.88 2730.09C2205.7 2733.86 2190.63 2737.92 2175.22 2742.09C2195.59 2723 2216.76 2704.07 2232.87 2689.89C2243.58 2680.42 2237.83 2662.72 2223.6 2661.29C2209.77 2659.95 2195.39 2658.86 2182.85 2658.06C2169.02 2657.12 2162.43 2640.42 2172.09 2630.45C2198.91 2602.54 2220.48 2575.08 2233.27 2557.83C2239.91 2548.85 2235.84 2536.02 2225.23 2532.55C2189.64 2520.95 2154.35 2512.17 2128.52 2506.37C2127.13 2506.07 2125.84 2505.58 2124.65 2504.98C2223.35 2477.47 2331.62 2445.74 2436.61 2398.35C2742.33 2260.44 2763.85 1893.85 2490.99 1737.69C2538.93 1764.66 2756.81 1901.53 2751.45 2156.73Z" fill="#000072"/>
</g>
<path d="M2232.87 2689.89C2216.76 2704.07 2195.59 2723 2175.21 2742.09C2162.82 2745.41 2150.23 2748.83 2137.74 2752.25C2130.7 2754.18 2123.76 2756.07 2116.87 2758C2109.98 2759.89 2103.18 2761.77 2096.54 2763.65C2090.44 2765.34 2084.45 2767.02 2078.6 2768.66C2071.71 2770.64 2065.06 2772.53 2058.67 2774.36C2023.87 2784.32 1931.32 2822.45 1943.36 2882.63C1947.08 2901.37 1954.86 2914.26 1963.79 2923.13C1976.03 2935.32 1970.28 2956.24 1953.62 2960.95C1843.57 2992.13 1594.76 3037.05 1446.14 2863.89C1440 2856.75 1434.1 2849.41 1428.5 2841.93C1426.61 2839.45 1424.73 2836.92 1422.94 2834.39C1421.11 2831.86 1419.32 2829.34 1417.54 2826.76C1415.76 2824.23 1414.02 2821.65 1412.33 2819.03C1411 2817.04 1409.71 2815.06 1408.47 2813.03C1405.2 2807.97 1402.07 2802.81 1399.1 2797.61C1397.76 2795.33 1396.42 2793.05 1395.18 2790.72C1394.04 2788.74 1392.95 2786.75 1391.91 2784.72C1390.92 2782.79 1389.88 2780.9 1388.89 2778.92C1387.1 2775.5 1385.42 2772.08 1383.78 2768.61C1382.74 2766.53 1381.75 2764.4 1380.81 2762.26C1375.6 2751.06 1370.94 2739.61 1366.83 2728.01C1392.75 2775.55 1524.17 2977.46 1860.13 2920.7C1860.13 2920.7 1708.78 2850.55 1752.9 2696.13C1781.85 2594.71 1935.73 2557.63 2124.65 2504.98C2125.84 2505.57 2127.13 2506.07 2128.52 2506.37C2154.34 2512.17 2189.64 2520.94 2225.23 2532.54C2235.84 2536.01 2239.91 2548.85 2233.26 2557.82C2220.47 2575.07 2198.91 2602.54 2172.09 2630.45C2162.42 2640.41 2169.02 2657.12 2182.85 2658.06C2195.39 2658.85 2209.77 2659.94 2223.6 2661.28C2237.82 2662.72 2243.57 2680.42 2232.87 2689.89Z" fill="#FA531E"/>
<g opacity="0.6">
<path d="M1395.13 2790.57C1393.99 2788.64 1392.9 2786.71 1391.91 2784.72C1390.92 2782.79 1389.88 2780.91 1388.89 2778.92C1387.1 2775.5 1385.42 2772.08 1383.78 2768.61C1382.74 2766.53 1381.75 2764.4 1380.81 2762.27C1375.6 2751.06 1370.94 2739.61 1366.83 2728.01C1304.46 2553.07 1358.94 2335 1596.55 2164.17C1627.78 2141.71 1660.4 2121.49 1694.21 2103.49C1694.21 2103.49 1696.29 2102.35 1700.2 2100.37C1716.91 2091.99 1767.33 2069.19 1835.19 2059.92C1248.25 2332.67 1392.01 2781.05 1395.13 2790.57Z" fill="white"/>
</g>
<path d="M2136.37 1974.56C2183.39 1966.39 2232.14 1957.97 2274.84 1936.87C2306.65 1921.44 2329.79 1894.14 2326.43 1857.12C2325.86 1845.32 2323.35 1833.32 2320.33 1821.2C2327.33 1831.55 2332.72 1843.12 2335.93 1855.67C2354.86 1929.06 2271.04 1967.58 2213.04 1981.52C2188.75 1987.77 2164.07 1992.01 2139.24 1994.98C2133.58 1995.64 2128.46 1991.58 2127.8 1985.93C2127.16 1980.44 2130.99 1975.46 2136.37 1974.56Z" fill="#000072"/>
<path d="M1753.94 3000.34C1646.4 3000.34 1525.47 2972.13 1438.33 2870.62C1357.87 2776.88 1321.42 2659.54 1335.7 2540.21C1347.72 2439.78 1401.68 2291.56 1590.53 2155.79C1693.48 2081.79 1810.97 2031.19 1939.76 2005.41C1995.46 1994.26 2056.06 1984.61 2119.88 1976.73C2123.64 1976.27 2127.35 1975.79 2131 1975.3L2329.12 1577.46C2331.11 1573.47 2335.43 1571.21 2339.84 1571.85C2341.9 1572.14 2392.41 1578.36 2448.84 1528.41C2451.39 1526.16 2454.87 1525.3 2458.17 1526.12C2461.46 1526.94 2464.14 1529.33 2465.33 1532.51C2465.55 1533.09 2483.15 1582.14 2441.73 1623.72C2466.23 1624.08 2498.38 1629.74 2526.23 1651.7C2529.72 1654.45 2531.05 1659.13 2529.54 1663.31C2528.06 1667.4 2524.18 1670.11 2519.85 1670.11C2519.76 1670.11 2519.67 1670.11 2519.58 1670.11C2519.3 1670.11 2497.23 1669.76 2478.06 1679.38C2493.36 1683.06 2513.85 1689.37 2531.93 1699.56C2535.21 1701.41 2537.22 1704.9 2537.17 1708.66C2537.13 1712.43 2535.04 1715.87 2531.72 1717.64L2503.33 1732.8C2528.32 1747.5 2577.24 1779.51 2626.25 1829.97C2689.82 1895.42 2764.94 2005.27 2761.76 2156.95C2757.02 2382.89 2673.79 2521.94 2474.49 2636.9C2397.68 2681.2 2312.91 2715.9 2222.53 2740.05C2175.91 2752.5 2110.14 2770.28 2061.5 2784.25C2028.01 2793.87 1943.33 2829.92 1953.46 2880.6C1956.4 2895.27 1962.31 2907.12 1971.05 2915.82C1979.34 2924.08 1982.53 2935.8 1979.58 2947.18C1976.58 2958.75 1967.93 2967.6 1956.43 2970.86C1911.07 2983.72 1836.44 3000.33 1753.94 3000.34ZM2344.52 1592.8L2147.03 1989.36C2145.52 1992.41 2142.6 1994.51 2139.24 1994.98C2133.75 1995.75 2128.14 1996.49 2122.41 1997.2C2059.09 2005.01 1999 2014.58 1943.8 2025.63C1817.92 2050.83 1703.12 2100.26 1602.57 2172.54C1457.91 2276.54 1372.71 2404.52 1356.18 2542.66C1342.59 2656.18 1377.33 2767.89 1453.98 2857.18C1600.22 3027.56 1850.14 2979.56 1950.81 2951.02C1955.18 2949.78 1958.47 2946.41 1959.61 2942C1960.14 2939.98 1960.88 2934.81 1956.49 2930.43C1944.81 2918.79 1936.99 2903.39 1933.24 2884.64C1917.34 2805.16 2050.14 2766.05 2055.8 2764.43C2104.59 2750.41 2170.51 2732.6 2217.21 2720.12C2305.85 2696.44 2388.94 2662.43 2464.18 2619.04C2658.86 2506.75 2736.51 2377.07 2741.13 2156.52C2746.94 1879.84 2479.84 1743.21 2477.14 1741.86C2473.69 1740.14 2471.49 1736.63 2471.44 1732.78C2471.38 1728.92 2473.48 1725.35 2476.89 1723.54L2503.97 1709.08C2478.3 1698.82 2452.66 1695.4 2452.34 1695.35C2448.57 1694.87 2445.38 1692.34 2444.03 1688.79C2442.68 1685.23 2443.4 1681.22 2445.9 1678.35C2457.94 1664.54 2474.35 1657.33 2488.69 1653.56C2449.48 1637.59 2408.56 1647.46 2408.07 1647.58C2403.02 1648.85 2397.84 1646.17 2395.95 1641.33C2394.06 1636.5 2396.05 1631.02 2400.61 1628.53C2443.94 1604.9 2449.78 1573.58 2448.78 1555.11C2402.68 1590.02 2361.14 1593.21 2344.52 1592.8Z" fill="#000072"/>
<path d="M788.886 350.877C789.064 350.927 789.209 351.024 789.395 351.114C789.395 351.114 945.864 274.563 1166.14 277.46C1211.09 278.051 1258.66 281.956 1308.13 290.491C1308.13 290.491 1265.15 186.111 1045.84 144.916C897.946 117.107 782.946 55.0891 723.734 17.6481C713.431 11.1211 701.709 9.82812 691.162 12.6351C684.738 14.3881 678.783 17.6891 673.824 22.2241C668.085 27.4991 663.735 34.5211 661.708 42.8991C641.884 124.655 630.98 275.644 788.886 350.877Z" fill="white"/>
<g opacity="0.15">
<path d="M788.886 350.878C789.064 350.928 789.209 351.025 789.395 351.115C789.395 351.115 945.864 274.564 1166.14 277.461C1199.6 261.334 1220.09 250.881 1220.09 250.881C1220.09 250.881 1146.54 181.394 936.5 214.281C726.498 247.16 649.225 100.159 691.13 12.6837C691.13 12.6837 691.122 12.6437 691.163 12.6357C684.739 14.3887 678.784 17.6897 673.825 22.2247C668.086 27.4997 663.736 34.5217 661.709 42.8997C641.884 124.656 630.98 275.645 788.886 350.878Z" fill="#000072"/>
</g>
<path d="M788.889 350.887C846.534 308.715 897.518 265.568 897.518 265.568C639.928 266.982 673.826 22.2354 673.826 22.2354C668.087 27.5104 663.737 34.5333 661.71 42.9103C641.886 124.665 630.983 275.654 788.889 350.887Z" fill="#FF7043"/>
<path d="M808.695 334.759C835.885 314.893 861.636 294.761 881.232 279.061C882.565 277.92 883.913 276.859 885.221 275.807C893.046 269.37 897.515 265.56 897.515 265.56C714.719 266.554 678.724 143.631 673.189 72.1406C662.68 156.202 676.769 271.913 808.695 334.759Z" fill="#FA531E"/>
<path d="M683.605 23.5882C674.354 98.2002 695.996 185.324 762.749 227.784C802.326 253.864 850.466 262.63 897.523 263.499C899.886 263.405 900.44 267.513 897.545 267.623C833.772 269.632 763.854 254.274 719.155 205.372C673.898 156.063 659.014 86.3082 664.044 20.8782C665.758 7.47017 685.569 10.0752 683.605 23.5882Z" fill="#000072"/>
<path d="M789.376 361.437C787.867 361.437 786.356 361.105 784.957 360.441C620.409 282.409 630.819 126.481 651.669 40.4753C655.646 24.0833 666.881 11.0563 682.499 4.7383C698.041 -1.5507 715.085 -0.0176563 729.254 8.94234C784.698 44.0053 899.801 106.974 1047.73 134.777C1269.99 176.545 1315.82 282.111 1317.66 286.584C1319.1 290.056 1318.53 294.025 1316.18 296.955C1313.83 299.885 1310.1 301.32 1306.38 300.671C1021.04 251.481 796.144 359.294 793.907 360.388C792.476 361.085 790.926 361.437 789.376 361.437ZM701.842 21.5683C697.943 21.5683 694.015 22.3254 690.233 23.8534C680.853 27.6474 674.103 35.4793 671.712 45.3373C652.523 124.483 642.623 267.261 789.485 339.722C822.61 324.859 1028.79 238.955 1287.38 276.763C1264.2 246.255 1199.61 184.302 1043.92 155.039C892.618 126.606 774.92 62.2223 718.231 26.3723C713.192 23.1853 707.545 21.5683 701.842 21.5683Z" fill="#000072"/>
<path d="M499.834 1174.47L467.546 1194.92C467.546 1194.92 805.63 1465.17 1298.94 1328.12C1380.98 1305.31 1449.87 1275.35 1507.61 1241.37C1785.4 1078.18 1807.52 822.323 1807.52 822.323L1774.32 821.945L1785.78 771.576L1742.63 781.352L1748.42 731.212C1715.82 750.061 1693.2 749.969 1693.2 749.969C1689.43 741.208 1685.61 732.577 1681.77 724.068C1475.78 268.192 1169.13 134.121 789.003 307.234C580.723 402.138 512.159 596.236 494.041 759.476C494.041 759.476 494.041 759.476 494.01 759.522C492.7 771.375 491.68 783.093 490.854 794.574C488.804 823.055 488.197 850.183 488.543 875.26C488.791 898.607 489.884 920.162 491.333 939.264C495.453 994.788 502.656 1030.01 502.656 1030.01L502.557 1030.11C502.519 1030.12 502.518 1030.12 502.479 1030.12L496.422 1034.72L440.409 1076.99C454.39 1092.1 482.295 1108.76 482.295 1108.76L436.811 1137.15C464.366 1152.21 499.834 1174.47 499.834 1174.47Z" fill="white"/>
<path d="M499.835 1174.47L467.547 1194.92C467.547 1194.92 805.631 1465.17 1298.94 1328.12C1380.98 1305.31 1449.87 1275.35 1507.61 1241.37C1785.4 1078.18 1807.52 822.323 1807.52 822.323L1774.32 821.945L1785.78 771.576L1742.63 781.352L1748.42 731.212C1715.82 750.061 1693.2 749.969 1693.2 749.969C1689.43 741.208 1685.61 732.577 1681.77 724.068C1448.7 846.352 753.771 976.668 657.809 988.132C612.548 993.554 578.178 1001.66 553.444 1009.29C518.37 1020.12 502.663 1030.05 502.663 1030.05C502.663 1030.05 502.626 1030.06 502.557 1030.11L496.422 1034.72L440.408 1076.99C454.389 1092.1 482.294 1108.76 482.294 1108.76L436.811 1137.15C464.367 1152.21 499.835 1174.47 499.835 1174.47Z" fill="#D3D3E5"/>
<g opacity="0.15">
<path d="M502.558 1030.11C502.627 1030.05 502.665 1030.05 502.665 1030.05C502.665 1030.05 518.372 1020.12 553.446 1009.29C550.381 996.383 548.443 984.168 547.487 972.914C532.883 801.537 583.609 698.967 583.609 698.967L494.042 759.475C494.042 759.475 494.042 759.475 494.011 759.521C492.701 771.374 491.681 783.092 490.855 794.573C488.805 823.054 488.199 850.182 488.545 875.259C488.793 898.606 489.885 920.161 491.334 939.263C495.454 994.787 502.658 1030.01 502.658 1030.01L502.558 1030.11Z" fill="#000072"/>
</g>
<g opacity="0.15">
<path d="M499.834 1174.47L467.546 1194.92C467.546 1194.92 805.63 1465.17 1298.94 1328.12C1380.98 1305.31 1449.87 1275.35 1507.61 1241.37C834.499 1484.74 594.544 1183.74 553.444 1009.29C518.37 1020.12 502.663 1030.05 502.663 1030.05C502.663 1030.05 502.626 1030.06 502.557 1030.11L496.422 1034.72L440.409 1076.99C454.39 1092.1 482.295 1108.76 482.295 1108.76L436.811 1137.15C464.366 1152.21 499.834 1174.47 499.834 1174.47Z" fill="#000072"/>
</g>
<path d="M1020.79 1376.93C888.21 1376.93 776.806 1350.92 694.904 1322.66C548.722 1272.24 464.643 1205.79 461.134 1202.98C458.529 1200.9 457.093 1197.69 457.277 1194.36C457.46 1191.03 459.24 1188 462.057 1186.22L480.407 1174.6C467.607 1166.78 448.219 1155.15 431.862 1146.23C428.644 1144.47 426.601 1141.14 426.493 1137.48C426.385 1133.81 428.231 1130.37 431.339 1128.43L463.031 1108.64C453.47 1102.12 441.083 1092.92 432.826 1083.99C430.846 1081.85 429.867 1078.97 430.126 1076.07C430.387 1073.17 431.862 1070.51 434.189 1068.76L491.359 1025.65C486.256 996.602 467.443 873.658 486.684 735.064C515.908 524.542 618.984 373.36 784.765 297.852C965.478 215.552 1130.56 202.115 1275.42 257.94C1446.14 323.716 1588.84 485.538 1699.65 738.956C1707.93 737.584 1723.65 733.634 1743.3 722.296C1746.68 720.353 1750.86 720.48 1754.12 722.618C1757.38 724.756 1759.15 728.551 1758.7 732.423L1754.55 768.082L1783.47 761.515C1786.93 760.714 1790.54 761.769 1793.05 764.279C1795.55 766.784 1796.59 770.402 1795.81 773.854L1787.19 811.774L1807.62 811.994C1810.5 812.028 1813.22 813.254 1815.15 815.378C1817.08 817.502 1818.03 820.334 1817.79 823.195C1817.45 827.106 1808.73 920.265 1740.62 1030.98C1677.97 1132.83 1550.96 1268.78 1301.69 1338.04C1200.75 1366.09 1106.36 1376.93 1020.79 1376.93ZM485.829 1195.57C513.764 1215.32 590.045 1264.79 702.46 1303.45C834.281 1348.8 1044.29 1388.16 1296.17 1318.17C1538.44 1250.86 1661.72 1119.47 1722.49 1021.1C1775.08 935.958 1791.29 860.118 1795.73 832.492L1774.19 832.262C1771.07 832.228 1768.14 830.788 1766.21 828.341C1764.28 825.89 1763.55 822.701 1764.24 819.664L1772.07 785.25L1744.9 791.422C1741.64 792.184 1738.22 791.276 1735.73 789.039C1733.24 786.808 1731.99 783.502 1732.38 780.177L1735.99 749.117C1710.97 760.133 1694.17 760.308 1693.2 760.308C1693.19 760.308 1693.19 760.308 1693.19 760.308C1689.08 760.303 1685.36 757.857 1683.74 754.087C1574.79 501.948 1434.91 341.494 1268 277.183C1128.51 223.433 968.8 236.7 793.314 316.621C632.01 390.083 535.716 531.821 507.11 737.895C485.655 892.446 512.484 1026.64 512.757 1027.98C513.553 1031.87 512.039 1035.88 508.863 1038.28L456.346 1077.88C469.798 1089.27 487.345 1099.81 487.562 1099.94C490.643 1101.78 492.545 1105.1 492.579 1108.69C492.613 1112.28 490.777 1115.63 487.73 1117.53L457.022 1136.7C480.894 1150.43 505.044 1165.57 505.337 1165.75C508.337 1167.64 510.161 1170.93 510.168 1174.47C510.173 1178.01 508.364 1181.3 505.371 1183.2L485.829 1195.57Z" fill="#000072"/>
<path d="M75.7097 630.352C89.1407 650.809 104.049 668.71 120.103 684.288C217.48 778.64 357.878 786.938 471.335 752.825C490.659 746.968 509.246 739.909 526.665 731.817C526.706 731.809 526.746 731.801 526.746 731.801C548.139 721.886 567.808 710.457 585.114 697.891C585.114 697.891 589.137 671.898 596.224 640.267C603.909 605.873 615.164 564.776 628.709 543.235C654.672 501.927 788.698 381.25 788.698 381.25C788.698 381.25 731.973 342.989 548.299 359.995C389.146 374.755 222.1 348.905 98.1566 305.726C69.8976 295.883 39.5857 308.33 25.7967 333.153C23.2247 337.645 21.2807 342.561 19.9497 347.82C19.1397 351.003 18.3867 354.259 17.6557 357.636C3.92767 420.811 2.86868 519.339 75.7097 630.352Z" fill="white"/>
<g opacity="0.15">
<path d="M75.7094 630.352C89.1404 650.809 104.048 668.71 120.102 684.288C217.479 778.64 357.877 786.938 471.334 752.825C499.201 742.282 519.701 734.473 526.664 731.817C526.705 731.809 526.745 731.801 526.745 731.801C528.423 731.139 529.282 730.804 529.282 730.804C529.282 730.804 621.766 699.255 664.825 597.394C664.825 597.394 644.716 621.261 596.224 640.268C545.632 660.145 464.144 674.766 342.407 651.58C103.942 606.124 27.0853 392.527 25.8543 334.53C25.8493 334.069 25.8433 333.608 25.7973 333.154C23.2253 337.646 21.2813 342.562 19.9503 347.821C19.1403 351.004 18.3873 354.26 17.6563 357.637C3.92733 420.811 2.86837 519.339 75.7094 630.352Z" fill="#000072"/>
</g>
<path d="M75.712 630.363C89.143 650.82 104.051 668.72 120.105 684.298C254.49 814.483 470.692 780.861 585.116 697.902C133.307 827.66 17.6581 357.646 17.6581 357.646C3.92908 420.821 2.87103 519.35 75.712 630.363Z" fill="#FF7043"/>
<path d="M100.616 614.083C114.047 634.54 128.955 652.441 145.009 668.019C270.075 789.175 465.928 768.458 584.742 698.134C584.855 698.07 585.01 697.998 585.115 697.893C228.858 800.212 81.6347 529.619 35.3047 410.596C35.4647 467.625 50.6397 537.912 100.616 614.083Z" fill="#FA531E"/>
<path d="M34.5714 340.023C22.0714 387.014 60.3484 444.178 83.0844 484.451C111.131 532.278 143.222 577.76 183.199 615.87C242.545 673.873 321.752 711.2 404.882 717.985C432.64 720.531 460.701 720.118 488.571 717.461C433.253 725.376 375.763 724.095 321.217 708.481C210.011 678.435 125.289 590.016 66.5154 494.61C38.4324 449.039 -0.881567 392.324 13.9134 336.125C14.8614 333.624 15.5484 331.567 17.1084 329.055C24.5414 317.732 41.5704 328.386 34.5714 340.023Z" fill="#000072"/>
<path d="M788.04 382.258C764.376 372.435 738.257 369.235 712.898 366.603C670.118 362.515 627.054 362.684 584.065 365.699C515.18 372.573 444.018 376.563 374.493 371.038C282.789 364.41 191.239 347.53 103.871 318.447L97.6105 316.372L94.5304 315.365C69.3884 306.4 39.2434 320.774 31.1774 346.372C4.76941 440.736 30.2425 542.863 83.4905 623.327C170.038 760.581 344.259 789.741 490.17 738.499C522.67 727.819 553.847 713.657 584.363 696.868C585.562 696.054 586.989 698.013 585.85 698.919C532.837 746.387 461.891 769.2 392.186 777.394C286.129 790.686 171.424 758.592 99.0284 677.144C40.2154 610.384 2.69646 523.017 0.128464 433.562C-0.202536 415.625 0.831409 397.664 3.28441 379.887C6.33241 361.523 8.35345 342.38 18.1055 325.89C34.5105 297.943 70.7974 285.193 101.187 295.928C102.949 296.533 108.534 298.338 110.415 298.989C228.864 338.239 354.567 355.959 479.253 354.484C565.457 352.76 655.276 337.812 740.477 359.802C757.537 364.608 774.689 369.883 789.359 380.304C789.883 380.687 789.997 381.423 789.614 381.947C789.233 382.459 788.571 382.554 788.04 382.258Z" fill="#000072"/>
<path d="M1201.66 319.927L1254.52 342.806L1528.27 461.279C1528.27 461.279 1451.84 141.377 1324.2 77.8673C1308.87 70.2353 1291.15 71.6933 1277.67 80.3923C1277.54 80.4523 1277.37 80.5473 1277.1 80.7183C1277.1 80.7183 1277.1 80.7183 1277.06 80.7263C1270.67 84.9953 1265.27 90.9603 1261.62 98.3503C1258.4 104.901 1255.47 112.74 1253.3 122.111C1243.08 165.738 1201.66 319.927 1201.66 319.927Z" fill="white"/>
<path d="M1494.13 446.48C1494.13 446.48 1450.04 281.862 1401.61 209.694C1353.18 137.527 1335.57 156.246 1327.49 197.756C1319.42 239.267 1299.55 362.287 1299.55 362.287L1494.13 446.48Z" fill="#FF7043"/>
<path d="M1201.66 319.927L1254.52 342.806C1262.4 327.406 1267.11 307.751 1265.82 285.103C1261.57 212.019 1277.59 82.3481 1277.82 80.3271C1277.7 80.3511 1277.48 80.4791 1277.1 80.7201C1277.1 80.7201 1277.1 80.7201 1277.06 80.7281C1270.67 84.9971 1265.27 90.9621 1261.62 98.3521C1258.4 104.903 1255.47 112.742 1253.3 122.113C1243.08 165.738 1201.66 319.927 1201.66 319.927Z" fill="#E5CFDE"/>
<path d="M1528.28 471.569C1526.89 471.569 1525.5 471.291 1524.19 470.719L1197.58 329.406C1192.89 327.375 1190.39 322.209 1191.72 317.267C1192.13 315.729 1233.2 162.711 1243.26 119.747C1245.46 110.362 1248.52 101.627 1252.37 93.7896C1258.92 80.4496 1270.37 70.4496 1284.61 65.6356C1299.25 60.6796 1314.94 61.7486 1328.8 68.6486C1459.24 133.546 1535.14 445.607 1538.31 458.859C1539.22 462.658 1537.9 466.642 1534.91 469.152C1533.02 470.744 1530.66 471.569 1528.28 471.569ZM1213.94 314.016L1512.97 443.401C1493.76 372.708 1423.26 138.684 1319.62 87.1166C1310.71 82.6776 1300.62 81.9846 1291.22 85.1736C1282.22 88.2156 1275 94.5046 1270.88 102.884C1267.72 109.319 1265.18 116.575 1263.34 124.451C1254.6 161.77 1222.81 280.901 1213.94 314.016Z" fill="#000072"/>
<path d="M628.898 1093.47C662.301 1158.74 818.192 1398.7 1279.28 1331.17C1442.66 1307.23 1554.11 1251.78 1630.15 1187.93C1703.11 1126.64 1743.43 1057.62 1765.68 1001.28C1779.32 966.865 1786.2 937.166 1789.63 916.792C1792.41 900.41 1792.04 883.761 1788.51 867.806C1785.07 852.046 1778.53 836.973 1768.93 823.671C1764.09 816.963 1758.28 810.403 1751.34 804.315C1751.34 804.315 1755.77 780.429 1753.65 752.226C1752.71 740.055 1742.61 730.633 1730.39 730.907C1722.28 731.098 1712.5 730.94 1702.88 729.909C1702.88 729.909 1727.85 625.346 1637.95 594.081C1637.95 594.081 1544.83 354.317 1308.13 290.492C1048.06 220.369 850.178 391.444 850.178 391.444C850.178 391.444 704.278 244.169 644.831 259.128C641.542 259.936 638.394 261.682 635.29 264.302C582.196 308.699 557.597 604.96 648.045 855.622C648.045 855.622 612.34 960.296 682.522 1015.48C682.522 1015.48 663.671 1038.47 633.687 1066.44C626.248 1073.35 624.239 1084.42 628.898 1093.47Z" fill="white"/>
<path d="M1537.45 665.687C1554.86 649.951 1569.78 642.848 1581.73 637.121C1593.02 631.716 1599.38 628.67 1605.38 619.728C1606.67 617.683 1617.57 599.862 1621.91 574.253C1621.91 574.253 1657.89 592.052 1671.72 628.097C1671.73 628.123 1671.74 628.144 1671.75 628.17C1679.37 644.945 1686.03 668.174 1683.7 695.834C1680.34 735.226 1656.15 756.653 1634.83 775.588C1628.66 781.031 1622.72 786.346 1617.41 791.915C1604.32 789.628 1549.77 779.391 1529.2 765.488C1505.75 749.668 1501.48 730.077 1501.48 730.077C1501.48 730.077 1501.33 730.149 1501.09 730.237C1505.41 709.858 1515.43 685.556 1537.45 665.687Z" fill="#FF7043"/>
<path d="M1240.99 335.854C1240.99 335.854 1291.32 362.076 1315.36 432.738C1339.4 503.4 1289.34 568.214 1181.73 543.466C1086.44 521.552 1069.34 379.419 1069.34 379.419C1069.34 379.419 1020.17 413.465 1055.56 521.308C1088.91 622.907 1211.17 659.609 1314.74 615.104C1396.46 579.987 1437.05 393.546 1240.99 335.854Z" fill="#FF7043"/>
<path d="M1094.64 1015.26C1094.64 1015.26 984.92 1075.95 855.418 982.438C855.418 982.438 810.273 1021.24 846.581 1081.71C880.379 1138 1018.51 1148.19 1094.64 1015.26Z" fill="#FF7043"/>
<path d="M1127.54 1027.1C1127.54 1027.1 1105.07 1111.8 987.383 1151.67C987.383 1151.67 1009.23 1206.87 1081.44 1187.78C1165.35 1165.6 1127.54 1027.1 1127.54 1027.1Z" fill="#FF7043"/>
<path d="M1653.01 800.296C1653.01 800.296 1684.99 773.025 1692.55 736.713C1692.55 736.713 1729.77 756.275 1713.79 805.47L1653.01 800.296Z" fill="#FF7043"/>
<path d="M844.419 834.352C848.943 863.894 864.005 922.144 913.751 958.442C953.845 987.666 1006.8 996.155 1071.18 983.641C1083.77 981.193 1096.99 977.908 1110.49 973.815C1140.18 964.892 1168.3 957.828 1194.05 952.823C1234.58 944.945 1262.41 943.486 1279.62 943.838C1317.95 945.17 1340.76 967.417 1340.76 967.417C1341.57 932.679 1328.62 904.944 1328.62 904.944C1314.79 870.11 1258.4 757.285 1113.87 768.363C1088.73 770.265 1065.1 773.43 1041.62 777.995C1011.86 783.78 987.815 790.849 968.492 796.496C954.905 800.524 943.133 803.946 933.011 805.914C916.694 809.086 906.151 808.236 894.486 802.268C890.8 800.38 887.407 798.056 884.136 795.498C884.136 795.498 862.946 784.407 841.782 766.965C841.465 779.17 841.433 799.975 843.288 823.564C843.281 824.826 843.307 826.04 843.47 827.31C843.601 828.419 843.757 829.649 843.92 830.92C844.027 832.118 844.126 833.275 844.273 834.465L844.419 834.352Z" fill="#FF7043"/>
<path d="M1300.49 920.59C1304.14 921.1 1306.98 917.5 1305.62 914.075C1293.83 884.389 1244.01 783.192 1115.75 793.031C968.553 804.323 932.632 855.991 875.35 819.786C871.955 817.64 867.569 820.418 868.043 824.407C872.878 865.139 904.179 1010.14 1103.34 950.141C1220.32 914.894 1280.25 917.764 1300.49 920.59Z" fill="#000072"/>
<path d="M1523.02 769.384C1523.02 769.384 1516.43 717.978 1554.02 684.043C1589.53 651.994 1612.55 662.293 1631.93 623.017C1633.61 619.63 1638.36 619.352 1640.45 622.499C1648.24 634.239 1661.88 660.055 1659.02 693.757C1655.06 740.416 1610.79 754.589 1586.57 790.652C1586.57 790.652 1548.54 789.918 1523.02 769.384Z" fill="#000072"/>
<path d="M1246.62 734.735C1246.62 734.735 1214.67 684.29 1149.08 676.079C1083.49 667.867 999.882 628.315 985.038 468.888C985.038 468.888 906.972 504.458 938.81 607.044C970.648 709.63 1129.03 712.11 1166.6 716.579C1212.71 722.063 1246.62 734.735 1246.62 734.735Z" fill="#FF7043"/>
<path d="M1441.74 663.095C1441.74 663.095 1426.71 629.476 1438.72 555.757C1448.03 498.686 1424.7 414.016 1388.12 393.934C1388.12 393.934 1453.28 368.341 1482.2 438.441C1511.13 508.541 1456.78 574.342 1441.74 663.095Z" fill="#FF7043"/>
<path d="M1234.31 671.408C1234.31 671.408 1313.52 665.074 1333.99 712.084C1354.46 759.093 1299.54 770.903 1285.18 743.668C1270.82 716.432 1270.17 695.597 1234.31 671.408Z" fill="#FF7043"/>
<path d="M1422.34 623.72C1422.34 623.72 1374.54 650.328 1383.6 696.434C1392.65 742.539 1429.05 730.073 1425.23 702.36C1421.41 674.647 1412.61 657.584 1422.34 623.72Z" fill="#FF7043"/>
<path d="M857.934 384.655C865.534 394.745 871.727 405.547 875.398 418.021C875.84 427.077 844.352 401.201 842.385 398.204C832.937 387.744 848.854 373.854 857.934 384.655Z" fill="#000072"/>
<path d="M806.574 446.478C785.965 427.261 711.105 358.826 661.743 331.741C657.768 329.56 652.82 331.77 651.737 336.173C643.394 370.07 616.07 501.602 650.733 653.341C652.179 659.672 660.777 660.748 663.71 654.953C682.901 617.028 734.057 524.333 806.515 456.601C809.459 453.847 809.523 449.228 806.574 446.478Z" fill="#FF7043"/>
<g opacity="0.15">
<path d="M628.898 1093.47C662.301 1158.74 818.192 1398.7 1279.28 1331.17C1442.66 1307.23 1554.11 1251.78 1630.15 1187.93C931.131 1520.15 670.078 1083.32 670.078 1083.32L726.021 1018.73C732.014 1011.81 730.73 1001.41 723.488 995.814C657.644 944.914 681.709 856.096 681.709 856.096C557.848 510.497 635.29 264.303 635.29 264.303C582.196 308.7 557.597 604.961 648.045 855.623C648.045 855.623 612.34 960.297 682.522 1015.48C682.522 1015.48 663.671 1038.47 633.687 1066.44C626.248 1073.35 624.239 1084.42 628.898 1093.47Z" fill="#000072"/>
</g>
<g opacity="0.15">
<path d="M1394.85 1078.37C1397.55 1079.94 1485.76 1130.36 1596.71 1107.15C1709.39 1083.53 1746.38 994.741 1746.38 994.741C1746.38 994.741 1754.12 999.749 1765.68 1001.28C1779.32 966.866 1786.2 937.167 1789.63 916.793C1792.41 900.411 1792.03 883.762 1788.51 867.807C1788.51 867.807 1791.09 922.35 1771.48 917.633C1751.87 912.956 1745.25 870.04 1745.25 870.04L1624.59 893.493C1624.59 893.493 1683.95 920.444 1672.64 986.131C1661.3 1051.87 1504.48 1100.25 1394.85 1078.37Z" fill="#000072"/>
</g>
<path d="M1736.91 905.043C1753.85 892.643 1786.4 862.65 1787.5 814.592C1787.7 805.578 1781.21 797.793 1772.31 796.395C1760.34 794.517 1739.68 794.371 1705.54 801.891C1662.01 811.477 1627.12 833.542 1608.51 847.358C1597.39 855.617 1595.7 871.058 1604.77 881.527C1618.4 897.254 1648.79 915.086 1716.31 912.217C1723.73 911.902 1730.92 909.425 1736.91 905.043Z" fill="#000072"/>
<path d="M1722.8 858.475C1753.28 928.989 1742.71 1012.74 1675.17 1056.91C1665.33 1063.42 1654.17 1069.8 1643.14 1074.13C1594.61 1095.83 1540.47 1102.79 1487.74 1103.16C1459.29 1103.05 1429.04 1100.58 1401.01 1095.62C1378.21 1091.51 1355.57 1086.32 1333.81 1078.38C1379.76 1082.59 1425.2 1085.2 1470.43 1084.52C1547.2 1083.46 1665.51 1066.61 1703.18 991.118C1722.18 953.065 1718.47 905.678 1703.8 866.454C1699.16 854.077 1717.1 846.411 1722.8 858.475Z" fill="#000072"/>
<path d="M1765.88 973.292C1765.8 973.292 1765.73 973.292 1765.65 973.292C1730.88 972.965 1719.56 912.74 1717.64 900.67C1716.75 895.05 1720.58 889.772 1726.2 888.873C1731.82 887.979 1737.11 891.808 1738.01 897.433C1741.7 920.514 1753.43 952.555 1765.84 952.667C1766.7 952.579 1767.73 952.477 1769.18 951.002C1778.31 941.686 1781.53 907.994 1780.9 887.047C1780.74 881.354 1785.21 876.603 1790.9 876.432C1796.64 876.246 1801.35 880.729 1801.52 886.417C1801.82 896.3 1802.39 946.554 1783.92 965.426C1778.88 970.577 1772.64 973.292 1765.88 973.292Z" fill="#000072"/>
<path d="M1500.79 1089.27C1500.79 1089.27 1421 1080.98 1376.67 1068.64C1332.35 1056.29 1307.06 1054.41 1316.08 1080.42C1325.1 1106.42 1437.57 1102.12 1500.79 1089.27Z" fill="#000072"/>
<path d="M1761.77 815.831C1702.36 819.204 1643.49 812.716 1585.16 802.415C1516.99 793.613 1472.7 741.11 1472.06 673.101C1472.41 656.185 1473.24 637.638 1482.7 623.126C1476.26 665.19 1494.27 725.285 1526.71 753.216C1539.44 764.33 1555.18 771.605 1571.67 775.755C1582.38 778.279 1602.52 781.015 1613.69 782.892C1662.23 790.148 1712.24 795.541 1760.94 796.846C1773.07 796.875 1774.01 814.684 1761.77 815.831Z" fill="#000072"/>
<path d="M1670.69 843.44C1672.51 849.781 1691.1 849.991 1712.2 843.91C1733.31 837.829 1748.93 827.759 1747.1 821.419C1745.28 815.078 1726.69 814.868 1705.59 820.949C1684.48 827.03 1668.86 837.1 1670.69 843.44Z" fill="white"/>
<path d="M1123.79 1353.43C993.418 1353.44 881.078 1325.88 788.451 1270.99C684.454 1209.38 635.8 1129.59 619.708 1098.15C613.019 1085.07 615.868 1068.93 626.637 1058.89C645.59 1041.23 660.111 1025.47 667.982 1016.57C609.684 961.979 631.531 874.743 637.178 855.832C555.73 627.365 567.842 361.452 612.246 277.995C620.933 261.667 631.056 251.95 642.332 249.113C700.137 234.577 819.068 346.374 850.911 377.634C889.927 347.59 1076.78 217.473 1310.81 280.554C1531.94 340.173 1631.36 552.624 1645.72 585.949C1719.97 614.66 1718.45 690.973 1714.84 720.451C1719.69 720.671 1724.82 720.72 1730.17 720.602C1747.58 720.397 1762.57 733.761 1763.92 751.447C1765.53 772.653 1763.61 791.388 1762.36 800.461C1767.8 805.69 1772.8 811.457 1777.27 817.653C1797.68 845.924 1805.89 882.687 1799.81 918.512C1792 964.474 1767.69 1054.5 1692.56 1141.04C1600.16 1247.49 1461.61 1314.89 1280.77 1341.38C1225.9 1349.42 1173.52 1353.43 1123.79 1353.43ZM654.272 268.321C651.796 268.321 649.489 268.575 647.365 269.112C644.333 269.874 638.102 273.301 630.453 287.681C588.6 366.338 578.146 631.582 657.758 852.115C658.554 854.317 658.573 856.729 657.817 858.946C657.49 859.918 625.372 957.432 688.902 1007.37C691.082 1009.08 692.48 1011.6 692.782 1014.36C693.082 1017.11 692.262 1019.87 690.504 1022.01C689.715 1022.97 670.86 1045.87 640.699 1073.98C636.636 1077.76 635.552 1083.84 638.067 1088.75C653.34 1118.6 699.595 1194.38 798.963 1253.25C922.755 1326.6 1083.86 1349.4 1277.78 1320.97C1453.6 1295.22 1587.91 1230.14 1676.99 1127.53C1748.82 1044.78 1772.03 958.892 1779.47 915.054C1784.64 884.644 1777.74 853.54 1760.55 829.722C1755.85 823.203 1750.46 817.271 1744.54 812.08C1741.8 809.683 1740.53 806.016 1741.19 802.436C1741.23 802.211 1745.37 779.414 1743.35 753.017C1742.84 746.254 1737.34 741.24 1730.62 741.215C1720.19 741.435 1710.48 741.083 1701.77 740.146C1698.82 739.829 1696.15 738.261 1694.44 735.839C1692.74 733.417 1692.15 730.38 1692.84 727.499C1693.79 723.436 1714.38 631.552 1634.56 603.817C1631.71 602.826 1629.43 600.629 1628.33 597.816C1627.42 595.462 1534.15 362.123 1305.45 300.463C1053.56 232.538 858.841 397.548 856.902 399.228C852.798 402.778 846.651 402.539 842.835 398.681C790.993 346.373 697.363 268.321 654.272 268.321Z" fill="#000072"/>
</svg>
