<svg width="358" height="436" viewBox="0 0 358 436" fill="none" xmlns="http://www.w3.org/2000/svg">
<path d="M179 363.04C176.37 367.198 171.465 370.193 166.471 370.999C158.619 372.265 150.693 372.533 142.785 374.068C135.509 375.481 127.95 376.571 120.736 374.871C113.522 373.171 106.665 368.094 104.88 360.9C106.702 362.3 108.588 363.731 110.81 364.315C113.032 364.899 115.698 364.424 117.059 362.573C121.082 357.102 110.637 356.232 107.806 355.28C101.157 353.071 94.3869 350.802 88.7309 346.665C83.0749 342.529 78.6109 336.147 78.5599 329.14C80.4149 334.986 87.7669 338.367 93.4129 335.97C99.0589 333.573 101.733 325.936 98.8159 320.54C94.3569 312.293 82.3609 312.897 74.3239 308.07C64.1009 301.929 61.9849 288.352 56.4149 277.807C50.8129 267.2 41.2709 259.257 34.4159 249.414C27.5609 239.57 23.7289 225.684 30.6379 215.879C30.1709 221.684 30.5459 228.993 35.8869 231.314C41.7739 233.872 48.1299 227.117 48.2319 220.699C48.3339 214.281 44.6899 208.507 42.1519 202.612C38.7809 194.782 37.2599 186.163 37.7449 177.652C38.2549 168.717 40.7529 160.257 40.9359 151.353C41.1339 141.69 40.1179 132.647 35.8909 123.801C41.5759 128.285 45.3209 133.561 49.0179 139.674C53.6229 137.001 55.4309 131.122 55.2059 125.802C54.9809 120.482 53.1579 115.371 52.2689 110.121C50.5069 99.7223 52.4419 89.0883 52.4069 78.5413C52.3719 67.9943 49.7669 56.4833 41.3929 50.0703C47.0669 49.0363 49.5789 59.0383 55.3449 58.9493C57.9279 58.9093 60.0459 56.6093 60.6799 54.1053C61.3139 51.6013 60.7809 48.9583 60.0999 46.4663C57.8839 38.3523 54.1019 30.6113 53.1709 22.2513C52.2409 13.8923 55.1029 4.24433 62.6889 0.611328C60.2499 3.69533 60.4629 8.25833 62.2299 11.7713C63.9969 15.2843 67.0469 17.9573 70.1079 20.4253C74.7939 24.2033 79.6829 27.7223 84.5699 31.2383C87.6289 33.4403 91.6289 35.7193 94.9119 33.8673C97.3779 32.4763 98.2069 29.1703 97.5779 26.4103C96.9489 23.6503 95.1889 21.3063 93.4729 19.0543C100.908 18.5413 106.884 25.1283 110.312 31.7453C113.74 38.3623 116.14 45.9183 121.913 50.6313C127.234 54.9753 134.908 56.4043 138.911 61.9863C141.344 65.3793 141.947 69.7113 143.513 73.5813C145.079 77.4513 148.423 81.2823 152.584 80.9503C156.628 80.6273 159.402 76.3123 159.471 72.2563C159.54 68.2003 157.632 64.4033 155.745 60.8113C164.023 68.2543 167.614 80.5173 164.659 91.2503C163.906 93.9853 162.759 96.6563 162.626 99.4903C162.493 102.324 163.696 105.487 166.321 106.562C170.296 108.189 174.314 104.267 176.323 100.47C177.395 98.4443 178.29 96.3253 178.999 94.1453C179.708 96.3253 180.603 98.4443 181.675 100.47C183.684 104.266 187.702 108.189 191.677 106.562C194.302 105.487 195.505 102.324 195.372 99.4903C195.239 96.6563 194.092 93.9853 193.339 91.2503C190.384 80.5173 193.975 68.2543 202.253 60.8113C200.367 64.4033 198.458 68.2003 198.527 72.2563C198.596 76.3123 201.37 80.6283 205.414 80.9503C209.575 81.2823 212.92 77.4513 214.485 73.5813C216.051 69.7113 216.654 65.3783 219.087 61.9863C223.09 56.4043 230.764 54.9753 236.085 50.6313C241.858 45.9183 244.258 38.3623 247.686 31.7453C251.114 25.1283 257.09 18.5403 264.525 19.0543C262.809 21.3063 261.049 23.6503 260.42 26.4103C259.791 29.1703 260.62 32.4763 263.086 33.8673C266.369 35.7193 270.369 33.4403 273.428 31.2383C278.314 27.7223 283.203 24.2033 287.89 20.4253C290.951 17.9573 294.001 15.2833 295.768 11.7713C297.535 8.25833 297.748 3.69633 295.309 0.611328C302.895 4.24333 305.758 13.8923 304.827 22.2513C303.897 30.6103 300.114 38.3523 297.898 46.4663C297.218 48.9583 296.685 51.6013 297.318 54.1053C297.952 56.6093 300.07 58.9093 302.653 58.9493C308.419 59.0393 310.932 49.0363 316.605 50.0703C308.231 56.4833 305.626 67.9943 305.591 78.5413C305.556 89.0883 307.49 99.7223 305.729 110.121C304.84 115.371 303.017 120.482 302.792 125.802C302.567 131.122 304.375 137.001 308.98 139.674C312.677 133.561 316.422 128.285 322.107 123.801C317.88 132.646 316.864 141.689 317.062 151.353C317.244 160.257 319.743 168.717 320.253 177.652C320.739 186.163 319.217 194.782 315.846 202.612C313.308 208.508 309.664 214.281 309.766 220.699C309.868 227.117 316.224 233.872 322.111 231.314C327.452 228.993 327.827 221.684 327.36 215.879C334.269 225.685 330.437 239.57 323.582 249.414C316.727 259.258 307.185 267.2 301.583 277.807C296.014 288.353 293.898 301.929 283.674 308.07C275.637 312.897 263.641 312.293 259.182 320.54C256.265 325.936 258.939 333.573 264.585 335.97C270.231 338.367 277.583 334.986 279.438 329.14C279.387 336.147 274.923 342.529 269.267 346.665C263.611 350.801 256.841 353.071 250.192 355.28C247.361 356.233 236.916 357.102 240.939 362.573C242.3 364.424 244.966 364.899 247.188 364.315C249.41 363.731 251.296 362.299 253.118 360.9C251.333 368.094 244.476 373.171 237.262 374.871C230.047 376.571 222.489 375.481 215.213 374.068C207.306 372.533 199.38 372.265 191.528 370.999C186.534 370.194 181.63 367.198 179 363.04Z" fill="#1978FF"/>
<path d="M179 109.282C176.852 111.884 173.456 113.48 170.073 113.265C165.614 112.981 161.53 109.572 160.455 105.234C158.924 99.0542 162.93 91.8092 159.425 86.4942C159.677 89.8922 156.31 92.8112 152.903 92.8982C149.496 92.9852 146.349 90.8562 144.28 88.1482C142.211 85.4402 141.017 82.1852 139.742 79.0252C138.467 75.8652 137.029 72.6682 134.609 70.2682C130.372 66.0672 123.935 65.0432 119 61.6902C109.182 55.0192 106.856 40.3862 96.5012 34.5842C97.8322 36.4332 96.7262 39.2142 94.8152 40.4542C91.2662 42.7592 88.7202 41.0042 85.3042 39.3402C77.1852 35.3852 69.5322 30.4742 62.5542 24.7402C65.3512 27.8042 66.0882 32.2492 65.8922 36.3932C65.6962 40.5372 64.6982 44.6152 64.5522 48.7612C64.2512 57.2802 67.5462 65.6542 67.0102 74.1622C66.9252 75.5042 66.7362 76.8712 66.1262 78.0692C65.5162 79.2672 64.4192 80.2832 63.0912 80.4972C60.3032 80.9462 60.1912 78.6652 59.7252 76.7642C59.0522 74.0232 58.6082 71.3982 58.7802 68.5562C56.7122 71.5162 55.8622 75.1902 55.7582 78.7992C55.6862 81.2862 55.9622 83.6022 56.5482 85.9742C57.2122 88.6592 57.1952 91.6492 57.4152 94.4062C57.8982 100.451 58.2462 106.507 58.4572 112.568C58.6942 119.366 58.7542 126.238 57.3332 132.891C56.4912 136.836 55.1242 140.759 55.3712 144.785C55.4462 146.011 55.6722 147.233 55.5882 148.458C55.5052 149.683 55.0552 150.96 54.0602 151.68C52.5662 152.762 50.3472 152.176 49.0392 150.875C47.7312 149.574 47.1112 147.753 46.5332 146.001C46.9722 147.332 46.6682 149.315 46.8792 150.744C47.1382 152.499 47.5412 154.232 48.0792 155.922C49.1252 159.214 50.6822 162.345 52.6892 165.157C54.5582 167.777 56.3572 169.976 56.6152 173.335C56.8692 176.628 55.9722 179.947 54.9942 183.058C53.4132 188.087 51.8422 193.943 54.8012 198.306C57.5832 202.408 63.4682 203.335 68.2122 201.902C72.9572 200.469 76.8902 197.212 80.8592 194.244C97.8502 181.54 117.903 172.961 138.824 169.446C147.442 167.998 156.214 167.391 164.695 165.286C169.675 164.05 174.619 162.229 178.999 159.59C183.379 162.229 188.323 164.05 193.303 165.286C201.784 167.391 210.557 167.998 219.174 169.446C240.096 172.962 260.148 181.541 277.139 194.244C281.108 197.212 285.042 200.469 289.786 201.902C294.531 203.335 300.415 202.408 303.197 198.306C306.156 193.943 304.585 188.087 303.004 183.058C302.026 179.946 301.13 176.627 301.383 173.335C301.642 169.977 303.441 167.777 305.309 165.157C307.315 162.345 308.872 159.214 309.918 155.922C310.455 154.232 310.858 152.499 311.118 150.744C311.329 149.314 311.026 147.331 311.464 146.001C310.886 147.753 310.267 149.575 308.959 150.875C307.651 152.176 305.432 152.762 303.938 151.68C302.943 150.96 302.493 149.684 302.41 148.458C302.327 147.233 302.552 146.01 302.627 144.785C302.874 140.759 301.508 136.836 300.665 132.891C299.244 126.239 299.304 119.367 299.541 112.568C299.753 106.507 300.1 100.451 300.583 94.4062C300.803 91.6492 300.787 88.6582 301.45 85.9742C302.036 83.6022 302.312 81.2862 302.24 78.7992C302.136 75.1902 301.286 71.5162 299.218 68.5562C299.39 71.3982 298.946 74.0232 298.273 76.7642C297.806 78.6652 297.695 80.9462 294.907 80.4972C293.579 80.2832 292.482 79.2672 291.872 78.0692C291.262 76.8712 291.073 75.5042 290.988 74.1622C290.452 65.6542 293.747 57.2812 293.446 48.7612C293.299 44.6152 292.302 40.5372 292.105 36.3932C291.909 32.2492 292.646 27.8042 295.443 24.7402C288.465 30.4742 280.812 35.3852 272.693 39.3402C269.278 41.0042 266.731 42.7592 263.182 40.4542C261.271 39.2142 260.165 36.4332 261.496 34.5842C251.144 40.3872 248.818 55.0202 239 61.6912C234.065 65.0442 227.627 66.0682 223.391 70.2692C220.971 72.6682 219.533 75.8652 218.258 79.0262C216.983 82.1862 215.789 85.4412 213.72 88.1492C211.651 90.8572 208.504 92.9862 205.097 92.8992C201.69 92.8122 198.324 89.8942 198.575 86.4952C195.07 91.8102 199.077 99.0552 197.545 105.235C196.47 109.572 192.386 112.982 187.927 113.266C184.544 113.48 181.148 111.884 179 109.282Z" fill="#1AC4FF"/>
<path d="M179 355.276C177.068 357.981 173.697 360.076 168.419 361.22C163.238 362.343 157.857 361.639 152.604 360.93C145.022 359.908 137.439 358.886 129.857 357.864C126.804 357.453 123.706 357.029 120.879 355.806C118.052 354.583 115.479 352.436 114.454 349.531C115.499 351.958 119.157 352.373 121.189 350.682C123.22 348.992 123.717 345.975 123.093 343.407C122.469 340.839 120.925 338.607 119.412 336.441C116.358 332.071 113.305 327.702 110.251 323.332C107.047 318.747 103.813 314.127 99.7534 310.28C93.9764 304.805 86.7624 301.111 80.4904 296.21C67.4734 286.039 58.8104 270.474 57.0254 254.051C58.8314 259.616 63.6064 263.796 68.8624 266.367C74.1184 268.938 79.9124 270.148 85.5744 271.626C114.451 279.164 141.297 294.341 162.644 315.198C167.689 320.127 175.33 329.567 179 338.701C182.67 329.568 190.311 320.128 195.356 315.198C216.703 294.341 243.549 279.163 272.426 271.626C278.087 270.148 283.882 268.938 289.138 266.367C294.394 263.796 299.169 259.616 300.975 254.051C299.19 270.474 290.527 286.039 277.51 296.21C271.238 301.111 264.024 304.805 258.247 310.28C254.187 314.128 250.954 318.747 247.749 323.332C244.695 327.702 241.642 332.071 238.588 336.441C237.074 338.607 235.53 340.839 234.907 343.407C234.283 345.975 234.78 348.992 236.811 350.682C238.842 352.372 242.501 351.958 243.546 349.531C242.52 352.436 239.948 354.583 237.121 355.806C234.294 357.029 231.196 357.453 228.143 357.864C220.561 358.886 212.978 359.908 205.396 360.93C200.142 361.638 194.761 362.342 189.581 361.22C184.303 360.076 180.932 357.98 179 355.276Z" fill="#1AC4FF"/>
<path d="M148.675 52.9642C147.97 50.1512 146.462 47.6112 145.448 44.8942C144.434 42.1772 143.951 39.0252 145.288 36.4512C142.852 40.2932 140.364 44.2712 139.614 48.7582C138.865 53.2452 140.296 58.4202 144.204 60.7512C146.063 61.8602 147.242 62.4502 147.873 64.5672C149.252 61.3972 149.495 56.2352 148.675 52.9642Z" fill="#1978FF"/>
<path d="M209.326 52.9642C210.031 50.1512 211.539 47.6112 212.553 44.8942C213.567 42.1772 214.05 39.0252 212.713 36.4512C215.149 40.2932 217.637 44.2712 218.387 48.7582C219.136 53.2452 217.705 58.4202 213.797 60.7512C211.938 61.8602 210.759 62.4502 210.128 64.5672C208.749 61.3972 208.506 56.2352 209.326 52.9642Z" fill="#1978FF"/>
<path d="M40.9335 113.757C40.5215 110.499 41.1865 107.215 41.4765 103.943C41.7665 100.672 41.6215 97.1638 39.8105 94.4238C45.3445 98.3128 48.3006 105.558 47.0666 112.208C46.7476 113.928 46.1756 115.599 45.9686 117.336C45.7736 118.97 46.2345 120.272 46.5065 121.803C43.3885 121.63 41.2535 116.288 40.9335 113.757Z" fill="#1978FF"/>
<path d="M317.067 113.757C317.479 110.499 316.814 107.215 316.524 103.943C316.234 100.672 316.379 97.1638 318.19 94.4238C312.656 98.3128 309.7 105.558 310.934 112.208C311.253 113.928 311.825 115.599 312.032 117.336C312.227 118.97 311.766 120.272 311.493 121.803C314.612 121.63 316.747 116.288 317.067 113.757Z" fill="#1978FF"/>
<path d="M95.2663 334.997C93.7693 332.791 92.8883 330.237 91.8053 327.801C89.1833 321.901 84.8673 316.257 78.6963 314.359C81.8503 317.373 82.8363 321.955 83.5543 326.258C84.2723 330.561 84.9873 335.13 87.8123 338.455C91.4223 342.704 98.7453 343.868 103.284 340.423C100.218 339.375 97.1253 337.736 95.2663 334.997Z" fill="#1AC4FF"/>
<path d="M262.735 334.997C264.232 332.791 265.113 330.237 266.196 327.801C268.818 321.901 273.134 316.257 279.305 314.359C276.151 317.373 275.166 321.955 274.447 326.258C273.729 330.561 273.014 335.13 270.189 338.455C266.579 342.704 259.256 343.868 254.717 340.423C257.783 339.375 260.876 337.736 262.735 334.997Z" fill="#1AC4FF"/>
<path d="M169.169 79.0734C168.727 76.1024 168.441 72.8714 169.95 70.2734C171.085 73.8544 172.22 77.4364 173.355 81.0174C174.172 83.5944 174.991 86.3814 174.145 88.9494C173.063 92.2344 169.661 94.0704 166.552 95.5834C167.279 92.7834 167.931 90.0634 169.082 87.4334C170.246 84.7784 169.476 81.8344 169.169 79.0734Z" fill="#1978FF"/>
<path d="M188.832 79.0734C189.274 76.1024 189.559 72.8714 188.051 70.2734C186.916 73.8544 185.781 77.4364 184.646 81.0174C183.829 83.5944 183.01 86.3814 183.856 88.9494C184.938 92.2344 188.34 94.0704 191.449 95.5834C190.722 92.7834 190.07 90.0634 188.919 87.4334C187.755 84.7784 188.525 81.8344 188.832 79.0734Z" fill="#1978FF"/>
<path d="M81.5614 16.1053C78.8934 12.8643 76.8204 8.84625 77.0804 4.65625C74.8924 7.84925 74.2374 12.0452 75.3474 15.7533C76.4574 19.4613 79.3094 22.6073 82.8914 24.0732C84.4394 24.7062 86.1064 25.0413 87.5954 25.8013C89.0854 26.5613 90.4384 27.8993 90.5714 29.5663C90.3724 27.0813 90.2104 25.0142 88.4604 23.1982C86.1704 20.8202 83.6664 18.6613 81.5614 16.1053Z" fill="#1978FF"/>
<path d="M276.439 16.1053C279.107 12.8643 281.18 8.84625 280.92 4.65625C283.108 7.84925 283.763 12.0452 282.653 15.7533C281.543 19.4613 278.691 22.6073 275.109 24.0732C273.562 24.7062 271.894 25.0413 270.405 25.8013C268.915 26.5613 267.562 27.8993 267.429 29.5663C267.627 27.0813 267.79 25.0142 269.54 23.1982C271.831 20.8202 274.335 18.6613 276.439 16.1053Z" fill="#1978FF"/>
<path d="M53.2565 47.6666C54.2665 46.9986 54.8115 45.7756 54.9015 44.5686C54.9915 43.3606 54.6795 42.1586 54.2795 41.0156C52.9645 37.2576 50.6925 33.9226 48.8945 30.3696C47.0975 26.8176 45.7485 22.8036 46.4935 18.8926C44.2595 24.4086 44.9635 31.0196 48.3105 35.9396C48.8905 36.7916 49.5675 37.6586 49.6425 38.6866C49.7175 39.7146 48.8195 40.8736 47.8255 40.6006C47.2875 40.4526 46.9305 39.9596 46.6165 39.4986C45.7025 38.1276 44.7975 36.7246 43.8115 35.4076C44.4915 38.8096 47.2965 51.6076 53.2565 47.6666Z" fill="#1978FF"/>
<path d="M304.745 47.6666C303.735 46.9986 303.19 45.7756 303.1 44.5686C303.01 43.3606 303.322 42.1586 303.722 41.0156C305.037 37.2576 307.309 33.9226 309.107 30.3696C310.904 26.8176 312.253 22.8036 311.508 18.8926C313.742 24.4086 313.038 31.0196 309.691 35.9396C309.111 36.7916 308.434 37.6586 308.359 38.6866C308.284 39.7146 309.182 40.8736 310.176 40.6006C310.714 40.4526 311.071 39.9596 311.385 39.4986C312.299 38.1276 313.204 36.7246 314.19 35.4076C313.51 38.8096 310.705 51.6076 304.745 47.6666Z" fill="#1978FF"/>
<path d="M122.426 40.9789C121.662 37.8869 121.133 34.7179 119.962 31.7559C118.541 35.3069 117.835 39.2829 118.836 42.9739C119.564 45.6599 121.322 48.1509 123.753 49.5479C124.288 49.8549 127.339 51.3169 126.647 49.7389C126.48 49.3589 125.686 48.8999 125.411 48.4939C124.938 47.7969 124.543 47.0429 124.19 46.2799C123.407 44.5859 122.872 42.7869 122.426 40.9789Z" fill="#1978FF"/>
<path d="M235.575 40.9789C236.339 37.8869 236.868 34.7179 238.039 31.7559C239.46 35.3069 240.167 39.2829 239.165 42.9739C238.437 45.6599 236.679 48.1509 234.248 49.5479C233.713 49.8549 230.662 51.3169 231.355 49.7389C231.522 49.3589 232.316 48.8999 232.591 48.4939C233.064 47.7969 233.459 47.0429 233.812 46.2799C234.594 44.5859 235.129 42.7869 235.575 40.9789Z" fill="#1978FF"/>
<path d="M101.717 365.352C100.667 363.417 99.8488 361.321 98.4108 359.653C96.4108 357.333 93.4638 356.114 90.7558 354.682C89.6518 354.099 88.5758 353.45 87.5948 352.675C87.1258 352.304 86.6738 351.922 86.3178 351.441C85.9598 350.956 85.6498 350.435 85.3948 349.888C85.1648 349.396 84.9788 348.884 84.8408 348.359C84.8798 349.656 85.2548 350.792 85.7328 351.976C86.1748 353.073 86.6648 354.153 87.2398 355.187C87.9968 356.546 88.9078 357.827 90.0278 358.912C91.8408 360.671 94.1378 361.873 95.9328 363.651C97.0978 364.804 98.0228 366.171 99.0418 367.455C100.061 368.739 101.212 369.969 102.671 370.715C104.13 371.461 105.955 371.654 107.393 370.867C105.037 369.273 103.117 367.925 101.717 365.352Z" fill="#1978FF"/>
<path d="M256.284 365.352C257.334 363.417 258.152 361.321 259.59 359.653C261.59 357.333 264.537 356.114 267.245 354.682C268.349 354.099 269.425 353.45 270.406 352.675C270.875 352.304 271.327 351.922 271.683 351.441C272.041 350.956 272.351 350.435 272.606 349.888C272.836 349.396 273.022 348.884 273.16 348.359C273.121 349.656 272.746 350.792 272.268 351.976C271.825 353.073 271.337 354.153 270.761 355.187C270.004 356.546 269.093 357.827 267.974 358.912C266.161 360.671 263.864 361.873 262.069 363.651C260.904 364.804 259.979 366.171 258.96 367.455C257.941 368.739 256.79 369.969 255.331 370.715C253.872 371.461 252.047 371.654 250.609 370.867C252.964 369.273 254.884 367.925 256.284 365.352Z" fill="#1978FF"/>
<path d="M164.757 126.659C140.529 131.033 72.9922 179.895 72.9922 179.895C67.3672 174.592 63.9942 168.156 62.2072 161.089C57.3922 142.164 63.8522 118.71 68.7732 100.488C75.5182 75.4607 68.2252 38.4688 68.2252 38.4688C111.95 45.4887 142.03 86.5088 155.962 110.058C161.765 119.878 164.757 126.659 164.757 126.659Z" fill="white"/>
<path d="M193.243 126.659C217.471 131.033 285.008 179.895 285.008 179.895C290.633 174.592 294.006 168.156 295.793 161.089C300.608 142.164 294.148 118.71 289.227 100.488C282.482 75.4607 289.775 38.4688 289.775 38.4688C246.05 45.4887 215.97 86.5088 202.038 110.058C196.234 119.878 193.243 126.659 193.243 126.659Z" fill="white"/>
<path d="M81.1356 69.6582C81.1356 69.6582 85.5396 96.3612 77.3116 115.581C67.4856 138.532 78.1566 166.786 78.1566 166.786L135.361 131.033C135.361 131.033 126.622 81.3772 81.1356 69.6582Z" fill="#FF58B6"/>
<path d="M276.866 69.6582C276.866 69.6582 272.462 96.3612 280.69 115.581C290.516 138.532 279.845 166.786 279.845 166.786L222.641 131.033C222.641 131.033 231.38 81.3772 276.866 69.6582Z" fill="#FF58B6"/>
<path opacity="0.16" d="M81.9172 127.497C90.1452 108.277 85.7412 81.5742 85.7412 81.5742C112.281 88.4122 126.307 108.163 133.39 123.432C128.906 109.056 115.523 78.5162 81.1352 69.6562C81.1352 69.6562 85.5392 96.3592 77.3112 115.579C67.4862 138.53 78.1562 166.784 78.1562 166.784L79.3852 166.016C77.4002 155.69 76.2572 140.719 81.9172 127.497Z" fill="#001A44"/>
<path opacity="0.16" d="M276.083 127.497C267.855 108.277 272.259 81.5742 272.259 81.5742C245.719 88.4122 231.693 108.163 224.61 123.432C229.094 109.056 242.477 78.5162 276.865 69.6562C276.865 69.6562 272.461 96.3592 280.689 115.579C290.514 138.53 279.844 166.784 279.844 166.784L278.614 166.016C280.599 155.69 281.743 140.719 276.083 127.497Z" fill="#001A44"/>
<path opacity="0.16" d="M164.757 126.66C140.529 131.034 72.992 179.896 72.992 179.896C67.367 174.593 63.994 168.157 62.207 161.09C73.409 146.753 103.001 116.292 155.962 110.059C161.765 119.879 164.757 126.66 164.757 126.66Z" fill="#001A44"/>
<path opacity="0.16" d="M193.243 126.66C217.471 131.034 285.008 179.896 285.008 179.896C290.633 174.593 294.006 168.157 295.793 161.09C284.591 146.753 254.999 116.292 202.038 110.059C196.234 119.879 193.243 126.66 193.243 126.66Z" fill="#001A44"/>
<path d="M179 342.171C174.49 348.251 164.55 358.311 152.56 356.001C138.21 353.231 129.89 341.751 124.7 332.251C124.34 331.611 124 330.971 123.68 330.351C118.58 320.561 101.93 312.631 86.6299 302.161C71.3199 291.691 50.6499 237.181 57.3599 192.331C60.7099 169.951 77.3199 150.511 99.9399 136.651C111.01 129.871 123.53 124.431 136.66 120.631C150.44 116.631 164.88 114.461 179 114.461C193.12 114.461 207.56 116.631 221.34 120.631C234.47 124.431 246.99 129.871 258.06 136.651C280.68 150.511 297.29 169.951 300.64 192.331C307.35 237.181 286.68 291.691 271.37 302.161C256.07 312.631 239.42 320.561 234.32 330.351C234 330.971 233.66 331.611 233.3 332.251C228.11 341.751 219.79 353.231 205.44 356.001C193.45 358.311 183.51 348.251 179 342.171Z" fill="white"/>
<path d="M153.222 278.261C153.222 278.261 161.099 267.341 146.42 241.921C131.741 216.501 93.0744 197.346 93.0744 197.346L100.414 210.056C100.414 210.056 82.6923 196.272 79.2903 187.5C79.2903 187.5 77.2493 239.777 112.676 256.51C112.676 256.51 146.956 261.792 153.222 278.261Z" fill="#D6094D"/>
<path d="M204.779 278.261C204.779 278.261 196.902 267.341 211.581 241.921C226.26 216.501 264.927 197.346 264.927 197.346L257.587 210.056C257.587 210.056 275.309 196.272 278.711 187.5C278.711 187.5 280.752 239.777 245.325 256.51C245.325 256.51 211.045 261.792 204.779 278.261Z" fill="#D6094D"/>
<path d="M153.223 278.261C146.242 267.52 124.889 266.575 112.676 256.511C100.464 246.447 101.258 224.557 101.258 224.557C101.258 224.557 112.525 229.294 124.329 235.566C130.945 239.078 137.723 243.074 142.782 246.984C146.015 249.487 148.539 251.946 149.871 254.223C156.982 266.446 153.223 278.261 153.223 278.261Z" fill="#000E25"/>
<path d="M204.778 278.261C211.76 267.52 233.112 266.575 245.325 256.511C257.537 246.447 256.743 224.557 256.743 224.557C256.743 224.557 245.476 229.294 233.672 235.566C227.056 239.078 220.278 243.074 215.219 246.984C211.986 249.487 209.462 251.946 208.13 254.223C201.019 266.446 204.778 278.261 204.778 278.261Z" fill="#000E25"/>
<path d="M179.001 184.277L168.543 203.342C168.543 203.342 153.611 187.499 117.301 183.203C117.301 183.203 162.965 222.665 179.001 270.155C195.037 222.665 240.701 183.203 240.701 183.203C204.391 187.499 189.459 203.342 189.459 203.342L179.001 184.277Z" fill="#D6094D"/>
<path d="M150.358 299.668C150.358 299.668 147.852 287.032 133.173 280.766C118.494 274.5 82.1541 261.79 75.1721 234.58C75.1721 234.58 71.0551 267.877 95.4011 280.945C119.746 294.013 133.172 289.211 150.358 299.668Z" fill="#D6094D"/>
<path d="M207.643 299.668C207.643 299.668 210.149 287.032 224.828 280.766C239.507 274.5 275.847 261.79 282.829 234.58C282.829 234.58 286.946 267.877 262.6 280.945C238.255 294.013 224.829 289.211 207.643 299.668Z" fill="#D6094D"/>
<path d="M148.303 320.173C148.303 320.173 139.126 308.175 119.454 304.28C99.7822 300.384 91.9512 289.518 91.9512 289.518C91.9512 289.518 96.5412 309.313 116.794 314.304C137.046 319.294 134.969 315.378 148.303 320.173Z" fill="#1978FF"/>
<path d="M209.697 320.173C209.697 320.173 218.874 308.175 238.546 304.28C258.218 300.384 266.049 289.518 266.049 289.518C266.049 289.518 261.459 309.313 241.206 314.304C220.954 319.294 223.031 315.378 209.697 320.173Z" fill="#1978FF"/>
<path d="M141.762 176.759C141.762 176.759 87.0045 175.749 99.9365 136.652C111.011 129.875 123.535 124.429 136.66 120.627C123.814 135.063 113.61 156.932 141.762 176.759Z" fill="#1978FF"/>
<path d="M216.239 176.759C216.239 176.759 270.996 175.749 258.064 136.652C246.99 129.875 234.466 124.429 221.341 120.627C234.187 135.063 244.391 156.932 216.239 176.759Z" fill="#1978FF"/>
<path d="M142.782 246.982C142.009 252.804 137.025 257.282 130.999 257.282C124.436 257.282 119.12 251.965 119.12 245.403C119.12 241.311 121.182 237.702 124.329 235.564C130.945 239.076 137.723 243.072 142.782 246.982Z" fill="#FFE111"/>
<path d="M215.219 246.982C215.992 252.804 220.976 257.282 227.002 257.282C233.565 257.282 238.881 251.965 238.881 245.403C238.881 241.311 236.819 237.702 233.672 235.564C227.056 239.076 220.278 243.072 215.219 246.982Z" fill="#FFE111"/>
<path d="M39.7857 169.512C35.6917 166.094 31.0017 162.968 25.6897 162.484C20.3777 162.001 14.4337 165.002 13.2197 170.196C12.4517 173.483 13.6897 176.99 15.7667 179.65C17.8447 182.31 20.6827 184.26 23.5327 186.068C33.7147 192.529 44.6747 197.764 56.1007 201.621C67.0337 205.312 58.3237 191.21 56.0917 187.813C51.5877 180.962 46.0807 174.767 39.7857 169.512Z" stroke="#FF195C" stroke-width="6" stroke-miterlimit="10" stroke-linecap="round"/>
<path d="M318.215 169.512C322.309 166.094 326.999 162.968 332.311 162.484C337.623 162.001 343.567 165.002 344.781 170.196C345.549 173.483 344.311 176.99 342.234 179.65C340.156 182.31 337.318 184.26 334.468 186.068C324.286 192.529 313.326 197.764 301.9 201.621C290.967 205.312 299.677 191.21 301.909 187.813C306.413 180.962 311.92 174.767 318.215 169.512Z" stroke="#FF195C" stroke-width="6" stroke-miterlimit="10" stroke-linecap="round"/>
<path d="M26.1504 186.597C20.8504 186.002 15.2134 185.979 10.5154 188.504C5.81736 191.029 2.51136 196.81 4.36236 201.813C5.53336 204.979 8.49936 207.223 11.6994 208.297C14.8994 209.371 18.3424 209.433 21.7164 209.371C33.7734 209.149 45.8034 207.474 57.4624 204.395C68.6194 201.448 53.5784 194.483 49.8434 192.879C42.3094 189.644 34.2994 187.512 26.1504 186.597Z" stroke="#FF195C" stroke-width="6" stroke-miterlimit="10" stroke-linecap="round"/>
<path d="M331.85 186.597C337.151 186.002 342.787 185.979 347.485 188.504C352.183 191.029 355.488 196.81 353.638 201.813C352.467 204.979 349.501 207.223 346.301 208.297C343.101 209.371 339.658 209.433 336.284 209.371C324.227 209.149 312.197 207.474 300.538 204.395C289.381 201.448 304.422 194.483 308.157 192.879C315.691 189.644 323.701 187.512 331.85 186.597Z" stroke="#FF195C" stroke-width="6" stroke-miterlimit="10" stroke-linecap="round"/>
<path d="M25.1964 305.594L18.5293 306.277L21.4742 334.999L28.1414 334.316L25.1964 305.594Z" fill="#D6094D"/>
<path d="M332.802 305.577L329.857 334.299L336.525 334.982L339.47 306.261L332.802 305.577Z" fill="#D6094D"/>
<path d="M25.8908 312.412L19.2236 313.096L19.6685 317.434L26.3356 316.75L25.8908 312.412Z" fill="#FFE111"/>
<path d="M332.099 312.388L331.654 316.727L338.321 317.41L338.766 313.072L332.099 312.388Z" fill="#FFE111"/>
<path d="M27.1779 324.891L20.5107 325.574L20.9556 329.913L27.6227 329.229L27.1779 324.891Z" fill="#FFE111"/>
<path d="M330.828 324.876L330.383 329.215L337.05 329.898L337.495 325.56L330.828 324.876Z" fill="#FFE111"/>
<path d="M40.0019 368.25L31.1189 369.152L22.1069 370.076L17.2949 370.57L18.8739 337.144C18.9489 335.662 20.0879 334.459 21.5699 334.298L28.4549 333.6C29.9259 333.45 31.2909 334.395 31.6559 335.834L40.0019 368.25Z" fill="#FF195C"/>
<path d="M317.998 368.25L326.881 369.152L335.893 370.076L340.705 370.57L339.126 337.144C339.051 335.662 337.912 334.459 336.43 334.298L329.545 333.6C328.074 333.45 326.709 334.395 326.344 335.834L317.998 368.25Z" fill="#FF195C"/>
<path d="M26.525 304.485C26.082 307.568 23.223 309.707 20.141 309.264C17.058 308.82 14.919 305.962 15.363 302.879C15.806 299.796 18.665 297.657 21.747 298.101C24.829 298.544 26.969 301.402 26.525 304.485Z" fill="#FF195C"/>
<path d="M331.475 304.485C331.918 307.568 334.777 309.707 337.859 309.264C340.942 308.82 343.081 305.962 342.638 302.879C342.194 299.796 339.336 297.657 336.253 298.101C333.171 298.544 331.031 301.402 331.475 304.485Z" fill="#FF195C"/>
<path d="M58.8559 197.881C59.5739 201.878 57.6909 205.962 54.9939 208.998C52.2969 212.034 48.8339 214.263 45.6039 216.725C33.2929 226.108 24.0039 239.394 19.4169 254.178C14.8299 268.962 14.9679 285.173 19.8059 299.876" stroke="#FF195C" stroke-width="6" stroke-miterlimit="10" stroke-linecap="round"/>
<path d="M299.144 197.881C298.426 201.878 300.309 205.962 303.006 208.998C305.703 212.034 309.166 214.263 312.396 216.725C324.707 226.108 333.996 239.394 338.583 254.178C343.17 268.962 343.032 285.173 338.194 299.876" stroke="#FF195C" stroke-width="6" stroke-miterlimit="10" stroke-linecap="round"/>
<path d="M31.1194 369.152L22.1084 370.075L22.7844 341.902L24.0634 367.949L27.6184 368.077L26.5874 352.073L31.1194 369.152Z" fill="#D6094D"/>
<path d="M326.881 369.152L335.892 370.075L335.216 341.902L333.937 367.949L330.382 368.077L331.413 352.073L326.881 369.152Z" fill="#D6094D"/>
<path d="M63.1686 370.165L56.667 371.791L63.6713 399.8L70.1729 398.174L63.1686 370.165Z" fill="#D6094D"/>
<path d="M294.795 370.161L287.791 398.17L294.293 399.796L301.297 371.787L294.795 370.161Z" fill="#D6094D"/>
<path d="M64.8376 376.81L58.3359 378.436L59.3939 382.666L65.8955 381.04L64.8376 376.81Z" fill="#FFE111"/>
<path d="M293.136 376.818L292.078 381.049L298.58 382.675L299.638 378.444L293.136 376.818Z" fill="#FFE111"/>
<path d="M67.8717 388.985L61.3701 390.611L62.4281 394.842L68.9297 393.216L67.8717 388.985Z" fill="#FFE111"/>
<path d="M290.086 388.976L289.028 393.207L295.53 394.833L296.588 390.602L290.086 388.976Z" fill="#FFE111"/>
<path d="M86.7559 430.084L75.3379 432.93L69.1619 434.477L64.6079 435.616L61.4179 402.309C61.2779 400.827 62.2339 399.473 63.6739 399.108L70.3869 397.432C71.8259 397.067 73.3189 397.819 73.8879 399.183L86.7559 430.084Z" fill="#FF195C"/>
<path d="M271.242 430.084L282.66 432.93L288.836 434.477L293.39 435.616L296.58 402.309C296.72 400.827 295.764 399.473 294.324 399.108L287.611 397.432C286.172 397.067 284.679 397.819 284.11 399.183L271.242 430.084Z" fill="#FF195C"/>
<path d="M60.3096 200.609C50.9376 219.057 47.6756 240.527 51.0346 260.945C53.8396 278 61.1256 294.587 59.9136 311.828C59.2736 320.94 56.2706 329.706 54.6776 338.7C53.0846 347.695 53.0636 357.533 57.8846 365.291" stroke="#FF195C" stroke-width="6" stroke-miterlimit="10" stroke-linecap="round"/>
<path d="M297.689 200.609C307.061 219.057 310.323 240.527 306.964 260.945C304.159 278 296.873 294.587 298.085 311.828C298.725 320.94 301.728 329.706 303.321 338.7C304.914 347.695 304.935 357.533 300.114 365.291" stroke="#FF195C" stroke-width="6" stroke-miterlimit="10" stroke-linecap="round"/>
<path d="M64.3405 368.889C64.3405 372.003 61.8155 374.528 58.7015 374.528C55.5875 374.528 53.0625 372.003 53.0625 368.889C53.0625 365.775 55.5875 363.25 58.7015 363.25C61.8155 363.25 64.3405 365.775 64.3405 368.889Z" fill="#FF195C"/>
<path d="M293.658 368.889C293.658 372.003 296.183 374.528 299.297 374.528C302.411 374.528 304.936 372.003 304.936 368.889C304.936 365.775 302.411 363.25 299.297 363.25C296.183 363.25 293.658 365.775 293.658 368.889Z" fill="#FF195C"/>
<path d="M75.34 432.931L69.164 434.478L65.168 410.826L72.214 429.172V424.961L75.34 432.931Z" fill="#D6094D"/>
<path d="M282.659 432.931L288.835 434.478L292.831 410.826L285.785 429.172V424.961L282.659 432.931Z" fill="#D6094D"/>
<path d="M179 300.01C167.991 300.01 159.532 297.325 158.189 306.992C156.846 316.659 168.527 326.46 179 326.46C189.472 326.46 201.153 316.659 199.81 306.992C198.468 297.325 190.009 300.01 179 300.01Z" fill="#000E25"/>
<path d="M179 302.961C170.479 302.961 163.932 300.883 162.893 308.365C162.709 309.693 162.855 311.022 163.244 312.314C164.971 306.716 171.14 308.466 179 308.466C186.86 308.466 193.029 306.716 194.756 312.314C195.145 311.023 195.291 309.693 195.107 308.365C194.068 300.882 187.521 302.961 179 302.961Z" fill="#203A60"/>
</svg>
