<svg width="352" height="397" viewBox="0 0 352 397" fill="none" xmlns="http://www.w3.org/2000/svg">
<path d="M210.02 41.9687C210.157 40.4697 209.372 39.3547 208.475 38.2957C206.149 35.5507 203.637 32.9947 200.811 30.7547C198.241 28.7167 195.87 26.4707 193.757 23.9517C189.791 19.2257 187.562 13.5817 185.267 7.97269C184.486 6.06369 183.639 4.1927 182.306 2.6067C181.061 1.1247 179.891 1.14169 178.654 2.64169C178.09 3.32669 177.642 4.11669 177.202 4.89269C173.758 10.9807 172.393 17.6537 171.968 24.5227C171.512 31.8987 172.956 38.9597 176.186 45.6297C176.34 45.9477 176.405 46.2097 176.077 46.6057C173.668 45.6317 172.522 43.1137 170.419 41.5467C170.329 42.3627 170.38 42.9197 170.496 43.5017C171.246 47.2787 173.524 50.1687 175.938 52.9777C177.558 54.8627 179.133 56.7637 179.949 59.1697C180.108 59.6367 180.366 60.2877 179.999 60.4977C178.89 61.1337 179.242 62.1267 179.234 62.9977C179.205 65.9057 178.671 68.7397 178.197 71.5937C177.391 76.4517 174.739 79.9557 170.663 82.5457C168.059 84.1997 165.287 85.2747 162.121 85.3987C164.691 86.7147 167.168 88.1437 170.433 88.2057C168.372 92.2927 164.621 93.8117 161.115 95.6467C163.188 96.4337 164.806 95.1007 166.785 95.0247C165.041 97.9107 161.499 99.2797 160.319 102.595C161.108 102.943 161.548 102.139 162.193 102.03C162.601 101.961 163.069 101.828 163.302 102.326C163.488 102.722 163.243 103.008 162.954 103.284C162.77 103.459 162.325 103.452 162.469 103.974C167.112 103.757 171.726 103.863 176.165 105.549C180.559 107.218 184.783 109.192 188.301 111.868C206.597 100.702 224.679 101.772 242.942 111.749C242.867 111.815 242.974 111.76 243.019 111.674C243.114 111.49 243.177 111.291 243.251 111.096C245.202 105.937 247.943 101.31 252.351 97.8507C254.304 96.3187 256.368 95.0127 258.941 94.6687C260.601 94.4467 262.34 94.2347 263.634 92.9577C262.989 91.7187 261.282 92.1497 260.623 90.6237C262.556 90.5747 264.345 91.4127 266.269 90.7907C265.915 90.5797 265.747 90.4527 265.56 90.3727C263.14 89.3377 261.155 87.7047 259.355 85.8297C259.039 85.5007 258.634 85.0797 258.95 84.5807C259.323 83.9937 259.797 84.4067 260.19 84.6177C261.411 85.2737 262.747 85.6207 264.084 85.7867C265.618 85.9767 267.173 85.8467 268.314 84.6607C268.145 84.0827 267.841 84.0367 267.532 83.9267C262.041 81.9747 258.066 78.2627 255.464 73.1327C252.796 67.8727 251.531 62.1327 250.565 56.3837C249.316 48.9497 247.218 41.9067 243.128 35.4997C238.509 28.2627 235.369 20.4717 234.561 11.8277C234.362 9.69269 234.148 7.5197 233.315 5.4967C232.348 3.1487 230.986 2.9237 229.362 4.8147C229.191 5.0137 229.023 5.22069 228.89 5.44569C227.365 8.02369 225.858 10.6117 224.823 13.4377C222.6 19.5027 221.588 25.8227 221.095 32.2217C220.922 34.4647 220.859 36.7507 221.233 39.0127C221.364 39.8037 221.684 40.1177 222.483 40.3327C226.096 41.3047 229.55 42.6847 232.696 44.7517C233.138 45.0417 233.747 45.1937 233.869 46.1617C226.694 42.0767 219.135 40.1537 211.103 40.2307C210.76 40.9497 211.208 41.9727 210.058 42.0357L210.02 41.9687Z" fill="#F7EBEB"/>
<path d="M16.9916 298.151C18.7806 307.645 23.6207 318.46 29.6237 326.901C33.6057 332.5 38.7117 336.664 44.9037 339.573C50.5847 342.241 56.6107 343.611 62.7897 344.414C67.8867 345.077 72.9906 345.235 78.0346 344.061C80.8156 343.413 83.5806 342.634 86.1076 341.07C85.7056 340.441 85.4237 339.934 85.0807 339.472C76.5986 328.02 74.1666 315.192 76.2366 301.279C77.1896 294.873 79.1276 288.777 81.6556 282.861C85.0796 274.85 89.3487 267.296 95.7317 261.272C109.811 247.985 126.918 243.008 145.93 243.734C149.075 243.854 152.201 244.449 155.115 245.79C155.659 246.041 156.34 246.181 156.271 247.066C155.658 247.148 155.103 247.14 154.517 247.023C152.457 246.614 150.397 246.049 148.315 245.931C141.079 245.521 133.854 245.845 126.782 247.501C109.17 251.625 95.2926 260.866 86.8106 277.268C82.0576 286.458 78.7867 296.042 77.9967 306.506C77.2187 316.817 79.2877 326.209 84.7037 335.014C88.2927 340.848 92.7067 345.986 97.0297 351.244C101.713 356.941 106.918 362.296 108.779 369.922C109.413 372.521 109.45 374.831 108.978 377.3C108.458 380.018 107.149 382.364 105.394 384.497C108.017 383.227 109.833 381.137 111.504 378.893C111.84 378.441 112.079 377.735 112.813 378.096C113.551 378.459 113.142 379.121 112.98 379.635C111.868 383.178 110.182 386.434 108.012 389.444C106.316 391.797 104.115 393.618 101.532 395.328C103.074 395.54 104.303 395.318 105.549 395.147C113.37 394.075 120.694 391.863 127.071 386.896C132.649 382.551 137.95 377.996 141.538 371.805C145.335 365.254 147.505 358.131 148.403 350.638C148.561 349.32 148.986 347.837 147.412 346.663C134.119 336.745 127.944 322.763 125.437 306.941C124.184 299.031 125.494 291.188 128.115 283.618C132.965 269.61 142.749 259.99 155.471 253.004C155.761 252.845 156.051 252.768 156.385 253.099C155.768 254.385 154.592 255.116 153.453 255.832C149.004 258.629 145.035 261.997 141.38 265.755C129.844 277.617 125.318 291.931 127.38 308.143C128.448 316.535 131.651 324.421 136.27 331.586C142.766 341.663 151.569 348.805 163.315 351.881C168.597 353.264 173.978 354.264 179.294 355.523C186.586 357.25 193.513 359.852 199.397 364.659C203.704 368.178 206.925 372.409 207.961 378.077C208.378 380.362 208.348 382.577 207.809 384.834C208.88 383.889 209.352 382.704 209.705 381.426C209.841 380.933 209.842 380.154 210.666 380.185C211.33 380.211 211.658 380.735 211.881 381.285C212.8 383.549 213.425 385.821 212.932 388.344C212.696 389.549 212.312 390.821 212.562 392.285C216.71 389.195 220.351 385.85 223.904 382.387C234.05 372.497 239.722 360.559 240.323 346.37C240.631 339.104 240.67 331.82 239.143 324.638C236.178 310.691 230.765 298.066 220.395 287.803C209.437 276.958 196.673 269.382 181.912 265.068C181.518 264.953 180.9 265.036 180.722 264.191C182.29 263.587 183.79 264.287 185.197 264.657C209.839 271.139 226.801 286.429 236.551 309.905C241.407 307.845 246.316 306.768 251.284 305.912C256.615 304.993 261.942 304.523 267.247 306.08C270.476 307.028 273.682 308.044 276.872 309.125C284.212 311.613 291.662 312.547 299.514 310.317C296.74 309.475 293.892 309.401 291.79 307.233C298.688 308.603 305.126 307.124 311.432 304.699C307.349 304.184 303.43 303.378 299.778 301.415C293.705 298.15 289.312 293.112 285.243 287.765C279.938 280.795 275.411 273.289 270.872 265.819C266.394 258.45 260.811 252.137 254.113 246.82C249.223 242.939 243.546 240.297 237.982 237.529C230.788 233.951 223.193 231.74 215.14 231.321C206.664 230.879 198.332 231.938 190.08 233.843C181.082 235.92 172.907 239.538 166.286 246.179C166.006 246.46 165.736 246.85 165.229 246.67C164.928 245.582 164.921 245.577 165.593 244.719C168.255 241.32 171.761 238.975 175.52 237.017C185.284 231.931 195.889 230.184 206.713 229.423C207.872 229.341 208.755 229.186 209.573 228.211C212.703 224.48 215.365 220.428 217.99 216.347C222.769 208.917 226.561 200.785 233.348 194.786C233.764 194.418 233.811 194.013 233.666 193.509C230.995 184.275 228.908 174.874 225.753 165.778C225.494 165.031 225.295 164.331 225.825 163.104C231.191 172.553 233.176 182.665 235.509 192.765C238.231 190.638 241.186 189.028 244.112 187.367C247.085 185.679 250.238 184.403 253.466 183.315C249.704 172.288 246.479 152.645 248.211 150.061C249.787 153.554 249.784 157.201 250.47 160.675C251.168 164.209 251.673 167.782 252.263 171.337C257.023 163.147 259.056 154.761 254.798 145.65C257.485 145.653 259.458 147.727 261.991 147.394C258.945 146.119 257.355 143.634 256.18 140.798C254.236 136.11 251.16 132.283 247.305 129.042C246.414 128.293 245.486 127.571 244.286 127.436C242.549 127.242 240.869 126.808 239.235 126.23C231.041 123.335 222.637 122.052 213.938 122.594C209.362 122.879 204.831 123.433 200.293 124.049C196.686 124.538 193.597 126.526 190.085 127.231C189.648 127.319 189.465 127.763 189.246 128.128C187.29 131.394 185.668 134.82 184.618 138.477C183.39 142.755 183.262 147.189 182.912 151.598C182.425 157.734 181.979 163.869 181.216 169.99C180.298 177.358 177.295 183.335 171.381 187.831C167.607 190.7 164.852 194.381 162.793 198.615C159.885 204.594 158.372 210.948 157.591 217.521C156.647 225.47 157.058 233.259 159.977 240.801C160.106 241.135 160.345 241.446 159.961 241.778C159.367 241.631 159.157 241.138 158.937 240.664C157.919 238.472 156.982 236.242 156.409 233.891C154.971 227.992 154.808 222.017 155.442 215.999C156.018 210.532 156.968 205.17 159.441 200.182C160.149 198.754 160.451 197.201 160.515 195.612C160.949 184.767 158.057 174.692 152.77 165.39C146.42 154.218 137.543 145.077 128.081 136.508C123.54 132.395 118.333 129.109 113.655 125.159C109.573 121.712 105.356 118.167 102.67 113.64C97.2447 104.496 94.5936 94.5244 96.6766 83.7194C96.4286 83.5684 96.2347 83.7875 96.0097 83.8925C90.5017 86.4455 85.9976 90.2644 82.1166 94.8764C80.9166 96.3024 80.0096 97.8834 79.4636 99.6674C79.2496 100.365 79.3577 101.581 78.2427 101.226C77.3267 100.934 77.7836 99.8314 77.9396 99.1094C78.1166 98.2954 78.4686 97.5134 78.7936 96.7374C79.0446 96.1394 79.1997 95.5515 78.9757 94.6965C74.7617 98.0475 72.0586 102.415 69.6166 106.962C67.1926 111.477 65.3306 116.202 64.3966 121.284C63.4606 126.376 64.3436 131.428 64.6446 136.524C62.1916 134.005 60.6577 131.106 59.8937 127.567C59.3107 131.196 58.8607 134.563 59.4167 138.008C60.0217 141.761 60.6957 145.469 62.6107 148.83C63.0067 149.525 63.4547 149.877 64.3397 149.891C71.3747 150.003 78.2636 151.097 85.0196 153.075C99.6756 157.367 112.633 164.626 123.216 175.681C135.166 188.164 142.448 203.297 147.18 219.76C147.24 219.97 147.296 220.289 146.852 220.403C146.092 219.749 145.636 218.857 145.345 217.92C143.402 211.669 140.533 205.82 137.686 199.953C128.887 181.82 115.558 168.28 97.1887 159.805C85.2767 154.309 72.7227 151.85 59.6497 151.773C57.1197 151.758 54.5927 151.827 52.0567 151.591C48.9317 151.301 45.9207 150.542 42.6547 149.64C44.1917 150.88 45.9986 150.985 47.4796 152.164C45.1676 153.97 43.0136 152.17 40.6996 152.218C43.3736 154.621 46.2127 156.647 48.6837 159.209C47.3587 160.217 46.3777 159.321 45.4667 158.93C36.3247 155.003 26.9247 153.043 16.9727 154.938C15.6317 155.193 14.2667 155.348 12.9457 155.677C11.6297 156.005 10.2387 156.123 8.97565 156.747C9.23765 157.2 9.58866 157.1 9.88366 157.17C16.0867 158.642 20.7817 162.047 23.5257 167.903C25.4647 172.04 26.5857 176.372 26.9037 180.959C27.2637 186.154 28.0657 191.322 28.3287 196.52C28.5647 201.197 29.3917 205.694 30.8887 210.11C32.0407 213.506 33.8686 216.363 36.8806 218.401C37.6316 218.909 38.3647 219.241 39.3227 219.302C43.6727 219.58 47.8207 218.755 51.8467 217.203C59.2467 214.349 66.5567 211.297 74.2577 209.229C82.2547 207.082 90.2176 205.746 98.5556 206.517C106.531 207.255 114.241 208.884 121.742 211.639C134.36 216.272 145.285 223.186 152.881 234.615C153.296 235.239 153.979 235.763 153.799 236.736C152.774 236.764 152.473 235.927 151.975 235.383C146.099 228.974 139.817 223.019 132.089 218.882C118.599 211.66 104.408 207.221 88.8456 208.504C83.8686 208.914 78.8977 209.277 74.0787 210.724C67.1637 212.801 60.5967 215.753 53.9587 218.544C49.2657 220.517 44.4627 221.918 39.1887 221.554C31.6327 221.033 25.6166 217.628 20.4786 212.403C16.1446 207.996 12.3627 203.106 8.59465 198.213C7.93665 197.358 7.37666 196.386 6.31366 195.764C5.57466 197.406 5.38465 199.072 5.26065 200.733C4.89265 205.648 5.84065 210.364 7.55865 214.946C7.74765 215.451 8.07565 216.018 7.48865 216.338C6.81265 216.706 6.42565 216.127 6.17165 215.581C5.60165 214.356 5.06365 213.117 4.51165 211.884C2.81665 223.492 5.35665 234.447 9.39965 245.155C13.5047 256.026 20.0407 265.155 29.3657 272.324C26.2487 271.659 23.6177 270.158 20.9747 268.594C20.9517 268.765 20.9247 268.828 20.9437 268.849C28.0787 276.768 36.1887 283.126 47.1117 284.772C49.3017 285.102 51.5867 285.569 53.7657 284.357C60.7157 280.49 67.1026 275.871 72.8706 270.387C76.8576 266.597 80.3397 262.339 84.1477 258.386C91.9217 250.317 100.429 243.182 110.626 238.337C115.728 235.913 121.057 234.18 126.781 233.782C132.326 233.397 137.674 234.355 143.018 235.608C147.633 236.69 151.881 238.575 155.811 241.202C156.302 241.53 156.953 241.829 156.517 242.712C155.221 242.448 154.14 241.792 153.028 241.24C146.223 237.862 138.941 236.274 131.438 235.792C123.967 235.312 117.077 237.67 110.536 241.012C100.684 246.047 92.4306 253.175 84.9676 261.238C78.4366 268.294 71.9966 275.415 63.8146 280.681C58.2226 284.28 52.6157 287.841 46.0587 289.416C43.0537 290.138 39.9917 290.915 36.8577 290.479C29.4057 289.441 23.6197 285.595 19.0997 279.696C18.6767 279.144 18.2567 278.59 17.6347 277.774C17.4617 281.568 18.1427 284.865 18.6937 288.176C19.4567 292.758 21.3197 296.917 23.5377 300.949C23.8267 301.474 24.2887 302.147 23.6747 302.685C22.9817 303.292 22.4017 302.68 21.8827 302.251C20.2987 300.942 18.7346 299.615 16.9916 298.151Z" fill="#F7EBEB"/>
<path d="M348.405 229.43C342.522 229.211 340.21 228.588 336.281 226.099C330.603 222.503 325.747 218 321.76 212.592C319.662 209.747 317.617 206.876 315.192 204.284C306.531 195.025 295.636 189.587 283.707 186.037C275.069 183.467 266.202 182.523 257.345 184.643C243.237 188.02 232.63 196.206 225.388 208.794C221.288 215.921 217.117 223.014 211.339 228.982C211.303 229.02 211.379 229.166 211.422 229.338C214.199 229.334 216.999 229.385 219.764 229.791C225.835 230.683 231.618 232.515 237.235 235.011C249.731 240.562 260.737 248.016 268.921 259.181C269.541 260.026 270.095 259.775 270.817 259.522C275.533 257.867 279.263 254.893 282.438 251.09C289.279 242.897 297.904 239.338 308.649 240.664C313.228 241.229 317.871 241.76 322.526 241.427C325.036 241.247 327.502 240.844 330.128 239.645C328.995 239.469 328.187 239.357 327.385 239.218C325.216 238.84 323.079 238.337 320.99 237.633C320.463 237.455 319.921 237.182 320.041 236.567C320.188 235.814 320.821 235.843 321.438 236.002C321.64 236.054 321.861 236.02 322.065 236.066C327.697 237.312 333.175 236.426 338.547 234.727C342.008 233.631 345.188 231.916 348.405 229.43Z" fill="#F7EBEB"/>
<path d="M232.664 108.805C230.16 108.101 227.902 107.407 225.611 106.848C224.605 106.602 223.568 106.306 222.493 106.493C218.213 107.237 214.47 108.959 211.725 112.46C210.182 114.428 208.933 116.515 208.977 119.159C208.997 120.363 209.439 120.935 210.676 120.723C213.24 120.285 215.828 120.419 218.41 120.403C219.771 120.394 221.133 120.401 222.506 120.401C221.702 115.329 224.914 111.63 232.664 108.805Z" fill="#BA3217"/>
<path d="M208.302 120.952C206.924 114.946 210.826 109.833 219.633 105.93C217.037 105.359 214.399 105.762 211.777 105.869C205.527 106.124 201.073 109.316 198.256 114.758C196.986 117.212 196.46 119.879 197.851 122.599C201.31 121.818 204.712 121.215 208.302 120.952Z" fill="#701608"/>
<path d="M234.629 122.752C234.272 117.258 237.86 115.282 242.211 113.666C239.831 111.991 237.446 110.633 234.835 109.674C234.649 109.606 234.411 109.63 234.208 109.668C232.187 110.042 230.192 110.55 228.45 111.671C225.845 113.348 223.769 115.468 223.464 118.76C223.398 119.473 223.206 120.545 224.274 120.688C227.711 121.147 231.086 121.912 234.629 122.752Z" fill="#701608"/>
<path d="M202.787 107.475C198.1 108.434 193.896 110.369 190.192 113.374C186.25 116.572 186.466 120.555 188.714 124.547C189.248 125.496 189.991 125.771 190.961 125.348C192.88 124.512 194.784 123.64 196.613 122.82C194.587 115.982 197.969 111.469 202.787 107.475Z" fill="#BA3217"/>
<path d="M235.548 121.989C235.408 122.687 235.91 123.249 237.012 123.6C239.414 124.364 241.811 125.132 244.279 125.656C245.909 126.002 247.521 125.099 247.989 123.528C248.684 121.199 247.615 119.314 246.283 117.591C243.481 113.969 243.064 113.981 238.883 116.452C237.03 117.547 235.732 119.225 235.548 121.989Z" fill="#BA3217"/>
<path d="M254.514 132.88C255.858 134.896 259.08 136.349 260.851 135.816C265.042 134.554 267.235 129.047 265.056 125.257C264.852 124.902 264.708 124.418 264.153 124.579C262.322 125.109 260.419 124.665 258.53 124.935C259.938 128.971 257.578 131.061 254.514 132.88Z" fill="#701608"/>
<path d="M254.465 115.194C256.588 117.966 256.771 120.824 254.994 123.813C258.907 123.174 261.506 121.049 262.415 117.396C263.068 114.772 262.285 112.253 260.31 110.01C258.496 112.062 256.556 113.715 254.465 115.194Z" fill="#BA3217"/>
<path d="M265.629 124.401C267.979 128.799 267.26 132.527 263.705 136.032C265.228 135.753 266.367 135.576 267.49 135.332C270.101 134.766 271.883 133.25 272.232 130.544C272.506 128.422 271.935 126.382 270.777 124.553C270.479 124.083 270.001 123.836 269.422 123.907C268.234 124.053 267.048 124.215 265.629 124.401Z" fill="#BA3217"/>
<path d="M263.902 105.543C262.919 106.81 261.928 108.088 260.947 109.353C263.872 112.449 264.174 115.932 262.764 119.915C264.382 118.604 265.661 117.231 266.898 115.822C267.305 115.359 267.756 114.832 267.903 114.261C268.585 111.619 266.395 106.884 263.902 105.543Z" fill="#701608"/>
<path d="M247.938 126.847C249.934 128.094 251.657 129.62 253.154 131.399C253.439 131.738 253.752 132.025 254.23 131.727C255.898 130.689 257.498 129.62 257.986 127.497C258.452 125.471 257.62 124.551 255.652 125.107C254.257 125.501 252.779 125.739 251.438 125.398C249.861 124.996 248.816 125.282 247.938 126.847Z" fill="#BA3217"/>
<path d="M264.479 104.733C267.53 106.497 268.275 109.506 268.97 112.729C270.396 110.5 271.034 108.238 271.065 105.856C271.083 104.455 270.827 103.014 269.972 101.81C268.759 100.104 267.446 100.12 266.322 101.831C265.717 102.754 265.139 103.693 264.479 104.733Z" fill="#BA3217"/>
<path d="M249.849 123.752C252.99 124.712 254.102 124.258 254.861 121.695C255.372 119.969 255.15 118.274 254.36 116.654C254.037 115.991 253.587 115.625 252.867 116.065C251.49 116.909 249.958 117.334 248.353 117.691C249.345 119.646 249.984 121.571 249.849 123.752Z" fill="#701608"/>
<path d="M272.093 133.975C274.92 133.604 276.543 131.906 276.525 129.459C276.507 127.004 274.397 124.641 271.91 124.291C273.753 129.512 273.776 130.425 272.093 133.975Z" fill="#701608"/>
<path d="M3.31685 212.213C4.82585 211.756 5.27485 212.147 5.60685 213.147C5.95185 214.186 6.14884 215.412 7.54584 216.101C6.19884 213.173 5.50985 210.219 5.12385 207.234C4.64785 203.543 4.70685 199.818 5.59285 196.166C5.81585 195.248 6.78384 195.187 7.54684 196.098C8.57684 197.327 9.45185 198.686 10.4718 199.924C13.2198 203.258 15.9688 206.591 18.7708 209.882C22.0658 213.753 25.9548 216.766 30.4738 219.021C33.1568 220.359 36.0638 220.839 38.9958 221.154C44.3088 221.724 49.1728 220.07 53.9488 218.022C54.8388 217.64 55.7588 217.327 56.7598 216.945C57.0448 218.43 56.5718 219.678 56.2888 220.933C55.1458 225.991 53.7218 230.933 50.7368 235.296C47.7398 239.676 47.1198 244.781 46.4488 249.87C45.1898 259.413 47.5588 268.05 52.7608 276.04C54.2488 278.326 56.2298 280.134 58.2718 282.198C55.1678 284.161 52.4108 286.111 48.3518 285.302C44.9438 284.623 41.5938 283.961 38.3328 282.722C35.0898 281.489 32.2708 279.59 29.5298 277.567C26.4858 275.32 23.8188 272.631 21.1968 269.909C20.8488 269.548 20.3028 269.27 20.5768 268.324C23.3928 268.861 25.4988 271.089 28.0018 271.736C9.48584 256.243 3.20685 235.619 3.31685 212.213Z" fill="#FF7043"/>
<path d="M211.812 392.398C212.738 388.298 213.543 384.293 210.841 380.571C209.236 381.704 210.214 384.647 207.517 385.045C207.477 384.594 207.373 384.272 207.434 383.985C208.663 378.199 206.604 373.412 203.045 369.008C199.066 364.086 193.795 361.077 188.08 358.73C187.232 358.382 186.923 357.997 186.891 357.174C186.835 355.749 186.735 354.329 187.097 352.922C188.354 348.045 190.128 343.362 192.829 339.108C195.978 334.147 201.019 332.802 206.479 332.425C207.847 332.33 209.218 332.242 210.579 332.082C216.224 331.42 218.467 329.178 219.122 323.537C219.292 322.07 219.355 320.59 219.492 319.119C219.672 317.19 220.275 315.386 222.152 314.556C226.288 312.727 230.509 311.307 235.157 312.669C236.196 312.973 236.826 313.521 237.104 314.44C238.465 318.944 239.458 323.519 240.12 328.192C240.597 331.559 240.973 334.981 240.857 338.298C240.736 341.781 240.887 345.292 240.46 348.797C239.964 352.873 239.212 356.865 238.185 360.823C236.933 365.648 234.414 369.83 231.655 373.911C229.456 377.163 226.843 380.079 224.142 382.875C221.793 385.307 219.306 387.651 216.603 389.729C215.696 390.426 214.838 391.185 213.945 391.9C213.373 392.359 212.776 392.777 211.812 392.398Z" fill="#FF7043"/>
<path d="M48.1557 159.512C45.6497 156.546 42.4837 154.856 40.0257 151.974C42.4607 151.463 44.3877 153.186 46.6337 152.26C45.2977 151.125 43.4047 151.348 42.4777 149.785C43.7997 149.269 44.8267 149.773 45.8407 150.067C48.8527 150.941 51.9427 151.355 55.0507 151.426C59.4667 151.526 63.8907 151.386 68.2957 151.786C73.9217 152.297 79.5037 153.084 84.8977 154.861C86.0677 155.246 87.3407 155.318 88.6377 156.167C84.4667 158.12 81.2577 161.381 77.1957 163.31C68.3577 167.507 61.6507 174.055 56.9227 182.47C54.4807 186.817 53.6207 191.739 54.4667 196.861C55.4117 202.582 56.0957 208.346 56.9557 214.082C57.1377 215.298 56.7047 215.869 55.6127 216.276C51.3967 217.846 47.2467 219.491 42.6217 219.686C41.0527 219.752 39.5427 219.477 37.9957 219.518C36.7957 219.549 36.1097 218.308 35.2097 217.639C33.1967 216.143 31.8067 214.067 30.9717 211.737C29.2537 206.942 28.2027 202.04 27.9417 196.879C27.7457 193.012 27.3997 189.109 26.8827 185.234C26.3617 181.331 26.3117 177.368 25.2047 173.545C23.0667 166.158 19.0927 160.414 11.3607 158.026C10.4307 157.739 9.4717 157.542 8.5117 157.3C8.1297 156.481 8.63969 156.21 9.32469 156.072C12.2617 155.481 15.1917 154.856 18.1397 154.323C20.8417 153.835 23.5857 154.066 26.3127 153.982C32.1457 153.802 37.5647 155.536 42.9407 157.483C44.5747 158.075 46.1817 158.741 48.1557 159.512Z" fill="#FF7043"/>
<path d="M16.7343 298.04C19.5053 298.779 20.8703 301.443 23.5073 302.389C19.1483 294.707 17.2203 286.477 17.2663 277.801C17.7853 277.421 18.1713 277.553 18.4193 277.943C19.7673 280.062 21.5943 281.741 23.3503 283.503C26.8913 287.055 31.2453 288.867 36.0443 289.946C39.2923 290.676 42.3213 289.652 45.4203 289.151C49.8593 288.433 53.5823 285.96 57.5133 284.024C58.7733 283.403 59.3353 283.554 59.8593 284.884C61.5473 289.164 61.1883 293.48 60.2423 297.81C58.9753 303.608 58.9273 309.503 59.6753 315.294C60.3833 320.77 63.8293 325.003 67.7883 328.713C70.6453 331.39 73.8683 333.614 76.9993 335.947C78.9943 337.434 81.3393 338.095 83.7693 338.392C84.7363 338.51 85.4133 338.865 85.9093 339.683C86.6943 340.975 86.5533 341.577 85.1003 342.186C81.3633 343.754 77.5293 344.787 73.4293 345.105C64.8803 345.768 56.6693 344.333 48.6723 341.548C42.4693 339.388 36.8453 336.162 32.4203 331.173C29.4893 327.869 27.0973 324.172 24.8903 320.354C22.7113 316.584 20.8713 312.656 19.4963 308.525C18.4393 305.351 17.3453 302.183 16.6633 298.898C16.6233 298.706 16.6933 298.493 16.7343 298.04Z" fill="#FF7043"/>
<path d="M59.7969 126.996C61.0729 130.032 61.93 133.281 64.503 135.802C64.262 133.8 64.0399 131.925 63.7879 130.09C63.2289 126.025 63.6919 122.088 64.6759 118.19C66.6159 110.508 70.346 103.709 75.225 97.5165C75.906 96.6525 76.7829 95.9435 77.5489 95.1435C78.0679 94.6015 78.653 94.6925 79.279 94.8495C79.938 96.9885 77.937 98.6375 78.33 100.78C81.74 91.9685 88.728 87.0365 96.8829 83.2285C94.9529 95.4905 98.204 106.274 104.983 116.41C104.136 117.349 103.003 118.584 101.893 119.839C98.252 123.956 96.991 128.819 97.352 134.211C97.546 137.1 98.03 139.978 97.674 142.894C97.139 147.279 94.215 150.224 91.524 153.342C90.362 154.688 89.315 155.005 87.505 154.381C82.228 152.562 76.8219 151.211 71.2059 150.783C68.7139 150.593 66.242 150.122 63.729 150.197C62.98 150.219 62.594 149.816 62.276 149.225C60.436 145.803 59.645 142.101 59.07 138.288C58.499 134.498 59.0139 130.822 59.7969 126.996Z" fill="#FF7043"/>
<path d="M320.418 236.83C323.712 238.409 327.231 238.699 330.636 239.337C330.649 239.698 330.787 240.007 330.331 240.161C328.023 240.94 325.694 241.608 323.243 241.76C318.033 242.085 312.85 241.473 307.689 241.038C302.157 240.571 296.941 241.107 291.862 243.695C291.827 241.857 292.597 240.361 293.176 238.814C294.063 236.443 295.162 234.076 293.972 231.496C292.68 228.693 291.108 226.004 288.694 224.067C283.953 220.263 282.103 215.185 281.245 209.389C280.062 201.393 282.058 194.357 286.738 187.916C287.371 187.044 287.882 186.822 288.928 187.225C296.696 190.217 304.082 193.83 310.544 199.22C315.495 203.349 319.221 208.469 323.112 213.507C327.85 219.641 333.592 224.694 340.757 227.842C342.986 228.821 345.469 229.329 347.996 228.781C348.294 228.716 348.618 228.772 348.89 228.772C349.223 229.402 348.956 229.714 348.529 230.017C343.152 233.84 337.288 236.233 330.62 236.754C327.567 236.992 324.604 237.028 321.62 236.392C321.307 236.325 320.893 236.233 320.418 236.83Z" fill="#FF7043"/>
<path d="M312.228 304.32C311.609 306.759 298.125 308.902 292.518 307.528C294.732 309.127 297.601 309.138 300.021 310.338C298.185 311.264 296.301 311.499 294.455 311.749C288.364 312.575 282.461 311.483 276.721 309.536C272.961 308.26 269.188 307.054 265.338 306.096C264.883 305.983 264.569 305.768 264.306 305.454C262.933 303.812 261.225 302.578 259.441 301.44C257.797 300.391 256.631 298.901 255.548 297.333C254.499 295.814 253.527 294.242 252.452 292.742C247.591 285.955 250.059 276.286 254.846 271.49C255.521 270.814 256.212 270.133 257.089 269.756C260.292 268.378 263.336 266.703 266.337 264.94C266.608 264.781 266.911 264.676 267.205 264.558C269.703 263.55 269.746 263.655 271.303 265.829C274.107 269.747 276.316 274.038 279.017 278.006C283.549 284.666 287.923 291.487 294.073 296.859C298.455 300.686 303.405 303.322 309.312 303.87C310.29 303.959 311.257 304.167 312.228 304.32Z" fill="#FF7043"/>
<path d="M86.501 338.705C91.564 338.826 96.33 337.869 101.108 338.501C106.442 339.207 110.219 342.059 112.363 347.068C114.613 352.325 118.139 356.733 121.852 361.009C126.283 366.111 131.805 367.368 138.188 365.766C140.481 365.19 142.795 364.692 145.216 364.679C140.813 379.935 120.26 396.859 100.88 395.461C103.724 393.327 106.54 391.153 108.408 388.087C110.231 385.093 112.079 382.094 112.797 378.142C110.261 380.965 108.509 384.026 105.009 385.093C104.51 384.247 105.023 383.947 105.357 383.57C108.03 380.55 109.244 376.898 109.082 372.995C108.992 370.808 108.057 368.599 107.221 366.513C105.423 362.026 102.223 358.428 99.303 354.667C95.198 349.378 90.275 344.746 86.501 338.705Z" fill="#FF7043"/>
<path d="M195.31 24.9181C193.355 25.6931 191.687 26.2171 189.839 25.7831C187.791 25.3021 185.707 24.9551 183.802 23.9911C182.688 23.4271 181.531 23.6221 180.405 23.9191C178.523 24.4151 176.672 25.0391 174.78 25.4871C172.077 26.1281 171.459 25.1661 171.741 22.4081C172.116 18.7311 172.826 15.1521 173.854 11.6331C174.871 8.15108 176.195 4.77508 178.658 2.01208C179.67 0.876078 181.259 0.943074 182.357 2.03307C184.293 3.95407 185.163 6.48108 186.159 8.91308C188.177 13.8421 190.264 18.7251 193.547 22.9831C194.017 23.5951 194.587 24.1311 195.31 24.9181Z" fill="#FF7043"/>
<path d="M262.493 147.893C259.911 148.332 257.997 146.64 255.571 146.056C256.188 148.025 256.838 149.835 257.197 151.732C257.872 155.302 257.307 158.777 256.689 162.273C256.161 165.257 254.927 167.968 253.579 170.632C253.299 171.186 252.98 172.092 251.956 171.649C250.467 164.665 249.812 157.58 249.487 150.418C249.146 142.88 247.242 135.62 244.093 128.724C243.884 128.266 243.411 127.813 243.914 127.31C244.362 126.862 244.83 127.124 245.346 127.334C247.91 128.375 249.6 130.451 251.451 132.348C254.52 135.495 255.895 139.653 258.06 143.339C258.952 144.857 260.197 146.092 261.889 146.636C262.665 146.885 262.564 147.254 262.493 147.893Z" fill="#FF7043"/>
<path d="M237.216 22.4413C234.924 23.1553 232.901 22.8103 231.154 21.3973C229.847 20.3393 228.504 19.9523 226.904 20.4573C226.755 20.5043 226.592 20.5203 226.435 20.5263C225.307 20.5673 224.143 20.4513 223.22 19.8623C221.87 19.0023 223.067 17.8943 223.296 16.9893C224.502 12.2323 226.397 7.7673 229.612 3.9913C230.829 2.5623 232.478 2.9283 233.36 4.6143C234.493 6.7793 234.615 9.1873 234.957 11.5203C235.489 15.1533 236.037 18.7703 237.216 22.4413Z" fill="#FF7043"/>
<path d="M351.926 227.68C347.146 234.444 340.429 237.28 332.662 238.572C333.318 239.757 332.484 240.274 331.693 240.779C329.142 242.407 326.276 243.067 323.319 243.326C318.991 243.705 314.695 243.062 310.383 242.849C305.361 242.601 300.276 242.004 295.369 243.945C291.434 245.503 288.286 248.155 285.443 251.118C281.194 255.547 276.691 259.505 270.486 261.291C271.629 263.494 272.927 265.375 274.185 267.286C278.125 273.269 281.765 279.446 286.018 285.227C290.624 291.487 295.667 297.23 302.79 300.773C306.196 302.467 309.722 303.492 313.565 303.256C314.275 303.212 315.017 303.056 315.729 303.373C314.353 305.829 308.721 308.411 303.313 309.026C303.882 310.223 303.068 310.705 302.178 311.119C297.329 313.377 292.246 314.012 286.934 313.556C280.761 313.025 275.054 310.811 269.316 308.798C263.484 306.751 257.626 306.899 251.696 307.746C247.275 308.378 242.884 309.201 238.683 310.803C238.295 310.951 237.908 311.101 237.409 311.294C238.409 314.277 239.503 317.169 240.196 320.182C242.184 328.821 242.649 337.552 242.064 346.39C241.718 351.621 240.748 356.721 239.29 361.709C237.382 368.235 233.618 373.781 229.349 378.988C224.907 384.404 219.79 389.114 214.156 393.264C213.268 393.918 212.314 394.485 211.374 395.066C210.959 395.323 210.474 395.509 210.081 395.055C209.725 394.645 210.148 394.319 210.261 393.935C211.345 390.254 212.171 386.547 210.878 382.373C209.963 384.726 208.817 386.521 207.304 388.068C206.825 388.557 206.242 389.181 205.536 388.752C204.695 388.241 205.376 387.535 205.602 386.948C208.021 380.669 206.401 375.118 202.259 370.241C197.009 364.059 189.893 360.902 182.296 358.698C177.245 357.232 172.085 356.215 166.941 355.133C161.099 353.905 155.425 352.194 150.457 348.774C149.335 363.836 143.169 376.09 131.446 385.563C126.148 389.844 120.686 393.664 113.908 395.221C109.956 396.129 106.017 397.06 101.931 396.99C100.937 396.973 99.9462 396.785 98.9532 396.682C98.4332 396.628 97.9992 396.396 97.9402 395.865C97.8842 395.363 98.3452 395.211 98.7402 395.023C103.58 392.724 106.785 388.836 109.218 384.205C109.331 383.991 109.585 383.793 109.343 383.446C107.852 384.692 106.268 385.781 104.438 386.475C103.583 386.799 102.719 386.947 101.812 386.881C101.354 386.848 100.796 386.983 100.627 386.364C100.471 385.791 100.875 385.528 101.315 385.279C103.985 383.774 105.578 381.351 106.609 378.599C108.062 374.721 107.682 370.823 106.026 367.087C103.836 362.147 100.138 358.244 96.8262 354.083C93.7052 350.161 90.0912 346.653 87.1142 342.473C84.2392 343.825 81.3742 345.122 78.3412 345.946C73.5382 347.252 68.6532 347.232 63.7522 346.628C57.1382 345.814 50.7312 344.248 44.6552 341.436C36.4452 337.635 30.2872 331.645 25.5422 324.01C20.7442 316.292 17.1042 308.132 15.2552 299.21C15.2022 298.953 15.0812 298.694 15.0922 298.441C15.1292 297.59 14.6602 296.526 15.7142 296.026C16.6782 295.568 17.2432 296.442 17.8672 296.977C18.7732 297.754 19.6682 298.544 20.6692 299.272C19.3962 296.675 18.1712 294.078 17.4882 291.264C16.2292 286.075 15.4622 280.834 15.7222 275.476C15.7372 275.16 15.7452 274.836 15.8232 274.533C15.9522 274.038 15.9912 273.446 16.6902 273.368C17.3642 273.293 17.6062 273.794 17.8342 274.268C19.6412 278.013 22.4412 280.932 25.6122 283.517C29.9322 287.038 34.8462 288.968 40.4862 288.625C43.2002 288.46 45.9162 288.157 48.6902 286.83C46.3692 286.419 44.2862 286.188 42.2782 285.671C34.6812 283.712 28.6272 279.213 23.1972 273.769C20.5092 271.074 18.0222 268.206 16.3282 264.742C16.0902 264.256 15.8042 263.784 16.2122 263.285C16.7112 262.676 17.0722 263.549 17.7042 263.482C15.3892 260.598 13.2322 257.757 11.4912 254.632C7.19924 246.926 4.38224 238.728 2.96224 230.006C1.98724 224.018 1.70525 218.085 3.02425 212.131C3.08125 211.876 3.07425 211.548 3.23125 211.383C4.66125 209.883 3.83124 208.196 3.59724 206.603C3.11624 203.33 3.18124 200.098 3.97124 196.885C4.08424 196.426 4.19524 195.96 4.37624 195.525C5.14824 193.666 6.48425 193.382 7.91025 194.809C9.67025 196.57 10.9312 198.739 12.5492 200.617C17.0912 205.89 21.3612 211.439 27.3502 215.252C29.4362 216.58 31.5862 217.748 34.2502 218.389C29.9012 213.68 27.4922 208.266 26.6602 202.241C26.0342 197.709 25.9672 193.103 25.5072 188.544C24.8272 181.813 24.7732 174.971 21.6872 168.671C18.9252 163.032 12.2192 158.823 5.94624 159.064C3.96024 159.14 2.11124 159.876 0.0732422 160.515C0.529242 159.17 1.41225 158.463 2.41225 158.033C7.91325 155.666 13.4192 153.378 19.4032 152.352C26.2022 151.186 32.7102 152.062 39.1402 154.261C39.5712 154.408 39.9772 154.742 40.7232 154.542C39.6622 153.727 38.7042 153.009 37.7692 152.262C37.3582 151.934 36.9802 151.561 36.6142 151.183C36.1182 150.67 35.6852 150.076 36.1312 149.359C36.5492 148.687 37.2212 148.888 37.8442 149.064C38.0232 149.115 38.2082 149.143 38.5332 149.211C37.6532 148.039 35.8852 147.685 36.0992 145.592C40.0672 147.196 43.9632 148.52 48.0482 149.145C52.1712 149.776 56.3242 149.537 60.6432 149.698C56.9292 142.836 57.1052 135.77 58.5962 128.641C59.1522 125.982 59.8362 123.282 61.7362 121.094C61.4982 122.958 61.5372 124.78 61.8272 126.608C62.1332 123.312 62.2752 120.001 63.2342 116.808C65.6192 108.869 69.3132 101.669 75.1442 95.6707C76.0352 94.7547 77.0252 93.9787 78.1882 93.4417C79.0872 93.0267 79.9922 92.6807 80.5842 94.0897C83.3592 90.9167 86.3032 88.2207 89.6382 85.9717C92.2182 84.2317 94.9472 82.7637 97.8092 81.5447C98.3002 81.3357 98.8413 81.1787 99.3073 81.5807C99.7183 81.9357 99.6672 82.4017 99.5252 82.8937C97.3012 90.5927 98.5522 98.0877 100.744 105.568C101.822 109.247 103.687 112.331 106.309 115.126C111.5 120.66 117.371 125.35 123.393 129.928C135.471 139.11 145.758 150.043 153.852 162.897C158.598 170.435 161.133 178.862 162.313 187.663C162.618 189.939 162.58 192.29 162.172 194.862C162.918 193.931 163.518 193.169 164.132 192.417C166.175 189.915 168.5 187.732 171.016 185.683C175.999 181.627 178.469 176.202 179.236 169.845C180.209 161.77 180.1 153.635 180.837 145.551C181.474 138.559 183.759 132.221 188.48 126.75C186.072 125.135 185.228 122.703 184.927 120.015C184.61 117.184 185.733 114.881 187.815 112.852C185.169 110.778 182.226 109.558 179.262 108.364C174.179 106.315 168.97 104.895 163.434 105.53C161.64 105.735 160.55 104.387 159.033 104.008C158.286 103.821 158.592 102.873 158.875 102.214C159.684 100.323 161.126 98.9337 162.718 97.4187C162.058 97.2957 161.524 97.2397 161.018 97.0907C160.36 96.8967 159.661 96.6697 159.581 95.8287C159.51 95.0837 160.038 94.6847 160.6 94.3657C161.286 93.9767 161.984 93.6047 162.698 93.2687C164.766 92.2977 166.536 90.9187 168.482 89.2007C165.976 89.0507 164.055 88.0167 162.098 87.0937C161.582 86.8497 161.115 86.4887 160.655 86.1427C160.238 85.8277 160.104 85.3687 160.25 84.8687C160.421 84.2837 160.919 84.2697 161.406 84.2867C166.955 84.4777 170.902 81.5507 174.111 77.4877C176.108 74.9587 176.603 71.7257 177.276 68.6577C177.848 66.0487 178.12 63.3747 178.563 60.7357C178.766 59.5297 178.299 58.5987 177.566 57.7157C175.75 55.5257 173.573 53.6427 172.056 51.1967C170.49 48.6697 169.133 46.0707 169.007 43.0137C168.988 42.5417 168.999 42.0587 169.077 41.5947C169.323 40.1207 170.418 39.7227 171.574 40.6787C171.937 40.9797 172.261 41.3287 172.876 41.9167C172.13 39.3897 171.307 37.2357 170.947 34.9547C169.727 27.2357 170.205 19.6567 172.479 12.1607C173.42 9.05873 174.682 6.14173 176.382 3.40173C176.881 2.59673 177.406 1.80072 178.169 1.20172C179.748 -0.0372782 181.255 0.000726342 182.69 1.37373C184.51 3.11373 185.789 5.24473 186.794 7.51273C190.603 16.1157 196.011 23.5607 202.714 30.1387C205.344 32.7197 207.941 35.3637 210.155 38.3367C210.355 38.6047 210.528 38.8297 210.906 38.7907C213.863 38.4887 216.748 39.0817 219.674 39.5767C220.032 38.0877 219.427 36.7097 219.466 35.2927C219.612 29.9617 220.369 24.7307 221.584 19.5357C222.823 14.2367 225.135 9.45073 228.018 4.90273C228.871 3.55673 229.908 2.13273 231.689 2.31673C233.6 2.51473 234.658 4.00772 235.278 5.72372C236.481 9.05372 236.908 12.5677 237.601 16.0167C238.898 22.4677 241.241 28.5757 244.282 34.3407C248.464 42.2677 251.01 50.6847 253.103 59.3267C254.298 64.2627 255.327 69.2917 258.071 73.7337C260.514 77.6877 263.737 80.7717 267.761 83.0587C268.474 83.4637 269.318 83.7837 269.222 84.8827C269.126 85.9747 268.292 86.3207 267.487 86.7157C266.298 87.2997 265.01 87.1097 263.504 87.1607C264.755 88.4367 266.22 88.9567 267.578 89.6387C268.125 89.9137 268.923 89.9707 268.856 90.8047C268.796 91.5577 268.106 91.7497 267.489 91.9197C267.038 92.0437 266.576 92.1297 266.119 92.2347C265.765 92.3167 265.217 92.3127 265.162 92.6677C264.793 95.0907 262.717 95.6737 260.988 95.8727C255.688 96.4817 252.181 99.6727 249.141 103.545C247.159 106.069 245.64 108.919 244.537 111.964C244.24 112.784 244.324 113.324 245.068 113.962C247.976 116.457 248.003 116.506 251.424 114.689C256.615 111.933 260.173 107.482 263.616 102.916C264.028 102.369 264.437 101.815 264.795 101.232C265.612 99.9007 266.563 98.8677 268.342 99.1657C270.113 99.4617 271.389 100.459 271.992 102.074C273.118 105.087 273.13 108.152 271.869 111.157C269.871 115.918 266.221 119.215 262.111 122.096C261.687 122.393 261.251 122.673 260.884 123.249C262.742 122.992 264.599 122.719 266.46 122.481C268.025 122.281 269.583 122.064 271.177 122.25C274.827 122.676 277.738 125.038 278.246 128.634C278.715 131.958 277.429 134.278 273.527 135.642C267.082 137.896 266.628 137.933 257.215 137.252C259.071 141.087 259.5 145.878 264.99 146.52C264.902 148.941 262.637 149.409 257.719 147.969C257.973 148.688 258.184 149.308 258.411 149.922C259.978 154.163 259.087 158.315 257.938 162.449C256.929 166.081 255.462 169.495 252.881 172.315C252.53 172.699 252.683 173.009 252.749 173.308C253.451 176.471 254.189 179.625 254.943 182.894C259.009 181.984 262.954 181.514 266.969 181.534C276.113 181.579 284.808 183.633 293.187 187.175C299.178 189.707 304.935 192.677 310.067 196.716C315.121 200.693 319.333 205.451 323.098 210.669C327.823 217.217 333.752 222.489 340.937 226.252C343.918 227.813 347.096 228.31 350.421 227.525C350.624 227.477 350.842 227.463 351.049 227.479C351.249 227.491 351.447 227.565 351.926 227.68ZM210.02 41.9677C210.157 40.4687 209.372 39.3537 208.475 38.2947C206.149 35.5497 203.637 32.9937 200.811 30.7537C198.241 28.7157 195.87 26.4697 193.757 23.9507C189.791 19.2247 187.562 13.5807 185.267 7.97173C184.486 6.06273 183.639 4.19173 182.306 2.60573C181.061 1.12373 179.891 1.14072 178.654 2.64072C178.09 3.32572 177.642 4.11572 177.202 4.89172C173.758 10.9797 172.393 17.6527 171.968 24.5217C171.512 31.8977 172.956 38.9587 176.186 45.6287C176.34 45.9467 176.405 46.2087 176.077 46.6047C173.668 45.6307 172.522 43.1127 170.419 41.5457C170.329 42.3617 170.38 42.9187 170.496 43.5007C171.246 47.2777 173.524 50.1677 175.938 52.9767C177.558 54.8617 179.133 56.7627 179.949 59.1687C180.108 59.6357 180.366 60.2867 179.999 60.4967C178.89 61.1327 179.242 62.1257 179.234 62.9967C179.205 65.9047 178.671 68.7387 178.197 71.5927C177.391 76.4507 174.739 79.9547 170.663 82.5447C168.059 84.1987 165.287 85.2737 162.121 85.3977C164.691 86.7137 167.168 88.1427 170.433 88.2047C168.372 92.2917 164.621 93.8107 161.115 95.6457C163.188 96.4327 164.806 95.0997 166.785 95.0237C165.041 97.9097 161.499 99.2787 160.319 102.594C161.108 102.942 161.548 102.138 162.193 102.029C162.601 101.96 163.069 101.827 163.302 102.325C163.488 102.721 163.243 103.007 162.954 103.283C162.77 103.458 162.325 103.451 162.469 103.973C167.112 103.756 171.726 103.862 176.165 105.548C180.559 107.217 184.783 109.191 188.301 111.867C206.597 100.701 224.679 101.771 242.942 111.748C242.867 111.814 242.974 111.759 243.019 111.673C243.114 111.489 243.177 111.29 243.251 111.095C245.202 105.936 247.943 101.309 252.351 97.8497C254.304 96.3177 256.368 95.0117 258.941 94.6677C260.601 94.4457 262.34 94.2337 263.634 92.9567C262.989 91.7177 261.282 92.1487 260.623 90.6227C262.556 90.5737 264.345 91.4117 266.269 90.7897C265.915 90.5787 265.747 90.4517 265.56 90.3717C263.14 89.3367 261.155 87.7037 259.355 85.8287C259.039 85.4997 258.634 85.0787 258.95 84.5797C259.323 83.9927 259.797 84.4057 260.19 84.6167C261.411 85.2727 262.747 85.6197 264.084 85.7857C265.618 85.9757 267.173 85.8457 268.314 84.6597C268.145 84.0817 267.841 84.0357 267.532 83.9257C262.041 81.9737 258.066 78.2617 255.464 73.1317C252.796 67.8717 251.531 62.1317 250.565 56.3827C249.316 48.9487 247.218 41.9057 243.128 35.4987C238.509 28.2617 235.369 20.4707 234.561 11.8267C234.362 9.69172 234.148 7.51873 233.315 5.49573C232.348 3.14773 230.986 2.92273 229.362 4.81373C229.191 5.01273 229.023 5.21973 228.89 5.44473C227.365 8.02273 225.858 10.6107 224.823 13.4367C222.6 19.5017 221.588 25.8217 221.095 32.2207C220.922 34.4637 220.859 36.7497 221.233 39.0117C221.364 39.8027 221.684 40.1167 222.483 40.3317C226.096 41.3037 229.55 42.6837 232.696 44.7507C233.138 45.0407 233.747 45.1927 233.869 46.1607C226.694 42.0757 219.135 40.1527 211.103 40.2297C210.76 40.9487 211.208 41.9717 210.058 42.0347L210.02 41.9677ZM16.9912 298.151C18.7802 307.645 23.6202 318.46 29.6232 326.901C33.6052 332.5 38.7112 336.664 44.9032 339.573C50.5842 342.241 56.6102 343.611 62.7892 344.414C67.8862 345.077 72.9902 345.235 78.0342 344.061C80.8152 343.413 83.5802 342.634 86.1072 341.07C85.7052 340.441 85.4232 339.934 85.0802 339.472C76.5982 328.02 74.1662 315.192 76.2362 301.279C77.1892 294.873 79.1272 288.777 81.6552 282.861C85.0792 274.85 89.3482 267.296 95.7312 261.272C109.81 247.985 126.917 243.008 145.929 243.734C149.074 243.854 152.2 244.449 155.114 245.79C155.658 246.041 156.339 246.181 156.27 247.066C155.657 247.148 155.102 247.14 154.516 247.023C152.456 246.614 150.396 246.049 148.314 245.931C141.078 245.521 133.853 245.845 126.781 247.501C109.169 251.625 95.2922 260.866 86.8102 277.268C82.0572 286.458 78.7862 296.042 77.9962 306.506C77.2182 316.817 79.2872 326.209 84.7032 335.014C88.2922 340.848 92.7063 345.986 97.0293 351.244C101.712 356.941 106.917 362.296 108.778 369.922C109.412 372.521 109.449 374.831 108.977 377.3C108.457 380.018 107.148 382.364 105.393 384.497C108.016 383.227 109.832 381.137 111.503 378.893C111.839 378.441 112.078 377.735 112.812 378.096C113.55 378.459 113.141 379.121 112.979 379.635C111.867 383.178 110.181 386.434 108.011 389.444C106.315 391.797 104.114 393.618 101.531 395.328C103.073 395.54 104.302 395.318 105.548 395.147C113.369 394.075 120.693 391.863 127.07 386.896C132.648 382.551 137.949 377.996 141.537 371.805C145.334 365.254 147.504 358.131 148.402 350.638C148.56 349.32 148.985 347.837 147.411 346.663C134.118 336.745 127.943 322.763 125.436 306.941C124.183 299.031 125.493 291.188 128.114 283.618C132.964 269.61 142.748 259.99 155.47 253.004C155.76 252.845 156.05 252.768 156.384 253.099C155.767 254.385 154.591 255.116 153.452 255.832C149.003 258.629 145.034 261.997 141.379 265.755C129.843 277.617 125.317 291.931 127.379 308.143C128.447 316.535 131.65 324.421 136.269 331.586C142.765 341.663 151.568 348.805 163.314 351.881C168.596 353.264 173.977 354.264 179.293 355.523C186.585 357.25 193.512 359.852 199.396 364.659C203.703 368.178 206.924 372.409 207.96 378.077C208.377 380.362 208.347 382.577 207.808 384.834C208.879 383.889 209.351 382.704 209.704 381.426C209.84 380.933 209.841 380.154 210.665 380.185C211.329 380.211 211.657 380.735 211.88 381.285C212.799 383.549 213.424 385.821 212.931 388.344C212.695 389.549 212.311 390.821 212.561 392.285C216.709 389.195 220.35 385.85 223.903 382.387C234.049 372.497 239.721 360.559 240.322 346.37C240.63 339.104 240.669 331.82 239.142 324.638C236.177 310.691 230.764 298.066 220.394 287.803C209.436 276.958 196.672 269.382 181.911 265.068C181.517 264.953 180.899 265.036 180.721 264.191C182.289 263.587 183.789 264.287 185.196 264.657C209.838 271.139 226.8 286.429 236.55 309.905C241.406 307.845 246.315 306.768 251.283 305.912C256.614 304.993 261.941 304.523 267.246 306.08C270.475 307.028 273.681 308.044 276.871 309.125C284.211 311.613 291.661 312.547 299.513 310.317C296.739 309.475 293.891 309.401 291.789 307.233C298.687 308.603 305.125 307.124 311.431 304.699C307.348 304.184 303.429 303.378 299.777 301.415C293.704 298.15 289.311 293.112 285.242 287.765C279.937 280.795 275.41 273.289 270.871 265.819C266.393 258.45 260.81 252.137 254.112 246.82C249.222 242.939 243.545 240.297 237.981 237.529C230.787 233.951 223.192 231.74 215.139 231.321C206.663 230.879 198.331 231.938 190.079 233.843C181.081 235.92 172.906 239.538 166.285 246.179C166.005 246.46 165.735 246.85 165.228 246.67C164.927 245.582 164.92 245.577 165.592 244.719C168.254 241.32 171.76 238.975 175.519 237.017C185.283 231.931 195.888 230.184 206.712 229.423C207.871 229.341 208.754 229.186 209.572 228.211C212.702 224.48 215.364 220.428 217.989 216.347C222.768 208.917 226.56 200.785 233.347 194.786C233.763 194.418 233.81 194.013 233.665 193.509C230.994 184.275 228.907 174.874 225.752 165.778C225.493 165.031 225.294 164.331 225.824 163.104C231.19 172.553 233.175 182.665 235.508 192.765C238.23 190.638 241.185 189.028 244.111 187.367C247.084 185.679 250.237 184.403 253.465 183.315C249.703 172.288 246.478 152.645 248.21 150.061C249.786 153.554 249.783 157.201 250.469 160.675C251.167 164.209 251.672 167.782 252.262 171.337C257.022 163.147 259.055 154.761 254.797 145.65C257.484 145.653 259.457 147.727 261.99 147.394C258.944 146.119 257.354 143.634 256.179 140.798C254.235 136.11 251.159 132.283 247.304 129.042C246.413 128.293 245.485 127.571 244.285 127.436C242.548 127.242 240.868 126.808 239.234 126.23C231.04 123.335 222.636 122.052 213.937 122.594C209.361 122.879 204.83 123.433 200.292 124.049C196.685 124.538 193.596 126.526 190.084 127.231C189.647 127.319 189.464 127.763 189.245 128.128C187.289 131.394 185.667 134.82 184.617 138.477C183.389 142.755 183.261 147.189 182.911 151.598C182.424 157.734 181.978 163.869 181.215 169.99C180.297 177.358 177.294 183.335 171.38 187.831C167.606 190.7 164.851 194.381 162.792 198.615C159.884 204.594 158.371 210.948 157.59 217.521C156.646 225.47 157.057 233.259 159.976 240.801C160.105 241.135 160.344 241.446 159.96 241.778C159.366 241.631 159.156 241.138 158.936 240.664C157.918 238.472 156.981 236.242 156.408 233.891C154.97 227.992 154.807 222.017 155.441 215.999C156.017 210.532 156.967 205.17 159.44 200.182C160.148 198.754 160.45 197.201 160.514 195.612C160.948 184.767 158.056 174.692 152.769 165.39C146.419 154.218 137.542 145.077 128.08 136.508C123.539 132.395 118.332 129.109 113.654 125.159C109.572 121.712 105.355 118.167 102.669 113.64C97.2443 104.496 94.5932 94.5237 96.6762 83.7187C96.4282 83.5677 96.2342 83.7867 96.0092 83.8917C90.5012 86.4447 85.9972 90.2637 82.1162 94.8757C80.9162 96.3017 80.0092 97.8827 79.4632 99.6667C79.2492 100.365 79.3572 101.581 78.2422 101.226C77.3262 100.934 77.7832 99.8307 77.9392 99.1087C78.1162 98.2947 78.4682 97.5127 78.7932 96.7367C79.0442 96.1387 79.1993 95.5507 78.9753 94.6957C74.7613 98.0467 72.0582 102.415 69.6162 106.962C67.1922 111.477 65.3302 116.202 64.3962 121.284C63.4602 126.376 64.3432 131.428 64.6442 136.524C62.1912 134.005 60.6572 131.106 59.8932 127.567C59.3102 131.196 58.8602 134.563 59.4162 138.008C60.0212 141.761 60.6952 145.469 62.6102 148.83C63.0062 149.525 63.4542 149.877 64.3392 149.891C71.3742 150.003 78.2632 151.097 85.0192 153.075C99.6752 157.367 112.632 164.626 123.215 175.681C135.165 188.164 142.447 203.297 147.179 219.76C147.239 219.97 147.295 220.289 146.851 220.403C146.091 219.749 145.635 218.857 145.344 217.92C143.401 211.669 140.532 205.82 137.685 199.953C128.886 181.82 115.557 168.28 97.1882 159.805C85.2762 154.309 72.7222 151.85 59.6492 151.773C57.1192 151.758 54.5922 151.827 52.0562 151.591C48.9312 151.301 45.9202 150.542 42.6542 149.64C44.1912 150.88 45.9982 150.985 47.4792 152.164C45.1672 153.97 43.0132 152.17 40.6992 152.218C43.3732 154.621 46.2122 156.647 48.6832 159.209C47.3582 160.217 46.3772 159.321 45.4662 158.93C36.3242 155.003 26.9242 153.043 16.9722 154.938C15.6312 155.193 14.2662 155.348 12.9452 155.677C11.6292 156.005 10.2382 156.123 8.97524 156.747C9.23724 157.2 9.58825 157.1 9.88325 157.17C16.0862 158.642 20.7812 162.047 23.5252 167.903C25.4642 172.04 26.5852 176.372 26.9032 180.959C27.2632 186.154 28.0652 191.322 28.3282 196.52C28.5642 201.197 29.3912 205.694 30.8882 210.11C32.0402 213.506 33.8682 216.363 36.8802 218.401C37.6312 218.909 38.3642 219.241 39.3222 219.302C43.6722 219.58 47.8202 218.755 51.8462 217.203C59.2462 214.349 66.5562 211.297 74.2572 209.229C82.2542 207.082 90.2172 205.746 98.5552 206.517C106.53 207.255 114.24 208.884 121.741 211.639C134.359 216.272 145.284 223.186 152.88 234.615C153.295 235.239 153.978 235.763 153.798 236.736C152.773 236.764 152.472 235.927 151.974 235.383C146.098 228.974 139.816 223.019 132.088 218.882C118.598 211.66 104.407 207.221 88.8452 208.504C83.8682 208.914 78.8972 209.277 74.0782 210.724C67.1632 212.801 60.5962 215.753 53.9582 218.544C49.2652 220.517 44.4622 221.918 39.1882 221.554C31.6322 221.033 25.6162 217.628 20.4782 212.403C16.1442 207.996 12.3622 203.106 8.59425 198.213C7.93625 197.358 7.37625 196.386 6.31325 195.764C5.57425 197.406 5.38425 199.072 5.26025 200.733C4.89225 205.648 5.84024 210.364 7.55824 214.946C7.74724 215.451 8.07524 216.018 7.48824 216.338C6.81224 216.706 6.42524 216.127 6.17124 215.581C5.60124 214.356 5.06325 213.117 4.51125 211.884C2.81625 223.492 5.35625 234.447 9.39925 245.155C13.5042 256.026 20.0402 265.155 29.3652 272.324C26.2482 271.659 23.6172 270.158 20.9742 268.594C20.9512 268.765 20.9242 268.828 20.9432 268.849C28.0782 276.768 36.1882 283.126 47.1112 284.772C49.3012 285.102 51.5862 285.569 53.7652 284.357C60.7152 280.49 67.1022 275.871 72.8702 270.387C76.8572 266.597 80.3392 262.339 84.1472 258.386C91.9212 250.317 100.428 243.182 110.625 238.337C115.727 235.913 121.056 234.18 126.78 233.782C132.325 233.397 137.673 234.355 143.017 235.608C147.632 236.69 151.88 238.575 155.81 241.202C156.301 241.53 156.952 241.829 156.516 242.712C155.22 242.448 154.139 241.792 153.027 241.24C146.222 237.862 138.94 236.274 131.437 235.792C123.966 235.312 117.076 237.67 110.535 241.012C100.683 246.047 92.4302 253.175 84.9672 261.238C78.4362 268.294 71.9962 275.415 63.8142 280.681C58.2222 284.28 52.6152 287.841 46.0582 289.416C43.0532 290.138 39.9912 290.915 36.8572 290.479C29.4052 289.441 23.6192 285.595 19.0992 279.696C18.6762 279.144 18.2562 278.59 17.6342 277.774C17.4612 281.568 18.1422 284.865 18.6932 288.176C19.4562 292.758 21.3192 296.917 23.5372 300.949C23.8262 301.474 24.2882 302.147 23.6742 302.685C22.9812 303.292 22.4012 302.68 21.8822 302.251C20.2982 300.942 18.7342 299.615 16.9912 298.151ZM348.405 229.429C342.522 229.21 340.21 228.587 336.281 226.098C330.603 222.502 325.747 217.999 321.76 212.591C319.662 209.746 317.617 206.875 315.192 204.283C306.531 195.024 295.636 189.586 283.707 186.036C275.069 183.466 266.202 182.522 257.345 184.642C243.237 188.019 232.63 196.205 225.388 208.793C221.288 215.92 217.117 223.013 211.339 228.981C211.303 229.019 211.379 229.165 211.422 229.337C214.199 229.333 216.999 229.384 219.764 229.79C225.835 230.682 231.618 232.514 237.235 235.01C249.731 240.561 260.737 248.015 268.921 259.18C269.541 260.025 270.095 259.774 270.817 259.521C275.533 257.866 279.262 254.892 282.437 251.089C289.278 242.896 297.904 239.337 308.649 240.663C313.228 241.228 317.871 241.759 322.526 241.426C325.036 241.246 327.501 240.843 330.127 239.644C328.994 239.468 328.187 239.356 327.385 239.217C325.216 238.839 323.078 238.336 320.989 237.632C320.462 237.454 319.921 237.181 320.041 236.566C320.188 235.813 320.82 235.842 321.437 236.001C321.639 236.053 321.861 236.019 322.065 236.065C327.697 237.311 333.175 236.425 338.547 234.726C342.008 233.63 345.188 231.915 348.405 229.429ZM232.663 108.803C230.159 108.099 227.901 107.405 225.61 106.846C224.604 106.6 223.567 106.304 222.492 106.491C218.212 107.235 214.469 108.957 211.724 112.458C210.181 114.426 208.932 116.513 208.976 119.157C208.996 120.361 209.438 120.933 210.675 120.721C213.239 120.283 215.827 120.417 218.409 120.401C219.77 120.392 221.132 120.399 222.505 120.399C221.701 115.327 224.913 111.628 232.663 108.803ZM208.301 120.951C206.923 114.945 210.825 109.832 219.632 105.929C217.036 105.358 214.398 105.761 211.776 105.868C205.526 106.123 201.072 109.315 198.255 114.757C196.985 117.211 196.459 119.878 197.85 122.598C201.309 121.817 204.711 121.214 208.301 120.951ZM234.628 122.752C234.271 117.258 237.859 115.282 242.21 113.666C239.83 111.991 237.445 110.633 234.834 109.674C234.648 109.606 234.41 109.63 234.207 109.668C232.186 110.042 230.191 110.55 228.449 111.671C225.844 113.348 223.768 115.468 223.463 118.76C223.397 119.473 223.205 120.545 224.273 120.688C227.71 121.147 231.085 121.912 234.628 122.752ZM202.786 107.474C198.099 108.433 193.895 110.368 190.191 113.373C186.249 116.571 186.465 120.554 188.713 124.546C189.247 125.495 189.99 125.77 190.96 125.347C192.879 124.511 194.783 123.639 196.612 122.819C194.586 115.981 197.968 111.468 202.786 107.474ZM235.548 121.988C235.408 122.686 235.91 123.248 237.012 123.599C239.414 124.363 241.811 125.131 244.279 125.655C245.909 126.001 247.521 125.098 247.989 123.527C248.684 121.198 247.615 119.313 246.283 117.59C243.481 113.968 243.064 113.98 238.883 116.451C237.03 117.546 235.732 119.224 235.548 121.988ZM254.513 132.879C255.857 134.895 259.079 136.348 260.85 135.815C265.041 134.553 267.234 129.046 265.055 125.256C264.851 124.901 264.707 124.417 264.152 124.578C262.321 125.108 260.418 124.664 258.529 124.934C259.937 128.97 257.577 131.06 254.513 132.879ZM254.464 115.194C256.587 117.966 256.77 120.824 254.993 123.813C258.906 123.174 261.505 121.049 262.414 117.396C263.067 114.772 262.284 112.253 260.309 110.01C258.495 112.062 256.555 113.715 254.464 115.194ZM265.628 124.4C267.978 128.798 267.259 132.526 263.704 136.031C265.227 135.752 266.366 135.575 267.489 135.331C270.1 134.765 271.882 133.249 272.231 130.543C272.505 128.421 271.934 126.381 270.776 124.552C270.478 124.082 270 123.835 269.421 123.906C268.233 124.052 267.047 124.214 265.628 124.4ZM263.902 105.542C262.919 106.809 261.928 108.087 260.947 109.352C263.872 112.448 264.174 115.931 262.764 119.914C264.382 118.603 265.661 117.23 266.898 115.821C267.305 115.358 267.756 114.831 267.903 114.26C268.585 111.618 266.395 106.883 263.902 105.542ZM247.937 126.847C249.933 128.094 251.656 129.62 253.153 131.399C253.438 131.738 253.752 132.025 254.23 131.727C255.898 130.689 257.498 129.62 257.986 127.497C258.452 125.471 257.62 124.551 255.652 125.107C254.257 125.501 252.779 125.739 251.438 125.398C249.861 124.996 248.815 125.282 247.937 126.847ZM264.479 104.733C267.53 106.497 268.275 109.506 268.97 112.729C270.396 110.5 271.034 108.238 271.065 105.856C271.083 104.455 270.827 103.014 269.972 101.81C268.759 100.104 267.446 100.12 266.322 101.831C265.717 102.754 265.139 103.693 264.479 104.733ZM249.848 123.752C252.989 124.712 254.101 124.258 254.86 121.695C255.371 119.969 255.149 118.274 254.359 116.654C254.036 115.991 253.586 115.625 252.866 116.065C251.489 116.909 249.957 117.334 248.352 117.691C249.344 119.646 249.983 121.571 249.848 123.752ZM272.093 133.975C274.92 133.604 276.543 131.906 276.525 129.459C276.507 127.004 274.397 124.641 271.91 124.291C273.753 129.512 273.776 130.425 272.093 133.975Z" fill="#6F2C2C"/>
<path d="M210.059 42.0384C210.596 44.5094 209.583 46.5634 208.208 48.4544C206.249 51.1484 203.812 53.3594 200.851 55.3854C200.852 54.6494 201.253 54.4614 201.515 54.2054C203.325 52.4384 205.214 50.7474 206.735 48.7064C208.067 46.9174 209.207 45.0474 209.334 42.7324C209.357 42.3104 209.358 41.8344 210.02 41.9684L210.059 42.0384Z" fill="#6F2C2C"/>
<path d="M182.762 182.088C184.159 180.606 196.77 179.432 198.696 180.553C193.369 180.903 188.079 181.601 182.762 182.088Z" fill="#6F2C2C"/>
<path d="M184.479 179.827C185.962 178.106 194.457 177.596 198.327 178.818C193.825 178.891 189.349 179.323 184.479 179.827Z" fill="#6F2C2C"/>
<path d="M229.153 52.3613C229.886 52.6303 230.099 53.0303 230.169 53.4283C230.791 56.9653 232.435 60.1553 233.576 63.5143C234.093 65.0343 234.274 66.5873 234.02 68.1653C233.795 69.5613 233.071 70.6493 231.604 70.9383C230.216 71.2113 229.079 70.6103 228.396 69.4203C227.116 67.1913 226.886 64.7823 227.365 62.2673C227.986 59.0043 228.548 55.7303 229.153 52.3613Z" fill="#FF7043"/>
</svg>
