<svg width="47" height="20" viewBox="0 0 47 20" fill="none" xmlns="http://www.w3.org/2000/svg">
<path d="M7.90797 13.373C7.90797 13.5722 7.89801 13.7415 7.8781 13.8809C7.86482 14.0136 7.84159 14.1265 7.8084 14.2194C7.77521 14.3057 7.73206 14.3688 7.67895 14.4086C7.63249 14.4484 7.57606 14.4683 7.50968 14.4683H1.60503C1.38598 14.4683 1.20011 14.4053 1.04743 14.2791C0.90139 14.1464 0.828369 13.934 0.828369 13.6419V1.94213C0.828369 1.87575 0.848285 1.81601 0.888114 1.7629C0.934581 1.7098 1.0076 1.66665 1.10717 1.63346C1.20675 1.60026 1.33951 1.57371 1.50546 1.5538C1.67805 1.53389 1.89048 1.52393 2.14273 1.52393C2.40161 1.52393 2.61404 1.53389 2.77999 1.5538C2.94594 1.57371 3.07871 1.60026 3.17828 1.63346C3.27785 1.66665 3.34755 1.7098 3.38738 1.7629C3.43385 1.81601 3.45708 1.87575 3.45708 1.94213V12.3076H7.50968C7.57606 12.3076 7.63249 12.3275 7.67895 12.3674C7.73206 12.4006 7.77521 12.4603 7.8084 12.5466C7.84159 12.6263 7.86482 12.7358 7.8781 12.8752C7.89801 13.0079 7.90797 13.1739 7.90797 13.373Z" fill="white"/>
<path d="M11.811 14.1297C11.811 14.196 11.791 14.2558 11.7512 14.3089C11.7114 14.3554 11.6417 14.3952 11.5421 14.4284C11.4492 14.4616 11.3231 14.4848 11.1637 14.4981C11.0044 14.518 10.802 14.528 10.5564 14.528C10.3107 14.528 10.1083 14.518 9.94896 14.4981C9.78964 14.4848 9.6602 14.4616 9.56063 14.4284C9.46769 14.3952 9.40131 14.3554 9.36148 14.3089C9.32165 14.2558 9.30174 14.196 9.30174 14.1297V5.26772C9.30174 5.20134 9.32165 5.14492 9.36148 5.09845C9.40131 5.04535 9.46769 5.0022 9.56063 4.96901C9.6602 4.92918 9.78964 4.89931 9.94896 4.8794C10.1083 4.85948 10.3107 4.84952 10.5564 4.84952C10.802 4.84952 11.0044 4.85948 11.1637 4.8794C11.3231 4.89931 11.4492 4.92918 11.5421 4.96901C11.6417 5.0022 11.7114 5.04535 11.7512 5.09845C11.791 5.14492 11.811 5.20134 11.811 5.26772V14.1297ZM12.0002 2.24073C12.0002 2.74523 11.8973 3.09373 11.6915 3.28624C11.4857 3.47875 11.104 3.575 10.5464 3.575C9.98215 3.575 9.60046 3.48206 9.40131 3.29619C9.2088 3.11032 9.11255 2.7751 9.11255 2.29051C9.11255 1.78601 9.21212 1.43751 9.41127 1.245C9.61705 1.04586 10.0021 0.946289 10.5663 0.946289C11.1239 0.946289 11.5023 1.04254 11.7014 1.23504C11.9006 1.42091 12.0002 1.75614 12.0002 2.24073Z" fill="white"/>
<path d="M22.5649 14.1398C22.5649 14.2062 22.5449 14.2659 22.5051 14.319C22.4719 14.3655 22.4055 14.4053 22.306 14.4385C22.213 14.4651 22.0836 14.485 21.9176 14.4983C21.7517 14.5182 21.5359 14.5281 21.2704 14.5281C20.9983 14.5281 20.7759 14.5215 20.6033 14.5082C20.4373 14.4949 20.2979 14.475 20.1851 14.4485C20.0789 14.4153 19.9959 14.3721 19.9361 14.319C19.8764 14.2659 19.8233 14.1962 19.7768 14.1099L16.8195 9.43003V14.1298C16.8195 14.1962 16.7996 14.256 16.7598 14.3091C16.72 14.3555 16.6503 14.3954 16.5507 14.4286C16.4577 14.4618 16.3316 14.485 16.1723 14.4983C16.013 14.5182 15.8105 14.5281 15.5649 14.5281C15.3193 14.5281 15.1168 14.5182 14.9575 14.4983C14.7982 14.485 14.6688 14.4618 14.5692 14.4286C14.4763 14.3954 14.4099 14.3555 14.37 14.3091C14.3302 14.256 14.3103 14.1962 14.3103 14.1298V1.03607C14.3103 0.969685 14.3302 0.909947 14.37 0.856843C14.4099 0.803737 14.4763 0.760584 14.5692 0.727393C14.6688 0.687564 14.7982 0.657693 14.9575 0.637777C15.1168 0.617863 15.3193 0.60791 15.5649 0.60791C15.8105 0.60791 16.013 0.617863 16.1723 0.637777C16.3316 0.657693 16.4577 0.687564 16.5507 0.727393C16.6503 0.760584 16.72 0.803737 16.7598 0.856843C16.7996 0.909947 16.8195 0.969685 16.8195 1.03607V8.83259L19.4482 5.29777C19.5013 5.21811 19.5611 5.14841 19.6275 5.08866C19.6939 5.02892 19.7801 4.98246 19.8864 4.94927C19.9992 4.91608 20.1353 4.89284 20.2946 4.87957C20.4606 4.85965 20.6697 4.84969 20.9219 4.84969C21.1675 4.84969 21.3733 4.85965 21.5393 4.87957C21.7119 4.89284 21.8479 4.91608 21.9475 4.94927C22.0537 4.98246 22.1267 5.0256 22.1666 5.07871C22.2064 5.12518 22.2263 5.18492 22.2263 5.25794C22.2263 5.35751 22.1998 5.46372 22.1467 5.57657C22.1002 5.68942 22.0272 5.80891 21.9276 5.93503L19.3288 8.88237L22.3358 13.5324C22.4155 13.6652 22.4719 13.7813 22.5051 13.8809C22.5449 13.9738 22.5649 14.0601 22.5649 14.1398Z" fill="white"/>
<path d="M31.7455 9.43027C31.7455 9.73563 31.6758 9.96132 31.5364 10.1074C31.4036 10.2534 31.2178 10.3264 30.9788 10.3264H25.572C25.572 10.7048 25.6152 11.05 25.7015 11.362C25.7944 11.6673 25.9371 11.9295 26.1296 12.1486C26.3288 12.361 26.581 12.5237 26.8864 12.6365C27.1984 12.7493 27.5701 12.8058 28.0016 12.8058C28.4397 12.8058 28.8247 12.7759 29.1566 12.7162C29.4885 12.6498 29.774 12.5801 30.0129 12.5071C30.2586 12.4274 30.461 12.3577 30.6203 12.298C30.7797 12.2316 30.9091 12.1984 31.0087 12.1984C31.0684 12.1984 31.1182 12.2117 31.158 12.2382C31.1979 12.2581 31.231 12.2979 31.2576 12.3577C31.2842 12.4174 31.3008 12.5037 31.3074 12.6166C31.3207 12.7228 31.3273 12.8589 31.3273 13.0248C31.3273 13.1709 31.324 13.297 31.3173 13.4032C31.3107 13.5028 31.3007 13.5891 31.2875 13.6621C31.2742 13.7351 31.2543 13.7982 31.2277 13.8513C31.2012 13.8977 31.1647 13.9442 31.1182 13.9907C31.0784 14.0372 30.9622 14.1002 30.7697 14.1799C30.5772 14.2595 30.3316 14.3392 30.0329 14.4188C29.7341 14.4919 29.3923 14.5549 29.0073 14.608C28.6222 14.6678 28.2107 14.6976 27.7726 14.6976C26.9826 14.6976 26.2889 14.5981 25.6915 14.3989C25.1007 14.1998 24.6062 13.8977 24.2079 13.4928C23.8096 13.0879 23.5109 12.5768 23.3117 11.9594C23.1192 11.3421 23.0229 10.6185 23.0229 9.78873C23.0229 8.99878 23.1258 8.28851 23.3316 7.65788C23.5374 7.02062 23.8361 6.48292 24.2278 6.0448C24.6194 5.60005 25.0941 5.2615 25.6517 5.02917C26.2159 4.79683 26.8499 4.68066 27.5535 4.68066C28.297 4.68066 28.9309 4.79019 29.4553 5.00925C29.9864 5.22831 30.4212 5.53367 30.7597 5.92532C31.0983 6.31033 31.3472 6.76837 31.5065 7.29942C31.6658 7.83047 31.7455 8.40799 31.7455 9.03197L31.7455 9.43027ZM29.3159 8.71335C29.3359 8.0097 29.1931 7.45874 28.8878 7.06045C28.5891 6.65552 28.1244 6.45305 27.4938 6.45305C27.1751 6.45305 26.8963 6.5128 26.6574 6.63228C26.425 6.75177 26.2292 6.91441 26.0699 7.12019C25.9172 7.31933 25.7977 7.5583 25.7114 7.83711C25.6318 8.10927 25.5853 8.40135 25.572 8.71335H29.3159Z" fill="white"/>
<path d="M36.3159 14.1298C36.3159 14.1962 36.2959 14.256 36.2561 14.3091C36.2163 14.3555 36.1466 14.3954 36.047 14.4286C35.9541 14.4618 35.828 14.485 35.6686 14.4983C35.5093 14.5182 35.3069 14.5281 35.0613 14.5281C34.8156 14.5281 34.6132 14.5182 34.4539 14.4983C34.2945 14.485 34.1651 14.4618 34.0655 14.4286C33.9726 14.3954 33.9062 14.3555 33.8664 14.3091C33.8266 14.256 33.8066 14.1962 33.8066 14.1298V1.03607C33.8066 0.969685 33.8266 0.909947 33.8664 0.856843C33.9062 0.803737 33.9726 0.760584 34.0655 0.727393C34.1651 0.687564 34.2945 0.657693 34.4539 0.637777C34.6132 0.617863 34.8156 0.60791 35.0613 0.60791C35.3069 0.60791 35.5093 0.617863 35.6686 0.637777C35.828 0.657693 35.9541 0.687564 36.047 0.727393C36.1466 0.760584 36.2163 0.803737 36.2561 0.856843C36.2959 0.909947 36.3159 0.969685 36.3159 1.03607V14.1298Z" fill="white"/>
<path d="M43.963 14.4683L43.7341 15.2003C43.1376 16.8472 42.278 18.0006 41.2347 18.0828C40.9692 18.0828 40.7568 18.0695 40.5974 18.043C40.4381 18.023 40.3186 17.9865 40.239 17.9334C40.1593 17.8803 40.1162 17.8139 40.1095 17.7343C40.1029 17.6546 40.1228 17.5584 40.1693 17.4455C40.1693 17.4455 39.7176 15.682 40.3067 15.5367C40.9461 15.379 40.9985 15.0771 41.0303 14.7461C41.0535 14.5043 40.9996 14.0972 40.9517 13.9673C39.764 10.7424 37.909 5.85529 37.909 5.85529C37.8227 5.62296 37.7795 5.44705 37.7795 5.32756C37.7795 5.20144 37.8194 5.10518 37.899 5.0388C37.9787 4.96578 38.1115 4.916 38.2973 4.88944C38.4898 4.86289 38.7421 4.84961 39.0541 4.84961C39.3395 4.84961 39.5652 4.85626 39.7312 4.86952C39.8971 4.87617 40.0266 4.8994 40.1195 4.93922C40.2124 4.97905 40.2821 5.04211 40.3286 5.12841C40.3751 5.20807 40.4215 5.32423 40.468 5.47691L42.559 11.4214H42.5889L44.5007 5.35743C44.5405 5.18484 44.5903 5.07198 44.65 5.01888C44.7164 4.95913 44.8226 4.91599 44.9687 4.88944C45.1147 4.86288 45.3703 4.84961 45.7354 4.84961C46.0208 4.84961 46.2565 4.86287 46.4423 4.88944C46.6349 4.91599 46.7743 4.96577 46.8605 5.03879C46.9535 5.11181 47 5.21139 47 5.33751C47 5.457 46.9734 5.59972 46.9203 5.76568L43.963 14.4683Z" fill="#974DC4"/>
<path d="M42.3199 17.288C41.7498 17.9074 41.0261 18.3844 40.2321 18.6641C39.3384 18.9789 38.3688 19.0425 37.4268 18.9396C36.4849 18.8368 35.5672 18.5717 34.678 18.2445C33.9788 17.9873 33.2918 17.6904 32.5702 17.5053C31.3479 17.1919 30.0418 17.2121 28.8298 17.5631C27.6178 17.9141 26.503 18.5951 25.6375 19.5132" stroke="#974DC4" stroke-width="0.4" stroke-linecap="round" stroke-linejoin="round"/>
<path d="M25.6375 19.5131C25.7767 18.5629 26.1127 17.642 26.6181 16.8254C27.6862 15.0995 29.5542 13.8704 31.5728 13.6587C33.0166 13.5074 34.4775 13.8582 35.8084 14.4379C36.6416 14.8009 37.4383 15.2545 38.3036 15.5324C38.7363 15.6713 39.1858 15.7654 39.6401 15.7763C40.0944 15.7873 40.5543 15.7132 40.9692 15.5278C41.2733 15.392 41.5509 15.1972 41.7821 14.9574" stroke="#974DC4" stroke-width="0.4" stroke-linecap="round" stroke-linejoin="round"/>
<path d="M25.8191 19.433L26.1787 17.7148L27.4574 15.617L29.3754 14.2384L31.1335 13.6591L32.8517 13.5991L35.1493 13.9787L36.9274 15.0176L39.3249 15.8168C39.3249 15.8168 40.4238 15.657 40.5037 15.657C40.5836 15.657 42.3218 15.1775 42.3218 15.1775L42.4416 17.1953L41.6425 17.9545L39.7844 19.0134L38.0463 19.0734L36.0284 18.6338L34.3102 18.0544L31.7129 17.3552L30.1346 17.3152L28.8759 17.6549L27.2576 18.3142L26.2986 18.8536L25.8191 19.433Z" fill="#974DC4"/>
</svg>
