<svg width="105" height="45" viewBox="0 0 105 45" fill="none" xmlns="http://www.w3.org/2000/svg">
<path d="M16.3912 29.6463C16.3912 30.0977 16.3686 30.4814 16.3235 30.7974C16.2934 31.0983 16.2407 31.3541 16.1655 31.5648C16.0903 31.7604 15.9925 31.9033 15.8721 31.9936C15.7668 32.0839 15.6389 32.129 15.4884 32.129H2.10456C1.60802 32.129 1.18672 31.986 0.840653 31.7002C0.50963 31.3992 0.344116 30.9178 0.344116 30.2557V3.73626C0.344116 3.58579 0.389259 3.45039 0.479538 3.33002C0.584863 3.20964 0.750373 3.11183 0.97607 3.0366C1.20177 2.96136 1.5027 2.90118 1.87886 2.85604C2.27007 2.81091 2.75156 2.78833 3.32332 2.78833C3.91014 2.78833 4.39162 2.81091 4.76779 2.85604C5.14395 2.90118 5.44488 2.96136 5.67058 3.0366C5.89627 3.11183 6.05426 3.20964 6.14454 3.33002C6.24987 3.45039 6.30253 3.58579 6.30253 3.73626V27.2314H15.4884C15.6389 27.2314 15.7668 27.2765 15.8721 27.3668C15.9925 27.442 16.0903 27.5774 16.1655 27.773C16.2407 27.9536 16.2934 28.2019 16.3235 28.5178C16.3686 28.8188 16.3912 29.1949 16.3912 29.6463Z" fill="#974DC4"/>
<path d="M25.2386 31.3616C25.2386 31.512 25.1935 31.6475 25.1032 31.7678C25.0129 31.8732 24.8549 31.9634 24.6292 32.0387C24.4186 32.1139 24.1327 32.1666 23.7716 32.1967C23.4104 32.2418 22.9515 32.2644 22.3948 32.2644C21.8381 32.2644 21.3792 32.2418 21.0181 32.1967C20.6569 32.1666 20.3635 32.1139 20.1378 32.0387C19.9272 31.9634 19.7767 31.8732 19.6864 31.7678C19.5962 31.6475 19.551 31.512 19.551 31.3616V11.2745C19.551 11.124 19.5962 10.9961 19.6864 10.8908C19.7767 10.7704 19.9272 10.6727 20.1378 10.5974C20.3635 10.5071 20.6569 10.4394 21.0181 10.3943C21.3792 10.3491 21.8381 10.3266 22.3948 10.3266C22.9515 10.3266 23.4104 10.3491 23.7716 10.3943C24.1327 10.4394 24.4186 10.5071 24.6292 10.5974C24.8549 10.6727 25.0129 10.7704 25.1032 10.8908C25.1935 10.9961 25.2386 11.124 25.2386 11.2745V31.3616ZM25.6674 4.41331C25.6674 5.55684 25.4342 6.34678 24.9678 6.78313C24.5013 7.21948 23.6361 7.43765 22.3722 7.43765C21.0933 7.43765 20.2281 7.227 19.7767 6.80569C19.3404 6.38439 19.1222 5.62455 19.1222 4.52616C19.1222 3.38262 19.3479 2.59268 19.7993 2.15633C20.2657 1.70494 21.1384 1.47925 22.4174 1.47925C23.6813 1.47925 24.5389 1.69741 24.9903 2.13376C25.4417 2.55506 25.6674 3.31491 25.6674 4.41331Z" fill="#974DC4"/>
<path d="M49.6139 31.3842C49.6139 31.5347 49.5687 31.6701 49.4785 31.7904C49.4032 31.8958 49.2528 31.986 49.0271 32.0613C48.8164 32.1215 48.523 32.1666 48.1468 32.1967C47.7707 32.2418 47.2817 32.2644 46.6798 32.2644C46.0629 32.2644 45.5588 32.2494 45.1676 32.2193C44.7915 32.1892 44.4755 32.144 44.2197 32.0839C43.979 32.0086 43.7909 31.9108 43.6555 31.7904C43.52 31.6701 43.3997 31.5121 43.2943 31.3165L36.5911 20.7087V31.3616C36.5911 31.5121 36.546 31.6475 36.4557 31.7679C36.3654 31.8732 36.2074 31.9635 35.9818 32.0387C35.7711 32.1139 35.4852 32.1666 35.1241 32.1967C34.763 32.2418 34.3041 32.2644 33.7474 32.2644C33.1906 32.2644 32.7317 32.2418 32.3706 32.1967C32.0095 32.1666 31.7161 32.1139 31.4904 32.0387C31.2797 31.9635 31.1293 31.8732 31.039 31.7679C30.9487 31.6475 30.9036 31.5121 30.9036 31.3616V1.6824C30.9036 1.53194 30.9487 1.39653 31.039 1.27616C31.1293 1.15579 31.2797 1.05797 31.4904 0.982741C31.7161 0.892463 32.0095 0.824756 32.3706 0.779613C32.7317 0.734474 33.1906 0.711914 33.7474 0.711914C34.3041 0.711914 34.763 0.734474 35.1241 0.779613C35.4852 0.824756 35.7711 0.892463 35.9818 0.982741C36.2074 1.05797 36.3654 1.15579 36.4557 1.27616C36.546 1.39653 36.5911 1.53194 36.5911 1.6824V19.3545L42.5496 11.3423C42.6699 11.1617 42.8053 11.0037 42.9558 10.8683C43.1063 10.7329 43.3019 10.6276 43.5426 10.5523C43.7984 10.4771 44.1069 10.4244 44.468 10.3943C44.8441 10.3492 45.3181 10.3266 45.8899 10.3266C46.4466 10.3266 46.913 10.3492 47.2892 10.3943C47.6804 10.4244 47.9889 10.4771 48.2146 10.5523C48.4553 10.6276 48.6208 10.7254 48.7111 10.8457C48.8014 10.951 48.8465 11.0865 48.8465 11.252C48.8465 11.4777 48.7863 11.7184 48.6659 11.9742C48.5606 12.23 48.3951 12.5008 48.1694 12.7867L42.2787 19.4674L49.0948 30.0074C49.2753 30.3084 49.4032 30.5717 49.4785 30.7974C49.5687 31.008 49.6139 31.2036 49.6139 31.3842Z" fill="#974DC4"/>
<path d="M70.4232 20.7086C70.4232 21.4008 70.2652 21.9124 69.9492 22.2434C69.6483 22.5744 69.227 22.7399 68.6853 22.7399H56.43C56.43 23.5976 56.5278 24.38 56.7234 25.0872C56.934 25.7793 57.2575 26.3736 57.6939 26.8702C58.1453 27.3517 58.717 27.7203 59.4092 27.9761C60.1164 28.2319 60.959 28.3598 61.937 28.3598C62.9301 28.3598 63.8028 28.2921 64.5551 28.1566C65.3074 28.0062 65.9544 27.8482 66.4961 27.6827C67.0528 27.5021 67.5117 27.3441 67.8728 27.2087C68.2339 27.0583 68.5274 26.983 68.7531 26.983C68.8885 26.983 69.0013 27.0131 69.0916 27.0733C69.1819 27.1184 69.2571 27.2087 69.3173 27.3441C69.3775 27.4796 69.4151 27.6752 69.4301 27.931C69.4602 28.1717 69.4753 28.4801 69.4753 28.8563C69.4753 29.1873 69.4677 29.4732 69.4527 29.714C69.4377 29.9397 69.4151 30.1353 69.385 30.3008C69.3549 30.4663 69.3098 30.6092 69.2496 30.7296C69.1894 30.8349 69.1066 30.9403 69.0013 31.0456C68.911 31.1509 68.6477 31.2938 68.2114 31.4744C67.775 31.655 67.2183 31.8355 66.5412 32.0161C65.8641 32.1816 65.0892 32.3245 64.2165 32.4449C63.3438 32.5803 62.4109 32.648 61.4179 32.648C59.6273 32.648 58.055 32.4223 56.7008 31.9709C55.3616 31.5195 54.2407 30.8349 53.3379 29.9171C52.4351 28.9993 51.758 27.8407 51.3066 26.4413C50.8703 25.042 50.6521 23.402 50.6521 21.5211C50.6521 19.7306 50.8853 18.1206 51.3518 16.6912C51.8182 15.2468 52.4953 14.028 53.383 13.0349C54.2708 12.0268 55.3466 11.2594 56.6105 10.7328C57.8895 10.2062 59.3264 9.94287 60.9213 9.94287C62.6065 9.94287 64.0435 10.1911 65.2322 10.6877C66.4359 11.1842 67.4214 11.8763 68.1888 12.7641C68.9562 13.6368 69.5204 14.675 69.8815 15.8787C70.2426 17.0824 70.4232 18.3915 70.4232 19.8058L70.4232 20.7086ZM64.9162 19.0836C64.9613 17.4887 64.6378 16.2398 63.9457 15.337C63.2686 14.4192 62.2153 13.9603 60.7859 13.9603C60.0637 13.9603 59.4318 14.0957 58.8901 14.3665C58.3635 14.6374 57.9196 15.006 57.5585 15.4725C57.2124 15.9239 56.9416 16.4655 56.746 17.0975C56.5654 17.7144 56.4601 18.3764 56.43 19.0836H64.9162Z" fill="#974DC4"/>
<path d="M80.7827 31.3616C80.7827 31.5121 80.7375 31.6475 80.6472 31.7679C80.557 31.8732 80.399 31.9635 80.1733 32.0387C79.9626 32.1139 79.6767 32.1666 79.3156 32.1967C78.9545 32.2418 78.4956 32.2644 77.9389 32.2644C77.3822 32.2644 76.9232 32.2418 76.5621 32.1967C76.201 32.1666 75.9076 32.1139 75.6819 32.0387C75.4713 31.9635 75.3208 31.8732 75.2305 31.7679C75.1402 31.6475 75.0951 31.5121 75.0951 31.3616V1.6824C75.0951 1.53194 75.1402 1.39653 75.2305 1.27616C75.3208 1.15579 75.4713 1.05797 75.6819 0.982741C75.9076 0.892463 76.201 0.824756 76.5621 0.779613C76.9232 0.734474 77.3822 0.711914 77.9389 0.711914C78.4956 0.711914 78.9545 0.734474 79.3156 0.779613C79.6767 0.824756 79.9626 0.892463 80.1733 0.982741C80.399 1.05797 80.557 1.15579 80.6472 1.27616C80.7375 1.39653 80.7827 1.53194 80.7827 1.6824V31.3616Z" fill="#974DC4"/>
<path d="M98.1163 32.129L97.5974 33.7882C96.2454 37.5213 94.297 40.1355 91.9322 40.3219C91.3303 40.3219 90.8488 40.2918 90.4877 40.2316C90.1266 40.1864 89.8557 40.1037 89.6752 39.9833C89.4946 39.8629 89.3968 39.7125 89.3818 39.5319C89.3668 39.3513 89.4119 39.1332 89.5172 38.8774C89.5172 38.8774 88.4933 34.8802 89.8287 34.5508C91.2781 34.1932 91.3968 33.5089 91.4689 32.7587C91.5215 32.2106 91.3992 31.2879 91.2908 30.9933C88.5985 23.6837 84.3939 12.6062 84.3939 12.6062C84.1983 12.0796 84.1005 11.6809 84.1005 11.41C84.1005 11.1241 84.1907 10.906 84.3713 10.7555C84.5519 10.59 84.8528 10.4771 85.2741 10.417C85.7104 10.3568 86.2822 10.3267 86.9894 10.3267C87.6364 10.3267 88.148 10.3417 88.5241 10.3718C88.9003 10.3869 89.1937 10.4395 89.4044 10.5298C89.615 10.6201 89.773 10.763 89.8783 10.9586C89.9836 11.1392 90.089 11.4025 90.1943 11.7485L94.9339 25.2227H95.0017L99.335 11.4777C99.4253 11.0865 99.5382 10.8307 99.6736 10.7103C99.8241 10.5749 100.065 10.4771 100.396 10.4169C100.727 10.3567 101.306 10.3267 102.134 10.3267C102.781 10.3267 103.315 10.3567 103.736 10.4169C104.172 10.4771 104.488 10.59 104.684 10.7555C104.895 10.921 105 11.1467 105 11.4326C105 11.7034 104.94 12.0269 104.819 12.4031L98.1163 32.129Z" fill="#FA531E"/>
<path d="M94.392 38.5203C93.0997 39.9243 91.4594 41.0054 89.6596 41.6394C87.6339 42.353 85.436 42.4972 83.301 42.264C81.166 42.0308 79.0858 41.43 77.0702 40.6884C75.4854 40.1053 73.9282 39.4323 72.2925 39.0128C69.522 38.3024 66.5615 38.3482 63.8143 39.1438C61.0671 39.9395 58.5404 41.483 56.5784 43.5641" stroke="#FA531E" stroke-width="1.02" stroke-linecap="round" stroke-linejoin="round"/>
<path d="M56.5784 43.564C56.8939 41.4103 57.6555 39.3229 58.8011 37.472C61.2223 33.5599 65.4562 30.7738 70.0319 30.2942C73.3044 29.9511 76.6159 30.7462 79.6325 32.0603C81.5211 32.8831 83.3269 33.9112 85.2883 34.541C86.269 34.8559 87.288 35.0692 88.3177 35.094C89.3474 35.1189 90.3898 34.9509 91.3302 34.5308C92.0195 34.2228 92.6489 33.7812 93.173 33.2378" stroke="#FA531E" stroke-width="1.02" stroke-linecap="round" stroke-linejoin="round"/>
<path d="M56.9896 43.3818L57.8048 39.4872L60.7031 34.7322L65.0505 31.6075L69.0356 30.2942L72.9302 30.1583L78.1381 31.0187L82.1685 33.3736L87.6028 35.185C87.6028 35.185 90.0935 34.8228 90.2747 34.8228C90.4558 34.8228 94.3957 33.7359 94.3957 33.7359L94.6674 38.3098L92.8559 40.0306L88.6444 42.4308L84.7045 42.5666L80.1306 41.5703L76.2361 40.2571L70.3489 38.672L66.7714 38.5815L63.9183 39.3513L60.2502 40.8458L58.0765 42.0685L56.9896 43.3818Z" fill="#FA531E"/>
</svg>
