<svg width="1082" height="1068" viewBox="0 0 1082 1068" fill="none" xmlns="http://www.w3.org/2000/svg">
<g filter="url(#filter0_d_921_8196)">
<path d="M536.091 1041.13L406.296 1012.02L238.897 950.153L130.936 883.436L50.8756 787.606L21.7627 629.91L94.5452 594.732L98.1841 501.328L120.019 478.281L121.232 321.799L197.653 141.056L272.862 53.7173L328.662 18.5392L379.609 67.0607L408.722 155.613L464.522 144.695L563.991 136.204L674.378 164.104L701.065 76.7651L755.651 16.1133L842.99 90.1084L927.903 204.134L963.081 365.468L967.933 477.068L990.981 543.785L987.342 602.011L1041.93 612.928L1067.4 633.55L1040.72 752.428L1000.69 839.766L915.772 913.762L793.255 971.988L604.021 1030.21L536.091 1041.13Z" fill="white"/>
<path d="M540.906 138.237C522.364 137.383 503.736 138.392 485.394 141.24C456.955 145.655 429.212 154.516 403.479 167.401" stroke="#2F3B40" stroke-width="26.5885" stroke-linecap="round" stroke-linejoin="round"/>
<path d="M540.905 1045.95C624.083 1031.59 705.695 1008.17 783.836 976.256C864.36 943.363 943.479 899.544 996.956 830.941C1040.93 774.525 1065.09 702.968 1064.32 631.441" stroke="#2F3B40" stroke-width="26.5885" stroke-linecap="round" stroke-linejoin="round"/>
<path d="M1064.32 631.442C1054.96 624.435 1044.88 618.389 1034.3 613.429C1018.71 606.129 1002.03 601.195 984.978 598.848" stroke="#2F3B40" stroke-width="26.5885" stroke-linecap="round" stroke-linejoin="round"/>
<path d="M964.392 622.864C984.81 599.998 994.351 567.818 989.696 537.519C984.916 506.405 965.223 477.925 937.802 462.466" stroke="#2F3B40" stroke-width="26.5885" stroke-linecap="round" stroke-linejoin="round"/>
<path d="M758.104 13.8633C813.978 52.6983 861.636 103.297 897.059 161.396C955.204 256.763 979.386 372.375 964.337 483.051" stroke="#2F3B40" stroke-width="26.5885" stroke-linecap="round" stroke-linejoin="round"/>
<path d="M678.333 167.4C678.528 143.656 683.209 119.957 692.057 97.9223C705.515 64.4052 728.722 34.8692 758.104 13.8633" stroke="#2F3B40" stroke-width="26.5885" stroke-linecap="round" stroke-linejoin="round"/>
<path d="M540.905 138.237C559.448 137.383 578.076 138.392 596.418 141.24C624.856 145.655 652.599 154.516 678.333 167.401" stroke="#2F3B40" stroke-width="26.5885" stroke-linecap="round" stroke-linejoin="round"/>
<path d="M617.275 218.011C628.131 228.38 636.762 240.851 642.642 254.664C648.522 268.477 651.527 283.342 651.475 298.354C651.37 327.565 639.711 355.548 619.044 376.191C598.376 396.834 570.38 408.46 541.169 408.53C511.958 408.6 483.907 397.108 463.141 376.565C442.375 356.021 430.581 328.095 430.336 298.886L430.346 296.248C430.587 281.614 433.73 267.172 439.595 253.762C445.46 240.351 453.929 228.239 464.511 218.126C443.622 230.701 426.307 248.228 414.167 269.089C402.027 289.95 395.453 313.471 395.053 337.478L395.034 340.888C395.357 378.621 410.916 414.696 438.311 441.234C465.707 467.772 502.714 482.616 541.249 482.525C579.785 482.435 616.718 467.416 643.983 440.75C671.249 414.083 686.63 377.935 686.768 340.201C686.854 315.708 680.508 291.605 668.337 270.207C656.167 248.808 638.586 230.834 617.275 218.011Z" fill="#FA531E"/>
<path d="M200.686 301.784L205.538 230.822L269.829 142.27L326.842 96.7812L339.579 131.353L345.644 190.185L331.694 207.167L264.977 241.133L200.686 301.784Z" fill="#FF7043"/>
<path d="M195.834 318.161C198.596 274.589 210.895 231.646 231.619 193.218C253.372 152.881 284.393 117.579 321.598 90.8203" stroke="#FA531E" stroke-width="26.2003" stroke-linecap="round" stroke-linejoin="round"/>
<path d="M334.698 210.288C342.49 192.236 345.814 172.275 344.293 152.672C342.573 130.5 334.626 108.843 321.598 90.8203" stroke="#FA531E" stroke-width="26.2002" stroke-linecap="round" stroke-linejoin="round"/>
<path d="M195.834 318.16C209.846 294.878 227.779 273.963 248.65 256.563C273.834 235.566 303.296 219.722 334.698 210.287" stroke="#FA531E" stroke-width="26.2002" stroke-linecap="round" stroke-linejoin="round"/>
<path d="M292.4 438.877L278.676 388.699L286.395 342.81L321.992 323.939L344.294 325.655L343.864 369.829L361.877 422.152L408.625 478.763L437.359 531.085L445.936 586.41L415.486 562.822L361.448 517.79L328.425 491.2L292.4 438.877Z" fill="#FF7043"/>
<path d="M447.286 598.637C449.118 576.24 446.38 553.48 439.289 532.157C433.614 515.095 425.17 498.961 414.414 484.552C397.197 461.487 374.16 442.856 359.518 418.076C343.51 390.984 338.857 357.414 346.892 326.988" stroke="#FA531E" stroke-width="15.5261" stroke-linecap="round" stroke-linejoin="round"/>
<path d="M445.785 597.993C436.801 581.831 425.03 567.222 411.149 555.005C397.846 543.298 382.74 533.862 368.389 523.466C346.123 507.337 325.456 488.667 309.253 466.453C293.614 445.011 282.213 420.043 279.231 393.671C278.038 383.123 278.207 372.326 280.84 362.043C283.472 351.76 288.673 341.991 296.516 334.839C303.168 328.773 311.629 324.718 320.523 323.331C329.418 321.945 338.711 323.234 346.893 326.988" stroke="#FA531E" stroke-width="15.5261" stroke-linecap="round" stroke-linejoin="round"/>
<path d="M164.901 530.441L192.801 606.863L215.242 637.189L277.107 665.695L369.298 683.891L434.802 709.364L422.672 617.78L344.431 555.915L252.847 544.998L164.901 530.441Z" fill="#974DC4"/>
<path d="M431.163 719.07C415.25 704.401 396.355 692.981 375.97 685.712C359.166 679.72 341.491 676.554 323.809 674.188C298.431 670.792 272.467 668.902 248.601 659.632C221.108 648.953 197.552 628.443 183.191 602.682C168.831 576.921 163.773 546.1 169.147 517.1" stroke="#6A1B9A" stroke-width="26.2003" stroke-linecap="round" stroke-linejoin="round"/>
<path d="M431.163 719.07C434.295 700.022 434.089 680.429 430.556 661.451C426.514 639.733 418.053 618.744 405.108 600.842C392.163 582.941 374.675 568.203 354.438 559.345C335.984 551.267 315.751 548.183 295.686 546.386C275.622 544.588 255.407 543.992 235.56 540.543C212.322 536.504 189.771 528.544 169.146 517.1" stroke="#6A1B9A" stroke-width="26.2002" stroke-linecap="round" stroke-linejoin="round"/>
<path d="M143.067 676.918L163.688 695.416L198.26 724.53L247.994 737.57L282.566 749.094L267.1 762.74L233.741 786.091H192.194L157.016 777.297L130.633 757.281L126.084 707.244L143.067 676.918Z" fill="#FF7043"/>
<path d="M293.786 742.42C282.952 758.931 267.382 772.297 249.42 780.505C231.458 788.713 211.162 791.737 191.587 789.122C171.366 786.42 151.43 777.259 138.82 761.222C129.168 748.947 124.283 733.019 125.391 717.443C126.5 701.866 133.592 686.791 144.885 676.006" stroke="#FA531E" stroke-width="15.5261" stroke-linecap="round" stroke-linejoin="round"/>
<path d="M293.786 742.42C268.447 745.338 242.42 742.086 218.578 733.023C189.12 721.825 163.12 701.708 144.886 676.006" stroke="#FA531E" stroke-width="15.5261" stroke-linecap="round" stroke-linejoin="round"/>
<path d="M184.109 830.44L205.339 855.1L235.36 865.822L269.67 861.533L295.402 837.301L303.336 785.837L245.01 817.145L207.912 826.366L184.109 830.44Z" fill="#FF7043"/>
<path d="M181.277 827.333C188.07 843.347 201.613 856.369 217.883 862.526C234.152 868.684 252.923 867.893 268.616 860.388C282.833 853.59 294.391 841.401 300.425 826.843C306.458 812.285 306.911 795.493 301.672 780.631" stroke="#FA531E" stroke-width="15.5261" stroke-linecap="round" stroke-linejoin="round"/>
<path d="M181.277 827.333C203.527 829.607 226.306 826.529 247.154 818.43C267.958 810.348 286.807 797.28 301.672 780.631" stroke="#FA531E" stroke-width="15.5261" stroke-linecap="round" stroke-linejoin="round"/>
<path d="M541.442 735.661C521.446 735.571 502.187 739.239 487.871 745.863C473.555 752.488 465.345 761.532 465.034 771.019L465.029 771.877C465.196 781.365 473.269 790.437 487.486 797.111C501.702 803.785 520.907 807.518 540.905 807.495C560.903 807.473 580.068 803.696 594.217 796.99C608.366 790.285 616.348 781.195 616.42 771.706C616.491 762.217 608.646 753.1 594.598 746.346C580.549 739.592 561.439 735.751 541.442 735.661ZM540.794 754.531C551.754 754.555 562.227 755.575 569.927 757.368C577.628 759.162 581.929 761.583 581.894 764.104C581.854 766.624 577.478 769.039 569.722 770.821C561.966 772.602 551.46 773.605 540.499 773.611C529.537 773.617 519.01 772.625 511.217 770.853C503.425 769.08 498.999 766.67 498.908 764.149L498.913 763.923C499.085 761.403 503.585 759 511.432 757.24C519.279 755.481 529.835 754.507 540.794 754.531Z" fill="black"/>
<path d="M964.392 622.864C984.81 599.998 994.35 567.818 989.695 537.519C984.915 506.405 965.223 477.925 937.802 462.466" stroke="#2F3B40" stroke-width="26.5885" stroke-linecap="round" stroke-linejoin="round"/>
<path d="M881.125 301.784L876.273 230.822L811.982 142.27L754.969 96.7812L742.232 131.353L736.167 190.185L750.117 207.167L816.834 241.133L881.125 301.784Z" fill="#FF7043"/>
<path d="M885.977 318.161C883.215 274.589 870.916 231.646 850.192 193.218C828.439 152.881 797.418 117.579 760.213 90.8203" stroke="#FA531E" stroke-width="26.2003" stroke-linecap="round" stroke-linejoin="round"/>
<path d="M747.113 210.288C739.321 192.236 735.997 172.275 737.518 152.672C739.238 130.5 747.184 108.843 760.213 90.8203" stroke="#FA531E" stroke-width="26.2002" stroke-linecap="round" stroke-linejoin="round"/>
<path d="M885.977 318.16C871.965 294.878 854.032 273.963 833.161 256.563C807.977 235.566 778.515 219.722 747.113 210.287" stroke="#FA531E" stroke-width="26.2002" stroke-linecap="round" stroke-linejoin="round"/>
<path d="M789.412 438.877L803.136 388.699L795.416 342.81L759.82 323.939L737.518 325.655L737.947 369.829L719.934 422.152L673.187 478.763L644.452 531.085L635.875 586.41L666.325 562.822L720.363 517.79L753.386 491.2L789.412 438.877Z" fill="#FF7043"/>
<path d="M634.525 598.637C632.693 576.24 635.431 553.48 642.522 532.157C648.197 515.095 656.641 498.961 667.397 484.552C684.614 461.487 707.652 442.856 722.293 418.076C738.302 390.984 742.955 357.414 734.919 326.988" stroke="#FA531E" stroke-width="15.5261" stroke-linecap="round" stroke-linejoin="round"/>
<path d="M636.026 597.993C645.011 581.831 656.781 567.222 670.663 555.005C683.965 543.298 699.072 533.862 713.423 523.466C735.689 507.337 756.356 488.667 772.558 466.453C788.198 445.011 799.599 420.043 802.581 393.671C803.774 383.123 803.604 372.326 800.972 362.043C798.339 351.76 793.138 341.991 785.295 334.839C778.644 328.773 770.183 324.718 761.288 323.331C752.394 321.945 743.1 323.234 734.919 326.988" stroke="#FA531E" stroke-width="15.5261" stroke-linecap="round" stroke-linejoin="round"/>
<path d="M916.91 530.441L889.01 606.863L866.569 637.189L804.704 665.695L712.513 683.891L647.009 709.364L659.139 617.78L737.38 555.915L828.965 544.998L916.91 530.441Z" fill="#974DC4"/>
<path d="M650.647 719.07C666.56 704.401 685.455 692.981 705.841 685.712C722.644 679.72 740.319 676.554 758.001 674.188C783.379 670.792 809.343 668.902 833.21 659.632C860.702 648.953 884.258 628.443 898.619 602.682C912.98 576.921 918.038 546.1 912.664 517.1" stroke="#6A1B9A" stroke-width="26.2003" stroke-linecap="round" stroke-linejoin="round"/>
<path d="M650.648 719.07C647.517 700.022 647.723 680.429 651.255 661.451C655.297 639.733 663.758 618.744 676.703 600.842C689.648 582.941 707.136 568.203 727.373 559.345C745.827 551.267 766.06 548.183 786.125 546.386C806.189 544.588 826.404 543.992 846.251 540.543C869.489 536.504 892.041 528.544 912.665 517.1" stroke="#6A1B9A" stroke-width="26.2002" stroke-linecap="round" stroke-linejoin="round"/>
<path d="M938.745 676.918L918.123 695.416L883.551 724.53L833.817 737.57L799.245 749.094L814.711 762.74L848.07 786.091H889.617L924.795 777.297L951.178 757.281L955.727 707.244L938.745 676.918Z" fill="#FF7043"/>
<path d="M788.024 742.42C798.859 758.931 814.429 772.297 832.391 780.505C850.353 788.713 870.648 791.737 890.223 789.122C910.444 786.42 930.38 777.259 942.99 761.222C952.642 748.947 957.528 733.019 956.42 717.443C955.311 701.866 948.218 686.791 936.925 676.006" stroke="#FA531E" stroke-width="15.5261" stroke-linecap="round" stroke-linejoin="round"/>
<path d="M788.024 742.42C813.363 745.338 839.391 742.086 863.233 733.023C892.69 721.825 918.69 701.708 936.925 676.006" stroke="#FA531E" stroke-width="15.5261" stroke-linecap="round" stroke-linejoin="round"/>
<path d="M897.702 830.44L876.473 855.1L846.452 865.822L812.142 861.533L786.41 837.301L778.476 785.837L836.802 817.145L873.9 826.366L897.702 830.44Z" fill="#FF7043"/>
<path d="M900.534 827.333C893.742 843.347 880.198 856.369 863.929 862.526C847.66 868.684 828.889 867.893 813.195 860.388C798.978 853.59 787.42 841.401 781.387 826.843C775.353 812.285 774.9 795.493 780.14 780.631" stroke="#FA531E" stroke-width="15.5261" stroke-linecap="round" stroke-linejoin="round"/>
<path d="M900.534 827.333C878.284 829.607 855.506 826.529 834.658 818.43C813.853 810.348 795.005 797.28 780.14 780.631" stroke="#FA531E" stroke-width="15.5261" stroke-linecap="round" stroke-linejoin="round"/>
<path d="M540.007 1049.89V142.182L464.23 146.215L406.005 164.41L393.874 113.766L345.05 34.0089L319.879 21.2715L210.873 119.88L130.245 284.568L106.657 387.498L123.812 489.569L85.213 526.024L93.7906 596.359L69.7736 614.801L15.3066 634.1L31.1751 755.043L86.0709 841.246L182.139 918.444L312.088 985.348L454.903 1030.38L540.007 1049.89Z" fill="black" fill-opacity="0.111656"/>
<path d="M540.905 1045.95C457.727 1031.59 376.115 1008.17 297.974 976.256C217.45 943.364 138.331 899.545 84.8545 830.942C40.8783 774.526 16.7159 702.969 17.4907 631.442C26.8484 624.435 36.9259 618.388 47.5124 613.429C63.0959 606.129 79.7854 601.195 96.8331 598.847M117.418 622.864C97.0007 599.998 87.4599 567.818 92.115 537.519C96.8951 506.405 116.587 477.925 144.009 462.466M117.474 483.051C102.425 372.375 126.606 256.763 184.752 161.396C220.175 103.297 267.833 52.6983 323.708 13.8633C353.089 34.8692 376.296 64.4051 389.754 97.9223C398.601 119.957 403.282 143.656 403.477 167.4M540.906 138.237C522.364 137.383 503.736 138.391 485.394 141.239C456.955 145.655 429.212 154.515 403.479 167.4" stroke="#2F3B40" stroke-width="26.5885" stroke-linecap="round" stroke-linejoin="round"/>
</g>
<defs>
<filter id="filter0_d_921_8196" x="0.178711" y="0.568359" width="1081.45" height="1066.68" filterUnits="userSpaceOnUse" color-interpolation-filters="sRGB">
<feFlood flood-opacity="0" result="BackgroundImageFix"/>
<feColorMatrix in="SourceAlpha" type="matrix" values="0 0 0 0 0 0 0 0 0 0 0 0 0 0 0 0 0 0 127 0" result="hardAlpha"/>
<feOffset dy="4"/>
<feGaussianBlur stdDeviation="2"/>
<feComposite in2="hardAlpha" operator="out"/>
<feColorMatrix type="matrix" values="0 0 0 0 0 0 0 0 0 0 0 0 0 0 0 0 0 0 0.25 0"/>
<feBlend mode="normal" in2="BackgroundImageFix" result="effect1_dropShadow_921_8196"/>
<feBlend mode="normal" in="SourceGraphic" in2="effect1_dropShadow_921_8196" result="shape"/>
</filter>
</defs>
</svg>
