<svg width="90" height="92" viewBox="0 0 90 92" fill="none" xmlns="http://www.w3.org/2000/svg">
<path d="M81.3997 55.6023C81.1598 60.9572 77.869 79.2988 44.546 84.6815C44.0149 84.7681 43.4784 84.8115 42.9419 84.8117C42.3999 84.812 41.8579 84.7691 41.3214 84.6832C7.99293 79.3347 4.68331 60.9965 4.43788 55.6419C4.42422 55.3264 4.46991 55.0164 4.56683 54.7278C4.75797 54.1776 5.13793 53.6975 5.6554 53.3899C7.41013 52.3536 9.77953 51.1822 9.77953 51.1822C8.04615 46.5213 11.0722 42.9175 11.0722 42.9175C10.6796 23.9442 20.5421 12.6715 24.5171 8.9109C25.4765 8.00177 27.0026 8.06841 27.8659 9.06554C31.0737 12.7739 32.6354 19.2145 32.6354 19.2145C37.6335 17.8206 42.8993 17.7209 42.8993 17.7209C42.8993 17.7209 48.1651 17.8152 53.1647 19.2039C53.1647 19.2039 54.7198 12.7618 57.9237 9.05009C58.7861 8.05204 60.312 7.98383 61.2724 8.89199C65.2513 12.6485 75.1254 23.9111 74.7522 42.8848C74.7522 42.8848 77.782 46.4855 76.0534 51.1482C76.0534 51.1482 78.424 52.3172 80.1798 53.3516C80.97 53.8203 81.4396 54.6856 81.3997 55.6023Z" fill="white"/>
<g opacity="0.15">
<path d="M81.2859 54.6885C80.3872 58.3154 74.2387 77.2381 42.94 81.2447C11.6371 77.2703 5.46913 58.3539 4.5667 54.7279C4.46979 55.0165 4.42409 55.3265 4.43775 55.642C4.68318 60.9966 7.9928 79.3348 41.3212 84.6833C41.8578 84.7693 42.3998 84.8121 42.9417 84.8118C43.4837 84.8115 44.0256 84.7681 44.5621 84.6816C77.885 79.2989 81.1758 60.9573 81.4158 55.6024C81.4291 55.2869 81.3831 54.9769 81.2859 54.6885Z" fill="#263238"/>
</g>
<g opacity="0.15">
<path d="M54.6347 66.4432C54.6347 66.4432 50.9133 67.5608 47.6642 66.4468C44.415 65.3328 44.4616 62.3055 44.4616 62.3055L42.9341 62.3063L41.4067 62.3071C41.4067 62.3071 41.4562 65.3343 38.2083 66.4516C34.9603 67.5689 31.2378 66.4552 31.2378 66.4552C30.566 68.34 36.4613 70.094 39.3854 69.5794C42.3095 69.0648 42.935 63.9907 42.935 63.9907C42.935 63.9907 43.5657 69.0642 46.4903 69.5758C49.415 70.0873 55.3085 68.3273 54.6347 66.4432Z" fill="#263238"/>
</g>
<g opacity="0.15">
<path d="M4.99604 53.9591C4.99604 53.9591 8.56464 55.5337 11.8395 54.6391C12.1885 54.5437 12.3071 54.1084 12.0508 53.8531C11.2837 53.0889 9.96976 51.5686 9.63429 49.8418L9.77912 51.1817L4.99604 53.9591Z" fill="#263238"/>
</g>
<g opacity="0.15">
<path d="M80.8565 53.9202C80.8565 53.9202 77.2895 55.4986 74.0137 54.6072C73.6646 54.5122 73.5456 54.0771 73.8017 53.8214C74.5679 53.0565 75.8803 51.5348 76.214 49.8077L76.0705 51.1478L80.8565 53.9202Z" fill="#263238"/>
</g>
<path d="M28.9685 20.9885C27.3306 21.8158 22.7442 24.2302 18.379 27.4255C17.7434 27.8907 16.8796 27.2857 17.1117 26.533C18.1595 23.1357 20.6254 16.8 25.362 12.6086C25.7728 12.245 26.4204 12.3941 26.6431 12.8954C27.2193 14.1921 28.2747 16.7034 29.3724 20.0007C29.5004 20.3852 29.3302 20.8057 28.9685 20.9885Z" fill="#FF7043"/>
<path d="M56.8333 20.9742C58.4719 21.7999 63.0609 24.2095 67.4294 27.4003C68.0655 27.8649 68.9286 27.259 68.6957 26.5065C67.6445 23.1103 65.172 16.7771 60.4312 12.5906C60.02 12.2274 59.3726 12.3771 59.1503 12.8787C58.5755 14.176 57.5227 16.6885 56.4284 19.9868C56.3009 20.3715 56.4714 20.7919 56.8333 20.9742Z" fill="#FF7043"/>
<path d="M53.8961 31.1126C53.8989 36.7181 48.9806 41.2665 42.9113 41.2696C36.8421 41.2727 31.9191 36.7294 31.9162 31.1239C31.9141 27.0984 34.4495 23.6189 38.1263 21.975C36.3745 23.4427 35.254 25.7027 35.2553 28.2372C35.2576 32.6617 38.6837 36.2487 42.9088 36.2465C47.1338 36.2443 50.5562 32.6538 50.5539 28.2293C50.5526 25.6948 49.4298 23.4359 47.6765 21.97C51.355 23.6102 53.894 27.0871 53.8961 31.1126Z" fill="#FF7043"/>
<path d="M26.6373 29.0637C27.239 29.1483 27.6424 29.7318 27.5152 30.326C27.1907 31.8411 26.8807 35.1796 29.4238 38.1014C33.5597 42.8529 34.8588 45.7165 35.109 49.5393C35.1266 49.8085 34.784 49.9365 34.6265 49.7175C33.6382 48.343 31.2376 45.4004 27.3061 42.9557C21.9785 39.6429 21.2549 34.2888 22.503 31.6316C23.4546 29.6053 25.2732 28.8719 26.6373 29.0637Z" fill="#FF7043"/>
<path d="M59.1727 29.0472C58.5711 29.1324 58.1683 29.7164 58.2961 30.3104C58.6221 31.8252 58.9357 35.1633 56.3955 38.0877C52.2645 42.8436 50.9683 45.7084 50.722 49.5315C50.7047 49.8008 51.0475 49.9284 51.2047 49.7092C52.1916 48.3337 54.5892 45.3886 58.5181 42.9399C63.8423 39.6216 64.5604 34.2668 63.3096 31.6109C62.356 29.5855 60.5366 28.854 59.1727 29.0472Z" fill="#FF7043"/>
<path d="M35.6287 42.0992C35.5452 42.0711 35.4805 42.1784 35.538 42.2488C35.9467 42.7492 36.7797 43.993 36.8602 45.8949C36.9674 48.425 36.899 51.0331 39.2759 50.8471C41.9378 50.6389 41.6187 44.1114 35.6287 42.0992Z" fill="#FF7043"/>
<path d="M50.1947 42.0915C50.2783 42.0633 50.343 42.1705 50.2856 42.241C49.8774 42.7418 49.0457 43.9865 48.9671 45.8885C48.8625 48.4187 48.9336 51.0267 46.5566 50.8432C43.8944 50.6376 44.2069 44.1099 50.1947 42.0915Z" fill="#FF7043"/>
<path d="M23.2835 60.1206C21.9358 60.1473 15.3486 60.0236 12.7006 55.2083C12.666 55.1453 12.59 55.1193 12.5264 55.1526C11.9572 55.4497 9.4896 56.9478 10.5366 60.1293C11.7398 63.786 20.1812 65.5456 23.4015 60.3235C23.4565 60.2341 23.3883 60.1185 23.2835 60.1206Z" fill="#FF7043"/>
<path d="M15.4819 66.3633C16.6792 66.4183 20.3977 66.279 23.6623 62.8701C23.8377 62.687 24.1447 62.7836 24.187 63.0336C24.3728 64.1326 24.5162 66.5419 22.7461 68.4096C20.3441 70.9441 15.977 70.1757 15.1666 66.7428C15.1195 66.5433 15.2771 66.3539 15.4819 66.3633Z" fill="#FF7043"/>
<path d="M62.5685 60.1004C63.9162 60.1257 70.5032 59.9952 73.1463 55.1772C73.1809 55.1142 73.2568 55.0881 73.3205 55.1213C73.89 55.4178 76.359 56.9134 75.3154 60.096C74.1158 63.7539 65.6763 65.5222 62.4507 60.3034C62.3955 60.2141 62.4636 60.0984 62.5685 60.1004Z" fill="#FF7043"/>
<path d="M70.3764 66.335C69.1792 66.3913 65.4606 66.2559 62.1924 62.8503C62.0169 62.6674 61.7099 62.7644 61.6679 63.0144C61.4833 64.1136 61.3423 66.523 63.1144 68.3889C65.519 70.9209 69.8853 70.148 70.6921 66.7143C70.739 66.5147 70.5812 66.3254 70.3764 66.335Z" fill="#FF7043"/>
<path d="M12.5561 42.813C9.78004 46.0579 9.19122 49.6521 11.5783 53.3318C11.7981 53.6738 11.3017 54.042 11.0391 53.7288C8.37035 50.735 8.17868 46.3888 10.8518 43.3209C11.2041 42.908 11.5773 42.5421 12.0361 42.2066C12.2144 42.0763 12.4646 42.1152 12.5949 42.2935C12.7142 42.4561 12.6897 42.6744 12.5561 42.813Z" fill="#263238"/>
<path d="M73.7848 42.1748C76.4297 44.1345 77.6397 47.872 76.4294 50.9642C76.0445 51.979 75.4747 52.8977 74.7937 53.6959C74.6734 53.8369 74.4615 53.8537 74.3205 53.7333C74.192 53.6238 74.1666 53.4379 74.2542 53.2994C76.6475 49.6022 76.0364 45.9995 73.2439 42.7561C72.9402 42.4054 73.4149 41.8968 73.7848 42.1748Z" fill="#263238"/>
<path d="M42.9227 56.5643C40.1207 56.5658 38.4963 57.3853 37.6322 58.0625C36.9901 58.5657 36.921 59.5096 37.472 60.1111C38.0624 60.7556 38.8262 61.0764 39.3196 61.227C39.6294 61.3214 39.8978 61.5231 40.0751 61.7941C40.4892 62.4271 41.4174 63.5087 42.9263 63.5078C44.4351 63.5071 45.3623 62.4245 45.7757 61.7911C45.9527 61.52 46.2209 61.318 46.5306 61.2232C47.0398 61.0673 47.8369 60.7296 48.4336 60.0419C48.9463 59.451 48.8327 58.5408 48.2167 58.0585C47.3523 57.3819 45.7267 56.5629 42.9227 56.5643Z" fill="#263238"/>
<path d="M43.2819 63.1872C43.6316 65.7716 42.6921 69.0448 40.0097 70.0113C39.1158 70.3441 38.1312 70.3344 37.2951 70.2276C34.7468 70.0246 32.2564 68.9225 30.2205 67.4024C29.548 66.9471 28.8893 66.529 28.1684 66.1963C27.9764 66.1091 27.8919 65.882 27.9803 65.6905C28.0573 65.5237 28.2399 65.4393 28.4121 65.4794C30.0755 65.855 31.4525 66.9731 32.8926 67.742C34.285 68.4882 35.828 68.8776 37.4234 69.0296C41.2628 69.6499 42.2406 66.3465 42.5803 63.2197C42.6031 62.7999 43.222 62.7706 43.2819 63.1872Z" fill="#263238"/>
<path d="M35.9163 69.1656C35.9163 69.1656 32.6291 66.3475 30.0397 65.3636C27.4505 64.3797 25.7916 65.6036 26.9207 66.8261C28.0498 68.0485 30.639 68.8965 35.9163 69.1656Z" fill="#263238"/>
<path d="M43.2818 63.2192C43.6261 66.348 44.6049 69.6468 48.4448 69.0237C50.04 68.87 51.5825 68.4791 52.9742 67.7313C54.4135 66.9609 55.7892 65.8415 57.4524 65.4642C57.8888 65.3627 58.1109 65.9888 57.699 66.18C56.9775 66.5134 56.3187 66.9326 55.6459 67.3892C53.5976 68.9175 51.1373 70.0111 48.5742 70.2215C45.4377 70.7269 43.2364 68.8217 42.6603 65.7876C42.4942 64.9226 42.456 64.0646 42.5802 63.1873C42.6075 62.9946 42.7858 62.8606 42.9785 62.8878C43.1497 62.9119 43.2718 63.0546 43.2818 63.2192Z" fill="#263238"/>
<path d="M49.9521 69.1582C49.9521 69.1582 53.2364 66.3367 55.8247 65.3502C58.413 64.3637 60.073 65.5859 58.9453 66.8095C57.8175 68.033 55.229 68.8837 49.9521 69.1582Z" fill="#263238"/>
<path d="M42.9322 59.0044C44.728 59.0035 46.1836 58.7054 46.1834 58.3387C46.1832 57.972 44.7273 57.6755 42.9315 57.6765C41.1358 57.6774 39.6802 57.9754 39.6804 58.3421C39.6806 58.7089 41.1365 59.0054 42.9322 59.0044Z" fill="white"/>
<path d="M51.0422 69.1863C51.0295 69.262 50.3818 72.4861 48.1366 74.7487C46.9155 75.9796 45.2199 76.9247 42.894 76.9219C40.654 76.9193 39.001 76.0386 37.7927 74.8729C35.4418 72.5999 34.7739 69.2455 34.7614 69.1672C34.8599 69.2229 37.1766 70.5363 40.1908 69.2998C43.1291 68.0936 42.9522 63.919 42.9299 63.5352C42.9849 63.9721 43.7058 69.415 46.7941 69.6182C49.9253 69.8264 50.9867 69.219 51.0422 69.1863Z" fill="#263238"/>
<path d="M48.1367 74.7489C46.9156 75.9798 45.2199 76.9249 42.8941 76.9221C40.6541 76.9195 39.001 76.0387 37.7928 74.8731C38.1483 73.174 39.2776 70.5894 42.8409 70.5936C46.3082 70.5976 47.6336 73.0513 48.1367 74.7489Z" fill="#FF7043"/>
<path d="M41.5611 77.3836C35.6465 76.4355 34.2182 69.3473 34.2035 69.271C34.1618 69.0519 34.252 68.8289 34.4346 68.7009C34.6169 68.5728 34.8571 68.5636 35.0489 68.6779C35.1342 68.7278 37.2138 69.9105 39.9766 68.7758C42.6347 67.685 42.3648 63.5915 42.3617 63.5503C42.3393 63.2427 42.567 62.9732 42.8743 62.9447C43.1815 62.9167 43.4548 63.139 43.4889 63.4456C43.6573 64.9556 44.5942 68.9074 46.8309 69.0545C49.746 69.2463 50.7466 68.7021 50.7565 68.6967C50.9482 68.588 51.1917 68.5979 51.3708 68.7272C51.5501 68.8562 51.6433 69.0743 51.6012 69.2908C51.5855 69.3729 49.9287 77.496 42.893 77.4878C42.4259 77.4874 41.9819 77.4511 41.5611 77.3836ZM35.5974 70.1127C36.2462 72.1393 38.1616 76.3485 42.8943 76.3559C47.6987 76.3613 49.6119 72.021 50.2355 70.0356C49.5161 70.1824 48.4019 70.2924 46.7567 70.1844C44.8433 70.0596 43.7337 68.3135 43.11 66.6463C42.7139 67.904 41.9326 69.1967 40.4065 69.8232C38.3887 70.6512 36.6608 70.4261 35.5974 70.1127Z" fill="#263238"/>
<path d="M35.0139 57.9941C33.8722 50.4707 29.724 46.4725 22.879 46.0801C20.4106 45.9386 18.7022 45.7312 17.5453 45.5359C16.425 45.3466 15.3653 44.8695 14.5172 44.1134C14.4491 44.0526 14.3818 43.9898 14.3157 43.9246C14.0578 43.6703 13.6212 43.8122 13.576 44.1715C13.4518 45.1568 13.3265 46.7006 13.5568 47.8475C13.559 47.8585 13.5616 47.8665 13.5639 47.8769C14.1848 52.882 18.9272 56.8455 25.1565 57.3289C28.862 57.6164 31.1065 58.6735 32.151 59.3095C32.1888 59.3329 33.2561 59.9971 34.0801 60.9284C34.2983 61.175 34.7022 61.1007 34.812 60.7903C35.0155 60.2154 35.2082 59.2745 35.0139 57.9941Z" fill="#FF7043"/>
<path d="M14.7899 46.5982C14.7939 46.3963 14.9873 46.2526 15.1786 46.3172C15.9359 46.5729 18.0143 47.1001 22.8048 47.3748C30.1701 47.797 32.8465 52.6798 33.7334 58.1998C33.775 58.4587 33.4866 58.6413 33.2714 58.4914C32.2297 57.7658 29.7056 56.3811 25.2571 56.0358C19.3187 55.575 14.6875 51.6832 14.7899 46.5982Z" fill="#FFC107"/>
<path d="M50.8488 58.0128C52.0081 50.4921 56.1656 46.5035 63.0115 46.1272C65.4803 45.9914 67.1891 45.7881 68.3464 45.5955C69.4672 45.4089 70.5281 44.9343 71.3779 44.1801C71.4461 44.1196 71.5136 44.0568 71.5798 43.9918C71.8382 43.7381 72.2745 43.8811 72.3189 44.2405C72.4408 45.2261 72.5625 46.7701 72.3295 47.9166C72.3273 47.9274 72.3247 47.9355 72.3224 47.9459C71.6898 52.9495 66.9381 56.9018 60.7076 57.3707C57.0015 57.6495 54.7545 58.7013 53.7084 59.335C53.6706 59.3582 52.6017 60.02 51.7756 60.9494C51.5568 61.1954 51.1532 61.1202 51.0441 60.8096C50.842 60.234 50.6515 59.2927 50.8488 58.0128Z" fill="#FF7043"/>
<path d="M71.0994 46.6642C71.0958 46.4623 70.9028 46.3181 70.7113 46.3823C69.9535 46.6362 67.8737 47.1586 63.0826 47.422C55.7164 47.827 53.0285 52.7035 52.1288 58.2213C52.0865 58.4802 52.3745 58.6635 52.5901 58.514C53.6335 57.7909 56.1608 56.4121 60.6102 56.0772C66.5496 55.6304 71.1899 51.7494 71.0994 46.6642Z" fill="#FFC107"/>
<path d="M41.2177 85.3502C41.2164 85.35 41.2155 85.3498 41.2142 85.3496C7.4789 79.935 4.0213 61.2658 3.76544 55.673C3.71195 54.5037 4.30492 53.407 5.31294 52.8106C6.58467 52.0581 8.15094 51.2488 8.95373 50.8418C7.7141 46.7374 9.7763 43.5281 10.3938 42.6917C10.0831 23.7233 19.8332 12.4132 24.0534 8.42027C24.6471 7.85853 25.4559 7.55967 26.2718 7.60044C27.0933 7.64166 27.8404 8.00537 28.3767 8.62523C31.0744 11.7437 32.6164 16.6145 33.1135 18.3895C37.9205 17.1537 42.6776 17.0507 42.8865 17.0467C43.1192 17.0503 47.8786 17.1487 52.6855 18.3795C53.1809 16.6041 54.7177 11.7315 57.4123 8.61041C57.9481 7.99004 58.6954 7.62528 59.5165 7.58343C60.3318 7.54177 61.1414 7.83972 61.7354 8.40098C65.9596 12.3894 75.7214 23.6891 75.43 42.6582C76.0486 43.4942 78.114 46.7016 76.8785 50.8072C77.6819 51.2135 79.2493 52.0208 80.5211 52.7723C81.53 53.3674 82.1241 54.4635 82.0719 55.6329C81.8215 61.2259 78.3835 79.8985 44.6536 85.3483C44.6533 85.3482 44.6533 85.3482 44.6533 85.3482C43.5132 85.532 42.3571 85.5328 41.2177 85.3502ZM26.387 8.96588C26.327 8.95626 26.2663 8.94986 26.2046 8.94687C25.7476 8.92406 25.3127 9.08471 24.9799 9.39946C20.8725 13.2857 11.3606 24.3296 11.7463 42.9023C11.7496 43.0656 11.6937 43.2245 11.5887 43.3496C11.4768 43.4842 8.84243 46.7272 10.4112 50.9469C10.5313 51.2705 10.3877 51.6329 10.0781 51.7861C10.0544 51.7977 7.70965 52.9586 5.99965 53.9708C5.4213 54.3129 5.08158 54.9414 5.11196 55.6114C5.35644 60.9474 8.69746 78.7652 41.428 84.0185C41.4289 84.0187 41.4298 84.0188 41.4308 84.0189C42.4285 84.1789 43.4405 84.1783 44.4387 84.0174C77.1639 78.7298 80.4865 60.9085 80.7252 55.5725C80.7551 54.9026 80.4147 54.2743 79.836 53.9331C78.125 52.9226 75.7788 51.7642 75.7554 51.7524C75.4457 51.5999 75.3013 51.2375 75.4214 50.9136C76.9859 46.6923 74.3477 43.4517 74.2349 43.3161C74.1312 43.1914 74.0747 43.0321 74.078 42.8703C74.4444 24.2967 64.9212 13.2628 60.81 9.38111C60.4772 9.06682 60.0423 8.90629 59.5851 8.92972C59.1349 8.95254 58.7255 9.15199 58.4328 9.49133C55.3755 13.0327 53.8348 19.3002 53.8196 19.3631C53.7766 19.5408 53.6635 19.6935 53.5057 19.786C53.3483 19.8786 53.1592 19.9029 52.9838 19.8543C48.1313 18.5038 42.9391 18.3955 42.8874 18.3945C42.8603 18.3956 37.6681 18.5092 32.8169 19.8646C32.6409 19.9136 32.4525 19.8896 32.2946 19.7969C32.1371 19.7045 32.0234 19.5519 31.9805 19.3742C31.9653 19.3114 30.4183 13.0455 27.3573 9.50709C27.1042 9.21475 26.7646 9.02641 26.387 8.96588Z" fill="#263238"/>
</svg>
