<svg width="24" height="24" viewBox="0 0 24 24" fill="none" xmlns="http://www.w3.org/2000/svg">
<path fill-rule="evenodd" clip-rule="evenodd" d="M0 12C9.41203e-08 11.1565 0.683783 10.4727 1.52727 10.4727L10.4727 10.4727V1.52727C10.4727 0.683785 11.1565 9.41203e-08 12 0C12.8435 -9.41203e-08 13.5273 0.683785 13.5273 1.52727V10.4727L22.4727 10.4727C23.3162 10.4727 24 11.1565 24 12C24 12.8435 23.3162 13.5273 22.4727 13.5273H13.5273L13.5273 22.4727C13.5273 23.3162 12.8435 24 12 24C11.1565 24 10.4727 23.3162 10.4727 22.4727L10.4727 13.5273H1.52727C0.683783 13.5273 -9.41203e-08 12.8435 0 12Z" fill="#375563"/>
</svg>
