<svg width="14" height="24" viewBox="0 0 14 24" fill="none" xmlns="http://www.w3.org/2000/svg">
<path d="M14 12C14 12.287 13.9558 12.5561 13.8674 12.8072C13.7791 13.0583 13.6273 13.2915 13.4122 13.5067L3.58014 23.4081C3.18829 23.8027 2.68956 24 2.08396 24C1.47837 24 0.979641 23.8027 0.587784 23.4081C0.195927 23.0135 0 22.5112 0 21.9013C0 21.2915 0.195927 20.7892 0.587784 20.3946L8.92364 12L0.587784 3.60538C0.195927 3.21076 0 2.70852 0 2.09866C0 1.48879 0.195927 0.98655 0.587784 0.591931C0.979641 0.197312 1.47837 -4.4487e-07 2.08396 -4.4487e-07C2.68956 -4.4487e-07 3.18829 0.197312 3.58014 0.591931L13.4122 10.4933C13.6259 10.7085 13.7777 10.9417 13.8674 11.1928C13.9572 11.4439 14.0014 11.713 14 12Z" fill="#375563"/>
</svg>
