<svg width="24" height="24" viewBox="0 0 24 24" fill="none" xmlns="http://www.w3.org/2000/svg">
<path d="M5.00003 12C5.00003 11.713 5.04421 11.4439 5.13255 11.1928C5.2209 10.9417 5.37265 10.7085 5.58782 10.4933L15.4199 0.591927C15.8117 0.197309 16.3104 0 16.916 0C17.5216 0 18.0204 0.197309 18.4122 0.591927C18.8041 0.986546 19 1.48879 19 2.09865C19 2.70852 18.8041 3.21076 18.4122 3.60538L10.0764 12L18.4122 20.3946C18.8041 20.7892 19 21.2915 19 21.9013C19 22.5112 18.8041 23.0135 18.4122 23.4081C18.0204 23.8027 17.5216 24 16.916 24C16.3104 24 15.8117 23.8027 15.4199 23.4081L5.58782 13.5067C5.37408 13.2915 5.22232 13.0583 5.13255 12.8072C5.04278 12.5561 4.99861 12.287 5.00003 12Z" fill="#375563"/>
</svg>
