<svg width="25" height="25" viewBox="0 0 25 25" fill="none" xmlns="http://www.w3.org/2000/svg">
<path d="M22.4671 20.7631C23.2187 19.7555 23.7345 18.592 23.9764 17.3585C24.2183 16.1249 24.1801 14.8528 23.8647 13.636C23.5493 12.4192 22.9647 11.2887 22.154 10.328C21.3434 9.36732 20.3273 8.60095 19.1809 8.08544C18.9312 6.64868 18.3573 5.28775 17.5028 4.10604C16.6484 2.92434 15.5358 1.95296 14.2497 1.2657C12.9635 0.578451 11.5377 0.193411 10.0805 0.139839C8.62322 0.0862673 7.17295 0.365574 5.83983 0.956536C4.50672 1.5475 3.32583 2.43457 2.38691 3.55034C1.44798 4.66611 0.77572 5.98124 0.421202 7.39578C0.0666835 8.81032 0.0392362 10.2871 0.340946 11.7138C0.642656 13.1405 1.26558 14.4797 2.1624 15.6296L0.495328 17.2848C0.328911 17.4535 0.216179 17.6677 0.171355 17.9003C0.126531 18.133 0.151624 18.3737 0.243468 18.5921C0.333442 18.8112 0.486234 18.9987 0.682589 19.131C0.878944 19.2633 1.11007 19.3346 1.34685 19.3358H8.17105C8.85065 20.7686 9.92212 21.9796 11.2614 22.8287C12.6007 23.6777 14.1531 24.1301 15.7388 24.1334H22.9348C23.1716 24.1322 23.4027 24.0609 23.5991 23.9286C23.7954 23.7963 23.9482 23.6088 24.0382 23.3897C24.1301 23.1713 24.1551 22.9306 24.1103 22.6979C24.0655 22.4652 23.9528 22.2511 23.7863 22.0824L22.4671 20.7631ZM7.34351 15.7376C7.34502 16.1392 7.3771 16.5402 7.43946 16.937H4.23724L4.65701 16.5292C4.76942 16.4177 4.85864 16.285 4.91953 16.1389C4.98042 15.9927 5.01177 15.836 5.01177 15.6776C5.01177 15.5193 4.98042 15.3625 4.91953 15.2164C4.85864 15.0702 4.76942 14.9375 4.65701 14.826C3.98485 14.1612 3.45198 13.3691 3.08955 12.4959C2.72711 11.6227 2.54239 10.686 2.54619 9.7406C2.54619 7.83201 3.30433 6.00158 4.65384 4.65199C6.00335 3.30241 7.83368 2.54422 9.74218 2.54422C11.2314 2.53527 12.6859 2.99326 13.9014 3.8538C15.1168 4.71434 16.032 5.93417 16.5184 7.34181H15.7388C13.5123 7.34181 11.3769 8.22636 9.80245 9.80088C8.22802 11.3754 7.34351 13.5109 7.34351 15.7376ZM19.9845 21.7346L20.0444 21.7945H15.7388C14.3516 21.7921 13.0082 21.3087 11.9373 20.4267C10.8665 19.5448 10.1346 18.3189 9.86618 16.9578C9.5978 15.5967 9.80959 14.1847 10.4655 12.9622C11.1213 11.7398 12.1807 10.7825 13.4632 10.2536C14.7456 9.72464 16.1717 9.65671 17.4986 10.0614C18.8256 10.466 19.9711 11.3182 20.7402 12.4728C21.5093 13.6273 21.8543 15.0129 21.7165 16.3933C21.5787 17.7737 20.9666 19.0637 19.9845 20.0434C19.7585 20.2649 19.6292 20.5666 19.6247 20.883C19.6253 21.0417 19.6575 21.1987 19.7192 21.3448C19.781 21.491 19.8711 21.6235 19.9845 21.7346Z" fill="#375563"/>
</svg>
