<svg width="21" height="24" viewBox="0 0 21 24" fill="none" xmlns="http://www.w3.org/2000/svg">
<path d="M17.9 7.47779H3.1C2.446 7.47844 1.81897 7.73853 1.35652 8.20098C0.894074 8.66343 0.633984 9.29046 0.633331 9.94446V14.8778C0.633331 15.3139 0.806585 15.7322 1.11498 16.0406C1.42337 16.349 1.84164 16.5222 2.27778 16.5222V22.2778C2.27778 22.7139 2.45103 23.1322 2.75942 23.4406C3.06782 23.749 3.48609 23.9222 3.92222 23.9222H7.21111C7.64724 23.9222 8.06551 23.749 8.37391 23.4406C8.6823 23.1322 8.85555 22.7139 8.85555 22.2778V12.4111H7.21111V22.2778H3.92222V14.8778H2.27778V9.94446C2.27778 9.72639 2.3644 9.51726 2.5186 9.36306C2.6728 9.20886 2.88193 9.12224 3.1 9.12224H17.9C18.1181 9.12224 18.3272 9.20886 18.4814 9.36306C18.6356 9.51726 18.7222 9.72639 18.7222 9.94446V14.8778H17.0778V22.2778H13.7889V12.4111H12.1444V22.2778C12.1444 22.7139 12.3177 23.1322 12.6261 23.4406C12.9345 23.749 13.3528 23.9222 13.7889 23.9222H17.0778C17.5139 23.9222 17.9322 23.749 18.2406 23.4406C18.549 23.1322 18.7222 22.7139 18.7222 22.2778V16.5222C19.1584 16.5222 19.5766 16.349 19.885 16.0406C20.1934 15.7322 20.3667 15.3139 20.3667 14.8778V9.94446C20.366 9.29046 20.1059 8.66343 19.6435 8.20098C19.181 7.73853 18.554 7.47844 17.9 7.47779ZM5.56666 6.65557C4.91618 6.65557 4.28031 6.46268 3.73946 6.10129C3.1986 5.7399 2.77706 5.22625 2.52813 4.62528C2.2792 4.02432 2.21407 3.36303 2.34097 2.72505C2.46787 2.08707 2.78111 1.50104 3.24107 1.04108C3.70103 0.581125 4.28705 0.267888 4.92503 0.140986C5.56302 0.0140834 6.2243 0.0792143 6.82527 0.328143C7.42623 0.577071 7.93989 0.998616 8.30128 1.53947C8.66266 2.08033 8.85555 2.7162 8.85555 3.36668C8.85468 4.23868 8.5079 5.07472 7.8913 5.69131C7.2747 6.30791 6.43866 6.6547 5.56666 6.65557ZM5.56666 1.72224C5.24142 1.72224 4.92349 1.81868 4.65306 1.99937C4.38263 2.18007 4.17186 2.4369 4.0474 2.73738C3.92293 3.03786 3.89037 3.3685 3.95382 3.68749C4.01727 4.00649 4.17389 4.2995 4.40387 4.52948C4.63385 4.75946 4.92686 4.91608 5.24585 4.97953C5.56484 5.04298 5.89548 5.01041 6.19597 4.88595C6.49645 4.76148 6.75328 4.55071 6.93397 4.28028C7.11466 4.00986 7.21111 3.69192 7.21111 3.36668C7.21111 2.93055 7.03786 2.51227 6.72946 2.20388C6.42107 1.89549 6.0028 1.72224 5.56666 1.72224ZM15.4333 6.65557C14.7829 6.65557 14.147 6.46268 13.6061 6.10129C13.0653 5.7399 12.6437 5.22625 12.3948 4.62528C12.1459 4.02432 12.0807 3.36303 12.2076 2.72505C12.3345 2.08707 12.6478 1.50104 13.1077 1.04108C13.5677 0.581125 14.1537 0.267888 14.7917 0.140986C15.4297 0.0140834 16.091 0.0792143 16.6919 0.328143C17.2929 0.577071 17.8066 0.998616 18.1679 1.53947C18.5293 2.08033 18.7222 2.7162 18.7222 3.36668C18.7213 4.23868 18.3746 5.07472 17.758 5.69131C17.1414 6.30791 16.3053 6.6547 15.4333 6.65557ZM15.4333 1.72224C15.1081 1.72224 14.7902 1.81868 14.5197 1.99937C14.2493 2.18007 14.0385 2.4369 13.9141 2.73738C13.7896 3.03786 13.757 3.3685 13.8205 3.68749C13.8839 4.00649 14.0406 4.2995 14.2705 4.52948C14.5005 4.75946 14.7935 4.91608 15.1125 4.97953C15.4315 5.04298 15.7622 5.01041 16.0626 4.88595C16.3631 4.76148 16.6199 4.55071 16.8006 4.28028C16.9813 4.00986 17.0778 3.69192 17.0778 3.36668C17.0778 2.93055 16.9045 2.51227 16.5961 2.20388C16.2877 1.89549 15.8695 1.72224 15.4333 1.72224Z" fill="#375563"/>
</svg>
