<svg width="25" height="22" viewBox="0 0 25 22" fill="none" xmlns="http://www.w3.org/2000/svg">
<path d="M12.75 5.76298C12.75 5.76298 12.75 5.1778 11.8605 4.00743C10.8306 2.6498 9.30912 1.66669 7.48334 1.66669C4.56912 1.66669 2.21667 4.01913 2.21667 6.93335C2.21667 8.0218 2.54438 9.02832 3.10616 9.85928C4.05416 11.2754 12.75 20.3926 12.75 20.3926M12.75 5.76298C12.75 5.76298 12.75 5.1778 13.6395 4.00743C14.6694 2.6498 16.1909 1.66669 18.0167 1.66669C20.9309 1.66669 23.2833 4.01913 23.2833 6.93335C23.2833 8.0218 22.9556 9.02832 22.3939 9.85928C21.4459 11.2754 12.75 20.3926 12.75 20.3926" stroke="#375563" stroke-width="2.5" stroke-linecap="round" stroke-linejoin="round"/>
</svg>
