<svg width="25" height="24" viewBox="0 0 25 24" fill="none" xmlns="http://www.w3.org/2000/svg">
<path d="M12.75 6.76297C12.75 6.76297 12.75 6.17778 11.8605 5.00741C10.8306 3.64978 9.30912 2.66667 7.48334 2.66667C4.56912 2.66667 2.21667 5.01911 2.21667 7.93334C2.21667 9.02178 2.54438 10.0283 3.10616 10.8593C4.05416 12.2754 12.75 21.3926 12.75 21.3926M12.75 6.76297C12.75 6.76297 12.75 6.17778 13.6395 5.00741C14.6694 3.64978 16.1909 2.66667 18.0167 2.66667C20.9309 2.66667 23.2833 5.01911 23.2833 7.93334C23.2833 9.02178 22.9556 10.0283 22.3939 10.8593C21.4459 12.2754 12.75 21.3926 12.75 21.3926" fill="#FF7043"/>
<path d="M12.75 6.76296C12.75 6.76296 12.75 6.17778 11.8605 5.00741C10.8306 3.64978 9.30912 2.66667 7.48334 2.66667C4.56912 2.66667 2.21667 5.01911 2.21667 7.93334C2.21667 9.02178 2.54438 10.0283 3.10616 10.8593C4.05416 12.2754 12.75 21.3926 12.75 21.3926C12.75 21.3926 21.4459 12.2754 22.3939 10.8593C22.9556 10.0283 23.2833 9.02178 23.2833 7.93334C23.2833 5.01911 20.9309 2.66667 18.0167 2.66667C16.1909 2.66667 14.6694 3.64978 13.6395 5.00741C12.75 6.17778 12.75 6.76296 12.75 6.76296Z" stroke="#974DC4" stroke-width="2.5" stroke-linecap="round" stroke-linejoin="round"/>
</svg>
