<svg width="22" height="25" viewBox="0 0 22 25" fill="none" xmlns="http://www.w3.org/2000/svg">
<path d="M2.80001 21.7045H6.90001V14.8864C6.90001 14.5 7.03121 14.1764 7.29361 13.9154C7.55601 13.6545 7.88037 13.5236 8.26668 13.5227H13.7333C14.1206 13.5227 14.4454 13.6536 14.7078 13.9154C14.9702 14.1773 15.1009 14.5009 15.1 14.8864V21.7045H19.2V9.43181L11 3.29545L2.80001 9.43181V21.7045ZM0.0666809 21.7045V9.43181C0.0666809 8.99999 0.163714 8.5909 0.357781 8.20454C0.551847 7.81818 0.819259 7.49999 1.16001 7.24999L9.36001 1.11363C9.83835 0.749995 10.385 0.568176 11 0.568176C11.615 0.568176 12.1617 0.749995 12.64 1.11363L20.84 7.24999C21.1817 7.49999 21.4495 7.81818 21.6436 8.20454C21.8377 8.5909 21.9343 8.99999 21.9333 9.43181V21.7045C21.9333 22.4545 21.6655 23.0968 21.1297 23.6314C20.594 24.1659 19.9508 24.4327 19.2 24.4318H13.7333C13.3461 24.4318 13.0218 24.3009 12.7603 24.0391C12.4988 23.7773 12.3676 23.4536 12.3667 23.0682V16.25H9.63334V23.0682C9.63334 23.4545 9.50214 23.7786 9.23975 24.0404C8.97735 24.3023 8.65299 24.4327 8.26668 24.4318H2.80001C2.04835 24.4318 1.4051 24.165 0.87028 23.6314C0.335458 23.0977 0.067592 22.4554 0.0666809 21.7045Z" fill="#375563"/>
</svg>
