<svg width="24" height="24" viewBox="0 0 24 24" fill="none" xmlns="http://www.w3.org/2000/svg">
<path fill-rule="evenodd" clip-rule="evenodd" d="M0.290667 1.456C-8.9407e-08 2.02667 0 2.77333 0 4.26667V5.08533L23.9867 2.904C23.9613 2.25333 23.8933 1.81867 23.7093 1.456C23.4537 0.954257 23.0457 0.546325 22.544 0.290667C21.9733 -8.9407e-08 21.2267 0 19.7333 0H4.26667C2.77333 0 2.02667 -8.9407e-08 1.456 0.290667C0.954257 0.546325 0.546325 0.954257 0.290667 1.456ZM24 5.58133L17.5133 6.17067L20.8547 23.9933C21.644 23.976 22.1387 23.916 22.544 23.7093C23.0457 23.4537 23.4537 23.0457 23.7093 22.544C24 21.9733 24 21.2267 24 19.7333V5.58133ZM18.144 24L14.8453 6.41333L0 7.76267V19.7333C0 21.2267 -8.9407e-08 21.9733 0.290667 22.544C0.546325 23.0457 0.954257 23.4537 1.456 23.7093C2.02667 24 2.77333 24 4.26667 24H18.144ZM12.6667 16.04C12.6667 18.9173 9.81333 20.9387 8.56933 21.684C8.39735 21.7872 8.20056 21.8417 8 21.8417C7.79944 21.8417 7.60265 21.7872 7.43067 21.684C6.18667 20.9387 3.33333 18.9173 3.33333 16.0387C3.33333 13.216 5.59467 11.3333 8 11.3333C10.4893 11.3333 12.6667 13.216 12.6667 16.04Z" fill="#375563"/>
<path d="M7.99999 17.3333C8.73637 17.3333 9.33332 16.7364 9.33332 16C9.33332 15.2636 8.73637 14.6667 7.99999 14.6667C7.26361 14.6667 6.66666 15.2636 6.66666 16C6.66666 16.7364 7.26361 17.3333 7.99999 17.3333Z" fill="#375563"/>
</svg>
