<svg width="26" height="26" viewBox="0 0 26 26" fill="none" xmlns="http://www.w3.org/2000/svg">
<path d="M24.9333 12.9213C24.9333 6.30332 19.5573 0.933319 12.9333 0.933319C6.30932 0.933319 0.933319 6.30332 0.933319 12.9213C0.933319 16.5663 2.58932 19.8513 5.18132 22.0563C5.20532 22.0803 5.22932 22.0803 5.22932 22.1043C5.44532 22.2723 5.66132 22.4403 5.90132 22.6083C6.02132 22.6803 6.11732 22.7748 6.23732 22.8708C8.22122 24.2137 10.5617 24.932 12.9573 24.9333C15.353 24.932 17.6934 24.2137 19.6773 22.8708C19.7973 22.7988 19.8933 22.7043 20.0133 22.6308C20.2293 22.4643 20.4693 22.2963 20.6853 22.1283C20.7093 22.1043 20.7333 22.1043 20.7333 22.0803C23.2773 19.8498 24.9333 16.5663 24.9333 12.9213ZM12.9333 23.4228C10.6773 23.4228 8.61332 22.7028 6.90932 21.5043C6.93332 21.3123 6.98132 21.1218 7.02932 20.9298C7.1728 20.4096 7.38252 19.91 7.65332 19.4433C7.91732 18.9873 8.22932 18.5793 8.61332 18.2193C8.97332 17.8593 9.40532 17.5248 9.83732 17.2608C10.2933 16.9968 10.7733 16.8048 11.3013 16.6608C11.8336 16.5183 12.3823 16.4461 12.9333 16.4463C14.5694 16.4339 16.1456 17.0616 17.3253 18.1953C17.8773 18.7473 18.3093 19.3948 18.6213 20.1378C18.7893 20.5698 18.9093 21.0253 18.9813 21.5043C17.2101 22.7496 15.0985 23.4194 12.9333 23.4228ZM9.26132 12.3228C9.05029 11.8385 8.94396 11.3151 8.94932 10.7868C8.94932 10.2603 9.04532 9.73232 9.26132 9.25232C9.47732 8.77232 9.76532 8.34182 10.1253 7.98182C10.4853 7.62182 10.9173 7.33532 11.3973 7.11932C11.8773 6.90332 12.4053 6.80732 12.9333 6.80732C13.4853 6.80732 13.9893 6.90332 14.4693 7.11932C14.9493 7.33532 15.3813 7.62332 15.7413 7.98182C16.1013 8.34182 16.3893 8.77382 16.6053 9.25232C16.8213 9.73232 16.9173 10.2603 16.9173 10.7868C16.9173 11.3388 16.8213 11.8428 16.6053 12.3213C16.3981 12.7949 16.1051 13.2261 15.7413 13.5933C15.374 13.9566 14.9428 14.249 14.4693 14.4558C13.4774 14.8626 12.3652 14.8626 11.3733 14.4558C10.8999 14.249 10.4687 13.9566 10.1013 13.5933C9.73719 13.2313 9.45128 12.7999 9.26132 12.3228ZM20.3973 20.2818C20.3973 20.2338 20.3733 20.2098 20.3733 20.1618C20.1377 19.4108 19.7898 18.6997 19.3413 18.0528C18.8925 17.4012 18.3414 16.8263 17.7093 16.3503C17.2264 15.9869 16.7029 15.6809 16.1493 15.4383C16.4 15.2706 16.6332 15.0782 16.8453 14.8638C17.2031 14.5106 17.5174 14.1158 17.7813 13.6878C18.3147 12.8153 18.5893 11.8093 18.5733 10.7868C18.5812 10.0301 18.4342 9.27968 18.1413 8.58182C17.8526 7.9093 17.437 7.29868 16.9173 6.78332C16.3971 6.27489 15.7867 5.86794 15.1173 5.58332C14.4184 5.2906 13.667 5.14409 12.9093 5.15282C12.1515 5.14456 11.4001 5.29158 10.7013 5.58482C10.0246 5.86596 9.41215 6.28191 8.90132 6.80732C8.39024 7.32477 7.98292 7.93525 7.70132 8.60582C7.40849 9.30368 7.26147 10.0541 7.26932 10.8108C7.26932 11.3388 7.34132 11.8423 7.48532 12.3213C7.62932 12.8253 7.82132 13.2813 8.08532 13.7118C8.32532 14.1438 8.66132 14.5278 9.02132 14.8878C9.23732 15.1038 9.47732 15.2953 9.74132 15.4623C9.18527 15.7099 8.66141 16.0242 8.18132 16.3983C7.55732 16.8783 7.00532 17.4528 6.54932 18.0768C6.09673 18.7213 5.74846 19.433 5.51732 20.1858C5.49332 20.2338 5.49332 20.2818 5.49332 20.3058C3.59732 18.3873 2.42132 15.7983 2.42132 12.9213C2.42132 7.14332 7.14932 2.41982 12.9333 2.41982C18.7173 2.41982 23.4453 7.14332 23.4453 12.9213C23.4422 15.6813 22.3463 18.3277 20.3973 20.2818Z" fill="#375563"/>
<path fill-rule="evenodd" clip-rule="evenodd" d="M0.683319 12.9213C0.683319 6.165 6.17149 0.683319 12.9333 0.683319C19.6951 0.683319 25.1833 6.165 25.1833 12.9213C25.1833 16.6253 23.5087 19.9611 20.9361 22.2348C20.9354 22.2359 20.9347 22.2369 20.934 22.2379C20.9041 22.2806 20.8689 22.3044 20.857 22.3123C20.8542 22.3142 20.8517 22.3159 20.8496 22.3172L20.8388 22.3257C20.7277 22.412 20.6111 22.498 20.4974 22.5816L20.4831 22.5921C20.3735 22.6727 20.2668 22.751 20.1659 22.8288L20.1553 22.837L20.1439 22.844C20.0976 22.8724 20.0544 22.9057 19.9984 22.9491L19.9967 22.9503C19.9458 22.9898 19.8834 23.0381 19.8121 23.0815C17.788 24.45 15.4009 25.182 12.9575 25.1833C10.5119 25.182 8.12242 24.4487 6.09718 23.0779L6.08893 23.0723L6.08115 23.066C6.02979 23.025 5.98896 22.9902 5.95322 22.9598C5.88715 22.9036 5.83844 22.8621 5.7727 22.8227L5.76516 22.8182L5.75795 22.8131C5.51278 22.6415 5.29261 22.4703 5.07781 22.3032L4.97932 22.2266V22.2126C2.3575 19.9629 0.683319 16.6247 0.683319 12.9213ZM12.9333 1.18332C6.44715 1.18332 1.18332 6.44163 1.18332 12.9213C1.18332 16.489 2.80399 19.7056 5.34308 21.8657C5.34562 21.8674 5.34888 21.8696 5.35299 21.8723C5.36419 21.8798 5.3963 21.9015 5.425 21.9398C5.6249 22.0952 5.82179 22.2472 6.03803 22.3988C6.13711 22.4595 6.23201 22.5399 6.31179 22.6075C6.33833 22.63 6.36319 22.6511 6.38597 22.6695C8.32669 23.9807 10.615 24.682 12.9573 24.6833C15.303 24.682 17.5946 23.9787 19.5372 22.6638L19.5485 22.6561C19.5939 22.6289 19.6369 22.5965 19.6923 22.5537L19.6984 22.549C19.7464 22.5117 19.8049 22.4665 19.8708 22.4251C19.9733 22.3463 20.0806 22.2674 20.1854 22.1903L20.2012 22.1787C20.2981 22.1075 20.3928 22.0377 20.4833 21.9684V21.967L20.5685 21.8923C23.0624 19.7058 24.6833 16.4891 24.6833 12.9213C24.6833 6.44163 19.4195 1.18332 12.9333 1.18332ZM12.9333 2.66982C7.28716 2.66982 2.67132 7.28162 2.67132 12.9213C2.67132 15.5753 3.6967 17.9793 5.37509 19.8184C5.61026 19.149 5.93641 18.5146 6.34473 17.9331L6.34743 17.9293C6.81662 17.2872 7.38488 16.6957 8.02827 16.2006C8.41007 15.9032 8.81865 15.6423 9.24856 15.4213C9.10622 15.3105 8.97153 15.1916 8.84454 15.0646C8.47958 14.6996 8.12583 14.2979 7.86941 13.838C7.59376 13.3874 7.39423 12.9121 7.24542 12.3917C7.09446 11.8889 7.01944 11.3621 7.01932 10.8121C7.0113 10.0217 7.16493 9.23798 7.47079 8.50909C7.76461 7.80941 8.18959 7.17234 8.72276 6.63234C9.257 6.08304 9.8974 5.64815 10.605 5.35412C11.3343 5.04815 12.1184 4.89457 12.9092 4.9028C13.7001 4.89408 14.4844 5.04718 15.2139 5.35273L15.2151 5.35325C15.9131 5.65003 16.5497 6.07438 17.0921 6.60453L17.0934 6.6058C17.6358 7.14377 18.0696 7.78117 18.371 8.48319L18.3719 8.48508C18.6775 9.21338 18.8311 9.99641 18.8233 10.7862C18.8395 11.8549 18.5521 12.9062 17.9946 13.8182C17.7205 14.2627 17.3936 14.6737 17.022 15.0407C16.8995 15.1644 16.7704 15.2812 16.6352 15.3906C17.065 15.6066 17.4748 15.861 17.8596 16.1506C18.5131 16.6426 19.083 17.237 19.547 17.9107C19.9517 18.4945 20.277 19.1289 20.5149 19.7973C22.2327 17.9246 23.1924 15.4725 23.1953 12.921C23.1952 7.28147 18.5794 2.66982 12.9333 2.66982ZM20.1264 20.21C19.8985 19.4928 19.5646 18.8137 19.1359 18.1952C18.7023 17.5658 18.1695 17.0098 17.5589 16.55C17.0915 16.1983 16.5848 15.9021 16.049 15.6673L15.6311 15.4842L16.0103 15.2305C16.247 15.0722 16.4673 14.8904 16.6676 14.6879L16.6697 14.6859C17.0132 14.3468 17.3148 13.9678 17.5682 13.557C18.0768 12.725 18.3386 11.7657 18.3233 10.7907L18.3232 10.7842C18.3307 10.0619 18.1906 9.3456 17.9112 8.67942C17.6352 8.03708 17.2382 7.45383 16.7419 6.96147C16.2443 6.47523 15.6604 6.08598 15.0201 5.81366C14.3529 5.53429 13.6355 5.39447 12.9122 5.4028L12.9066 5.40287C12.183 5.39498 11.4654 5.53532 10.7981 5.81534C10.1526 6.08347 9.56775 6.4805 9.08056 6.98159L9.07919 6.983C8.59053 7.47775 8.20107 8.06146 7.93182 8.70261C7.6522 9.36902 7.51181 10.0856 7.51931 10.8082L7.51933 10.8108C7.51932 11.3158 7.58813 11.795 7.72473 12.2493L7.72572 12.2526C7.86435 12.7378 8.04783 13.1725 8.29844 13.5811L8.30406 13.5903C8.52744 13.9924 8.84431 14.3573 9.1981 14.711C9.40074 14.9137 9.62622 15.0937 9.87497 15.251L10.2697 15.5007L9.84299 15.6907C9.30548 15.93 8.79908 16.2338 8.33499 16.5955L8.33375 16.5965C7.73003 17.0609 7.19495 17.6174 6.75256 18.2224C6.31571 18.8449 5.97952 19.5322 5.75631 20.2592L5.75021 20.279L5.74358 20.2923C5.74342 20.2944 5.74332 20.298 5.74332 20.3058V20.9144L5.3155 20.4816C3.37658 18.5196 2.17132 15.8687 2.17132 12.9213C2.17132 7.00502 7.01148 2.16982 12.9333 2.16982C18.8552 2.16982 23.6953 7.00502 23.6953 12.9213C23.6921 15.7473 22.57 18.4574 20.5743 20.4584L20.1473 20.8865V20.2984C20.1423 20.2834 20.1316 20.2516 20.1264 20.21ZM12.9333 7.05732C12.4349 7.05732 11.9428 7.148 11.4999 7.3473C11.0441 7.55242 10.6381 7.82254 10.3021 8.1586C9.96558 8.49511 9.69413 8.89974 9.4893 9.35491C9.28999 9.79783 9.19932 10.29 9.19932 10.7868V10.7894C9.19432 11.2824 9.29354 11.7709 9.49051 12.223L9.4937 12.2303C9.67085 12.6751 9.93739 13.0777 10.2773 13.4158C10.6221 13.7567 11.0266 14.0312 11.4708 14.2256C12.4004 14.606 13.4422 14.606 14.3718 14.2256C14.8157 14.0313 15.22 13.757 15.5647 13.4164C15.9064 13.0713 16.1815 12.666 16.3763 12.2211L16.3774 12.2185C16.5769 11.7766 16.6673 11.3085 16.6673 10.7868C16.6673 10.29 16.5767 9.79783 16.3773 9.35491C16.1724 8.90094 15.9009 8.49492 15.5646 8.15863C15.2281 7.82369 14.822 7.55219 14.3667 7.3473C13.9232 7.14771 13.4549 7.05732 12.9333 7.05732ZM11.2947 6.89134C11.8118 6.65863 12.3757 6.55732 12.9333 6.55732C13.5157 6.55732 14.0554 6.65893 14.5719 6.89134C15.0765 7.11839 15.5342 7.42277 15.9177 7.80467C16.3014 8.18832 16.6062 8.64656 16.8332 9.14946C17.0659 9.66654 17.1673 10.2307 17.1673 10.7868C17.1673 11.3687 17.0659 11.9081 16.8338 12.4228C16.6142 12.9241 16.3041 13.3805 15.9189 13.7693L15.9171 13.7711C15.5279 14.156 15.071 14.4658 14.5694 14.6849L14.5642 14.6872C13.5115 15.1189 12.3312 15.1188 11.2785 14.6871L11.2732 14.685C10.7716 14.4658 10.3147 14.156 9.92553 13.7711C9.53826 13.3861 9.23327 12.9266 9.03054 12.419C8.80666 11.9038 8.6938 11.3473 8.69932 10.7856C8.69947 10.2298 8.80083 9.66642 9.03334 9.14973C9.26051 8.6449 9.56505 8.18853 9.94854 7.80504C10.3325 7.42109 10.7906 7.11822 11.2947 6.89134ZM17.1503 18.3738C16.0178 17.2864 14.5053 16.6844 12.9352 16.6963L12.9332 16.6963C12.4042 16.6961 11.8775 16.7654 11.3665 16.9022C10.8576 17.041 10.3991 17.2248 9.96513 17.4757C9.54966 17.7299 9.13447 18.0517 8.7901 18.3961L8.78439 18.4018C8.42041 18.743 8.12302 19.131 7.86968 19.5686C7.61012 20.0159 7.40888 20.4949 7.27112 20.9934C7.23629 21.1327 7.20401 21.262 7.18055 21.3881C8.81986 22.5056 10.7875 23.1727 12.9329 23.1728C14.9947 23.1696 17.0068 22.5473 18.7093 21.3885C18.6387 20.9842 18.532 20.5986 18.3895 20.2315C18.0901 19.5195 17.677 18.901 17.1503 18.3738ZM12.9325 16.1963C14.6335 16.1837 16.272 16.8364 17.4985 18.0151L17.5021 18.0185C18.0778 18.5942 18.5277 19.2691 18.8518 20.041L18.8544 20.0472C19.0294 20.4972 19.1539 20.9707 19.2285 21.4672L19.2515 21.62L19.1251 21.7088C17.3119 22.9836 15.1502 23.6693 12.9337 23.6728C10.6232 23.6728 8.50904 22.9351 6.76549 21.7088L6.64262 21.6224L6.66125 21.4733C6.68678 21.269 6.73689 21.0687 6.78312 20.8838L6.78825 20.8633C6.9374 20.3226 7.15547 19.8033 7.43696 19.3181C7.71095 18.8448 8.03673 18.4178 8.43939 18.0397C8.81372 17.6659 9.26041 17.3204 9.70696 17.0475L9.71202 17.0444C10.1891 16.7682 10.6896 16.5685 11.2355 16.4196L11.2366 16.4193C11.7897 16.2712 12.3599 16.1962 12.9325 16.1963Z" fill="#375563"/>
</svg>
