<svg width="23" height="25" viewBox="0 0 23 25" fill="none" xmlns="http://www.w3.org/2000/svg">
<path d="M9.88433 24.1491C9.35491 24.1491 8.89923 23.9691 8.51727 23.6091C8.13531 23.2491 7.90472 22.8091 7.8255 22.2891L7.5608 20.3091C7.3059 20.2091 7.0659 20.0891 6.8408 19.9491C6.6157 19.8091 6.39492 19.6591 6.17845 19.4991L4.35492 20.2791C3.86472 20.4991 3.37452 20.5191 2.88433 20.3391C2.39413 20.1591 2.01178 19.8391 1.73727 19.3791L0.354916 16.9191C0.0804062 16.4591 0.00197508 15.9691 0.119622 15.4491C0.237269 14.9291 0.501975 14.4991 0.91374 14.1591L2.47256 12.9591C2.45296 12.8191 2.44315 12.6839 2.44315 12.5535V11.7435C2.44315 11.6139 2.45296 11.4791 2.47256 11.3391L0.91374 10.1391C0.501975 9.79914 0.237269 9.36914 0.119622 8.84914C0.00197508 8.32914 0.0804062 7.83914 0.354916 7.37914L1.73727 4.91914C2.01178 4.45914 2.39413 4.13914 2.88433 3.95914C3.37452 3.77914 3.86472 3.79914 4.35492 4.01914L6.17845 4.79914C6.39413 4.63914 6.61962 4.48914 6.85492 4.34914C7.09021 4.20914 7.3255 4.08914 7.5608 3.98914L7.8255 2.00914C7.90393 1.48914 8.13452 1.04914 8.51727 0.689139C8.90001 0.329139 9.3557 0.149139 9.88433 0.149139H12.649C13.1784 0.149139 13.6345 0.329139 14.0173 0.689139C14.4 1.04914 14.6302 1.48914 14.7079 2.00914L14.9726 3.98914C15.2275 4.08914 15.4679 4.20914 15.6937 4.34914C15.9196 4.48914 16.14 4.63914 16.3549 4.79914L18.1784 4.01914C18.6686 3.79914 19.1588 3.77914 19.649 3.95914C20.1392 4.13914 20.5216 4.45914 20.7961 4.91914L22.1784 7.37914C22.453 7.83914 22.5314 8.32914 22.4137 8.84914C22.2961 9.36914 22.0314 9.79914 21.6196 10.1391L20.0608 11.3391C20.0804 11.4791 20.0902 11.6143 20.0902 11.7447V12.5535C20.0902 12.6839 20.0706 12.8191 20.0314 12.9591L21.5902 14.1591C22.002 14.4991 22.2667 14.9291 22.3843 15.4491C22.502 15.9691 22.4235 16.4591 22.149 16.9191L20.7373 19.3791C20.4628 19.8391 20.0804 20.1591 19.5902 20.3391C19.1 20.5191 18.6098 20.4991 18.1196 20.2791L16.3549 19.4991C16.1392 19.6591 15.9137 19.8091 15.6784 19.9491C15.4431 20.0891 15.2079 20.2091 14.9726 20.3091L14.7079 22.2891C14.6294 22.8091 14.3992 23.2491 14.0173 23.6091C13.6353 23.9691 13.1792 24.1491 12.649 24.1491H9.88433ZM11.3255 16.3491C12.4628 16.3491 13.4333 15.9391 14.2373 15.1191C15.0412 14.2991 15.4432 13.3091 15.4432 12.1491C15.4432 10.9891 15.0412 9.99914 14.2373 9.17914C13.4333 8.35914 12.4628 7.94914 11.3255 7.94914C10.1686 7.94914 9.19296 8.35914 8.39845 9.17914C7.60394 9.99914 7.20707 10.9891 7.20786 12.1491C7.20864 13.3091 7.6059 14.2991 8.39962 15.1191C9.19335 15.9391 10.1686 16.3491 11.3255 16.3491Z" fill="#375563"/>
</svg>
